<svg xmlns="http://www.w3.org/2000/svg" viewBox="0 0 202.41 175.9"><defs><style>.cls-1{isolation:isolate;}.cls-2{fill:#b6cbd8;}.cls-3{fill:#e8ebf0;}.cls-10,.cls-4{fill:#e7a05b;}.cls-5{fill:#d4272e;}.cls-6{fill:#de5a50;}.cls-7{fill:#eabe88;}.cls-8{fill:#ece0c6;}.cls-9{fill:#fff;}.cls-10,.cls-17{mix-blend-mode:multiply;}.cls-11{fill:#c9c6b5;}.cls-12{fill:#d7d4bc;}.cls-13{fill:#fffdf0;}.cls-14{fill:#c9c5ae;opacity:0.3;}.cls-15{fill:#c94d2f;}.cls-16,.cls-17,.cls-18{fill:#eb6830;}.cls-17,.cls-23{opacity:0.7;}.cls-18{mix-blend-mode:screen;}.cls-19{fill:#9a5d2c;}.cls-20{fill:#f1bf78;}.cls-21{fill:#d2965e;}.cls-22{fill:#ad8355;}.cls-24{fill:#b15d2e;}.cls-25{fill:#965129;}</style></defs><g class="cls-1"><g id="Layer_2" data-name="Layer 2"><path class="cls-2" d="M142.85,99.78a6.18,6.18,0,0,0,.08-1.55,13.41,13.41,0,0,0-.26-1.52C138.86,90,118.32,84.85,93.54,84.85c-25.12,0-45.89,5.28-49.27,12.15a3.65,3.65,0,0,0-.21,2.65c-.85,3,2.13,6.06,4.07,7.61,7.77,5.21,25.18,8.84,45.41,8.84,23.1,0,42.51-4.73,48.13-11.13h0a7,7,0,0,0,.43-.71,7.27,7.27,0,0,0,.83-3.89C142.91,100.17,142.88,100,142.85,99.78Z"/><path class="cls-3" d="M93.32,86.46c26.6,0,48.17,5.6,48.17,12.51s-21.57,12.52-48.17,12.52S45.15,105.89,45.15,99,66.72,86.46,93.32,86.46Z"/><path class="cls-3" d="M93.32,114.4c-25.66,0-46.62-5.52-48.08-12.47a14.94,14.94,0,0,0,2.89,2.82c7.77,4.92,25.18,8.35,45.41,8.35,22,0,40.66-4,47.24-9.67C136.85,109.66,117.1,114.4,93.32,114.4Z"/><path class="cls-2" d="M123.84,96.63a7.38,7.38,0,0,0-.16-.94c-2.36-4.17-15.07-7.35-30.39-7.35-15.55,0-28.4,3.27-30.49,7.52-.91,1.84,1.11,3.83,2.38,4.8,4.82,3,15.59,5.16,28.11,5.16,14.28,0,26.3-2.76,29.77-6.5h0a3,3,0,0,0,.27-.42A4,4,0,0,0,123.84,96.63Z"/><path class="cls-3" d="M93.15,104.83c-16.46,0-29.81-3.26-29.81-7.28s13.35-7.28,29.81-7.28S123,93.53,123,97.55,109.61,104.83,93.15,104.83Z"/><path class="cls-4" d="M101.49,97.84c.49.16.81-.2.89-.64a10.2,10.2,0,0,0-.33-3.56,15.77,15.77,0,0,1-.15-2.38c0-.63.1-1.25.11-1.88,0-.32-.07-.86-.49-.84-.19,0-.39.2-.54.3-.48.06-1,0-1.44.07a12.49,12.49,0,0,0-1.91.32,7,7,0,0,1-3.4.06c-1.71-.57-2.83-2.94-4.86-2.49a14.35,14.35,0,0,0-1.44.49,9.31,9.31,0,0,1-1.88.5c-1.18.15-2.4-.71-3.42-1.2a4.05,4.05,0,0,0-1.44-.42,3,3,0,0,0-1.56.38c-.46.23-.89.51-1.37.7a4,4,0,0,1-1.89.22,21,21,0,0,1-3.67-1.21,4.77,4.77,0,0,0-3.43.09,5.17,5.17,0,0,0-.51.18c-.22.1-.16.69-.16.87,0,.52.13,1,.16,1.56.06,1,0,2,0,3,0,.65,0,1.29,0,1.94A5.3,5.3,0,0,0,69,95.33a.89.89,0,0,0,.82.7c.34,0,.63-.37.9-.5a1.3,1.3,0,0,1,.78,0,2.48,2.48,0,0,0,.86,0h0a4.94,4.94,0,0,0,1,.11,16.76,16.76,0,0,0,3.42-.77,4.8,4.8,0,0,1,1.81-.07,5.89,5.89,0,0,1,1.81.71,9.27,9.27,0,0,0,3.33,1.21,6.14,6.14,0,0,0,3.07-.59,15.15,15.15,0,0,1,1.46-.56,2.86,2.86,0,0,1,1.95.21c1.05.44,2,1.07,3.1,1.45a11.53,11.53,0,0,0,3.4.51A19.93,19.93,0,0,0,99,97.6l.68-.08c.3,0,.6,0,.89.06A3.57,3.57,0,0,1,101.49,97.84Z"/><path class="cls-5" d="M94.26,96.94A11.44,11.44,0,0,1,91,95.67,4.24,4.24,0,0,0,88,95c-1.06.32-2,.89-3.11,1.12a5.55,5.55,0,0,1-3.61-.64A9,9,0,0,0,78,94.21a8.79,8.79,0,0,0-3.31.65,4.64,4.64,0,0,1-2.5.22,4,4,0,0,0-1.38-.23,1.28,1.28,0,0,0-.89.31,1.07,1.07,0,0,1-.35.23,2.15,2.15,0,0,1-.1-.27,10.37,10.37,0,0,1-.24-3.24c0-.87.13-1.73.17-2.6a5.58,5.58,0,0,0-.07-.91,7.29,7.29,0,0,1-.05-1.32l.06,0a4.19,4.19,0,0,1,.7-.42,2.45,2.45,0,0,1,.56-.18,6.06,6.06,0,0,1,2.22.23c1.08.31,2.06.88,3.16,1.14A4.74,4.74,0,0,0,79,87.45a11.87,11.87,0,0,1,1.41-.63,2.83,2.83,0,0,1,1.92.16,12,12,0,0,0,3.11,1.13,7.84,7.84,0,0,0,3.17-.72,2.59,2.59,0,0,1,1.73-.22,3.85,3.85,0,0,1,1.36.9A9.11,9.11,0,0,0,94,89.8a6.1,6.1,0,0,0,3.49.14c.67-.13,1.31-.38,2-.5l.64-.13c.33,0,.66-.07,1-.14.15,0,.28-.17.43-.21a3.05,3.05,0,0,1-.14.63,8,8,0,0,0-.11,1.7,16.53,16.53,0,0,0,.36,3.21,7.36,7.36,0,0,1,.12,2.34c0,.16-.1.48-.32.4a2.08,2.08,0,0,0-.56-.13,4.34,4.34,0,0,0-.51,0,17,17,0,0,0-2.37,0A16.75,16.75,0,0,1,94.26,96.94Z"/><path class="cls-6" d="M101.44,97.24c.22.08.3-.24.32-.4a7.36,7.36,0,0,0-.12-2.34l-.09-.47c-.37,0-.74.07-1.11.13a19.56,19.56,0,0,1-3.31.4A9.4,9.4,0,0,1,94,93.93c-.48-.18-.94-.38-1.4-.59A10.66,10.66,0,0,0,91,92.62a6.09,6.09,0,0,0-2.93.23,6,6,0,0,1-1.4.16,1.79,1.79,0,0,1-.76-.16c-.93-.5.24-1.68.69-2,.85-.7,2.17-1.42,3.29-1a12.7,12.7,0,0,1,2.23,1.71,4.17,4.17,0,0,0,1.59.61,10.12,10.12,0,0,0,1.9.19,42.18,42.18,0,0,0,5.71-.92v-.13a8,8,0,0,1,.11-1.7,3.05,3.05,0,0,0,.14-.63c-.15,0-.28.18-.43.21-.33.07-.66.09-1,.14l-.64.13c-.68.12-1.32.37-2,.5A6.1,6.1,0,0,1,94,89.8a9.11,9.11,0,0,1-2.27-1.73,3.85,3.85,0,0,0-1.36-.9,2.59,2.59,0,0,0-1.73.22,7.84,7.84,0,0,1-3.17.72A12,12,0,0,1,82.35,87a2.83,2.83,0,0,0-1.92-.16,11.87,11.87,0,0,0-1.41.63,4.74,4.74,0,0,1-3.08.33c-1.1-.26-2.08-.83-3.16-1.14a6.06,6.06,0,0,0-2.22-.23,2.45,2.45,0,0,0-.56.18,4.19,4.19,0,0,0-.7.42l-.06,0a7.58,7.58,0,0,0,0,1.26,12.62,12.62,0,0,1,1.63.09,3.31,3.31,0,0,1,.83.17,9.13,9.13,0,0,1,1.17.68,5,5,0,0,0,2.37,1,7.93,7.93,0,0,0,1.45-.15c1.07-.18,2.43-1.11,3.5-1.31a5.71,5.71,0,0,1,3.7,1c.37.26.7.76.29,1.11s-1.22.07-1.66,0c-1.94-.31-3.74,1-5.7.86A12.16,12.16,0,0,1,74,91.12a12,12,0,0,0-2.88-.67,4.74,4.74,0,0,0-1.85.25c0,.18,0,.35,0,.53a4.52,4.52,0,0,1,.53.06c.61.1,1.23.24,1.83.39a16.45,16.45,0,0,1,2,.52c.23.09.91.34.68.7a1,1,0,0,1-.56.35,2.21,2.21,0,0,1-.85,0,12.73,12.73,0,0,1-2.17-.69,9.21,9.21,0,0,0-1-.31,3.4,3.4,0,0,0-.46-.06,9.5,9.5,0,0,0,.25,2.92,2.15,2.15,0,0,0,.1.27,1.07,1.07,0,0,0,.35-.23,1.28,1.28,0,0,1,.89-.31,4,4,0,0,1,1.38.23,4.64,4.64,0,0,0,2.5-.22A8.79,8.79,0,0,1,78,94.21a9,9,0,0,1,3.29,1.3,5.55,5.55,0,0,0,3.61.64c1.08-.23,2-.8,3.11-1.12a4.24,4.24,0,0,1,3.07.64,11.44,11.44,0,0,0,3.22,1.27,16.75,16.75,0,0,0,3.74.21,17,17,0,0,1,2.37,0,4.34,4.34,0,0,1,.51,0A2.08,2.08,0,0,1,101.44,97.24ZM82.23,93.62a5,5,0,0,1-1.31-.3,1.44,1.44,0,0,1-.78-.55A.65.65,0,0,1,80.3,92a2,2,0,0,1,1.54-.45,5.1,5.1,0,0,1,2.07.44,1.31,1.31,0,0,1,.58.54.64.64,0,0,1,.14.43.59.59,0,0,1-.37.45A3.89,3.89,0,0,1,82.23,93.62Z"/><path class="cls-7" d="M69.32,87.56q.32-.07.63-.12a6.66,6.66,0,0,1,2.84.27,5.16,5.16,0,0,1,1.29.58c.4.25.71.67,1.18.82a4.9,4.9,0,0,0,3.13-.3,6.43,6.43,0,0,1,2.87-.7,8.38,8.38,0,0,1,2.63,1,3.61,3.61,0,0,0,1.41.38,4.77,4.77,0,0,0,1.63-.32,4.42,4.42,0,0,1,3-.39,11.79,11.79,0,0,1,2.37,1.61,6.6,6.6,0,0,0,3.51.8,21.7,21.7,0,0,0,5.45-.55,6.48,6.48,0,0,1,.11-1.08,3.05,3.05,0,0,0,.14-.63c-.15,0-.28.18-.43.21-.33.07-.66.09-1,.14l-.64.13c-.68.12-1.32.37-2,.5A6.1,6.1,0,0,1,94,89.8a9.11,9.11,0,0,1-2.27-1.73,3.85,3.85,0,0,0-1.36-.9,2.59,2.59,0,0,0-1.73.22,7.84,7.84,0,0,1-3.17.72A12,12,0,0,1,82.35,87a2.83,2.83,0,0,0-1.92-.16,11.87,11.87,0,0,0-1.41.63,4.74,4.74,0,0,1-3.08.33c-1.1-.26-2.08-.83-3.16-1.14a6.06,6.06,0,0,0-2.22-.23,2.45,2.45,0,0,0-.56.18,4.19,4.19,0,0,0-.7.42l-.06,0c0,.18,0,.35,0,.53Z"/><path class="cls-8" d="M70.29,86.91a6.55,6.55,0,0,1,2.77.43,11.29,11.29,0,0,1,1.34.58,5.88,5.88,0,0,0,1.53.63A5.43,5.43,0,0,0,79,88.06a6.11,6.11,0,0,1,3-.82,14.47,14.47,0,0,1,2.76,1,4.69,4.69,0,0,0,3-.16,4.93,4.93,0,0,1,2.68-.3,4.7,4.7,0,0,1,1.91,1.36,4.22,4.22,0,0,0,2.31,1.39,8,8,0,0,0,1.83,0l1.76-.16a14.44,14.44,0,0,0,3.08-.49c0-.1,0-.2,0-.3a3.05,3.05,0,0,0,.14-.63c-.15,0-.28.18-.43.21-.33.07-.66.09-1,.14l-.64.13c-.68.12-1.32.37-2,.5A6.1,6.1,0,0,1,94,89.8a9.11,9.11,0,0,1-2.27-1.73,3.85,3.85,0,0,0-1.36-.9,2.59,2.59,0,0,0-1.73.22,7.84,7.84,0,0,1-3.17.72A12,12,0,0,1,82.35,87a2.83,2.83,0,0,0-1.92-.16,11.87,11.87,0,0,0-1.41.63,4.74,4.74,0,0,1-3.08.33c-1.1-.26-2.08-.83-3.16-1.14a6.06,6.06,0,0,0-2.22-.23,2.45,2.45,0,0,0-.56.18,4.19,4.19,0,0,0-.7.42l-.06,0v.09A4.19,4.19,0,0,1,70.29,86.91Z"/><path class="cls-7" d="M101.44,97.24c.22.08.3-.24.32-.4a6.06,6.06,0,0,0,0-1.35,10.41,10.41,0,0,1-1.76.19,21,21,0,0,1-4-.3,13.84,13.84,0,0,1-2.89-.83,13.79,13.79,0,0,0-3.23-1.08c-2-.24-3.55,1-5.41,1.3a4.54,4.54,0,0,1-2.69-.41c-.91-.42-1.73-1-2.65-1.41a4.29,4.29,0,0,0-1.48-.4,3,3,0,0,0-1.3.3,12.15,12.15,0,0,1-2.29,1.05,3.83,3.83,0,0,1-1.84-.13c-.69-.19-1.37-.41-2.06-.57a9.88,9.88,0,0,0-1-.19,7.45,7.45,0,0,0,.26,2.11,2.15,2.15,0,0,0,.1.27,1.07,1.07,0,0,0,.35-.23,1.28,1.28,0,0,1,.89-.31,4,4,0,0,1,1.38.23,4.64,4.64,0,0,0,2.5-.22A8.79,8.79,0,0,1,78,94.21a9,9,0,0,1,3.29,1.3,5.55,5.55,0,0,0,3.61.64c1.08-.23,2-.8,3.11-1.12a4.24,4.24,0,0,1,3.07.64,11.44,11.44,0,0,0,3.22,1.27,16.75,16.75,0,0,0,3.74.21,17,17,0,0,1,2.37,0,4.34,4.34,0,0,1,.51,0A2.08,2.08,0,0,1,101.44,97.24Z"/><path class="cls-8" d="M101.44,97.24c.22.08.3-.24.32-.4a3.14,3.14,0,0,0,0-.45,13.24,13.24,0,0,1-1.78.06l-3.33-.06a9.26,9.26,0,0,1-3.14-.45c-.9-.35-1.71-.89-2.58-1.3a4.48,4.48,0,0,0-3-.41c-1,.22-1.86.69-2.8,1a4.17,4.17,0,0,1-2.83,0c-1-.4-1.93-1.13-3-1.58a3.55,3.55,0,0,0-1.73-.34,4.8,4.8,0,0,0-1.51.5,6.5,6.5,0,0,1-3.07,1,8.73,8.73,0,0,1-1.88-.45,8.5,8.5,0,0,0-2-.36,6.25,6.25,0,0,0,.21,1.13,2.15,2.15,0,0,0,.1.27,1.07,1.07,0,0,0,.35-.23,1.28,1.28,0,0,1,.89-.31,4,4,0,0,1,1.38.23,4.64,4.64,0,0,0,2.5-.22A8.79,8.79,0,0,1,78,94.21a9,9,0,0,1,3.29,1.3,5.55,5.55,0,0,0,3.61.64c1.08-.23,2-.8,3.11-1.12a4.24,4.24,0,0,1,3.07.64,11.44,11.44,0,0,0,3.22,1.27,16.75,16.75,0,0,0,3.74.21,17,17,0,0,1,2.37,0,4.34,4.34,0,0,1,.51,0A2.08,2.08,0,0,1,101.44,97.24Z"/><path class="cls-9" d="M96.73,92.23a5.18,5.18,0,0,0,1.82-.33,4.15,4.15,0,0,1,1.86-.36c.16,0,.06-.23,0-.26-1.22-.42-2.48,0-3.74-.09a12.38,12.38,0,0,1-3.76-.8c-1.08-.47-1.76-1.55-2.9-1.93a2.85,2.85,0,0,0-1.73.09c-.31.1-.61.23-.91.35a3.92,3.92,0,0,0-.79.34c-.13.09,0,.29.14.31a6.25,6.25,0,0,0,1.77-.2,2.56,2.56,0,0,1,1.86.25,18.54,18.54,0,0,0,2.79,1.94,8.13,8.13,0,0,0,1.56.41A13,13,0,0,0,96.73,92.23Z"/><path class="cls-9" d="M83.68,89.82a.29.29,0,0,0,.31-.31.12.12,0,0,0,.09-.14c0-.56-.74-.8-1.21-.84a.26.26,0,0,0-.28.28.89.89,0,0,0,.08.33.65.65,0,0,0,.11.22l.07.08A1.14,1.14,0,0,0,83.68,89.82Z"/><path class="cls-10" d="M87.49,95.81a11.58,11.58,0,0,0-3.2-2,5.86,5.86,0,0,0-3.63-.24,4,4,0,0,1-1.41.17A3.87,3.87,0,0,1,78,93.41c-.88-.4-1.65-1-2.49-1.43a5.7,5.7,0,0,0-1.43-.57c-.26-.07-.53-.11-.8-.16A11.55,11.55,0,0,0,71,91a1.47,1.47,0,0,0-.8.17c-.1.08-.1.31-.11.43a5.61,5.61,0,0,0,0,.58c0,.28.06.59,0,.87-.07.65-.14,1.29-.24,1.93L69.71,96h.07c.34,0,.63-.37.9-.5a1.3,1.3,0,0,1,.78,0,2.48,2.48,0,0,0,.86,0h0a4.94,4.94,0,0,0,1,.11,16.76,16.76,0,0,0,3.42-.77,4.8,4.8,0,0,1,1.81-.07,5.89,5.89,0,0,1,1.81.71,9.27,9.27,0,0,0,3.33,1.21,6.14,6.14,0,0,0,3.07-.59Z"/><path class="cls-4" d="M91,95.36c.51,0,.71-.41.66-.87a10.34,10.34,0,0,0-1.34-3.31A14.55,14.55,0,0,1,89.47,89c-.19-.61-.27-1.23-.44-1.83-.09-.31-.32-.8-.72-.66-.17.06-.31.3-.42.44-.45.19-.91.33-1.36.49a11.2,11.2,0,0,0-1.74.85,6.85,6.85,0,0,1-3.24,1c-1.8,0-3.56-2-5.37-1A13.24,13.24,0,0,0,75,89.2a9.44,9.44,0,0,1-1.66,1c-1.09.49-2.5,0-3.62-.15a4.2,4.2,0,0,0-1.5,0,3,3,0,0,0-1.38.82c-.38.35-.71.74-1.11,1.07a4,4,0,0,1-1.75.75,21.68,21.68,0,0,1-3.86-.09,4.78,4.78,0,0,0-3.26,1.08,4.35,4.35,0,0,0-.43.32c-.18.16,0,.71.1.88.16.5.42.95.6,1.44.34.93.59,1.91.88,2.86.18.62.39,1.24.6,1.85a5.84,5.84,0,0,0,.56,1.34.87.87,0,0,0,1,.42c.32-.09.49-.53.71-.74a1.37,1.37,0,0,1,.75-.21,2.38,2.38,0,0,0,.82-.26h0a3.86,3.86,0,0,0,.94-.16,15.86,15.86,0,0,0,3-1.73,4.82,4.82,0,0,1,1.72-.59,5.72,5.72,0,0,1,1.93.16,9.39,9.39,0,0,0,3.54.19A6.11,6.11,0,0,0,76.34,98c.41-.33.81-.66,1.25-1a2.79,2.79,0,0,1,1.92-.36c1.14.11,2.23.44,3.39.48a11.2,11.2,0,0,0,3.4-.5,17.27,17.27,0,0,0,2.18-.8l.62-.28L90,95.4A3.73,3.73,0,0,1,91,95.36Z"/><path class="cls-5" d="M83.8,96.59a11.43,11.43,0,0,1-3.45-.27,4.15,4.15,0,0,0-3.12.28c-.92.6-1.69,1.43-2.66,2a5.62,5.62,0,0,1-3.64.43,8.75,8.75,0,0,0-3.52-.29,8.57,8.57,0,0,0-3,1.58,4.66,4.66,0,0,1-2.33.93,4.12,4.12,0,0,0-1.39.18A1.23,1.23,0,0,0,60,102a1,1,0,0,1-.27.31,1.84,1.84,0,0,1-.17-.22,10,10,0,0,1-1.17-3c-.23-.84-.38-1.69-.6-2.53a4.8,4.8,0,0,0-.32-.85A7.21,7.21,0,0,1,57,94.37l0-.05a3.92,3.92,0,0,1,.55-.6,2.27,2.27,0,0,1,.48-.33,6,6,0,0,1,2.2-.43c1.12,0,2.22.24,3.35.17a4.74,4.74,0,0,0,2.85-1.2,10.21,10.21,0,0,1,1.17-1,2.89,2.89,0,0,1,1.88-.41,11.87,11.87,0,0,0,3.31.18,7.78,7.78,0,0,0,2.82-1.6,2.62,2.62,0,0,1,1.59-.72,4,4,0,0,1,1.57.47,8.63,8.63,0,0,0,2.67,1A6.16,6.16,0,0,0,84.86,89c.6-.32,1.14-.75,1.75-1.06l.58-.31c.3-.15.61-.26.9-.42.14-.08.22-.24.35-.33a3.72,3.72,0,0,1,.06.64,7.84,7.84,0,0,0,.38,1.66,16.59,16.59,0,0,0,1.27,3,7.43,7.43,0,0,1,.8,2.21c0,.16,0,.49-.19.48a1.87,1.87,0,0,0-.58,0,4.42,4.42,0,0,0-.48.15,17.48,17.48,0,0,0-2.26.72A16.36,16.36,0,0,1,83.8,96.59Z"/><path class="cls-6" d="M90.76,94.81c.23,0,.22-.32.19-.48a7.43,7.43,0,0,0-.8-2.21l-.22-.42q-.51.21-1,.45a19.84,19.84,0,0,1-3.06,1.34,9.58,9.58,0,0,1-3.2.31c-.5,0-1-.09-1.51-.16a11.31,11.31,0,0,0-1.75-.22,6,6,0,0,0-2.74,1.07,6,6,0,0,1-1.3.56,1.63,1.63,0,0,1-.76.06c-1-.2-.27-1.67.06-2.16.61-.92,1.66-2,2.87-1.88a13,13,0,0,1,2.63,1,3.91,3.91,0,0,0,1.7.12,10,10,0,0,0,1.87-.37,41.6,41.6,0,0,0,5.2-2.53l0-.13a7.84,7.84,0,0,1-.38-1.66,3.72,3.72,0,0,0-.06-.64c-.13.09-.21.25-.35.33-.29.16-.6.27-.9.42l-.58.31c-.61.31-1.15.74-1.75,1.06a6.16,6.16,0,0,1-3.39.87,8.63,8.63,0,0,1-2.67-1,4,4,0,0,0-1.57-.47,2.62,2.62,0,0,0-1.59.72,7.78,7.78,0,0,1-2.82,1.6,11.87,11.87,0,0,1-3.31-.18,2.89,2.89,0,0,0-1.88.41,10.21,10.21,0,0,0-1.17,1,4.74,4.74,0,0,1-2.85,1.2c-1.13.07-2.23-.19-3.35-.17a6,6,0,0,0-2.2.43,2.27,2.27,0,0,0-.48.33,3.92,3.92,0,0,0-.55.6l0,.05a7,7,0,0,0,.4,1.2c.52-.15,1-.29,1.58-.39a3.49,3.49,0,0,1,.85-.07,8.71,8.71,0,0,1,1.32.31,4.89,4.89,0,0,0,2.54.22A7.9,7.9,0,0,0,65,95.08c1-.48,2-1.76,3-2.27a5.77,5.77,0,0,1,3.85-.08c.42.15.88.53.6,1s-1.15.42-1.59.48c-1.95.27-3.31,2-5.21,2.48a12,12,0,0,1-2.93.23,12.14,12.14,0,0,0-3,.19,4.64,4.64,0,0,0-1.7.78l.12.51a4.71,4.71,0,0,1,.52-.09c.62-.09,1.25-.13,1.87-.16a15.46,15.46,0,0,1,2-.07c.25,0,1,.06.85.47A1,1,0,0,1,63,99a2.31,2.31,0,0,1-.81.25,13.36,13.36,0,0,1-2.28,0,9.37,9.37,0,0,0-1.06,0,1.85,1.85,0,0,0-.46.08,9.18,9.18,0,0,0,1.09,2.72,1.84,1.84,0,0,0,.17.22A1,1,0,0,0,60,102a1.23,1.23,0,0,1,.76-.56,4.12,4.12,0,0,1,1.39-.18,4.66,4.66,0,0,0,2.33-.93,8.57,8.57,0,0,1,3-1.58,8.75,8.75,0,0,1,3.52.29,5.62,5.62,0,0,0,3.64-.43c1-.54,1.74-1.37,2.66-2a4.15,4.15,0,0,1,3.12-.28,11.43,11.43,0,0,0,3.45.27,16.36,16.36,0,0,0,3.64-.87A17.48,17.48,0,0,1,89.7,95a4.42,4.42,0,0,1,.48-.15A1.87,1.87,0,0,1,90.76,94.81ZM71.32,96.9A4.64,4.64,0,0,1,70,97a1.46,1.46,0,0,1-.9-.3.66.66,0,0,1-.07-.77,1.92,1.92,0,0,1,1.34-.87,4.87,4.87,0,0,1,2.11-.18,1.23,1.23,0,0,1,.71.35.65.65,0,0,1,.27.37.61.61,0,0,1-.23.54A3.93,3.93,0,0,1,71.32,96.9Z"/><path class="cls-7" d="M57.21,94.84a5.1,5.1,0,0,1,.57-.29,6.59,6.59,0,0,1,2.8-.57,5.54,5.54,0,0,1,1.4.18,5,5,0,0,0,1.36.44,4.85,4.85,0,0,0,2.92-1.19,6.48,6.48,0,0,1,2.53-1.5,8.38,8.38,0,0,1,2.82.22,3.42,3.42,0,0,0,1.46,0,4.63,4.63,0,0,0,1.47-.78,4.45,4.45,0,0,1,2.78-1.25,12.27,12.27,0,0,1,2.74.86,6.67,6.67,0,0,0,3.59-.25,21.26,21.26,0,0,0,5-2.11,6.32,6.32,0,0,1-.2-1.07,3.72,3.72,0,0,0-.06-.64c-.13.09-.21.25-.35.33-.29.16-.6.27-.9.42l-.58.31c-.61.31-1.15.74-1.75,1.06a6.16,6.16,0,0,1-3.39.87,8.63,8.63,0,0,1-2.67-1,4,4,0,0,0-1.57-.47,2.62,2.62,0,0,0-1.59.72,7.78,7.78,0,0,1-2.82,1.6,11.87,11.87,0,0,1-3.31-.18,2.89,2.89,0,0,0-1.88.41,10.21,10.21,0,0,0-1.17,1,4.74,4.74,0,0,1-2.85,1.2c-1.13.07-2.23-.19-3.35-.17a6,6,0,0,0-2.2.43,2.27,2.27,0,0,0-.48.33,3.92,3.92,0,0,0-.55.6l0,.05c0,.18.09.35.14.51Z"/><path class="cls-8" d="M58,93.94a6.55,6.55,0,0,1,2.77-.4,11.88,11.88,0,0,1,1.46.18,6,6,0,0,0,1.64.16,5.46,5.46,0,0,0,2.82-1.37,6,6,0,0,1,2.65-1.65,14.3,14.3,0,0,1,2.92.15A4.66,4.66,0,0,0,75,90a4.89,4.89,0,0,1,2.48-1.07,4.71,4.71,0,0,1,2.22.75,4.27,4.27,0,0,0,2.61.67,8,8,0,0,0,1.75-.52l1.65-.66a16.23,16.23,0,0,0,2.81-1.37,2.91,2.91,0,0,1,0-.31,3.72,3.72,0,0,0-.06-.64c-.13.09-.21.25-.35.33-.29.16-.6.27-.9.42l-.58.31c-.61.31-1.15.74-1.75,1.06a6.16,6.16,0,0,1-3.39.87,8.63,8.63,0,0,1-2.67-1,4,4,0,0,0-1.57-.47,2.62,2.62,0,0,0-1.59.72,7.78,7.78,0,0,1-2.82,1.6,11.87,11.87,0,0,1-3.31-.18,2.89,2.89,0,0,0-1.88.41,10.21,10.21,0,0,0-1.17,1,4.74,4.74,0,0,1-2.85,1.2c-1.13.07-2.23-.19-3.35-.17a6,6,0,0,0-2.2.43,2.27,2.27,0,0,0-.48.33,3.92,3.92,0,0,0-.55.6l0,.05a.29.29,0,0,0,0,.09A4.1,4.1,0,0,1,58,93.94Z"/><path class="cls-7" d="M90.76,94.81c.23,0,.22-.32.19-.48a6.53,6.53,0,0,0-.37-1.3,10.73,10.73,0,0,1-1.64.69,20.43,20.43,0,0,1-3.87.86,13.77,13.77,0,0,1-3,0,13.36,13.36,0,0,0-3.4-.1c-1.93.33-3.11,2-4.8,2.81a4.65,4.65,0,0,1-2.7.39c-1-.14-2-.47-2.94-.59a4.42,4.42,0,0,0-1.54,0,3,3,0,0,0-1.15.66,12,12,0,0,1-1.89,1.67,3.72,3.72,0,0,1-1.8.41c-.71,0-1.42,0-2.14,0a8.35,8.35,0,0,0-1.05.13,7.18,7.18,0,0,0,.86,1.94,1.84,1.84,0,0,0,.17.22A1,1,0,0,0,60,102a1.23,1.23,0,0,1,.76-.56,4.12,4.12,0,0,1,1.39-.18,4.66,4.66,0,0,0,2.33-.93,8.57,8.57,0,0,1,3-1.58,8.75,8.75,0,0,1,3.52.29,5.62,5.62,0,0,0,3.64-.43c1-.54,1.74-1.37,2.66-2a4.15,4.15,0,0,1,3.12-.28,11.43,11.43,0,0,0,3.45.27,16.36,16.36,0,0,0,3.64-.87A17.48,17.48,0,0,1,89.7,95a4.42,4.42,0,0,1,.48-.15A1.87,1.87,0,0,1,90.76,94.81Z"/><path class="cls-8" d="M90.76,94.81c.23,0,.22-.32.19-.48a3.82,3.82,0,0,0-.09-.44,16.84,16.84,0,0,1-1.69.58l-3.21.9a9,9,0,0,1-3.14.47c-1-.07-1.89-.35-2.84-.49a4.43,4.43,0,0,0-3,.46c-.87.5-1.58,1.2-2.39,1.77a4.18,4.18,0,0,1-2.69.86c-1.13-.08-2.18-.53-3.3-.65A3.46,3.46,0,0,0,66.9,98a4.73,4.73,0,0,0-1.3.92,6.56,6.56,0,0,1-2.67,1.8,8.9,8.9,0,0,1-1.93.11,8.1,8.1,0,0,0-2,.24,5.86,5.86,0,0,0,.54,1,1.84,1.84,0,0,0,.17.22A1,1,0,0,0,60,102a1.23,1.23,0,0,1,.76-.56,4.12,4.12,0,0,1,1.39-.18,4.66,4.66,0,0,0,2.33-.93,8.57,8.57,0,0,1,3-1.58,8.75,8.75,0,0,1,3.52.29,5.62,5.62,0,0,0,3.64-.43c1-.54,1.74-1.37,2.66-2a4.15,4.15,0,0,1,3.12-.28,11.43,11.43,0,0,0,3.45.27,16.36,16.36,0,0,0,3.64-.87A17.48,17.48,0,0,1,89.7,95a4.42,4.42,0,0,1,.48-.15A1.87,1.87,0,0,1,90.76,94.81Z"/><path class="cls-9" d="M82.23,91a14.64,14.64,0,0,1-2.67-.72A7.9,7.9,0,0,0,77,89.73a3.3,3.3,0,0,0-2,1,7.16,7.16,0,0,1-1,.67c-.36.19-.75.25-1.12.41s0,.41.17.44a2.77,2.77,0,0,0,2-.58,5.66,5.66,0,0,1,2.19-.85,3.49,3.49,0,0,1,1.15.17c.42.1.85.21,1.28.3a6.36,6.36,0,0,0,2.57,0C82.52,91.21,82.35,91,82.23,91Z"/><path class="cls-9" d="M70.58,92.6c.13-.21-.14-.47-.3-.55a1.49,1.49,0,0,0-.51-.14.76.76,0,0,0-.34,0,1.53,1.53,0,0,0-.3,0c-.33,0-.35.35-.17.58a1.08,1.08,0,0,0,.77.41h.14A.7.7,0,0,0,70.58,92.6Z"/><path class="cls-11" d="M105.39,99.72c-.92-2.68-4.28-4.22-6.88-5a29.47,29.47,0,0,0-8.27-.93,12,12,0,0,0-2.36-.57,13.3,13.3,0,0,0-7.64.89l-.33.15-1.32.18a32.78,32.78,0,0,0-4.74.91,22.51,22.51,0,0,0-3.52,1.46l-.63.29a8.45,8.45,0,0,0-3.4,2.57,3.93,3.93,0,0,0-.34,3.66,6.07,6.07,0,0,0,2.92,3.18,19.42,19.42,0,0,0,5,1.36c3.58.82,6.84,2.59,10.54,2.9a13.67,13.67,0,0,0,5.78-.81,28.74,28.74,0,0,1,3-1l.32-.06A17.65,17.65,0,0,0,98,108.4a12.21,12.21,0,0,0,1.2-.43l.55-.23a6.49,6.49,0,0,0,1.51-.82c.33-.19.65-.4,1-.62C104.35,104.79,106.31,102.4,105.39,99.72Z"/><path class="cls-12" d="M83.57,93.73a13.06,13.06,0,0,1,7.24.83,6.1,6.1,0,0,1,3,2.61,2.89,2.89,0,0,1-.54,3.31,4.69,4.69,0,0,1-.47.43l-.37.31a9.54,9.54,0,0,1-4,1.42,24.52,24.52,0,0,1-5.54.42,16.25,16.25,0,0,1-2.66-.33,5.73,5.73,0,0,1-.69-.16,4.46,4.46,0,0,1-3-2.2,3.72,3.72,0,0,1,.67-3.58A5.43,5.43,0,0,1,79.51,95,10.36,10.36,0,0,1,83.57,93.73Z"/><path class="cls-13" d="M104,104a12.26,12.26,0,0,1-4.56,3.22,11.26,11.26,0,0,1-1.87.67,6.19,6.19,0,0,1-1,.08,10.69,10.69,0,0,0-2.46.12,3.39,3.39,0,0,0-1,.32,11.06,11.06,0,0,0-1.77.52,18.71,18.71,0,0,1-5.53,1.38c-2.85.17-5.4-.82-8-1.75,0,0,0,0,0,0-1.18-.44-2.38-.77-3.54-1.28a12.05,12.05,0,0,0-1.58-.62,7.85,7.85,0,0,0-1.6-.18,4.89,4.89,0,0,1-2.6-1,5.8,5.8,0,0,1-1.94-2.63c-1.31-3.62,3.31-5.47,6.11-6.49l1.23-.43c.35-.1.7-.19,1.06-.27,1.23-.26,2.48-.45,3.73-.62a6,6,0,0,0-2.69,3.26,3.71,3.71,0,0,0,.5,2.88,5,5,0,0,0,3.32,2.06,20.78,20.78,0,0,0,10-.31c2.4-.61,5.22-2.36,4.79-5.08a4.22,4.22,0,0,0-2.59-3l-.35-.26a22.07,22.07,0,0,1,9.91,2.31,7.5,7.5,0,0,1,3.16,3A3.89,3.89,0,0,1,104,104Z"/><path class="cls-14" d="M104.69,99.79a7.5,7.5,0,0,0-3.16-3,22.07,22.07,0,0,0-9.91-2.31l.35.26a4.22,4.22,0,0,1,2.59,3c.43,2.72-2.39,4.47-4.79,5.08a20.78,20.78,0,0,1-10,.31,5,5,0,0,1-3.32-2.06,3.71,3.71,0,0,1-.5-2.88A6,6,0,0,1,78.61,95c-1.25.17-2.5.36-3.73.62-.36.08-.71.17-1.06.27l-1.23.43c-1.7.62-4,1.54-5.36,3a13.15,13.15,0,0,1,1.34-.8,14.92,14.92,0,0,1,2.65-1.09A6.62,6.62,0,0,1,73.55,97a1.33,1.33,0,0,1,1.24.66A1.69,1.69,0,0,1,74.61,99a3.22,3.22,0,0,0-.34,1.13,2.65,2.65,0,0,0,.31,1.17,6.8,6.8,0,0,0,3.57,3,13.71,13.71,0,0,0,4.64,1A22.47,22.47,0,0,0,87.5,105a17.59,17.59,0,0,0,4.66-1.37,10.23,10.23,0,0,0,2.21-1.35,9.54,9.54,0,0,1,1.48-1.21,5.41,5.41,0,0,1,3.35-.33,2.35,2.35,0,0,1,2.12,1.91,2.53,2.53,0,0,1-1,2.53,5.89,5.89,0,0,1-2.87.85,23,23,0,0,0-4,.22c-1.71.44-3,1.71-4.59,2.45a7.68,7.68,0,0,1-4.73.47,20.92,20.92,0,0,1-4.71-1.71c-.79-.37-1.59-.74-2.39-1.08a11.41,11.41,0,0,0-2.61-.86,6.38,6.38,0,0,0-2.78.17,7.92,7.92,0,0,1-2.32.27h0a4.84,4.84,0,0,0,1.75.48,7.85,7.85,0,0,1,1.6.18,12.05,12.05,0,0,1,1.58.62c1.16.51,2.36.84,3.54,1.28,0,0,0,0,0,0,2.59.93,5.14,1.92,8,1.75a18.71,18.71,0,0,0,5.53-1.38,11.06,11.06,0,0,1,1.77-.52,3.39,3.39,0,0,1,1-.32,10.69,10.69,0,0,1,2.46-.12,6.19,6.19,0,0,0,1-.08,11.26,11.26,0,0,0,1.87-.67A12.26,12.26,0,0,0,104,104,3.89,3.89,0,0,0,104.69,99.79Z"/><path class="cls-15" d="M78.61,95a6,6,0,0,0-2.69,3.26,3.71,3.71,0,0,0,.5,2.88,5,5,0,0,0,3.32,2.06,20.78,20.78,0,0,0,10-.31c2.4-.61,5.22-2.36,4.79-5.08-.36-2.28-2.74-3.44-4.68-4.13a12.3,12.3,0,0,0-2-.44,13.3,13.3,0,0,0-7.64.89l-.33.15h0q-.65.39-1.32.72Z"/><path class="cls-16" d="M83.57,93.73a13.06,13.06,0,0,1,7.24.83,6.1,6.1,0,0,1,3,2.61,2.89,2.89,0,0,1-.54,3.31,4.69,4.69,0,0,1-.47.43l-.37.31a9.54,9.54,0,0,1-4,1.42,24.52,24.52,0,0,1-5.54.42,16.25,16.25,0,0,1-2.66-.33,5.73,5.73,0,0,1-.69-.16,4.46,4.46,0,0,1-3-2.2,3.72,3.72,0,0,1,.67-3.58A5.43,5.43,0,0,1,79.51,95,10.36,10.36,0,0,1,83.57,93.73Z"/><path class="cls-17" d="M93.83,97.17a6.1,6.1,0,0,0-3-2.61c-.27-.12-.55-.24-.83-.34a2.66,2.66,0,0,1,1.43,2.9c-.59,2.15-3.19,3.09-5.12,3.59a19.83,19.83,0,0,1-3.24.58,8.23,8.23,0,0,1-4.2-.49,4.28,4.28,0,0,1-2.37-2.46,3.08,3.08,0,0,0,.09,2,4.46,4.46,0,0,0,3,2.2,5.73,5.73,0,0,0,.69.16,16.25,16.25,0,0,0,2.66.33,24.52,24.52,0,0,0,5.54-.42,9.54,9.54,0,0,0,4-1.42l.37-.31a4.69,4.69,0,0,0,.47-.43A2.89,2.89,0,0,0,93.83,97.17Z"/><path class="cls-18" d="M84.59,94.31a16,16,0,0,0-4.18,1.07c-1.2.48-4.2,2.09-3.15,3.71h0a10.16,10.16,0,0,1,5.06-3.23,14.09,14.09,0,0,1,2.41-.48,1.39,1.39,0,0,0,.75-1.13C85.19,94.26,84.89,94.28,84.59,94.31Z"/><path class="cls-18" d="M86.6,94.32c0,.09-.1.18-.14.27a.74.74,0,0,0,0,.68c.5,0,1,0,1.5,0a1.42,1.42,0,0,0,.43-.57A8.61,8.61,0,0,0,86.6,94.32Z"/><path class="cls-19" d="M136,98.05a.88.88,0,0,0,.21-.58,2.09,2.09,0,0,0-.43-1,5.31,5.31,0,0,0-1.56-1.63,36.54,36.54,0,0,0-3.7-2.46c-2.18-1.32-4.5-2.41-6.79-3.52-1.19-.57-2.29-1.37-3.53-1.84a2.61,2.61,0,0,0-1.63-.15,1.73,1.73,0,0,0-1,1c-.31.14-.62.29-.94.4-.6.21-1.22.39-1.84.56-2.4.66-4.87,1-7.25,1.77a21.17,21.17,0,0,1-3.74,1c-.63.08-1.5.1-1.93.64h0a1.36,1.36,0,0,0-.38,1.75A8.3,8.3,0,0,1,102,95.3a7.18,7.18,0,0,1,0,1.85,3.43,3.43,0,0,0,.68,2.63,8.61,8.61,0,0,0,2,1.54,20.82,20.82,0,0,1,4.69,4.77c.34.42.68.84,1,1.23a16.16,16.16,0,0,1,1.14,1.2c.21.3.4.73.74.89a.46.46,0,0,0,.27,0,2,2,0,0,0,.82.24,4.59,4.59,0,0,0,2.29-.55,62.49,62.49,0,0,1,6.89-2.67c1.2-.38,2.4-.73,3.61-1.09s2.37-.79,3.56-1.23a31.69,31.69,0,0,1,3.6-.93,2.93,2.93,0,0,0,2.16-1.28,3.12,3.12,0,0,0,.12-1.36,11,11,0,0,1,.08-1.72A1.45,1.45,0,0,1,136,98.05Z"/><path class="cls-20" d="M102.79,92.15c.43-.09.87-.16,1.3-.23a34,34,0,0,0,3.55-1c1.19-.37,2.41-.65,3.62-.92l3.63-.8c.57-.12,1.13-.25,1.69-.41a8.9,8.9,0,0,0,1.58-.69,3.6,3.6,0,0,1,1.46-.45h.23a13.55,13.55,0,0,1,2,1.06c.89.52,1.84.93,2.77,1.38,1.15.55,2.29,1.12,3.42,1.72,1.65.87,3.28,1.78,4.87,2.74a10.72,10.72,0,0,1,1.66,1.16c.36.33.85.8.83,1.33,0,.21-.21.34-.38.43a5.15,5.15,0,0,1-1.6.45c-1.07.19-2.1.39-3.15.67-2.51.68-4.91,1.67-7.36,2.53s-5,1.72-7.51,2.47c-.58.17-1.12.46-1.7.17a5.45,5.45,0,0,1-1.36-1.18c-.9-.91-1.77-1.84-2.64-2.78-1.76-1.87-3.62-3.63-5.45-5.43a16.49,16.49,0,0,1-1.81-1.73.94.94,0,0,1-.12-.22c0-.06,0-.12,0-.11A1.15,1.15,0,0,1,102.79,92.15Z"/><path class="cls-21" d="M111.4,107.16a24.21,24.21,0,0,1-1.94-2.23,23.56,23.56,0,0,0-3.16-3.38c-1.44-1.18-3.82-1.83-3.83-4a10.13,10.13,0,0,0,0-2.91,10.45,10.45,0,0,0-.54-1.18,1.12,1.12,0,0,1-.11-.62,2.64,2.64,0,0,0,.88,1,11,11,0,0,1,.94.75L105,95.89c1.84,1.79,3.59,3.65,5.32,5.54a23.62,23.62,0,0,0,2.53,2.57,2.14,2.14,0,0,0,.71.39.11.11,0,0,0,0,0,9,9,0,0,0-.32,2.42c0,.62,0,1.24-.06,1.85A6.92,6.92,0,0,1,111.4,107.16Z"/><path class="cls-22" d="M135,100.85a5.57,5.57,0,0,1,.1.82c0,.36-.23.51-.54.64a7.06,7.06,0,0,1-1.44.36c-.62.13-1.23.23-1.84.36a29.64,29.64,0,0,0-3.54,1.23c-1.19.42-2.41.73-3.61,1.11s-2.39.76-3.57,1.17-2.35.87-3.5,1.37a7.84,7.84,0,0,1-3,1h-.26c0-.06,0-.12,0-.2a2.29,2.29,0,0,1,0-.64c0-.19,0-.39,0-.58s0-.35.05-.53c0-.45.09-.89.09-1.34a5.54,5.54,0,0,0,0-1.15h.1a6.92,6.92,0,0,0,1.78-.49c2.5-.85,5-1.62,7.51-2.49s4.85-1.84,7.37-2.49c1-.27,2.08-.41,3.12-.64a3.16,3.16,0,0,0,1.85-.84,1.11,1.11,0,0,1-.21.38,2.69,2.69,0,0,0-.52,1.5A5.6,5.6,0,0,0,135,100.85Z"/><g class="cls-23"><path class="cls-24" d="M110.59,91.21c-.1-.35-.49-.39-.8-.37a2.23,2.23,0,0,0-.5.07.9.9,0,0,0-.75.26c-.28.12-.56.26-.82.39-.53.28-.46,1-.43,1.54s0,1.27.08,1.91l-.08.14a1.21,1.21,0,0,0-.35.86c0,.3.3.37.57.28a.68.68,0,0,0,.28-.18.86.86,0,0,0,.2-.27c.09-.12.09-.16,0-.12a8.19,8.19,0,0,0,.55-.73,2.45,2.45,0,0,0,.18-.81v0c.07-.13.15-.25.22-.37a8.64,8.64,0,0,1,1.11-1.37C110.36,92.1,110.72,91.67,110.59,91.21Z"/><path class="cls-24" d="M116.28,89.81c0-.24-.09-.36-.33-.35a2.16,2.16,0,0,0-.7.2l-.38,0a3.64,3.64,0,0,0-.59.09,1.79,1.79,0,0,0-.68.13c-.24.11-.57.41-.45.72a.14.14,0,0,1,0,.07.43.43,0,0,0,0,.11,1.53,1.53,0,0,1-.08.59,3.51,3.51,0,0,0-.09.85,2.73,2.73,0,0,0,.2.69h0a1.62,1.62,0,0,0-.07,1.57c.1.23.41.12.55,0a2.67,2.67,0,0,0,.5-.66,4.17,4.17,0,0,0,.17-.54.3.3,0,0,0,0-.08l0,0a1.88,1.88,0,0,0,.59-1.23c.11-.22.22-.43.35-.64l0-.06a1.16,1.16,0,0,0,.16-.21A2.68,2.68,0,0,0,116.28,89.81Z"/><path class="cls-24" d="M113.42,97.22a3,3,0,0,0,.07-1c0-.13,0-.28,0-.41a1.24,1.24,0,0,1-.09-.33c0-.13-.15-.11-.23-.06a1.4,1.4,0,0,0-.7,1c0,.23-.06.46-.08.69a.94.94,0,0,1-.06.29v0l-.05,0a1.7,1.7,0,0,0-.88,1,.76.76,0,0,0,.12.62,1.51,1.51,0,0,0,.23.21,5.77,5.77,0,0,0-.37.54,1.07,1.07,0,0,0,0,.89.31.31,0,0,0,.36.17h0c.25,0,.61-.32.57-.61a.82.82,0,0,1,0-.27V99.8c.15-.21.32-.4.45-.62a.75.75,0,0,0,0-.71.56.56,0,0,0-.16-.18l.19-.14A2,2,0,0,0,113.42,97.22Z"/><path class="cls-24" d="M120.48,89.77a1,1,0,0,0,.32-.68.69.69,0,0,0-.64-.61c-.57-.1-1.68.22-1.79.88a.29.29,0,0,0,.06.27,3.3,3.3,0,0,0-.09.79,15.81,15.81,0,0,1-.11,1.69,4.42,4.42,0,0,0,0,1,2.17,2.17,0,0,0,0,1,.93.93,0,0,0,0,.13,1.56,1.56,0,0,1-.15.41,5.86,5.86,0,0,0-.42.44,1.54,1.54,0,0,0-.28,1.54l0,.12c0,.15,0,.3,0,.45v.09a3.66,3.66,0,0,0-.29.78c0,.31,0,.62,0,.92a8.13,8.13,0,0,1-.15,1,.29.29,0,0,1,0,.09l-.3.64c-.12.25-.38.62-.28.91-.1.21-.1.43.19.45a2.27,2.27,0,0,0,1.18-.14,1.43,1.43,0,0,0,1.23-1.41c0-.69-.36-1.33-.41-2a2.22,2.22,0,0,0,.07-.57c.1-.36.28-.71.37-1a8.29,8.29,0,0,0,.24-1.72,4.35,4.35,0,0,0,.47-.94,6.2,6.2,0,0,0,.11-1.55,5.19,5.19,0,0,1,.38-1.6,1.89,1.89,0,0,0,0-1.13A1,1,0,0,0,120.48,89.77Z"/><path class="cls-24" d="M125.77,91.7a.56.56,0,0,0-.17-.68.62.62,0,0,0-.35-.06l-.26,0c.05-.07.06-.14,0-.17a1.39,1.39,0,0,0-.5-.1,1.15,1.15,0,0,0-.26,0s-.23,0-.16,0h0a.63.63,0,0,0-.48.26,1,1,0,0,0-.25.89,4.79,4.79,0,0,0,.21.64,4,4,0,0,1,.14,1c.06.69,0,1.39.09,2.09s-.53,1.06-.49,1.71a2.77,2.77,0,0,0,.11.48,3.15,3.15,0,0,0-.22.49s0,.06,0,.1a1.54,1.54,0,0,0-.18.2c-.22.32-.5,1-.07,1.32.58.38,1.32-.36,1.89-.4.26,0,.62-.38.5-.66a9.13,9.13,0,0,0-.53-.84c-.2-.36.14-.87.25-1.22a3,3,0,0,0,0-1.43,2.19,2.19,0,0,1,0-.36,2.52,2.52,0,0,0,.08-.86l.09-.5C125.22,92.86,125.56,92.41,125.77,91.7Z"/><path class="cls-24" d="M131.05,94a1.77,1.77,0,0,0-.76-.44c-.11,0-.81-.18-.82-.2s-.22,0-.25.1a.28.28,0,0,0,.06.33,1.13,1.13,0,0,0-.21.12c-.2.15-.5.5-.28.76a2,2,0,0,0,.63.41h0a1.24,1.24,0,0,0-.24.91c.06.28.19.39.07.68a1.26,1.26,0,0,0-.11.89.34.34,0,0,0,.4.19.83.83,0,0,0,.66-.6c.06-.32.22-.61.28-.93a1,1,0,0,0,0-.48c0-.08-.09-.18-.12-.27h0a1.57,1.57,0,0,0,.44-.41.66.66,0,0,0,.14-.47C131.09,94.41,131.2,94.17,131.05,94Z"/></g><path class="cls-25" d="M109.63,91.5a.49.49,0,0,0-.37,0,1.65,1.65,0,0,0-.6.09,4,4,0,0,0-.66.17.7.7,0,0,0-.41.46.27.27,0,0,0,.32.35,2.91,2.91,0,0,0,1.46-.53.48.48,0,0,0,.14-.21.41.41,0,0,0,.12-.17A.09.09,0,0,0,109.63,91.5Z"/><path class="cls-25" d="M109.2,92.39l-.13,0c-.2-.08-.42,0-.63.09l-.14,0h0l-.09,0c-.22.06-.57.64-.16.67a1.38,1.38,0,0,0,1-.31.56.56,0,0,0,.15-.26h0C109.28,92.59,109.38,92.35,109.2,92.39Z"/><path class="cls-25" d="M108.37,93.45l0,0h0a.16.16,0,0,0-.11-.05l-.11,0h0l-.12.07c-.09.09-.19.29,0,.37s.34-.07.43-.19S108.46,93.48,108.37,93.45Z"/><path class="cls-25" d="M115.44,89.91a7.07,7.07,0,0,0-1.58.34c-.17.08-.59.52-.24.67a1.19,1.19,0,0,0,1-.18.35.35,0,0,0,.17-.28,2.43,2.43,0,0,0,.63-.3C115.53,90.1,115.63,89.87,115.44,89.91Z"/><path class="cls-25" d="M114.61,91.18l-.62,0a.47.47,0,0,0-.47.44c0,.24.25.19.41.11h0a3,3,0,0,1,.63-.28C114.62,91.4,114.78,91.19,114.61,91.18Z"/><path class="cls-25" d="M114.42,92.32a.5.5,0,0,0-.43,0,1.37,1.37,0,0,0-.35.15c-.1.07-.26.25-.14.38l.06,0a.48.48,0,0,0,.29,0,1.1,1.1,0,0,0,.37-.06.59.59,0,0,0,.27-.25A.23.23,0,0,0,114.42,92.32Z"/><path class="cls-25" d="M113.1,96.82a.18.18,0,0,0-.18-.12.34.34,0,0,0-.26.11.37.37,0,0,0-.12.25.15.15,0,0,0,.14.15.5.5,0,0,0,.17,0l.15-.1A.28.28,0,0,0,113.1,96.82Z"/><path class="cls-25" d="M112.77,98h-.07a.76.76,0,0,0-.3,0,1.78,1.78,0,0,0-.5.1.57.57,0,0,0-.32.29c0,.11-.07.31.08.36a1.08,1.08,0,0,0,1-.23.53.53,0,0,0,.17-.36C112.85,98,112.85,98,112.77,98Z"/><path class="cls-25" d="M112.47,98.69a.41.41,0,0,0-.3.23.19.19,0,0,0,0,.26c.14.06.29-.05.37-.15a.29.29,0,0,0,.07-.2C112.65,98.72,112.57,98.68,112.47,98.69Z"/><path class="cls-25" d="M120,90a.48.48,0,0,0-.48,0l-.08,0-.21.06a.57.57,0,0,0-.3.27c0,.08-.07.24,0,.31a.45.45,0,0,0,.42.07,1.31,1.31,0,0,0,.43-.16.56.56,0,0,0,.22-.24C120.08,90.23,120.12,90.07,120,90Z"/><path class="cls-25" d="M120.09,89.1a.57.57,0,0,0-.54,0,3.26,3.26,0,0,0-.44.15.47.47,0,0,0-.3.39.17.17,0,0,0,.16.17h0a1.57,1.57,0,0,0,.43-.09,2.11,2.11,0,0,1,.35,0,.51.51,0,0,0,.3-.19C120.11,89.37,120.19,89.2,120.09,89.1Z"/><path class="cls-25" d="M118.82,92.2h0a.4.4,0,0,0-.2.09.27.27,0,0,0-.09.27.25.25,0,0,0,.39.07.38.38,0,0,0,.19-.3C119.09,92.19,118.93,92.15,118.82,92.2Z"/><path class="cls-25" d="M119.48,94.85a1.07,1.07,0,0,0-.29-.06l-.12,0a2.67,2.67,0,0,0-.69.16c-.27,0-.8.6-.38.78a1.22,1.22,0,0,0,.75-.06.74.74,0,0,0,.51-.39.45.45,0,0,0,0-.11l.06,0C119.42,95.09,119.63,94.9,119.48,94.85Z"/><path class="cls-25" d="M118.35,97.36l-.07,0h-.07a.48.48,0,0,0-.2,0h0l-.08,0a.43.43,0,0,0-.23.37.2.2,0,0,0,.11.2.34.34,0,0,0,.14,0,.58.58,0,0,0,.32,0,.61.61,0,0,0,.36-.39A.24.24,0,0,0,118.35,97.36Z"/><path class="cls-25" d="M118.05,98.41a.25.25,0,0,0-.22-.06.45.45,0,0,0-.3.24c0,.09-.06.24,0,.28a.37.37,0,0,0,.32-.05C118,98.75,118.15,98.55,118.05,98.41Z"/><path class="cls-25" d="M118.88,100.25a.3.3,0,0,0-.19-.07.77.77,0,0,0-.4,0,1.18,1.18,0,0,0-.67.39.28.28,0,0,0,0,.44,1.06,1.06,0,0,0,1.27-.3C119,100.56,119.06,100.36,118.88,100.25Z"/><path class="cls-25" d="M125.44,91.51c-.11-.29-.43-.33-.73-.27h-.29c-.23,0-.62.36-.46.63a.67.67,0,0,0,.59.24,1.07,1.07,0,0,0,.75-.2A.39.39,0,0,0,125.44,91.51Z"/><path class="cls-25" d="M125.17,92.74a.13.13,0,0,0,0-.06s0,0,0,0a.15.15,0,0,0,0-.09.23.23,0,0,0-.24,0h0a.54.54,0,0,0-.32.21.32.32,0,0,0,0,.37.26.26,0,0,0,.29,0A.59.59,0,0,0,125,93a.52.52,0,0,0,.14-.22S125.17,92.75,125.17,92.74Z"/><path class="cls-25" d="M124.72,94.23a.24.24,0,0,0-.26,0h0a.44.44,0,0,0-.24.07c-.15.09-.3.38,0,.45a.67.67,0,0,0,.28,0,.44.44,0,0,0,.35-.32A.21.21,0,0,0,124.72,94.23Z"/><path class="cls-25" d="M124.49,94.19Z"/><path class="cls-25" d="M124.69,96.4c-.16-.25-.5-.14-.71,0h0l-.14.06,0,0-.09.06a.46.46,0,0,0-.17.32c0,.25.26.31.46.26a1.33,1.33,0,0,0,.62-.3A.34.34,0,0,0,124.69,96.4Z"/><path class="cls-25" d="M124,97.86a.13.13,0,0,0-.13-.13.34.34,0,0,0-.29.15h0a.3.3,0,0,0-.06.18.14.14,0,0,0,.07.12h0c.06,0,.17,0,.23,0a.39.39,0,0,0,.17-.26Z"/><path class="cls-25" d="M125,98.57c-.14-.2-.43-.16-.63-.1a1.1,1.1,0,0,0-.45.24.8.8,0,0,0-.37.44c-.09.38.31.47.59.39a1.66,1.66,0,0,0,.81-.54A.35.35,0,0,0,125,98.57Z"/><path class="cls-25" d="M130.32,93.82a.52.52,0,0,0-.56,0l-.19,0c-.24.07-.48.33-.38.59s.37.21.55.16a.89.89,0,0,0,.65-.46C130.45,94,130.46,93.9,130.32,93.82Z"/><path class="cls-25" d="M130.79,94.68c0-.08-.07-.12-.15-.11h0l-.12,0a.45.45,0,0,0-.19.14.24.24,0,0,0,0,.3c.08.08.21,0,.3,0a.38.38,0,0,0,.11-.11.22.22,0,0,0,0-.08A.22.22,0,0,0,130.79,94.68Z"/><path class="cls-25" d="M130.08,96h0a.16.16,0,0,0-.08-.14.32.32,0,0,0-.27,0l0,0h-.06a.39.39,0,0,0-.2.18.26.26,0,0,0,0,.11.14.14,0,0,0,.07.12c.14.1.3,0,.43,0A.39.39,0,0,0,130.08,96Z"/><path class="cls-25" d="M129.84,97a.19.19,0,0,0-.13-.1.43.43,0,0,0-.36.23.31.31,0,0,0,0,.19.14.14,0,0,0,.13.09.39.39,0,0,0,.36-.23A.28.28,0,0,0,129.84,97Z"/><path class="cls-20" d="M104.84,96.89a3.87,3.87,0,0,0-.5-1.39c-.37-.6-1.14-.14-1.36.36a2.7,2.7,0,0,0,.08,1.73,4.34,4.34,0,0,0,.24.72,1,1,0,0,0,.52.65.81.81,0,0,0,.84-.34A2.34,2.34,0,0,0,104.84,96.89Z"/><path class="cls-20" d="M106,99a.28.28,0,0,0-.18,0,.5.5,0,0,0-.28.14.46.46,0,0,0-.17.27.26.26,0,0,0,0,.12.18.18,0,0,0,0,.1.35.35,0,0,0,.16.16h0a.16.16,0,0,0,.12,0,.41.41,0,0,0,.21-.1.46.46,0,0,0,.13-.2h0a.54.54,0,0,0,.1-.2A.23.23,0,0,0,106,99Z"/></g></g></svg>