<svg xmlns="http://www.w3.org/2000/svg" viewBox="0 0 612 792"><defs><style>.cls-1{opacity:0.14;}.cls-2{fill:#bcbec0;}</style></defs><g id="Layer_5" data-name="Layer 5"><g class="cls-1"><circle class="cls-2" cx="504.07" cy="733.73" r="1.91"/><circle class="cls-2" cx="504.71" cy="761.43" r="3.31"/><circle class="cls-2" cx="598.75" cy="747.83" r="3.31"/><circle class="cls-2" cx="575.26" cy="750.54" r="3.31"/><circle class="cls-2" cx="556.56" cy="737.09" r="3.31"/><circle class="cls-2" cx="531.93" cy="761.04" r="3.31"/><circle class="cls-2" cx="586.66" cy="738.99" r="3.31"/><circle class="cls-2" cx="537.18" cy="716.74" r="3.31"/><circle class="cls-2" cx="578.23" cy="712.68" r="3.31"/><circle class="cls-2" cx="579.58" cy="770.5" r="3.31"/></g><g class="cls-1"><circle class="cls-2" cx="320.51" cy="601.58" r="1.91"/><circle class="cls-2" cx="321.15" cy="629.27" r="3.31"/><circle class="cls-2" cx="415.19" cy="615.68" r="3.31"/><circle class="cls-2" cx="391.71" cy="618.38" r="3.31"/><circle class="cls-2" cx="373" cy="604.94" r="3.31"/><circle class="cls-2" cx="348.37" cy="628.89" r="3.31"/><circle class="cls-2" cx="403.11" cy="606.84" r="3.31"/><circle class="cls-2" cx="353.63" cy="584.59" r="3.31"/><circle class="cls-2" cx="394.67" cy="580.52" r="3.31"/><circle class="cls-2" cx="396.02" cy="638.35" r="3.31"/></g><g class="cls-1"><circle class="cls-2" cx="416.4" cy="552.43" r="1.91"/><circle class="cls-2" cx="417.04" cy="580.13" r="3.31"/><circle class="cls-2" cx="511.08" cy="566.53" r="3.31"/><circle class="cls-2" cx="487.6" cy="569.24" r="3.31"/><circle class="cls-2" cx="468.89" cy="555.79" r="3.31"/><circle class="cls-2" cx="444.26" cy="579.74" r="3.31"/><circle class="cls-2" cx="499" cy="557.69" r="3.31"/><circle class="cls-2" cx="449.52" cy="535.44" r="3.31"/><circle class="cls-2" cx="490.56" cy="531.38" r="3.31"/><circle class="cls-2" cx="491.91" cy="589.2" r="3.31"/></g><g class="cls-1"><circle class="cls-2" cx="386.07" cy="714.02" r="1.91"/><circle class="cls-2" cx="386.71" cy="741.72" r="3.31"/><circle class="cls-2" cx="480.75" cy="728.12" r="3.31"/><circle class="cls-2" cx="457.26" cy="730.82" r="3.31"/><circle class="cls-2" cx="438.56" cy="717.38" r="3.31"/><circle class="cls-2" cx="413.93" cy="741.33" r="3.31"/><circle class="cls-2" cx="468.66" cy="719.28" r="3.31"/><circle class="cls-2" cx="419.18" cy="697.03" r="3.31"/><circle class="cls-2" cx="460.23" cy="692.97" r="3.31"/><circle class="cls-2" cx="461.58" cy="750.79" r="3.31"/></g><circle class="cls-2" cx="268.45" cy="791.26" r="3.31"/><g class="cls-1"><circle class="cls-2" cx="416.4" cy="552.43" r="1.91"/><circle class="cls-2" cx="417.04" cy="580.13" r="3.31"/><circle class="cls-2" cx="511.08" cy="566.53" r="3.31"/><circle class="cls-2" cx="487.6" cy="569.24" r="3.31"/><circle class="cls-2" cx="468.89" cy="555.79" r="3.31"/><circle class="cls-2" cx="444.26" cy="579.74" r="3.31"/><circle class="cls-2" cx="499" cy="557.69" r="3.31"/><circle class="cls-2" cx="449.52" cy="535.44" r="3.31"/><circle class="cls-2" cx="490.56" cy="531.38" r="3.31"/><circle class="cls-2" cx="491.91" cy="589.2" r="3.31"/></g><circle class="cls-2" cx="552.01" cy="643.08" r="1.91"/><circle class="cls-2" cx="552.65" cy="670.78" r="3.31"/><circle class="cls-2" cx="604.5" cy="646.44" r="3.31"/><circle class="cls-2" cx="579.87" cy="670.39" r="3.31"/><circle class="cls-2" cx="585.13" cy="626.09" r="3.31"/><g class="cls-1"><circle class="cls-2" cx="368.46" cy="510.93" r="1.91"/><circle class="cls-2" cx="369.1" cy="538.63" r="3.31"/><circle class="cls-2" cx="463.14" cy="525.03" r="3.31"/><circle class="cls-2" cx="439.65" cy="527.73" r="3.31"/><circle class="cls-2" cx="420.95" cy="514.29" r="3.31"/><circle class="cls-2" cx="396.32" cy="538.24" r="3.31"/><circle class="cls-2" cx="451.05" cy="516.19" r="3.31"/><circle class="cls-2" cx="401.57" cy="493.94" r="3.31"/><circle class="cls-2" cx="442.62" cy="489.88" r="3.31"/><circle class="cls-2" cx="443.97" cy="547.7" r="3.31"/></g><g class="cls-1"><circle class="cls-2" cx="434.01" cy="623.37" r="1.91"/><circle class="cls-2" cx="434.65" cy="651.07" r="3.31"/><circle class="cls-2" cx="528.69" cy="637.47" r="3.31"/><circle class="cls-2" cx="505.21" cy="640.17" r="3.31"/><circle class="cls-2" cx="486.51" cy="626.73" r="3.31"/><circle class="cls-2" cx="461.88" cy="650.68" r="3.31"/><circle class="cls-2" cx="516.61" cy="628.63" r="3.31"/><circle class="cls-2" cx="467.13" cy="606.38" r="3.31"/><circle class="cls-2" cx="508.17" cy="602.32" r="3.31"/><circle class="cls-2" cx="509.53" cy="660.14" r="3.31"/></g><g class="cls-1"><circle class="cls-2" cx="502.44" cy="535.17" r="1.91"/><circle class="cls-2" cx="503.08" cy="562.86" r="3.31"/><circle class="cls-2" cx="597.12" cy="549.27" r="3.31"/><circle class="cls-2" cx="573.64" cy="551.97" r="3.31"/><circle class="cls-2" cx="554.94" cy="538.52" r="3.31"/><circle class="cls-2" cx="530.3" cy="562.48" r="3.31"/><circle class="cls-2" cx="585.04" cy="540.43" r="3.31"/><circle class="cls-2" cx="535.56" cy="518.17" r="3.31"/><circle class="cls-2" cx="576.6" cy="514.11" r="3.31"/><circle class="cls-2" cx="577.95" cy="571.94" r="3.31"/></g><circle class="cls-2" cx="550.39" cy="444.52" r="1.91"/><circle class="cls-2" cx="551.03" cy="472.21" r="3.31"/><circle class="cls-2" cx="602.88" cy="447.87" r="3.31"/><circle class="cls-2" cx="578.25" cy="471.83" r="3.31"/><circle class="cls-2" cx="583.5" cy="427.52" r="3.31"/><g class="cls-1"><circle class="cls-2" cx="454.5" cy="493.67" r="1.91"/><circle class="cls-2" cx="455.14" cy="521.36" r="3.31"/><circle class="cls-2" cx="549.18" cy="507.77" r="3.31"/><circle class="cls-2" cx="525.69" cy="510.47" r="3.31"/><circle class="cls-2" cx="506.99" cy="497.02" r="3.31"/><circle class="cls-2" cx="482.36" cy="520.97" r="3.31"/><circle class="cls-2" cx="537.09" cy="498.92" r="3.31"/><circle class="cls-2" cx="487.61" cy="476.67" r="3.31"/><circle class="cls-2" cx="528.66" cy="472.61" r="3.31"/><circle class="cls-2" cx="530.01" cy="530.44" r="3.31"/></g><g class="cls-1"><circle class="cls-2" cx="421.9" cy="419.92" r="1.91"/><circle class="cls-2" cx="422.55" cy="447.61" r="3.31"/><circle class="cls-2" cx="516.59" cy="434.02" r="3.31"/><circle class="cls-2" cx="493.1" cy="436.72" r="3.31"/><circle class="cls-2" cx="474.4" cy="423.27" r="3.31"/><circle class="cls-2" cx="449.77" cy="447.23" r="3.31"/><circle class="cls-2" cx="504.5" cy="425.18" r="3.31"/><circle class="cls-2" cx="455.02" cy="402.92" r="3.31"/><circle class="cls-2" cx="496.06" cy="398.86" r="3.31"/><circle class="cls-2" cx="497.42" cy="456.69" r="3.31"/></g><circle class="cls-2" cx="536.77" cy="449.83" r="1.91"/><circle class="cls-2" cx="537.41" cy="477.53" r="3.31"/><circle class="cls-2" cx="607.96" cy="466.64" r="3.31"/><circle class="cls-2" cx="589.26" cy="453.19" r="3.31"/><circle class="cls-2" cx="564.63" cy="477.14" r="3.31"/><circle class="cls-2" cx="569.88" cy="432.84" r="3.31"/><circle class="cls-2" cx="610.92" cy="428.78" r="3.31"/><circle class="cls-2" cx="612.28" cy="486.6" r="3.31"/><circle class="cls-2" cx="536.77" cy="449.83" r="1.91"/><circle class="cls-2" cx="537.41" cy="477.53" r="3.31"/><circle class="cls-2" cx="607.96" cy="466.64" r="3.31"/><circle class="cls-2" cx="589.26" cy="453.19" r="3.31"/><circle class="cls-2" cx="564.63" cy="477.14" r="3.31"/><circle class="cls-2" cx="569.88" cy="432.84" r="3.31"/><circle class="cls-2" cx="610.92" cy="428.78" r="3.31"/><circle class="cls-2" cx="612.28" cy="486.6" r="3.31"/><g class="cls-1"><circle class="cls-2" cx="488.82" cy="408.33" r="1.91"/><circle class="cls-2" cx="489.46" cy="436.02" r="3.31"/><circle class="cls-2" cx="583.5" cy="422.43" r="3.31"/><circle class="cls-2" cx="560.02" cy="425.13" r="3.31"/><circle class="cls-2" cx="541.31" cy="411.68" r="3.31"/><circle class="cls-2" cx="516.68" cy="435.64" r="3.31"/><circle class="cls-2" cx="571.42" cy="413.59" r="3.31"/><circle class="cls-2" cx="521.93" cy="391.33" r="3.31"/><circle class="cls-2" cx="562.98" cy="387.27" r="3.31"/><circle class="cls-2" cx="564.33" cy="445.1" r="3.31"/></g><circle class="cls-2" cx="554.38" cy="520.77" r="1.91"/><circle class="cls-2" cx="555.02" cy="548.47" r="3.31"/><circle class="cls-2" cx="606.87" cy="524.13" r="3.31"/><circle class="cls-2" cx="582.24" cy="548.08" r="3.31"/><circle class="cls-2" cx="587.49" cy="503.78" r="3.31"/><circle class="cls-2" cx="584.71" cy="359.18" r="1.91"/><circle class="cls-2" cx="585.35" cy="386.88" r="3.31"/><circle class="cls-2" cx="612.57" cy="386.49" r="3.31"/><circle class="cls-2" cx="552.78" cy="404.24" r="3.31"/><circle class="cls-2" cx="575.32" cy="397.11" r="3.31"/><circle class="cls-2" cx="596.25" cy="406.74" r="3.31"/><circle class="cls-2" cx="566.33" cy="410.62" r="3.31"/><circle class="cls-2" cx="579.64" cy="434.83" r="3.31"/><circle class="cls-2" cx="567.27" cy="378.33" r="3.31"/><g class="cls-1"><circle class="cls-2" cx="563.66" cy="466.56" r="1.91"/><circle class="cls-2" cx="557.75" cy="439.49" r="3.31"/><circle class="cls-2" cx="468.03" cy="470.78" r="3.31"/><circle class="cls-2" cx="490.57" cy="463.65" r="3.31"/><circle class="cls-2" cx="511.5" cy="473.28" r="3.31"/><circle class="cls-2" cx="531.1" cy="445.07" r="3.31"/><circle class="cls-2" cx="481.58" cy="477.16" r="3.31"/><circle class="cls-2" cx="534.4" cy="489.56" r="3.31"/><circle class="cls-2" cx="494.89" cy="501.38" r="3.31"/><circle class="cls-2" cx="482.52" cy="444.87" r="3.31"/></g><g class="cls-1"><circle class="cls-2" cx="563.66" cy="466.56" r="1.91"/><circle class="cls-2" cx="557.75" cy="439.49" r="3.31"/><circle class="cls-2" cx="468.03" cy="470.78" r="3.31"/><circle class="cls-2" cx="490.57" cy="463.65" r="3.31"/><circle class="cls-2" cx="511.5" cy="473.28" r="3.31"/><circle class="cls-2" cx="531.1" cy="445.07" r="3.31"/><circle class="cls-2" cx="481.58" cy="477.16" r="3.31"/><circle class="cls-2" cx="534.4" cy="489.56" r="3.31"/><circle class="cls-2" cx="494.89" cy="501.38" r="3.31"/><circle class="cls-2" cx="482.52" cy="444.87" r="3.31"/></g><g class="cls-1"><circle class="cls-2" cx="612.73" cy="471.09" r="3.31"/><circle class="cls-2" cx="523.02" cy="502.37" r="3.31"/><circle class="cls-2" cx="545.55" cy="495.24" r="3.31"/><circle class="cls-2" cx="566.48" cy="504.87" r="3.31"/><circle class="cls-2" cx="586.09" cy="476.66" r="3.31"/><circle class="cls-2" cx="536.57" cy="508.75" r="3.31"/><circle class="cls-2" cx="589.38" cy="521.15" r="3.31"/><circle class="cls-2" cx="549.87" cy="532.97" r="3.31"/><circle class="cls-2" cx="537.51" cy="476.46" r="3.31"/></g><g class="cls-1"><circle class="cls-2" cx="275.26" cy="417.98" r="1.91"/><circle class="cls-2" cx="275.9" cy="445.68" r="3.31"/><circle class="cls-2" cx="369.94" cy="432.08" r="3.31"/><circle class="cls-2" cx="346.46" cy="434.79" r="3.31"/><circle class="cls-2" cx="327.75" cy="421.34" r="3.31"/><circle class="cls-2" cx="303.12" cy="445.29" r="3.31"/><circle class="cls-2" cx="357.85" cy="423.24" r="3.31"/><circle class="cls-2" cx="308.37" cy="400.99" r="3.31"/><circle class="cls-2" cx="349.42" cy="396.93" r="3.31"/><circle class="cls-2" cx="350.77" cy="454.75" r="3.31"/></g><g class="cls-1"><circle class="cls-2" cx="594.36" cy="234.35" r="1.91"/><circle class="cls-2" cx="588.45" cy="207.29" r="3.31"/><circle class="cls-2" cx="498.73" cy="238.58" r="3.31"/><circle class="cls-2" cx="521.27" cy="231.44" r="3.31"/><circle class="cls-2" cx="542.19" cy="241.07" r="3.31"/><circle class="cls-2" cx="561.8" cy="212.86" r="3.31"/><circle class="cls-2" cx="512.28" cy="244.95" r="3.31"/><circle class="cls-2" cx="565.1" cy="257.35" r="3.31"/><circle class="cls-2" cx="525.58" cy="269.17" r="3.31"/><circle class="cls-2" cx="513.22" cy="212.66" r="3.31"/></g><g class="cls-1"><circle class="cls-2" cx="610.95" cy="292.54" r="3.31"/><circle class="cls-2" cx="521.23" cy="323.83" r="3.31"/><circle class="cls-2" cx="543.77" cy="316.7" r="3.31"/><circle class="cls-2" cx="564.69" cy="326.33" r="3.31"/><circle class="cls-2" cx="584.3" cy="298.12" r="3.31"/><circle class="cls-2" cx="534.78" cy="330.21" r="3.31"/><circle class="cls-2" cx="587.6" cy="342.61" r="3.31"/><circle class="cls-2" cx="548.08" cy="354.43" r="3.31"/><circle class="cls-2" cx="535.72" cy="297.92" r="3.31"/></g><g class="cls-1"><circle class="cls-2" cx="417.99" cy="342.97" r="1.91"/><circle class="cls-2" cx="412.07" cy="315.91" r="3.31"/><circle class="cls-2" cx="322.35" cy="347.2" r="3.31"/><circle class="cls-2" cx="344.89" cy="340.07" r="3.31"/><circle class="cls-2" cx="365.82" cy="349.7" r="3.31"/><circle class="cls-2" cx="385.43" cy="321.49" r="3.31"/><circle class="cls-2" cx="335.91" cy="353.57" r="3.31"/><circle class="cls-2" cx="388.72" cy="365.98" r="3.31"/><circle class="cls-2" cx="349.21" cy="377.79" r="3.31"/><circle class="cls-2" cx="336.85" cy="321.29" r="3.31"/></g><g class="cls-1"><circle class="cls-2" cx="537.58" cy="339.81" r="1.91"/><circle class="cls-2" cx="531.66" cy="312.74" r="3.31"/><circle class="cls-2" cx="441.95" cy="344.03" r="3.31"/><circle class="cls-2" cx="464.48" cy="336.9" r="3.31"/><circle class="cls-2" cx="485.41" cy="346.53" r="3.31"/><circle class="cls-2" cx="505.02" cy="318.32" r="3.31"/><circle class="cls-2" cx="455.5" cy="350.41" r="3.31"/><circle class="cls-2" cx="508.31" cy="362.81" r="3.31"/><circle class="cls-2" cx="468.8" cy="374.63" r="3.31"/><circle class="cls-2" cx="456.44" cy="318.12" r="3.31"/></g><g class="cls-1"><circle class="cls-2" cx="67.96" cy="128.89" r="1.91"/><circle class="cls-2" cx="68.6" cy="156.58" r="3.31"/><circle class="cls-2" cx="162.64" cy="142.98" r="3.31"/><circle class="cls-2" cx="139.16" cy="145.69" r="3.31"/><circle class="cls-2" cx="120.45" cy="132.24" r="3.31"/><circle class="cls-2" cx="95.82" cy="156.19" r="3.31"/><circle class="cls-2" cx="150.56" cy="134.14" r="3.31"/><circle class="cls-2" cx="101.07" cy="111.89" r="3.31"/><circle class="cls-2" cx="142.12" cy="107.83" r="3.31"/><circle class="cls-2" cx="143.47" cy="165.66" r="3.31"/></g><circle class="cls-2" cx="44.64" cy="123.27" r="3.31"/><circle class="cls-2" cx="21.16" cy="125.98" r="3.31"/><circle class="cls-2" cx="32.56" cy="114.43" r="3.31"/><circle class="cls-2" cx="24.12" cy="88.12" r="3.31"/><circle class="cls-2" cx="25.47" cy="145.94" r="3.31"/><g class="cls-1"><circle class="cls-2" cx="150.23" cy="85.05" r="1.91"/><circle class="cls-2" cx="150.87" cy="112.74" r="3.31"/><circle class="cls-2" cx="244.91" cy="99.15" r="3.31"/><circle class="cls-2" cx="221.42" cy="101.85" r="3.31"/><circle class="cls-2" cx="202.72" cy="88.4" r="3.31"/><circle class="cls-2" cx="178.09" cy="112.36" r="3.31"/><circle class="cls-2" cx="232.82" cy="90.31" r="3.31"/><circle class="cls-2" cx="183.34" cy="68.05" r="3.31"/><circle class="cls-2" cx="224.39" cy="63.99" r="3.31"/><circle class="cls-2" cx="225.74" cy="121.82" r="3.31"/></g><g class="cls-1"><circle class="cls-2" cx="393.83" cy="684.32" r="1.91"/><circle class="cls-2" cx="387.92" cy="657.26" r="3.31"/><circle class="cls-2" cx="298.2" cy="688.54" r="3.31"/><circle class="cls-2" cx="320.74" cy="681.41" r="3.31"/><circle class="cls-2" cx="341.66" cy="691.04" r="3.31"/><circle class="cls-2" cx="361.27" cy="662.83" r="3.31"/><circle class="cls-2" cx="311.75" cy="694.92" r="3.31"/><circle class="cls-2" cx="364.57" cy="707.32" r="3.31"/><circle class="cls-2" cx="325.05" cy="719.14" r="3.31"/><circle class="cls-2" cx="312.69" cy="662.63" r="3.31"/></g><g class="cls-1"><circle class="cls-2" cx="214.53" cy="493.05" r="1.91"/><circle class="cls-2" cx="215.17" cy="520.74" r="3.31"/><circle class="cls-2" cx="309.21" cy="507.14" r="3.31"/><circle class="cls-2" cx="285.73" cy="509.85" r="3.31"/><circle class="cls-2" cx="267.03" cy="496.4" r="3.31"/><circle class="cls-2" cx="242.4" cy="520.35" r="3.31"/><circle class="cls-2" cx="297.13" cy="498.3" r="3.31"/><circle class="cls-2" cx="247.65" cy="476.05" r="3.31"/><circle class="cls-2" cx="288.69" cy="471.99" r="3.31"/><circle class="cls-2" cx="290.05" cy="529.82" r="3.31"/></g><g class="cls-1"><circle class="cls-2" cx="327.34" cy="704.09" r="1.91"/><circle class="cls-2" cx="327.98" cy="731.78" r="3.31"/><circle class="cls-2" cx="422.02" cy="718.18" r="3.31"/><circle class="cls-2" cx="398.53" cy="720.89" r="3.31"/><circle class="cls-2" cx="379.83" cy="707.44" r="3.31"/><circle class="cls-2" cx="355.2" cy="731.39" r="3.31"/><circle class="cls-2" cx="409.93" cy="709.34" r="3.31"/><circle class="cls-2" cx="360.45" cy="687.09" r="3.31"/><circle class="cls-2" cx="401.5" cy="683.03" r="3.31"/><circle class="cls-2" cx="402.85" cy="740.86" r="3.31"/></g><g class="cls-1"><circle class="cls-2" cx="143.78" cy="571.94" r="1.91"/><circle class="cls-2" cx="144.42" cy="599.63" r="3.31"/><circle class="cls-2" cx="238.46" cy="586.03" r="3.31"/><circle class="cls-2" cx="214.98" cy="588.74" r="3.31"/><circle class="cls-2" cx="196.27" cy="575.29" r="3.31"/><circle class="cls-2" cx="171.64" cy="599.24" r="3.31"/><circle class="cls-2" cx="226.38" cy="577.19" r="3.31"/><circle class="cls-2" cx="176.9" cy="554.94" r="3.31"/><circle class="cls-2" cx="217.94" cy="550.88" r="3.31"/><circle class="cls-2" cx="219.29" cy="608.7" r="3.31"/></g><g class="cls-1"><circle class="cls-2" cx="209.34" cy="684.38" r="1.91"/><circle class="cls-2" cx="209.98" cy="712.07" r="3.31"/><circle class="cls-2" cx="304.02" cy="698.47" r="3.31"/><circle class="cls-2" cx="280.53" cy="701.18" r="3.31"/><circle class="cls-2" cx="261.83" cy="687.73" r="3.31"/><circle class="cls-2" cx="237.2" cy="711.68" r="3.31"/><circle class="cls-2" cx="291.93" cy="689.63" r="3.31"/><circle class="cls-2" cx="242.45" cy="667.38" r="3.31"/><circle class="cls-2" cx="283.5" cy="663.32" r="3.31"/><circle class="cls-2" cx="284.85" cy="721.15" r="3.31"/></g><g class="cls-1"><circle class="cls-2" cx="375.28" cy="613.44" r="1.91"/><circle class="cls-2" cx="375.92" cy="641.13" r="3.31"/><circle class="cls-2" cx="469.96" cy="627.53" r="3.31"/><circle class="cls-2" cx="446.48" cy="630.24" r="3.31"/><circle class="cls-2" cx="427.77" cy="616.79" r="3.31"/><circle class="cls-2" cx="403.14" cy="640.74" r="3.31"/><circle class="cls-2" cx="457.88" cy="618.69" r="3.31"/><circle class="cls-2" cx="408.4" cy="596.44" r="3.31"/><circle class="cls-2" cx="449.44" cy="592.38" r="3.31"/><circle class="cls-2" cx="450.79" cy="650.21" r="3.31"/></g><g class="cls-1"><circle class="cls-2" cx="257.28" cy="593.73" r="1.91"/><circle class="cls-2" cx="257.92" cy="621.42" r="3.31"/><circle class="cls-2" cx="351.96" cy="607.82" r="3.31"/><circle class="cls-2" cx="328.48" cy="610.53" r="3.31"/><circle class="cls-2" cx="309.78" cy="597.08" r="3.31"/><circle class="cls-2" cx="285.14" cy="621.03" r="3.31"/><circle class="cls-2" cx="339.88" cy="598.98" r="3.31"/><circle class="cls-2" cx="290.4" cy="576.73" r="3.31"/><circle class="cls-2" cx="331.44" cy="572.67" r="3.31"/><circle class="cls-2" cx="332.79" cy="630.5" r="3.31"/></g><g class="cls-1"><circle class="cls-2" cx="62.18" cy="707.4" r="1.91"/><circle class="cls-2" cx="62.82" cy="735.1" r="3.31"/><circle class="cls-2" cx="156.86" cy="721.5" r="3.31"/><circle class="cls-2" cx="133.38" cy="724.2" r="3.31"/><circle class="cls-2" cx="114.67" cy="710.76" r="3.31"/><circle class="cls-2" cx="90.04" cy="734.71" r="3.31"/><circle class="cls-2" cx="144.78" cy="712.66" r="3.31"/><circle class="cls-2" cx="95.3" cy="690.41" r="3.31"/><circle class="cls-2" cx="136.34" cy="686.35" r="3.31"/><circle class="cls-2" cx="137.69" cy="744.17" r="3.31"/></g><g class="cls-1"><circle class="cls-2" cx="158.07" cy="658.26" r="1.91"/><circle class="cls-2" cx="158.71" cy="685.95" r="3.31"/><circle class="cls-2" cx="252.75" cy="672.35" r="3.31"/><circle class="cls-2" cx="229.27" cy="675.06" r="3.31"/><circle class="cls-2" cx="210.56" cy="661.61" r="3.31"/><circle class="cls-2" cx="185.93" cy="685.56" r="3.31"/><circle class="cls-2" cx="240.67" cy="663.51" r="3.31"/><circle class="cls-2" cx="191.19" cy="641.26" r="3.31"/><circle class="cls-2" cx="232.23" cy="637.2" r="3.31"/><circle class="cls-2" cx="233.58" cy="695.03" r="3.31"/></g><circle class="cls-2" cx="60.97" cy="770.65" r="3.31"/><circle class="cls-2" cx="37.49" cy="773.35" r="3.31"/><circle class="cls-2" cx="18.78" cy="759.9" r="3.31"/><circle class="cls-2" cx="48.89" cy="761.81" r="3.31"/><circle class="cls-2" cx="40.45" cy="735.49" r="3.31"/><circle class="cls-2" cx="41.8" cy="793.32" r="3.31"/><g class="cls-1"><circle class="cls-2" cx="158.07" cy="658.26" r="1.91"/><circle class="cls-2" cx="158.71" cy="685.95" r="3.31"/><circle class="cls-2" cx="252.75" cy="672.35" r="3.31"/><circle class="cls-2" cx="229.27" cy="675.06" r="3.31"/><circle class="cls-2" cx="210.56" cy="661.61" r="3.31"/><circle class="cls-2" cx="185.93" cy="685.56" r="3.31"/><circle class="cls-2" cx="240.67" cy="663.51" r="3.31"/><circle class="cls-2" cx="191.19" cy="641.26" r="3.31"/><circle class="cls-2" cx="232.23" cy="637.2" r="3.31"/><circle class="cls-2" cx="233.58" cy="695.03" r="3.31"/></g><circle class="cls-2" cx="60.97" cy="770.65" r="3.31"/><circle class="cls-2" cx="37.49" cy="773.35" r="3.31"/><circle class="cls-2" cx="18.78" cy="759.9" r="3.31"/><circle class="cls-2" cx="48.89" cy="761.81" r="3.31"/><circle class="cls-2" cx="40.45" cy="735.49" r="3.31"/><circle class="cls-2" cx="41.8" cy="793.32" r="3.31"/><g class="cls-1"><circle class="cls-2" cx="14.24" cy="665.9" r="1.91"/><circle class="cls-2" cx="14.88" cy="693.59" r="3.31"/><circle class="cls-2" cx="108.92" cy="680" r="3.31"/><circle class="cls-2" cx="85.43" cy="682.7" r="3.31"/><circle class="cls-2" cx="66.73" cy="669.25" r="3.31"/><circle class="cls-2" cx="42.1" cy="693.21" r="3.31"/><circle class="cls-2" cx="96.83" cy="671.16" r="3.31"/><circle class="cls-2" cx="47.35" cy="648.9" r="3.31"/><circle class="cls-2" cx="88.4" cy="644.84" r="3.31"/><circle class="cls-2" cx="89.75" cy="702.67" r="3.31"/></g><g class="cls-1"><circle class="cls-2" cx="14.24" cy="665.9" r="1.91"/><circle class="cls-2" cx="14.88" cy="693.59" r="3.31"/><circle class="cls-2" cx="108.92" cy="680" r="3.31"/><circle class="cls-2" cx="85.43" cy="682.7" r="3.31"/><circle class="cls-2" cx="66.73" cy="669.25" r="3.31"/><circle class="cls-2" cx="42.1" cy="693.21" r="3.31"/><circle class="cls-2" cx="96.83" cy="671.16" r="3.31"/><circle class="cls-2" cx="47.35" cy="648.9" r="3.31"/><circle class="cls-2" cx="88.4" cy="644.84" r="3.31"/><circle class="cls-2" cx="89.75" cy="702.67" r="3.31"/></g><circle class="cls-2" cx="217.28" cy="786.37" r="3.31"/><circle class="cls-2" cx="258.33" cy="782.31" r="3.31"/><g class="cls-1"><circle class="cls-2" cx="0.61" cy="671.21" r="1.91"/><circle class="cls-2" cx="1.26" cy="698.91" r="3.31"/><circle class="cls-2" cx="95.3" cy="685.31" r="3.31"/><circle class="cls-2" cx="71.81" cy="688.02" r="3.31"/><circle class="cls-2" cx="53.11" cy="674.57" r="3.31"/><circle class="cls-2" cx="28.48" cy="698.52" r="3.31"/><circle class="cls-2" cx="83.21" cy="676.47" r="3.31"/><circle class="cls-2" cx="33.73" cy="654.22" r="3.31"/><circle class="cls-2" cx="74.77" cy="650.16" r="3.31"/><circle class="cls-2" cx="76.13" cy="707.98" r="3.31"/></g><circle class="cls-2" cx="66.17" cy="783.66" r="1.91"/><circle class="cls-2" cx="118.66" cy="787.01" r="3.31"/><circle class="cls-2" cx="148.77" cy="788.91" r="3.31"/><circle class="cls-2" cx="99.28" cy="766.66" r="3.31"/><circle class="cls-2" cx="140.33" cy="762.6" r="3.31"/><g class="cls-1"><circle class="cls-2" cx="232.11" cy="712.72" r="1.91"/><circle class="cls-2" cx="232.76" cy="740.41" r="3.31"/><circle class="cls-2" cx="326.79" cy="726.81" r="3.31"/><circle class="cls-2" cx="303.31" cy="729.52" r="3.31"/><circle class="cls-2" cx="284.61" cy="716.07" r="3.31"/><circle class="cls-2" cx="259.98" cy="740.02" r="3.31"/><circle class="cls-2" cx="314.71" cy="717.97" r="3.31"/><circle class="cls-2" cx="265.23" cy="695.72" r="3.31"/><circle class="cls-2" cx="306.27" cy="691.66" r="3.31"/><circle class="cls-2" cx="307.63" cy="749.49" r="3.31"/></g><g class="cls-1"><circle class="cls-2" cx="114.12" cy="693.01" r="1.91"/><circle class="cls-2" cx="114.76" cy="720.7" r="3.31"/><circle class="cls-2" cx="208.8" cy="707.1" r="3.31"/><circle class="cls-2" cx="185.31" cy="709.81" r="3.31"/><circle class="cls-2" cx="166.61" cy="696.36" r="3.31"/><circle class="cls-2" cx="141.98" cy="720.31" r="3.31"/><circle class="cls-2" cx="196.71" cy="698.26" r="3.31"/><circle class="cls-2" cx="147.23" cy="676.01" r="3.31"/><circle class="cls-2" cx="188.27" cy="671.95" r="3.31"/><circle class="cls-2" cx="189.63" cy="729.78" r="3.31"/></g><circle class="cls-2" cx="68.78" cy="657.14" r="3.31"/><circle class="cls-2" cx="45.29" cy="659.85" r="3.31"/><circle class="cls-2" cx="26.59" cy="646.4" r="3.31"/><circle class="cls-2" cx="56.69" cy="648.3" r="3.31"/><circle class="cls-2" cx="7.21" cy="626.05" r="3.31"/><circle class="cls-2" cx="48.26" cy="621.99" r="3.31"/><circle class="cls-2" cx="49.61" cy="679.82" r="3.31"/><circle class="cls-2" cx="68.78" cy="657.14" r="3.31"/><circle class="cls-2" cx="45.29" cy="659.85" r="3.31"/><circle class="cls-2" cx="26.59" cy="646.4" r="3.31"/><circle class="cls-2" cx="56.69" cy="648.3" r="3.31"/><circle class="cls-2" cx="7.21" cy="626.05" r="3.31"/><circle class="cls-2" cx="48.26" cy="621.99" r="3.31"/><circle class="cls-2" cx="49.61" cy="679.82" r="3.31"/><g class="cls-1"><circle class="cls-2" cx="123.4" cy="638.79" r="1.91"/><circle class="cls-2" cx="117.49" cy="611.73" r="3.31"/><circle class="cls-2" cx="27.77" cy="643.02" r="3.31"/><circle class="cls-2" cx="50.31" cy="635.88" r="3.31"/><circle class="cls-2" cx="71.23" cy="645.51" r="3.31"/><circle class="cls-2" cx="90.84" cy="617.3" r="3.31"/><circle class="cls-2" cx="41.32" cy="649.39" r="3.31"/><circle class="cls-2" cx="94.14" cy="661.79" r="3.31"/><circle class="cls-2" cx="54.62" cy="673.61" r="3.31"/><circle class="cls-2" cx="42.26" cy="617.1" r="3.31"/></g><g class="cls-1"><circle class="cls-2" cx="123.4" cy="638.79" r="1.91"/><circle class="cls-2" cx="117.49" cy="611.73" r="3.31"/><circle class="cls-2" cx="27.77" cy="643.02" r="3.31"/><circle class="cls-2" cx="50.31" cy="635.88" r="3.31"/><circle class="cls-2" cx="71.23" cy="645.51" r="3.31"/><circle class="cls-2" cx="90.84" cy="617.3" r="3.31"/><circle class="cls-2" cx="41.32" cy="649.39" r="3.31"/><circle class="cls-2" cx="94.14" cy="661.79" r="3.31"/><circle class="cls-2" cx="54.62" cy="673.61" r="3.31"/><circle class="cls-2" cx="42.26" cy="617.1" r="3.31"/></g><g class="cls-1"><circle class="cls-2" cx="178.39" cy="670.38" r="1.91"/><circle class="cls-2" cx="172.47" cy="643.32" r="3.31"/><circle class="cls-2" cx="82.75" cy="674.61" r="3.31"/><circle class="cls-2" cx="105.29" cy="667.47" r="3.31"/><circle class="cls-2" cx="126.22" cy="677.1" r="3.31"/><circle class="cls-2" cx="145.83" cy="648.89" r="3.31"/><circle class="cls-2" cx="96.31" cy="680.98" r="3.31"/><circle class="cls-2" cx="149.12" cy="693.38" r="3.31"/><circle class="cls-2" cx="109.61" cy="705.2" r="3.31"/><circle class="cls-2" cx="97.25" cy="648.69" r="3.31"/></g><g class="cls-1"><circle class="cls-2" cx="93.64" cy="736.92" r="1.91"/><circle class="cls-2" cx="87.72" cy="709.86" r="3.31"/><circle class="cls-2" cx="-2" cy="741.15" r="3.31"/><circle class="cls-2" cx="20.54" cy="734.01" r="3.31"/><circle class="cls-2" cx="41.47" cy="743.65" r="3.31"/><circle class="cls-2" cx="61.08" cy="715.43" r="3.31"/><circle class="cls-2" cx="11.56" cy="747.52" r="3.31"/><circle class="cls-2" cx="64.37" cy="759.92" r="3.31"/><circle class="cls-2" cx="24.86" cy="771.74" r="3.31"/><circle class="cls-2" cx="12.5" cy="715.24" r="3.31"/></g><g class="cls-1"><circle class="cls-2" cx="93.64" cy="736.92" r="1.91"/><circle class="cls-2" cx="87.72" cy="709.86" r="3.31"/><circle class="cls-2" cx="-2" cy="741.15" r="3.31"/><circle class="cls-2" cx="20.54" cy="734.01" r="3.31"/><circle class="cls-2" cx="41.47" cy="743.65" r="3.31"/><circle class="cls-2" cx="61.08" cy="715.43" r="3.31"/><circle class="cls-2" cx="11.56" cy="747.52" r="3.31"/><circle class="cls-2" cx="64.37" cy="759.92" r="3.31"/><circle class="cls-2" cx="24.86" cy="771.74" r="3.31"/><circle class="cls-2" cx="12.5" cy="715.24" r="3.31"/></g><g class="cls-1"><circle class="cls-2" cx="400.77" cy="435.32" r="1.91"/><circle class="cls-2" cx="401.41" cy="463.01" r="3.31"/><circle class="cls-2" cx="495.45" cy="449.41" r="3.31"/><circle class="cls-2" cx="471.97" cy="452.12" r="3.31"/><circle class="cls-2" cx="453.26" cy="438.67" r="3.31"/><circle class="cls-2" cx="428.63" cy="462.62" r="3.31"/><circle class="cls-2" cx="483.37" cy="440.57" r="3.31"/><circle class="cls-2" cx="433.89" cy="418.32" r="3.31"/><circle class="cls-2" cx="474.93" cy="414.26" r="3.31"/><circle class="cls-2" cx="476.28" cy="472.09" r="3.31"/></g><g class="cls-1"><circle class="cls-2" cx="466.33" cy="547.76" r="1.91"/><circle class="cls-2" cx="466.97" cy="575.45" r="3.31"/><circle class="cls-2" cx="561.01" cy="561.85" r="3.31"/><circle class="cls-2" cx="537.52" cy="564.56" r="3.31"/><circle class="cls-2" cx="518.82" cy="551.11" r="3.31"/><circle class="cls-2" cx="494.19" cy="575.06" r="3.31"/><circle class="cls-2" cx="548.92" cy="553.01" r="3.31"/><circle class="cls-2" cx="499.44" cy="530.76" r="3.31"/><circle class="cls-2" cx="540.49" cy="526.7" r="3.31"/><circle class="cls-2" cx="541.84" cy="584.53" r="3.31"/></g><g class="cls-1"><circle class="cls-2" cx="278.36" cy="456.3" r="1.91"/><circle class="cls-2" cx="279.01" cy="483.99" r="3.31"/><circle class="cls-2" cx="373.05" cy="470.39" r="3.31"/><circle class="cls-2" cx="349.56" cy="473.1" r="3.31"/><circle class="cls-2" cx="330.86" cy="459.65" r="3.31"/><circle class="cls-2" cx="306.23" cy="483.6" r="3.31"/><circle class="cls-2" cx="360.96" cy="461.55" r="3.31"/><circle class="cls-2" cx="311.48" cy="439.3" r="3.31"/><circle class="cls-2" cx="352.52" cy="435.24" r="3.31"/><circle class="cls-2" cx="353.88" cy="493.07" r="3.31"/></g><g class="cls-1"><circle class="cls-2" cx="374.25" cy="407.15" r="1.91"/><circle class="cls-2" cx="374.9" cy="434.84" r="3.31"/><circle class="cls-2" cx="468.94" cy="421.25" r="3.31"/><circle class="cls-2" cx="445.45" cy="423.95" r="3.31"/><circle class="cls-2" cx="426.75" cy="410.5" r="3.31"/><circle class="cls-2" cx="402.12" cy="434.45" r="3.31"/><circle class="cls-2" cx="456.85" cy="412.4" r="3.31"/><circle class="cls-2" cx="407.37" cy="390.15" r="3.31"/><circle class="cls-2" cx="448.41" cy="386.09" r="3.31"/><circle class="cls-2" cx="449.77" cy="443.92" r="3.31"/></g><g class="cls-1"><circle class="cls-2" cx="182.47" cy="505.44" r="1.91"/><circle class="cls-2" cx="183.12" cy="533.14" r="3.31"/><circle class="cls-2" cx="277.16" cy="519.54" r="3.31"/><circle class="cls-2" cx="253.67" cy="522.24" r="3.31"/><circle class="cls-2" cx="234.97" cy="508.8" r="3.31"/><circle class="cls-2" cx="210.34" cy="532.75" r="3.31"/><circle class="cls-2" cx="265.07" cy="510.7" r="3.31"/><circle class="cls-2" cx="215.59" cy="488.45" r="3.31"/><circle class="cls-2" cx="256.63" cy="484.39" r="3.31"/><circle class="cls-2" cx="257.99" cy="542.21" r="3.31"/></g><g class="cls-1"><circle class="cls-2" cx="374.25" cy="407.15" r="1.91"/><circle class="cls-2" cx="374.9" cy="434.84" r="3.31"/><circle class="cls-2" cx="468.94" cy="421.25" r="3.31"/><circle class="cls-2" cx="445.45" cy="423.95" r="3.31"/><circle class="cls-2" cx="426.75" cy="410.5" r="3.31"/><circle class="cls-2" cx="402.12" cy="434.45" r="3.31"/><circle class="cls-2" cx="456.85" cy="412.4" r="3.31"/><circle class="cls-2" cx="407.37" cy="390.15" r="3.31"/><circle class="cls-2" cx="448.41" cy="386.09" r="3.31"/><circle class="cls-2" cx="449.77" cy="443.92" r="3.31"/></g><g class="cls-1"><circle class="cls-2" cx="182.47" cy="505.44" r="1.91"/><circle class="cls-2" cx="183.12" cy="533.14" r="3.31"/><circle class="cls-2" cx="277.16" cy="519.54" r="3.31"/><circle class="cls-2" cx="253.67" cy="522.24" r="3.31"/><circle class="cls-2" cx="234.97" cy="508.8" r="3.31"/><circle class="cls-2" cx="210.34" cy="532.75" r="3.31"/><circle class="cls-2" cx="265.07" cy="510.7" r="3.31"/><circle class="cls-2" cx="215.59" cy="488.45" r="3.31"/><circle class="cls-2" cx="256.63" cy="484.39" r="3.31"/><circle class="cls-2" cx="257.99" cy="542.21" r="3.31"/></g><g class="cls-1"><circle class="cls-2" cx="230.42" cy="414.79" r="1.91"/><circle class="cls-2" cx="231.06" cy="442.49" r="3.31"/><circle class="cls-2" cx="325.1" cy="428.89" r="3.31"/><circle class="cls-2" cx="301.62" cy="431.59" r="3.31"/><circle class="cls-2" cx="282.91" cy="418.15" r="3.31"/><circle class="cls-2" cx="258.28" cy="442.1" r="3.31"/><circle class="cls-2" cx="313.01" cy="420.05" r="3.31"/><circle class="cls-2" cx="263.53" cy="397.8" r="3.31"/><circle class="cls-2" cx="304.58" cy="393.74" r="3.31"/><circle class="cls-2" cx="305.93" cy="451.56" r="3.31"/></g><g class="cls-1"><circle class="cls-2" cx="354.06" cy="535.97" r="1.91"/><circle class="cls-2" cx="348.15" cy="508.91" r="3.31"/><circle class="cls-2" cx="258.43" cy="540.2" r="3.31"/><circle class="cls-2" cx="280.97" cy="533.06" r="3.31"/><circle class="cls-2" cx="301.89" cy="542.7" r="3.31"/><circle class="cls-2" cx="321.5" cy="514.48" r="3.31"/><circle class="cls-2" cx="271.98" cy="546.57" r="3.31"/><circle class="cls-2" cx="324.8" cy="558.97" r="3.31"/><circle class="cls-2" cx="285.28" cy="570.79" r="3.31"/><circle class="cls-2" cx="272.92" cy="514.29" r="3.31"/></g><g class="cls-1"><circle class="cls-2" cx="354.06" cy="535.97" r="1.91"/><circle class="cls-2" cx="348.15" cy="508.91" r="3.31"/><circle class="cls-2" cx="258.43" cy="540.2" r="3.31"/><circle class="cls-2" cx="280.97" cy="533.06" r="3.31"/><circle class="cls-2" cx="301.89" cy="542.7" r="3.31"/><circle class="cls-2" cx="321.5" cy="514.48" r="3.31"/><circle class="cls-2" cx="271.98" cy="546.57" r="3.31"/><circle class="cls-2" cx="324.8" cy="558.97" r="3.31"/><circle class="cls-2" cx="285.28" cy="570.79" r="3.31"/><circle class="cls-2" cx="272.92" cy="514.29" r="3.31"/></g><g class="cls-1"><circle class="cls-2" cx="493.79" cy="501.02" r="1.91"/><circle class="cls-2" cx="487.88" cy="473.96" r="3.31"/><circle class="cls-2" cx="398.16" cy="505.25" r="3.31"/><circle class="cls-2" cx="420.7" cy="498.11" r="3.31"/><circle class="cls-2" cx="441.62" cy="507.75" r="3.31"/><circle class="cls-2" cx="461.23" cy="479.53" r="3.31"/><circle class="cls-2" cx="411.71" cy="511.62" r="3.31"/><circle class="cls-2" cx="464.53" cy="524.03" r="3.31"/><circle class="cls-2" cx="425.01" cy="535.84" r="3.31"/><circle class="cls-2" cx="412.65" cy="479.34" r="3.31"/></g><g class="cls-1"><circle class="cls-2" cx="493.79" cy="501.02" r="1.91"/><circle class="cls-2" cx="487.88" cy="473.96" r="3.31"/><circle class="cls-2" cx="398.16" cy="505.25" r="3.31"/><circle class="cls-2" cx="420.7" cy="498.11" r="3.31"/><circle class="cls-2" cx="441.62" cy="507.75" r="3.31"/><circle class="cls-2" cx="461.23" cy="479.53" r="3.31"/><circle class="cls-2" cx="411.71" cy="511.62" r="3.31"/><circle class="cls-2" cx="464.53" cy="524.03" r="3.31"/><circle class="cls-2" cx="425.01" cy="535.84" r="3.31"/><circle class="cls-2" cx="412.65" cy="479.34" r="3.31"/></g><g class="cls-1"><circle class="cls-2" cx="55.32" cy="62.94" r="1.91"/><circle class="cls-2" cx="55.96" cy="90.63" r="3.31"/><circle class="cls-2" cx="150" cy="77.04" r="3.31"/><circle class="cls-2" cx="126.51" cy="79.74" r="3.31"/><circle class="cls-2" cx="107.81" cy="66.29" r="3.31"/><circle class="cls-2" cx="83.18" cy="90.25" r="3.31"/><circle class="cls-2" cx="137.91" cy="68.2" r="3.31"/><circle class="cls-2" cx="88.43" cy="45.94" r="3.31"/><circle class="cls-2" cx="129.48" cy="41.88" r="3.31"/><circle class="cls-2" cx="130.83" cy="99.71" r="3.31"/></g></g><g id="Layer_1" data-name="Layer 1"><circle class="cls-2" cx="32.14" cy="80.93" r="3.31"/><circle class="cls-2" cx="8.66" cy="83.63" r="3.31"/><circle class="cls-2" cx="20.06" cy="72.08" r="3.31"/><circle class="cls-2" cx="11.62" cy="45.77" r="3.31"/><circle class="cls-2" cx="12.98" cy="103.6" r="3.31"/><circle class="cls-2" cx="204.76" cy="5.3" r="3.31"/><circle class="cls-2" cx="13.27" cy="3.48" r="3.31"/><circle class="cls-2" cx="60.92" cy="12.95" r="3.31"/><circle class="cls-2" cx="47.3" cy="18.26" r="3.31"/><g class="cls-1"><circle class="cls-2" cx="203.29" cy="22.99" r="1.91"/><circle class="cls-2" cx="203.93" cy="50.69" r="3.31"/><circle class="cls-2" cx="297.97" cy="37.09" r="3.31"/><circle class="cls-2" cx="274.48" cy="39.79" r="3.31"/><circle class="cls-2" cx="255.78" cy="26.35" r="3.31"/><circle class="cls-2" cx="231.15" cy="50.3" r="3.31"/><circle class="cls-2" cx="285.88" cy="28.25" r="3.31"/><circle class="cls-2" cx="236.4" cy="6" r="3.31"/><circle class="cls-2" cx="277.45" cy="1.94" r="3.31"/><circle class="cls-2" cx="278.8" cy="59.76" r="3.31"/></g><circle class="cls-2" cx="85.29" cy="3.28" r="1.91"/><circle class="cls-2" cx="85.93" cy="30.97" r="3.31"/><circle class="cls-2" cx="179.97" cy="17.38" r="3.31"/><circle class="cls-2" cx="156.48" cy="20.08" r="3.31"/><circle class="cls-2" cx="137.78" cy="6.64" r="3.31"/><circle class="cls-2" cx="113.15" cy="30.59" r="3.31"/><circle class="cls-2" cx="167.88" cy="8.54" r="3.31"/><circle class="cls-2" cx="160.8" cy="40.05" r="3.31"/><circle class="cls-2" cx="120.3" cy="3.66" r="3.31"/><circle class="cls-2" cx="80.78" cy="15.48" r="3.31"/><circle class="cls-2" cx="58.89" cy="20.14" r="3.31"/><circle class="cls-2" cx="12.64" cy="53.92" r="3.31"/><circle class="cls-2" cx="32.25" cy="25.71" r="3.31"/><circle class="cls-2" cx="35.55" cy="70.2" r="3.31"/><circle class="cls-2" cx="12.64" cy="53.92" r="3.31"/><circle class="cls-2" cx="32.25" cy="25.71" r="3.31"/><circle class="cls-2" cx="35.55" cy="70.2" r="3.31"/></g></svg>