<svg xmlns="http://www.w3.org/2000/svg" viewBox="0 0 202.41 175.9"><defs><style>.cls-1{isolation:isolate;}.cls-2{fill:#b6cbd8;}.cls-3{fill:#e8ebf0;}.cls-4{fill:#c9c6b5;}.cls-5{fill:#d7d4bc;}.cls-6{fill:#fffdf0;}.cls-7{fill:#c9c5ae;opacity:0.3;}.cls-8{fill:#c94d2f;}.cls-10,.cls-11,.cls-9{fill:#eb6830;}.cls-10{opacity:0.7;mix-blend-mode:multiply;}.cls-11{mix-blend-mode:screen;}</style></defs><g class="cls-1"><g id="Layer_1" data-name="Layer 1"><path class="cls-2" d="M144.78,90.49a5.78,5.78,0,0,0,.07-1.55c0-.51-.15-1-.25-1.52-3.82-6.73-24.36-11.86-49.13-11.86-25.12,0-45.89,5.28-49.28,12.15A3.65,3.65,0,0,0,46,90.36c-.85,3,2.14,6.06,4.07,7.61,7.78,5.21,25.19,8.83,45.42,8.83,23.09,0,42.51-4.72,48.12-11.13h0c.16-.23.3-.47.44-.71a7.21,7.21,0,0,0,.82-3.9C144.83,90.88,144.81,90.68,144.78,90.49Z"/><path class="cls-3" d="M95.25,77.16c26.6,0,48.17,5.61,48.17,12.52S121.85,102.2,95.25,102.2,47.08,96.6,47.08,89.68,68.64,77.16,95.25,77.16Z"/><path class="cls-3" d="M95.25,105.1c-25.66,0-46.63-5.51-48.09-12.47a15.3,15.3,0,0,0,2.89,2.83c7.78,4.92,25.19,8.35,45.42,8.35,22,0,40.66-4,47.23-9.67C138.77,100.37,119,105.1,95.25,105.1Z"/><path class="cls-2" d="M125.76,87.33c0-.32-.09-.63-.15-.94-2.36-4.16-15.07-7.34-30.4-7.34-15.54,0-28.39,3.27-30.49,7.52-.9,1.84,1.11,3.83,2.39,4.79,4.81,3,15.58,5.17,28.1,5.17,14.29,0,26.3-2.76,29.78-6.51h0a3.62,3.62,0,0,0,.27-.41A4,4,0,0,0,125.76,87.33Z"/><path class="cls-3" d="M95.07,95.54c-16.46,0-29.8-3.26-29.8-7.28S78.61,81,95.07,81s29.81,3.26,29.81,7.28S111.53,95.54,95.07,95.54Z"/><path class="cls-4" d="M112.1,85.19c-1.06-3.11-5-4.9-8-5.78a34.08,34.08,0,0,0-9.6-1.09,14.52,14.52,0,0,0-2.75-.66,15.42,15.42,0,0,0-8.88,1l-.38.17-1.54.2a37.9,37.9,0,0,0-5.5,1.07,25.42,25.42,0,0,0-4.08,1.69l-.74.34a9.87,9.87,0,0,0-4,3,4.58,4.58,0,0,0-.4,4.26,7.07,7.07,0,0,0,3.4,3.69c1.74.93,3.83,1.15,5.75,1.59,4.16.94,7.94,3,12.24,3.37a16,16,0,0,0,6.72-1,32.65,32.65,0,0,1,3.5-1.17l.37-.08a20,20,0,0,0,5.2-.58c.48-.15.94-.32,1.4-.51l.64-.26a8.07,8.07,0,0,0,1.76-1q.57-.34,1.11-.72C110.9,91.08,113.17,88.3,112.1,85.19Z"/><path class="cls-5" d="M86.75,78.23a15.13,15.13,0,0,1,8.42,1,7.11,7.11,0,0,1,3.51,3,3.35,3.35,0,0,1-.63,3.84,5.17,5.17,0,0,1-.55.5,4.82,4.82,0,0,1-.43.36,11.13,11.13,0,0,1-4.69,1.66,29.61,29.61,0,0,1-6.44.48,18.39,18.39,0,0,1-3.09-.39,6.09,6.09,0,0,1-.8-.18,5.1,5.1,0,0,1-3.42-2.56,4.3,4.3,0,0,1,.77-4.16A6.38,6.38,0,0,1,82,79.69,12.06,12.06,0,0,1,86.75,78.23Z"/><path class="cls-6" d="M110.5,90.14a14.31,14.31,0,0,1-5.29,3.75,14,14,0,0,1-2.17.77,6.32,6.32,0,0,1-1.22.09A11.89,11.89,0,0,0,99,94.9a3.7,3.7,0,0,0-1.17.36,13.34,13.34,0,0,0-2.06.6,21.62,21.62,0,0,1-6.43,1.61c-3.31.2-6.27-1-9.28-2l0,0c-1.37-.51-2.76-.89-4.11-1.48A14.67,14.67,0,0,0,74,93.2,10.49,10.49,0,0,0,72.18,93a5.69,5.69,0,0,1-3-1.15,6.83,6.83,0,0,1-2.26-3.07c-1.51-4.2,3.85-6.35,7.1-7.53l1.44-.5c.4-.12.81-.22,1.23-.31,1.42-.3,2.88-.53,4.33-.72a7,7,0,0,0-3.13,3.79,4.36,4.36,0,0,0,.59,3.33,5.79,5.79,0,0,0,3.85,2.4A24.23,24.23,0,0,0,94,88.87c2.79-.71,6.06-2.74,5.56-5.9a4.87,4.87,0,0,0-3-3.53c-.14-.11-.27-.21-.42-.31a25.81,25.81,0,0,1,11.53,2.69,8.66,8.66,0,0,1,3.66,3.45A4.5,4.5,0,0,1,110.5,90.14Z"/><path class="cls-7" d="M111.29,85.27a8.66,8.66,0,0,0-3.66-3.45A25.81,25.81,0,0,0,96.1,79.13c.15.1.28.2.42.31a4.87,4.87,0,0,1,3,3.53c.5,3.16-2.77,5.19-5.56,5.9a24.23,24.23,0,0,1-11.66.36,5.79,5.79,0,0,1-3.85-2.4,4.36,4.36,0,0,1-.59-3.33A7,7,0,0,1,81,79.71c-1.45.19-2.91.42-4.33.72-.42.09-.83.19-1.23.31l-1.44.5c-2,.72-4.7,1.79-6.22,3.45a16.45,16.45,0,0,1,1.56-.93,17.89,17.89,0,0,1,3.07-1.27,8.1,8.1,0,0,1,2.71-.44,1.58,1.58,0,0,1,1.45.77,2,2,0,0,1-.21,1.52,3.83,3.83,0,0,0-.4,1.31A3.14,3.14,0,0,0,76.31,87a7.9,7.9,0,0,0,4.15,3.5,15.61,15.61,0,0,0,5.39,1.14,25.67,25.67,0,0,0,5.47-.34,20.83,20.83,0,0,0,5.42-1.58,12,12,0,0,0,2.56-1.57A10.49,10.49,0,0,1,101,86.76a6.35,6.35,0,0,1,3.9-.38,2.71,2.71,0,0,1,2.46,2.22,3,3,0,0,1-1.19,2.94,7,7,0,0,1-3.34,1,27.36,27.36,0,0,0-4.62.25c-2,.51-3.51,2-5.34,2.86a9,9,0,0,1-5.5.54,24.21,24.21,0,0,1-5.47-2c-.92-.43-1.84-.86-2.77-1.25a14.19,14.19,0,0,0-3-1,7.55,7.55,0,0,0-3.24.21,9.76,9.76,0,0,1-2.69.32h0a5.32,5.32,0,0,0,2,.55A10.49,10.49,0,0,1,74,93.2a14.67,14.67,0,0,1,1.84.73c1.35.59,2.74,1,4.11,1.48l0,0c3,1.08,6,2.23,9.28,2a21.62,21.62,0,0,0,6.43-1.61,13.34,13.34,0,0,1,2.06-.6A3.7,3.7,0,0,1,99,94.9a11.89,11.89,0,0,1,2.86-.15,6.32,6.32,0,0,0,1.22-.09,14,14,0,0,0,2.17-.77,14.31,14.31,0,0,0,5.29-3.75A4.5,4.5,0,0,0,111.29,85.27Z"/><path class="cls-8" d="M81,79.71a7,7,0,0,0-3.13,3.79,4.36,4.36,0,0,0,.59,3.33,5.79,5.79,0,0,0,3.85,2.4A24.23,24.23,0,0,0,94,88.87c2.79-.71,6.06-2.74,5.56-5.9-.41-2.65-3.17-4-5.43-4.79a12.28,12.28,0,0,0-2.33-.52,15.42,15.42,0,0,0-8.88,1l-.38.17h0c-.5.3-1,.58-1.53.83Z"/><path class="cls-9" d="M86.75,78.23a15.13,15.13,0,0,1,8.42,1,7.11,7.11,0,0,1,3.51,3,3.35,3.35,0,0,1-.63,3.84,5.17,5.17,0,0,1-.55.5,4.82,4.82,0,0,1-.43.36,11.13,11.13,0,0,1-4.69,1.66,29.61,29.61,0,0,1-6.44.48,18.39,18.39,0,0,1-3.09-.39,6.09,6.09,0,0,1-.8-.18,5.1,5.1,0,0,1-3.42-2.56,4.3,4.3,0,0,1,.77-4.16A6.38,6.38,0,0,1,82,79.69,12.06,12.06,0,0,1,86.75,78.23Z"/><path class="cls-10" d="M98.68,82.23a7.11,7.11,0,0,0-3.51-3c-.32-.15-.64-.28-1-.4,1.19.8,2,1.92,1.66,3.37-.68,2.49-3.7,3.59-5.94,4.17a24,24,0,0,1-3.77.67,9.55,9.55,0,0,1-4.88-.56,5,5,0,0,1-2.75-2.87,3.48,3.48,0,0,0,.11,2.36,5.1,5.1,0,0,0,3.42,2.56,6.09,6.09,0,0,0,.8.18,18.39,18.39,0,0,0,3.09.39,29.61,29.61,0,0,0,6.44-.48,11.13,11.13,0,0,0,4.69-1.66,4.82,4.82,0,0,0,.43-.36,5.17,5.17,0,0,0,.55-.5A3.35,3.35,0,0,0,98.68,82.23Z"/><path class="cls-11" d="M87.94,78.9a18.92,18.92,0,0,0-4.85,1.25c-1.4.55-4.89,2.43-3.67,4.31h0a11.93,11.93,0,0,1,5.88-3.75,18,18,0,0,1,2.8-.55A1.64,1.64,0,0,0,89,78.85C88.63,78.85,88.29,78.87,87.94,78.9Z"/><path class="cls-11" d="M90.28,78.91a2.48,2.48,0,0,0-.17.32.88.88,0,0,0,0,.79c.58,0,1.16,0,1.74,0a1.68,1.68,0,0,0,.5-.66A10.12,10.12,0,0,0,90.28,78.91Z"/><path class="cls-4" d="M131.57,88.84c-.95-2.77-4.42-4.36-7.11-5.14a30.35,30.35,0,0,0-8.55-1,12.25,12.25,0,0,0-2.44-.59,13.72,13.72,0,0,0-7.91.93l-.34.15c-.45,0-.91.11-1.36.18a33.66,33.66,0,0,0-4.9.95,23,23,0,0,0-3.64,1.5l-.65.3a8.72,8.72,0,0,0-3.52,2.66,4.08,4.08,0,0,0-.35,3.79,6.27,6.27,0,0,0,3,3.28,19.82,19.82,0,0,0,5.12,1.41c3.7.85,7.07,2.68,10.9,3a13.92,13.92,0,0,0,6-.84,30.84,30.84,0,0,1,3.12-1l.33-.07a18.32,18.32,0,0,0,4.63-.52c.42-.13.84-.28,1.25-.45l.56-.23a7,7,0,0,0,1.57-.85c.34-.2.67-.41,1-.64C130.5,94.08,132.53,91.61,131.57,88.84Z"/><path class="cls-5" d="M109,82.65a13.49,13.49,0,0,1,7.49.86,6.32,6.32,0,0,1,3.13,2.69,3,3,0,0,1-.57,3.43,3.42,3.42,0,0,1-.49.44,4,4,0,0,1-.38.32A9.85,9.85,0,0,1,114,91.87a26.31,26.31,0,0,1-5.74.43,16.31,16.31,0,0,1-2.74-.35,6.2,6.2,0,0,1-.72-.16,4.54,4.54,0,0,1-3-2.28,3.82,3.82,0,0,1,.69-3.7A5.55,5.55,0,0,1,104.81,84,10.57,10.57,0,0,1,109,82.65Z"/><path class="cls-6" d="M130.15,93.25a12.63,12.63,0,0,1-4.72,3.33,13.07,13.07,0,0,1-1.93.7,6.6,6.6,0,0,1-1.08.07,11.43,11.43,0,0,0-2.55.13,3.6,3.6,0,0,0-1,.33,11.47,11.47,0,0,0-1.83.53,19.15,19.15,0,0,1-5.72,1.43c-3,.18-5.59-.84-8.26-1.81l0,0c-1.22-.45-2.46-.79-3.65-1.32A12.24,12.24,0,0,0,97.68,96,8.26,8.26,0,0,0,96,95.79a5.06,5.06,0,0,1-2.69-1,6,6,0,0,1-2-2.73c-1.35-3.74,3.43-5.65,6.32-6.7l1.28-.45c.36-.1.72-.2,1.1-.28,1.26-.26,2.56-.47,3.85-.64a6.14,6.14,0,0,0-2.78,3.38,3.82,3.82,0,0,0,.52,3,5.19,5.19,0,0,0,3.43,2.13,21.43,21.43,0,0,0,10.37-.32c2.48-.63,5.4-2.44,5-5.25a4.33,4.33,0,0,0-2.68-3.14l-.37-.28a22.91,22.91,0,0,1,10.26,2.39,7.76,7.76,0,0,1,3.26,3.08A4,4,0,0,1,130.15,93.25Z"/><path class="cls-7" d="M130.85,88.92a7.76,7.76,0,0,0-3.26-3.08,22.91,22.91,0,0,0-10.26-2.39l.37.28a4.33,4.33,0,0,1,2.68,3.14c.44,2.81-2.48,4.62-5,5.25a21.43,21.43,0,0,1-10.37.32,5.19,5.19,0,0,1-3.43-2.13,3.82,3.82,0,0,1-.52-3A6.14,6.14,0,0,1,103.88,84c-1.29.17-2.59.38-3.85.64-.38.08-.74.18-1.1.28l-1.28.45c-1.75.63-4.18,1.59-5.54,3.07a14.16,14.16,0,0,1,1.39-.83,16.8,16.8,0,0,1,2.74-1.13,7.08,7.08,0,0,1,2.41-.39,1.37,1.37,0,0,1,1.28.68,1.69,1.69,0,0,1-.18,1.35,3.3,3.3,0,0,0-.36,1.18,2.88,2.88,0,0,0,.33,1.21,7,7,0,0,0,3.69,3.12,13.88,13.88,0,0,0,4.8,1,22.61,22.61,0,0,0,4.86-.3,18.48,18.48,0,0,0,4.83-1.41,10.66,10.66,0,0,0,2.28-1.4,9.61,9.61,0,0,1,1.53-1.25,5.57,5.57,0,0,1,3.47-.34,2.44,2.44,0,0,1,2.19,2,2.62,2.62,0,0,1-1.06,2.61,6.23,6.23,0,0,1-3,.88,24.52,24.52,0,0,0-4.11.22c-1.77.46-3.12,1.78-4.75,2.54a8,8,0,0,1-4.89.49,21.71,21.71,0,0,1-4.87-1.78c-.82-.38-1.64-.76-2.47-1.11a12.21,12.21,0,0,0-2.7-.89,6.53,6.53,0,0,0-2.88.18,8.41,8.41,0,0,1-2.39.28h0a5,5,0,0,0,1.81.49,8.26,8.26,0,0,1,1.65.19,12.24,12.24,0,0,1,1.65.64c1.19.53,2.43.87,3.65,1.32l0,0c2.67,1,5.31,2,8.26,1.81A19.15,19.15,0,0,0,117,98.34a11.47,11.47,0,0,1,1.83-.53,3.6,3.6,0,0,1,1-.33,11.43,11.43,0,0,1,2.55-.13,6.6,6.6,0,0,0,1.08-.07,13.07,13.07,0,0,0,1.93-.7,12.63,12.63,0,0,0,4.72-3.33A4,4,0,0,0,130.85,88.92Z"/><path class="cls-8" d="M103.88,84a6.14,6.14,0,0,0-2.78,3.38,3.82,3.82,0,0,0,.52,3,5.19,5.19,0,0,0,3.43,2.13,21.43,21.43,0,0,0,10.37-.32c2.48-.63,5.4-2.44,5-5.25-.38-2.36-2.83-3.56-4.84-4.27a11.26,11.26,0,0,0-2.07-.46,13.72,13.72,0,0,0-7.91.93l-.34.15h0c-.44.27-.9.52-1.36.75Z"/><path class="cls-9" d="M109,82.65a13.49,13.49,0,0,1,7.49.86,6.32,6.32,0,0,1,3.13,2.69,3,3,0,0,1-.57,3.43,3.42,3.42,0,0,1-.49.44,4,4,0,0,1-.38.32A9.85,9.85,0,0,1,114,91.87a26.31,26.31,0,0,1-5.74.43,16.31,16.31,0,0,1-2.74-.35,6.2,6.2,0,0,1-.72-.16,4.54,4.54,0,0,1-3-2.28,3.82,3.82,0,0,1,.69-3.7A5.55,5.55,0,0,1,104.81,84,10.57,10.57,0,0,1,109,82.65Z"/><path class="cls-10" d="M119.63,86.2a6.32,6.32,0,0,0-3.13-2.69,9.11,9.11,0,0,0-.86-.35c1,.71,1.82,1.7,1.47,3-.6,2.22-3.29,3.2-5.28,3.72a21.32,21.32,0,0,1-3.36.6,8.45,8.45,0,0,1-4.34-.51,4.37,4.37,0,0,1-2.45-2.55,3.09,3.09,0,0,0,.1,2.1,4.54,4.54,0,0,0,3,2.28,6.2,6.2,0,0,0,.72.16,16.31,16.31,0,0,0,2.74.35,26.31,26.31,0,0,0,5.74-.43,9.85,9.85,0,0,0,4.17-1.48,4,4,0,0,0,.38-.32,3.42,3.42,0,0,0,.49-.44A3,3,0,0,0,119.63,86.2Z"/><path class="cls-11" d="M110.07,83.25a16.93,16.93,0,0,0-4.32,1.1c-1.25.5-4.35,2.17-3.27,3.85h0a10.52,10.52,0,0,1,5.22-3.34,15.37,15.37,0,0,1,2.5-.5A1.43,1.43,0,0,0,111,83.2C110.68,83.2,110.38,83.22,110.07,83.25Z"/><path class="cls-11" d="M112.14,83.26a2.44,2.44,0,0,0-.14.28.78.78,0,0,0,0,.7c.52,0,1,0,1.55,0a1.44,1.44,0,0,0,.45-.59A9.28,9.28,0,0,0,112.14,83.26Z"/></g></g></svg>