<svg xmlns="http://www.w3.org/2000/svg" viewBox="0 0 202.41 175.9"><defs><style>.cls-1{fill:#d1d3d4;}.cls-2{fill:#e6e7e8;}.cls-3{fill:#fff;}.cls-4{fill:#ddd;}.cls-5{fill:#a97d50;}.cls-6{fill:#8c5f3c;}</style></defs><g id="Layer_2" data-name="Layer 2"><path class="cls-1" d="M119,112.27H89.72a1.52,1.52,0,0,1-1.49-1.54h0a1.52,1.52,0,0,1,1.49-1.54H119a1.52,1.52,0,0,1,1.49,1.54h0A1.52,1.52,0,0,1,119,112.27Z"/><path class="cls-1" d="M97.6,109.19h13.47a16.69,16.69,0,0,0,9.39-15.13V77.38H88.21V94.06A16.71,16.71,0,0,0,97.6,109.19Z"/><path class="cls-2" d="M88.3,110.26h32.08a1.49,1.49,0,0,0-1.39-1.07H89.69A1.47,1.47,0,0,0,88.3,110.26Z"/><rect class="cls-3" x="88.21" y="77.38" width="32.25" height="1.07"/><path class="cls-4" d="M95.71,108.12a16.06,16.06,0,0,0,1.89,1.07h13.47a15.41,15.41,0,0,0,1.9-1.07Z"/><path class="cls-2" d="M88.94,99H87.32a6.13,6.13,0,0,1-6-6.22V89.69a6.13,6.13,0,0,1,6-6.23h.89V79.53h-.9a10,10,0,0,0-9.82,10.16v3.12A10,10,0,0,0,87.31,103h3.41A17.26,17.26,0,0,1,88.94,99Z"/><path class="cls-4" d="M87.85,99A17.26,17.26,0,0,0,89.49,103h1.23A17.26,17.26,0,0,1,88.94,99Z"/><path class="cls-4" d="M88.21,79.53H87.15v3.93h1.06Z"/><path class="cls-5" d="M113.44,82.93c-9.06,2.2-8.33,5.63-14.42,7.07a24,24,0,0,1-5.43.61,30.19,30.19,0,0,1-3.75-.26v1.42a15.21,15.21,0,0,0,1,5.3,14.34,14.34,0,0,0,13.58,9.3h.5a14.28,14.28,0,0,0,12.82-8.76,15.5,15.5,0,0,0,1.15-5.83V82.59A15.7,15.7,0,0,0,113.44,82.93Z"/><path class="cls-6" d="M104.87,106.36h-.5a14.34,14.34,0,0,1-13.58-9.3,15.21,15.21,0,0,1-1-5.3v2.29a15.21,15.21,0,0,0,1,5.3,14.34,14.34,0,0,0,13.58,9.3h.5a14.28,14.28,0,0,0,12.82-8.76,15.5,15.5,0,0,0,1.15-5.83V91.77a15.5,15.5,0,0,1-1.15,5.83A14.28,14.28,0,0,1,104.87,106.36Z"/></g></svg>