<svg xmlns="http://www.w3.org/2000/svg" xmlns:xlink="http://www.w3.org/1999/xlink" viewBox="0 0 202.41 175.9"><defs><style>.cls-1{fill:#e6e7e8;}.cls-2{fill:url(#linear-gradient);}.cls-3{fill:#fffef7;opacity:0.48;}</style><linearGradient id="linear-gradient" x1="123.51" y1="98.71" x2="76.14" y2="71.36" gradientUnits="userSpaceOnUse"><stop offset="0" stop-color="#2b85c4"/><stop offset="1" stop-color="#2377ba" stop-opacity="0"/></linearGradient></defs><g id="Layer_2" data-name="Layer 2"><polygon class="cls-1" points="100.45 118.98 115.17 118.98 119.68 49.29 100.45 49.29 81.21 49.29 85.72 118.98 100.45 118.98"/><path class="cls-2" d="M110.4,55.57l-2.46-.48-.29-.05-.17,0-1-.11a10.8,10.8,0,0,0-2,0l-.27,0L104,55c-.35.08-.7.18-1,.29-.8.27-1.57.67-2.38.92a10.75,10.75,0,0,1-2.36.48,12.11,12.11,0,0,1-4.1-.4c-1.11-.28-2.19-.68-3.27-1-.54-.18-1.09-.36-1.64-.5l-.39-.09-.5-.06a8,8,0,0,0-.85,0h-.15a4.79,4.79,0,0,0-.73.24l-.13,0-.09.06a7.47,7.47,0,0,0-.87.64v0c-.11.1-.21.21-.32.33s-.37.45-.55.68l3.17,60.12h25.28l3.2-60.86A19.74,19.74,0,0,1,110.4,55.57Z"/><path class="cls-3" d="M100.73,80.34l2.58-3.26a3.13,3.13,0,0,0,.9-1.9,3.16,3.16,0,0,0-1.31-2.09l-3.73-3.43a3.78,3.78,0,0,0-2.49-1.31,3.79,3.79,0,0,0-2.46,1.59l-2.83,3.18a2.93,2.93,0,0,0-1,1.89,2.88,2.88,0,0,0,1.19,1.85l4.16,3.78A3.76,3.76,0,0,0,98.56,82,3.73,3.73,0,0,0,100.73,80.34Z"/><path class="cls-3" d="M112.05,83.54l.77-4.08a2.39,2.39,0,0,0-2.23-3.35l-4.9-1.29a2.85,2.85,0,0,0-4.25,2.56l-1,4.14a2.17,2.17,0,0,0,1.94,3.2l5.45,1.4a2.79,2.79,0,0,0,4.24-2.58Z"/><path class="cls-3" d="M99.57,86.17l.76-4.08a2.38,2.38,0,0,0-2.22-3.34l-4.9-1.29a3.82,3.82,0,0,0-2.82,0A3.82,3.82,0,0,0,89,80l-1,4.14a2.17,2.17,0,0,0,1.94,3.2l5.44,1.4a2.8,2.8,0,0,0,4.25-2.58Z"/><path class="cls-3" d="M102.22,86.76l-2-3.62A2.38,2.38,0,0,0,96.33,82l-4.58,2.16A3.87,3.87,0,0,0,89.59,86a3.83,3.83,0,0,0,.55,2.89L92,92.69a2.89,2.89,0,0,0,1.39,1.61,2.93,2.93,0,0,0,2.15-.4l5.07-2.44c1-.46,2-1,2.29-2.08A3.68,3.68,0,0,0,102.22,86.76Z"/><path class="cls-3" d="M106.23,97.92l-2-3.61a3.12,3.12,0,0,0-1.42-1.55,3.17,3.17,0,0,0-2.43.42l-4.58,2.16A2.84,2.84,0,0,0,94.15,100L96,103.86a2.16,2.16,0,0,0,3.54,1.2l5.07-2.43c1-.46,2-1,2.29-2.08A3.71,3.71,0,0,0,106.23,97.92Z"/><path class="cls-3" d="M112,96.66l1.44-3.89a3.25,3.25,0,0,0,.26-2.09,3.19,3.19,0,0,0-1.89-1.58L107.19,87a2.85,2.85,0,0,0-4.62,1.81l-1.69,3.91a2.16,2.16,0,0,0,1.37,3.48l5.13,2.29a3.72,3.72,0,0,0,3.07.4A3.66,3.66,0,0,0,112,96.66Z"/></g></svg>