<svg xmlns="http://www.w3.org/2000/svg" viewBox="0 0 202.41 175.9"><defs><style>.cls-1{fill:#b6cbd8;}.cls-2{fill:#e8ebf0;}.cls-3{fill:#9a5d2c;}.cls-4{fill:#f1bf78;}.cls-5{fill:#d2965e;}.cls-6{fill:#ad8355;}.cls-7{opacity:0.7;}.cls-8{fill:#b15d2e;}.cls-9{fill:#965129;}</style></defs><g id="Layer_2" data-name="Layer 2"><path class="cls-1" d="M154.26,92.42a5.75,5.75,0,0,0,.07-1.55,13.41,13.41,0,0,0-.26-1.52c-3.81-6.72-24.35-11.86-49.12-11.86-25.12,0-45.89,5.28-49.28,12.15a3.65,3.65,0,0,0-.21,2.65c-.85,3,2.13,6.06,4.07,7.61,7.78,5.21,25.18,8.84,45.42,8.84,23.09,0,42.51-4.73,48.12-11.13h0a5.58,5.58,0,0,0,.43-.71,7.09,7.09,0,0,0,.83-3.89C154.31,92.81,154.29,92.62,154.26,92.42Z"/><path class="cls-2" d="M104.73,79.1c26.6,0,48.16,5.6,48.16,12.52s-21.56,12.52-48.16,12.52S56.56,98.53,56.56,91.62,78.12,79.1,104.73,79.1Z"/><path class="cls-2" d="M104.73,107c-25.66,0-46.63-5.52-48.09-12.47a14.94,14.94,0,0,0,2.89,2.82c7.78,4.92,25.18,8.35,45.42,8.35,22,0,40.66-4,47.23-9.67C148.25,102.3,128.5,107,104.73,107Z"/><path class="cls-1" d="M135.24,89.27a7.38,7.38,0,0,0-.16-.94C132.72,84.16,120,81,104.69,81c-15.55,0-28.4,3.27-30.49,7.51-.91,1.85,1.11,3.83,2.39,4.8,4.81,3,15.58,5.17,28.1,5.17C119,98.47,131,95.7,134.46,92h0a3,3,0,0,0,.27-.42A4,4,0,0,0,135.24,89.27Z"/><path class="cls-2" d="M104.55,97.47c-16.46,0-29.8-3.26-29.8-7.28s13.34-7.28,29.8-7.28,29.8,3.26,29.8,7.28S121,97.47,104.55,97.47Z"/><path class="cls-3" d="M131.76,86.53a1.13,1.13,0,0,0,.27-.73,2.8,2.8,0,0,0-.54-1.31,6.65,6.65,0,0,0-2-2,46.73,46.73,0,0,0-4.64-3.09c-2.73-1.66-5.65-3-8.53-4.42-1.49-.72-2.88-1.72-4.44-2.31a3.28,3.28,0,0,0-2-.19,2.16,2.16,0,0,0-1.31,1.25,12.34,12.34,0,0,1-1.18.51c-.76.27-1.54.49-2.31.7-3,.83-6.12,1.3-9.11,2.22a26.38,26.38,0,0,1-4.7,1.21c-.79.1-1.88.12-2.42.8h0a1.73,1.73,0,0,0-.48,2.21A8.82,8.82,0,0,1,89,83.07,8.67,8.67,0,0,1,89,85.4a4.31,4.31,0,0,0,.86,3.3,10.31,10.31,0,0,0,2.57,1.93c2.41,1.53,4.12,3.83,5.89,6,.43.53.85,1.06,1.32,1.55A15.67,15.67,0,0,1,101,99.69c.28.36.5.91.94,1.12a.59.59,0,0,0,.34,0,2.38,2.38,0,0,0,1,.31,6,6,0,0,0,2.87-.69,74.48,74.48,0,0,1,8.66-3.35c1.5-.49,3-.93,4.53-1.37s3-1,4.47-1.56A39.06,39.06,0,0,1,128.39,93c1-.24,2.25-.6,2.71-1.61a3.9,3.9,0,0,0,.15-1.7,14.33,14.33,0,0,1,.09-2.17A2,2,0,0,1,131.76,86.53Z"/><path class="cls-4" d="M90,79.11c.53-.11,1.08-.19,1.62-.28a38.27,38.27,0,0,0,4.46-1.24c1.5-.47,3-.82,4.56-1.16l4.55-1c.71-.16,1.43-.32,2.13-.51a12.93,12.93,0,0,0,2-.87,4.6,4.6,0,0,1,1.83-.57h.29A18.24,18.24,0,0,1,114,74.81c1.11.66,2.31,1.17,3.47,1.73,1.45.7,2.88,1.41,4.3,2.16q3.1,1.64,6.12,3.45a12.54,12.54,0,0,1,2.08,1.46c.45.41,1.07,1,1,1.67,0,.26-.26.42-.47.54a6.61,6.61,0,0,1-2,.56c-1.34.23-2.65.49-4,.84-3.15.85-6.17,2.1-9.25,3.18s-6.26,2.17-9.43,3.11c-.73.21-1.41.57-2.14.21a7.09,7.09,0,0,1-1.7-1.49c-1.13-1.14-2.23-2.31-3.32-3.49-2.21-2.35-4.55-4.56-6.85-6.82a21.21,21.21,0,0,1-2.27-2.17,1.08,1.08,0,0,1-.15-.28c0-.08,0-.15,0-.14A1.53,1.53,0,0,1,90,79.11Z"/><path class="cls-5" d="M100.84,98a31.09,31.09,0,0,1-2.44-2.81,29,29,0,0,0-4-4.24c-1.8-1.49-4.79-2.3-4.81-5.06a12.81,12.81,0,0,0-.06-3.66,13.2,13.2,0,0,0-.68-1.48,1.56,1.56,0,0,1-.14-.79,3.44,3.44,0,0,0,1.1,1.22,13.4,13.4,0,0,1,1.18.93c.61.58,1.23,1.15,1.83,1.73,2.31,2.25,4.51,4.58,6.68,7A28.45,28.45,0,0,0,102.71,94a2.59,2.59,0,0,0,.89.49.64.64,0,0,1,0,.07,11.17,11.17,0,0,0-.39,3c0,.77,0,1.55-.08,2.32A8.78,8.78,0,0,1,100.84,98Z"/><path class="cls-6" d="M130.52,90.05a5.91,5.91,0,0,1,.12,1c0,.45-.29.64-.67.8a8.67,8.67,0,0,1-1.82.46c-.77.15-1.54.28-2.31.45a37,37,0,0,0-4.44,1.54c-1.49.53-3,.92-4.54,1.39s-3,1-4.48,1.48-2.95,1.09-4.4,1.72a9.73,9.73,0,0,1-3.74,1.24,1.83,1.83,0,0,1-.33,0c0-.07,0-.14,0-.24a2.75,2.75,0,0,1,0-.81l.06-.73c0-.22,0-.44.06-.66,0-.56.11-1.12.11-1.69a7,7,0,0,0-.06-1.44h.13a8.7,8.7,0,0,0,2.23-.62c3.14-1.06,6.31-2,9.44-3.12s6.09-2.31,9.25-3.13c1.3-.34,2.61-.51,3.92-.8a4,4,0,0,0,2.32-1.06,1.26,1.26,0,0,1-.26.48,3.31,3.31,0,0,0-.65,1.88A7.2,7.2,0,0,0,130.52,90.05Z"/><g class="cls-7"><path class="cls-8" d="M99.82,77.94c-.13-.45-.61-.49-1-.47a3.42,3.42,0,0,0-.63.09,1.15,1.15,0,0,0-.94.33c-.36.15-.71.33-1,.49-.67.35-.58,1.3-.54,1.93,0,.8,0,1.6.09,2.4a1.53,1.53,0,0,1-.1.17A1.59,1.59,0,0,0,95.24,84c.06.39.38.48.72.35a.77.77,0,0,0,.35-.22,1,1,0,0,0,.25-.33c.1-.16.11-.21,0-.15a8.73,8.73,0,0,0,.68-.92,3,3,0,0,0,.24-1v0l.27-.46a11.15,11.15,0,0,1,1.4-1.73C99.53,79.06,100,78.52,99.82,77.94Z"/><path class="cls-8" d="M107,76.18c.05-.3-.11-.46-.41-.44a2.64,2.64,0,0,0-.87.25l-.48,0a5.88,5.88,0,0,0-.75.11,2.29,2.29,0,0,0-.85.16c-.3.14-.72.52-.56.9a.29.29,0,0,1,0,.09.58.58,0,0,0,0,.14,2.16,2.16,0,0,1-.1.75,3.82,3.82,0,0,0-.12,1.07,3.69,3.69,0,0,0,.25.86h0a2,2,0,0,0-.1,2c.13.3.52.15.7,0a3.43,3.43,0,0,0,.63-.83c.11-.22.13-.48.21-.68a.41.41,0,0,0,.05-.09.21.21,0,0,1,0-.06,2.28,2.28,0,0,0,.73-1.55,8.89,8.89,0,0,1,.45-.79.35.35,0,0,1,0-.08,1.31,1.31,0,0,0,.19-.27A3.24,3.24,0,0,0,107,76.18Z"/><path class="cls-8" d="M103.37,85.49a3.47,3.47,0,0,0,.09-1.24,3.05,3.05,0,0,0,0-.52,1.56,1.56,0,0,1-.11-.41c0-.17-.19-.14-.29-.09a1.73,1.73,0,0,0-.87,1.24,6.44,6.44,0,0,0-.1.87,2.45,2.45,0,0,1-.08.37s0,0,0,0l-.06,0a2.13,2.13,0,0,0-1.1,1.24.88.88,0,0,0,.15.77,1.82,1.82,0,0,0,.29.27c-.13.19-.38.49-.47.67a1.37,1.37,0,0,0,0,1.12.39.39,0,0,0,.45.22h.06c.31-.06.76-.4.71-.77a1.93,1.93,0,0,1,0-.34v-.2c.19-.26.4-.5.57-.78a.94.94,0,0,0,0-.89.56.56,0,0,0-.2-.23l.24-.18A2.32,2.32,0,0,0,103.37,85.49Z"/><path class="cls-8" d="M112.25,76.13a1.25,1.25,0,0,0,.39-.85.87.87,0,0,0-.8-.77c-.72-.13-2.1.28-2.25,1.1a.41.41,0,0,0,.08.34,4.07,4.07,0,0,0-.11,1c0,.71-.08,1.41-.14,2.12a6.17,6.17,0,0,0,0,1.29,2.89,2.89,0,0,0,0,1.24,1.56,1.56,0,0,1,0,.16,2.47,2.47,0,0,1-.18.52c-.18.17-.36.35-.53.54a2,2,0,0,0-.36,1.94l0,.15a5.43,5.43,0,0,0,0,.57v.1a4.53,4.53,0,0,0-.36,1c-.06.38,0,.77-.05,1.16s-.09.81-.19,1.21a.43.43,0,0,1,0,.11l-.39.81c-.14.31-.46.78-.35,1.14-.12.27-.11.55.24.57a2.74,2.74,0,0,0,1.48-.18,1.78,1.78,0,0,0,1.55-1.77c0-.87-.45-1.67-.51-2.53a3,3,0,0,0,.09-.73c.12-.44.35-.89.46-1.29a10.42,10.42,0,0,0,.31-2.15,6.23,6.23,0,0,0,.58-1.19,7.44,7.44,0,0,0,.14-1.94,6.56,6.56,0,0,1,.48-2,2.45,2.45,0,0,0,0-1.42A3.11,3.11,0,0,0,112.25,76.13Z"/><path class="cls-8" d="M118.89,78.55c.09-.28.08-.69-.22-.84a.67.67,0,0,0-.43-.08l-.33-.07c.06-.08.08-.17,0-.21a2,2,0,0,0-.63-.13,1.86,1.86,0,0,0-.34,0c-.06,0-.28,0-.19.06h0a.85.85,0,0,0-.6.33,1.21,1.21,0,0,0-.31,1.12,6.77,6.77,0,0,0,.25.8,4.63,4.63,0,0,1,.19,1.22c.06.87,0,1.75.11,2.63s-.67,1.32-.62,2.14a4.34,4.34,0,0,0,.14.6,3.42,3.42,0,0,0-.27.62.5.5,0,0,0,0,.13,2.51,2.51,0,0,0-.23.25c-.28.4-.62,1.32-.09,1.66.73.47,1.66-.46,2.37-.5.33,0,.79-.49.64-.83a10.53,10.53,0,0,0-.67-1.06c-.25-.45.17-1.09.31-1.53a3.79,3.79,0,0,0-.06-1.8c0-.15,0-.3,0-.45a2.84,2.84,0,0,0,.1-1.08c0-.21.08-.43.12-.63C118.19,80,118.62,79.45,118.89,78.55Z"/><path class="cls-8" d="M125.52,81.41a2.25,2.25,0,0,0-1-.54c-.14-.05-1-.23-1-.25s-.28,0-.32.12a.38.38,0,0,0,.08.42,1.35,1.35,0,0,0-.26.15c-.26.19-.64.62-.35.94a2,2,0,0,0,.79.52l0,0a1.56,1.56,0,0,0-.3,1.14c.08.35.24.49.09.85a1.63,1.63,0,0,0-.14,1.12.43.43,0,0,0,.5.25,1.06,1.06,0,0,0,.83-.77c.08-.4.28-.76.35-1.16a1.26,1.26,0,0,0,0-.61c0-.09-.11-.22-.15-.34h0a2.1,2.1,0,0,0,.55-.52.84.84,0,0,0,.17-.59C125.57,82,125.71,81.65,125.52,81.41Z"/></g><path class="cls-9" d="M98.61,78.3a.6.6,0,0,0-.45-.06,2.08,2.08,0,0,0-.76.12,4,4,0,0,0-.83.21.87.87,0,0,0-.52.57.35.35,0,0,0,.41.45,3.67,3.67,0,0,0,1.83-.67.65.65,0,0,0,.17-.26.57.57,0,0,0,.16-.22S98.65,78.34,98.61,78.3Z"/><path class="cls-9" d="M98.07,79.42l-.16,0c-.25-.11-.53,0-.79.1l-.18,0h0l-.11,0c-.29.08-.72.8-.2.84a1.75,1.75,0,0,0,1.25-.38.72.72,0,0,0,.19-.33l0,0C98.17,79.67,98.3,79.37,98.07,79.42Z"/><path class="cls-9" d="M97,80.75l0,0h0a.22.22,0,0,0-.14-.06l-.14,0h0a.48.48,0,0,0-.16.09c-.11.11-.24.36,0,.46s.43-.09.54-.23S97.15,80.79,97,80.75Z"/><path class="cls-9" d="M105.92,76.3a9,9,0,0,0-2,.44c-.21.1-.74.65-.3.83a1.44,1.44,0,0,0,1.28-.22.47.47,0,0,0,.23-.35,3.38,3.38,0,0,0,.79-.38C106,76.55,106.15,76.25,105.92,76.3Z"/><path class="cls-9" d="M104.87,77.9c-.26,0-.52,0-.78,0a.62.62,0,0,0-.6.55c0,.3.33.24.52.13h0a5.46,5.46,0,0,1,.78-.35C104.89,78.18,105.08,77.91,104.87,77.9Z"/><path class="cls-9" d="M104.64,79.33a.7.7,0,0,0-.55,0,1.72,1.72,0,0,0-.44.19c-.13.09-.32.32-.18.47a.18.18,0,0,0,.08,0,.59.59,0,0,0,.37,0,1.21,1.21,0,0,0,.46-.08.66.66,0,0,0,.33-.31A.28.28,0,0,0,104.64,79.33Z"/><path class="cls-9" d="M103,85a.22.22,0,0,0-.22-.15.48.48,0,0,0-.48.44.19.19,0,0,0,.17.19.55.55,0,0,0,.22,0,.8.8,0,0,0,.19-.13A.33.33,0,0,0,103,85Z"/><path class="cls-9" d="M102.55,86.41h-.08a.77.77,0,0,0-.37,0,2.15,2.15,0,0,0-.64.13.69.69,0,0,0-.39.36c-.07.14-.1.39.09.46a1.36,1.36,0,0,0,1.26-.3.66.66,0,0,0,.21-.45C102.66,86.5,102.66,86.42,102.55,86.41Z"/><path class="cls-9" d="M102.18,87.33a.52.52,0,0,0-.37.29.24.24,0,0,0,.06.33.43.43,0,0,0,.46-.19.37.37,0,0,0,.09-.25A.2.2,0,0,0,102.18,87.33Z"/><path class="cls-9" d="M111.68,76.42a.59.59,0,0,0-.6,0l-.11,0-.26.07a.7.7,0,0,0-.37.35c0,.1-.1.29,0,.38a.54.54,0,0,0,.52.09,1.82,1.82,0,0,0,.55-.2.72.72,0,0,0,.27-.3C111.74,76.71,111.79,76.5,111.68,76.42Z"/><path class="cls-9" d="M111.75,75.29c-.19-.17-.45-.1-.68,0a2.79,2.79,0,0,0-.55.2.55.55,0,0,0-.37.48.21.21,0,0,0,.2.22h0a1.57,1.57,0,0,0,.53-.11,3.56,3.56,0,0,1,.44-.06.58.58,0,0,0,.38-.24C111.78,75.63,111.88,75.41,111.75,75.29Z"/><path class="cls-9" d="M110.16,79.19h0a.41.41,0,0,0-.37.44.32.32,0,0,0,.5.1.51.51,0,0,0,.24-.39C110.49,79.17,110.3,79.13,110.16,79.19Z"/><path class="cls-9" d="M111,82.51a.92.92,0,0,0-.36-.07.33.33,0,0,0-.15,0,3.76,3.76,0,0,0-.87.19c-.33,0-1,.77-.48,1a1.56,1.56,0,0,0,.95-.08,1,1,0,0,0,.64-.49.57.57,0,0,0,0-.14l.07,0C110.91,82.82,111.18,82.58,111,82.51Z"/><path class="cls-9" d="M109.57,85.67h-.18a.49.49,0,0,0-.24,0h0l-.11.05a.57.57,0,0,0-.29.47.29.29,0,0,0,.14.25.55.55,0,0,0,.18.06.79.79,0,0,0,.4,0,.76.76,0,0,0,.45-.49A.29.29,0,0,0,109.57,85.67Z"/><path class="cls-9" d="M109.19,87a.3.3,0,0,0-.27-.08.59.59,0,0,0-.39.3c0,.11-.07.3.07.35a.48.48,0,0,0,.4-.06C109.16,87.41,109.32,87.16,109.19,87Z"/><path class="cls-9" d="M110.24,89.29a.49.49,0,0,0-.25-.08.85.85,0,0,0-.5,0,1.46,1.46,0,0,0-.84.48.36.36,0,0,0,0,.56,1.34,1.34,0,0,0,1.59-.38C110.39,89.68,110.46,89.43,110.24,89.29Z"/><path class="cls-9" d="M118.48,78.31c-.14-.36-.55-.41-.92-.33a1.09,1.09,0,0,0-.36,0c-.3,0-.78.45-.58.79s.47.29.73.31a1.32,1.32,0,0,0,.94-.26A.49.49,0,0,0,118.48,78.31Z"/><path class="cls-9" d="M118.13,79.86a.19.19,0,0,0,0-.08s0,0,0,0a.24.24,0,0,0-.06-.11.31.31,0,0,0-.29-.06h0a.67.67,0,0,0-.4.26c-.09.12-.17.33,0,.46a.36.36,0,0,0,.37,0,.9.9,0,0,0,.2-.14.5.5,0,0,0,.18-.27A.07.07,0,0,0,118.13,79.86Z"/><path class="cls-9" d="M117.57,81.74a.29.29,0,0,0-.33,0h-.06a.61.61,0,0,0-.3.08c-.19.12-.37.49-.06.57a1,1,0,0,0,.35,0,.57.57,0,0,0,.44-.41A.26.26,0,0,0,117.57,81.74Z"/><path class="cls-9" d="M117.28,81.69Z"/><path class="cls-9" d="M117.54,84.46c-.21-.31-.63-.17-.9,0h-.06l-.17.08s0,0,0,0l-.11.08a.55.55,0,0,0-.21.39c0,.33.32.39.57.34a1.82,1.82,0,0,0,.79-.38A.46.46,0,0,0,117.54,84.46Z"/><path class="cls-9" d="M116.64,86.3a.17.17,0,0,0-.16-.17.4.4,0,0,0-.36.19h0a.45.45,0,0,0-.08.22.18.18,0,0,0,.1.16h0a.33.33,0,0,0,.3,0,.43.43,0,0,0,.21-.31S116.65,86.31,116.64,86.3Z"/><path class="cls-9" d="M117.91,87.19c-.18-.26-.54-.21-.8-.14a1.65,1.65,0,0,0-.55.3,1,1,0,0,0-.47.56c-.12.48.39.59.74.49a2.08,2.08,0,0,0,1-.67A.46.46,0,0,0,117.91,87.19Z"/><path class="cls-9" d="M124.61,81.21a.68.68,0,0,0-.71,0,.8.8,0,0,0-.24,0,.63.63,0,0,0-.48.75c.1.28.47.26.7.2a1.18,1.18,0,0,0,.82-.58C124.76,81.49,124.78,81.32,124.61,81.21Z"/><path class="cls-9" d="M125.19,82.3a.14.14,0,0,0-.18-.14h0a.45.45,0,0,0-.16,0,.5.5,0,0,0-.23.18c-.07.09-.13.26,0,.36s.27.06.37,0a.67.67,0,0,0,.15-.14.39.39,0,0,0,.06-.11A.22.22,0,0,0,125.19,82.3Z"/><path class="cls-9" d="M124.31,84v0a.2.2,0,0,0-.11-.17.33.33,0,0,0-.33,0l-.07,0h0l-.06,0h0a.49.49,0,0,0-.26.23.32.32,0,0,0,0,.14.16.16,0,0,0,.09.15.53.53,0,0,0,.53-.06A.47.47,0,0,0,124.31,84Z"/><path class="cls-9" d="M124,85.19a.18.18,0,0,0-.16-.12.48.48,0,0,0-.45.28.27.27,0,0,0,0,.23.18.18,0,0,0,.16.12.5.5,0,0,0,.45-.28A.27.27,0,0,0,124,85.19Z"/><path class="cls-4" d="M92.59,85.08A5,5,0,0,0,92,83.33c-.47-.76-1.44-.17-1.71.45A3.34,3.34,0,0,0,90.37,86a5.56,5.56,0,0,0,.29.9,1.3,1.3,0,0,0,.65.81,1,1,0,0,0,1.06-.42A2.86,2.86,0,0,0,92.59,85.08Z"/><path class="cls-4" d="M94,87.75a.45.45,0,0,0-.23,0,.69.69,0,0,0-.36.18.72.72,0,0,0-.21.34,1,1,0,0,0,0,.15.31.31,0,0,0,0,.13.5.5,0,0,0,.19.19h0a.24.24,0,0,0,.15,0,.57.57,0,0,0,.27-.13.67.67,0,0,0,.16-.24v0a.64.64,0,0,0,.12-.25A.27.27,0,0,0,94,87.75Z"/><path class="cls-3" d="M118.37,78.64a1.08,1.08,0,0,0,0-.77,2.66,2.66,0,0,0-1-1,6.52,6.52,0,0,0-2.6-1.14,44.11,44.11,0,0,0-5.47-1.09c-3.16-.5-6.37-.66-9.57-.85-1.66-.1-3.32-.5-5-.45a3.22,3.22,0,0,0-2,.61A2.14,2.14,0,0,0,92,75.59a11.15,11.15,0,0,1-.9.92c-.6.53-1.23,1-1.87,1.53-2.47,1.91-5.16,3.52-7.58,5.52a26.66,26.66,0,0,1-3.88,2.9c-.7.39-1.7.83-1.94,1.66h0a1.74,1.74,0,0,0,.39,2.22,9.13,9.13,0,0,1,1.28,1.36,8.62,8.62,0,0,1,.83,2.17A4.31,4.31,0,0,0,80.4,96.6a10.73,10.73,0,0,0,3.11.81c2.8.49,5.26,2,7.73,3.31.59.32,1.19.65,1.81.92a16.1,16.1,0,0,1,1.89.86c.4.23.82.65,1.3.68a.67.67,0,0,0,.33-.08,2.61,2.61,0,0,0,1.07-.11,6,6,0,0,0,2.39-1.73,78.09,78.09,0,0,1,6.73-6.39c1.21-1,2.45-2,3.68-3s2.38-2.06,3.54-3.14a41.05,41.05,0,0,1,3.75-2.8c.83-.6,1.85-1.4,1.89-2.52a4,4,0,0,0-.5-1.63,13.32,13.32,0,0,1-.74-2A2,2,0,0,1,118.37,78.64Z"/><path class="cls-4" d="M77,87.65c.45-.31.93-.59,1.39-.88A37.38,37.38,0,0,0,82,83.92c1.21-1,2.49-1.91,3.77-2.8l3.84-2.65c.59-.42,1.19-.84,1.77-1.29a12.94,12.94,0,0,0,1.5-1.55,4.35,4.35,0,0,1,1.48-1.22l.27-.12a19.11,19.11,0,0,1,2.82.28c1.28.19,2.58.2,3.87.28,1.6.1,3.2.21,4.8.36,2.33.23,4.66.51,7,.87a13.1,13.1,0,0,1,2.48.56c.57.2,1.37.52,1.59,1.14a.74.74,0,0,1-.22.68,6.37,6.37,0,0,1-1.65,1.28c-1.15.73-2.26,1.47-3.34,2.29-2.6,2-4.91,4.29-7.35,6.45s-5,4.39-7.55,6.47c-.58.47-1.08,1.06-1.89,1A6.85,6.85,0,0,1,93,95.23c-1.48-.63-2.94-1.3-4.4-2-2.94-1.34-5.94-2.49-8.93-3.71a21.54,21.54,0,0,1-2.92-1.14,2.43,2.43,0,0,1-.25-.2c0-.06,0-.14-.07-.12A1.62,1.62,0,0,1,77,87.65Z"/><path class="cls-5" d="M94.13,101a33.39,33.39,0,0,1-3.33-1.67,28.71,28.71,0,0,0-5.29-2.42c-2.22-.69-5.3-.3-6.37-2.85a12.7,12.7,0,0,0-1.45-3.36,13.81,13.81,0,0,0-1.18-1.11,1.56,1.56,0,0,1-.44-.67,3.56,3.56,0,0,0,1.49.7A12.43,12.43,0,0,1,79,90c.79.3,1.57.59,2.35.9,3,1.2,5.91,2.52,8.83,3.89a27.69,27.69,0,0,0,4.16,1.78,2.89,2.89,0,0,0,1,.12s0,0,0,.06a11,11,0,0,0,.8,3c.24.73.55,1.44.81,2.17A8.77,8.77,0,0,1,94.13,101Z"/><path class="cls-6" d="M118.56,82.37a6.23,6.23,0,0,1,.51.91.86.86,0,0,1-.32,1,8.27,8.27,0,0,1-1.51,1.11c-.65.44-1.32.85-2,1.3a37.31,37.31,0,0,0-3.53,3.12c-1.17,1-2.45,2-3.66,3s-2.42,2-3.59,3.07-2.31,2.13-3.41,3.26a9.79,9.79,0,0,1-3,2.57,1.92,1.92,0,0,1-.31.11l-.13-.21a3.25,3.25,0,0,1-.32-.74c-.07-.24-.15-.47-.22-.7s-.12-.42-.19-.64c-.17-.53-.34-1.07-.55-1.6a6.71,6.71,0,0,0-.6-1.31l.12-.05a8.9,8.9,0,0,0,1.83-1.42c2.5-2.17,5.06-4.27,7.54-6.48s4.75-4.45,7.36-6.41c1.08-.8,2.23-1.47,3.33-2.23a4,4,0,0,0,1.74-1.86,1.25,1.25,0,0,1,0,.54,3.23,3.23,0,0,0,.11,2A6.94,6.94,0,0,0,118.56,82.37Z"/><g class="cls-7"><path class="cls-8" d="M85.57,82.84c-.29-.36-.76-.22-1.11,0a2.81,2.81,0,0,0-.55.32,1.18,1.18,0,0,0-.75.66c-.27.28-.52.57-.76.85-.49.57,0,1.42.23,2,.35.72.64,1.47,1,2.18,0,.08,0,.17,0,.2a1.5,1.5,0,0,0,0,1.16c.2.33.52.3.79,0a.76.76,0,0,0,.24-.34,1.08,1.08,0,0,0,.11-.4c0-.18,0-.23,0-.15a10.47,10.47,0,0,0,.29-1.1,2.85,2.85,0,0,0-.18-1v0c0-.17.05-.35.08-.52a10.25,10.25,0,0,1,.63-2.13A1.74,1.74,0,0,0,85.57,82.84Z"/><path class="cls-8" d="M91.5,78.5c-.07-.3-.27-.38-.55-.26a2.78,2.78,0,0,0-.71.57l-.43.21a3.5,3.5,0,0,0-.65.39,2,2,0,0,0-.73.47c-.22.24-.47.76-.18,1.05a.19.19,0,0,1,.06.07.44.44,0,0,0,.08.11,2.25,2.25,0,0,1,.19.73,4,4,0,0,0,.3,1,3.74,3.74,0,0,0,.56.7h0a2,2,0,0,0,.67,1.86c.23.22.54-.06.63-.28a3.16,3.16,0,0,0,.27-1c0-.24-.06-.49-.06-.71,0,0,0-.07,0-.11s0,0,0-.06a2.27,2.27,0,0,0,.09-1.71c0-.31.06-.61.11-.91,0,0,0-.06,0-.09a1.16,1.16,0,0,0,.08-.32A3.29,3.29,0,0,0,91.5,78.5Z"/><path class="cls-8" d="M91.72,88.47a3.81,3.81,0,0,0-.39-1.18,2.94,2.94,0,0,0-.25-.46,1.66,1.66,0,0,1-.25-.34c-.06-.16-.23,0-.3,0A1.71,1.71,0,0,0,90.19,88a8.06,8.06,0,0,0,.24.84,2.38,2.38,0,0,1,.06.37,0,0,0,0,1,0,0,.23.23,0,0,0,0,.05,2.17,2.17,0,0,0-.55,1.56.91.91,0,0,0,.44.66,1.63,1.63,0,0,0,.37.13,5.31,5.31,0,0,0-.18.8,1.38,1.38,0,0,0,.47,1,.41.41,0,0,0,.5,0l0,0c.27-.17.55-.66.36-1a2,2,0,0,1-.13-.31l0-.14,0,0c.07-.31.18-.62.23-.94a1,1,0,0,0-.31-.84.75.75,0,0,0-.27-.13l.15-.25A2.33,2.33,0,0,0,91.72,88.47Z"/><path class="cls-8" d="M96.37,76.44a1.27,1.27,0,0,0,0-.94.88.88,0,0,0-1-.4c-.7.15-1.84,1.05-1.65,1.87a.4.4,0,0,0,.19.29,4.74,4.74,0,0,0,.28,1,20.84,20.84,0,0,1,.68,2,6.21,6.21,0,0,0,.54,1.17,2.79,2.79,0,0,0,.5,1.13l.1.13a2.5,2.5,0,0,1,0,.55,7.52,7.52,0,0,0-.29.71,1.93,1.93,0,0,0,.41,1.92.64.64,0,0,0,.1.13c.06.18.12.36.19.53a.42.42,0,0,1,0,.1,4.51,4.51,0,0,0,0,1c.08.38.29.72.39,1.1a11.48,11.48,0,0,1,.29,1.19s0,.07,0,.11c0,.3,0,.6,0,.89s-.14.9.11,1.19c0,.29.1.55.44.44a2.84,2.84,0,0,0,1.3-.73,1.79,1.79,0,0,0,.76-2.23c-.32-.81-1-1.37-1.43-2.15a3.49,3.49,0,0,0-.2-.7c-.05-.45,0-1-.06-1.37a11.08,11.08,0,0,0-.54-2.11A5.87,5.87,0,0,0,97.67,82a7.72,7.72,0,0,0-.61-1.85,6.74,6.74,0,0,1-.32-2,2.42,2.42,0,0,0-.54-1.31A2,2,0,0,0,96.37,76.44Z"/><path class="cls-8" d="M103.43,76.16c0-.3-.18-.67-.52-.7a.69.69,0,0,0-.43.09,1.91,1.91,0,0,0-.33.06c0-.1,0-.18-.11-.18a1.9,1.9,0,0,0-.63.12l-.3.16s-.25.13-.15.13h0a.87.87,0,0,0-.43.53,1.24,1.24,0,0,0,.14,1.16,6.65,6.65,0,0,0,.54.65,4.65,4.65,0,0,1,.63,1c.4.78.7,1.61,1.11,2.39s-.12,1.48.23,2.22a4.29,4.29,0,0,0,.37.5,3.81,3.81,0,0,0,0,.68.5.5,0,0,0,0,.12,1.82,1.82,0,0,0-.11.33c-.11.47-.08,1.45.54,1.57.86.15,1.36-1.06,2-1.37.29-.14.54-.75.27-1a11.76,11.76,0,0,0-1-.72c-.41-.32-.26-1.08-.29-1.54a3.88,3.88,0,0,0-.74-1.64,3.17,3.17,0,0,1-.21-.41,3.09,3.09,0,0,0-.32-1c-.05-.21-.09-.42-.13-.63C103.35,77.77,103.53,77.08,103.43,76.16Z"/><path class="cls-8" d="M110.65,76.28a2.22,2.22,0,0,0-1.08-.14c-.15,0-1,.17-1,.16s-.23.16-.24.24.07.26.22.35a1.08,1.08,0,0,0-.18.24c-.17.27-.35.81,0,1a2,2,0,0,0,.93.17v0a1.56,1.56,0,0,0,.16,1.18c.2.29.41.36.41.75a1.61,1.61,0,0,0,.29,1.09.45.45,0,0,0,.56,0,1.08,1.08,0,0,0,.48-1c-.09-.4,0-.81-.12-1.21a1.25,1.25,0,0,0-.25-.55l-.28-.25h0a2,2,0,0,0,.31-.69.86.86,0,0,0-.07-.61C110.91,76.76,110.92,76.43,110.65,76.28Z"/></g><path class="cls-9" d="M84.59,83.63a.61.61,0,0,0-.45.12,2.25,2.25,0,0,0-.66.39,5.82,5.82,0,0,0-.68.52.86.86,0,0,0-.27.73.35.35,0,0,0,.55.25,3.71,3.71,0,0,0,1.44-1.31.59.59,0,0,0,.06-.31.48.48,0,0,0,.06-.26S84.63,83.65,84.59,83.63Z"/><path class="cls-9" d="M84.51,84.88l-.14.09c-.27,0-.48.22-.69.39l-.15.1h0l-.09.07c-.23.18-.37,1,.13.85a1.67,1.67,0,0,0,1-.83.65.65,0,0,0,.06-.37v0C84.7,85.06,84.7,84.74,84.51,84.88Z"/><path class="cls-9" d="M84.05,86.5h0a.19.19,0,0,0-.15,0,.28.28,0,0,0-.12.08h0a1.12,1.12,0,0,0-.11.15c-.06.15-.08.42.13.44s.37-.24.42-.42S84.17,86.49,84.05,86.5Z"/><path class="cls-9" d="M90.58,79a8.75,8.75,0,0,0-1.67,1.16c-.16.17-.44.88,0,.88a1.47,1.47,0,0,0,1.11-.69.46.46,0,0,0,.07-.41,3.31,3.31,0,0,0,.59-.65C90.77,79.2,90.77,78.88,90.58,79Z"/><path class="cls-9" d="M90.22,80.88l-.73.29a.59.59,0,0,0-.34.72c.12.28.39.11.53-.07h0a4.93,4.93,0,0,1,.59-.62C90.34,81.14,90.42,80.82,90.22,80.88Z"/><path class="cls-9" d="M90.55,82.3a.68.68,0,0,0-.5.24,1.77,1.77,0,0,0-.33.34c-.09.13-.17.42,0,.51l.08,0a.77.77,0,0,0,.36-.12,1.28,1.28,0,0,0,.4-.25.71.71,0,0,0,.19-.41A.28.28,0,0,0,90.55,82.3Z"/><path class="cls-9" d="M91.16,88.16a.21.21,0,0,0-.26,0,.44.44,0,0,0-.26.24.47.47,0,0,0,0,.35.19.19,0,0,0,.23.11A.45.45,0,0,0,91,88.7a.59.59,0,0,0,.13-.18A.33.33,0,0,0,91.16,88.16Z"/><path class="cls-9" d="M91.31,89.63l-.08,0a.87.87,0,0,0-.35.13,2,2,0,0,0-.54.36.71.71,0,0,0-.23.48c0,.16.06.4.26.39a1.38,1.38,0,0,0,1.06-.75.66.66,0,0,0,0-.5C91.45,89.68,91.41,89.6,91.31,89.63Z"/><path class="cls-9" d="M91.31,90.63a.56.56,0,0,0-.23.41c0,.12,0,.27.18.27s.31-.19.36-.34a.39.39,0,0,0,0-.26A.2.2,0,0,0,91.31,90.63Z"/><path class="cls-9" d="M96,76.92a.59.59,0,0,0-.57.19l-.08.09a1.16,1.16,0,0,0-.21.16.69.69,0,0,0-.22.46c0,.12,0,.31.16.35a.55.55,0,0,0,.51-.11,1.68,1.68,0,0,0,.44-.4.64.64,0,0,0,.13-.37C96.12,77.17,96.09,77,96,76.92Z"/><path class="cls-9" d="M95.59,75.86a.67.67,0,0,0-.64.22,3.16,3.16,0,0,0-.44.38.59.59,0,0,0-.16.6.22.22,0,0,0,.27.12h0a1.54,1.54,0,0,0,.45-.3,3.07,3.07,0,0,1,.39-.23.63.63,0,0,0,.26-.36C95.75,76.15,95.75,75.92,95.59,75.86Z"/><path class="cls-9" d="M95.6,80.06l0,0a.39.39,0,0,0-.19.19.36.36,0,0,0,0,.36.32.32,0,0,0,.49-.1.52.52,0,0,0,.08-.45A.22.22,0,0,0,95.6,80.06Z"/><path class="cls-9" d="M97.62,82.82a1.35,1.35,0,0,0-.36.07.47.47,0,0,0-.16,0c-.29.09-.47.34-.72.51s-.64,1.08-.07,1.09a1.48,1.48,0,0,0,.84-.43,1,1,0,0,0,.41-.7.76.76,0,0,0,0-.15l0,0C97.67,83.13,97.83,82.81,97.62,82.82Z"/><path class="cls-9" d="M97.52,86.28l-.08,0,0,0-.06,0a.49.49,0,0,0-.21.14h0l-.07.08a.59.59,0,0,0-.1.55.3.3,0,0,0,.23.18.36.36,0,0,0,.18,0,.66.66,0,0,0,.37-.19A.7.7,0,0,0,98,86.5.29.29,0,0,0,97.52,86.28Z"/><path class="cls-9" d="M97.67,87.65a.28.28,0,0,0-.28,0,.56.56,0,0,0-.24.42c0,.12,0,.3.19.3a.47.47,0,0,0,.35-.21C97.8,88.05,97.86,87.76,97.67,87.65Z"/><path class="cls-9" d="M99.52,89.38a.6.6,0,0,0-.27,0,1,1,0,0,0-.46.18,1.51,1.51,0,0,0-.6.78c-.07.2,0,.47.23.5a1.34,1.34,0,0,0,1.33-.95C99.81,89.68,99.77,89.42,99.52,89.38Z"/><path class="cls-9" d="M103,76.09c-.27-.28-.66-.17-1,0a1,1,0,0,0-.34.13c-.25.16-.55.71-.23,1a.85.85,0,0,0,.79,0,1.33,1.33,0,0,0,.77-.6A.48.48,0,0,0,103,76.09Z"/><path class="cls-9" d="M103.23,77.66a.19.19,0,0,0,0-.08l0,0a.39.39,0,0,0-.1-.08.29.29,0,0,0-.29.06l0,0h0a.66.66,0,0,0-.27.38c0,.15,0,.38.14.45a.33.33,0,0,0,.35-.09.9.9,0,0,0,.14-.2.61.61,0,0,0,.06-.32A.07.07,0,0,0,103.23,77.66Z"/><path class="cls-9" d="M103.42,79.6a.3.3,0,0,0-.31.09l0,0h0l-.07,0h0a.56.56,0,0,0-.24.2c-.14.18-.17.59.15.54a.83.83,0,0,0,.34-.1.6.6,0,0,0,.25-.55A.25.25,0,0,0,103.42,79.6Z"/><path class="cls-9" d="M103.13,79.67Z"/><path class="cls-9" d="M104.43,82.13c-.31-.21-.65.08-.82.38l0,0a.8.8,0,0,0-.13.13l0,0-.08.11a.59.59,0,0,0,0,.45c.11.3.44.24.65.09a1.81,1.81,0,0,0,.59-.64A.47.47,0,0,0,104.43,82.13Z"/><path class="cls-9" d="M104.3,84.17a.17.17,0,0,0-.21-.09.42.42,0,0,0-.27.31h0a.36.36,0,0,0,0,.23.19.19,0,0,0,.15.11h0c.1,0,.2-.08.25-.15a.44.44,0,0,0,.08-.38A.06.06,0,0,0,104.3,84.17Z"/><path class="cls-9" d="M105.81,84.52c-.27-.17-.58,0-.79.17a1.62,1.62,0,0,0-.4.49,1,1,0,0,0-.21.7c.06.48.58.39.86.17a2.07,2.07,0,0,0,.69-1A.44.44,0,0,0,105.81,84.52Z"/><path class="cls-9" d="M109.73,76.44a.68.68,0,0,0-.63.3,1.27,1.27,0,0,0-.21.14.62.62,0,0,0-.16.87c.19.22.53.06.72-.08a1.18,1.18,0,0,0,.54-.85C110,76.64,109.93,76.48,109.73,76.44Z"/><path class="cls-9" d="M110.69,77.22a.15.15,0,0,0-.23,0h0a.42.42,0,0,0-.14.09.44.44,0,0,0-.14.25c0,.12,0,.29.1.35a.3.3,0,0,0,.34-.14.66.66,0,0,0,.09-.19.41.41,0,0,0,0-.12A.34.34,0,0,0,110.69,77.22Z"/><path class="cls-9" d="M110.51,79.12h0a.17.17,0,0,0-.16-.12.34.34,0,0,0-.29.17l0,.07v0a.1.1,0,0,0,0,0h0a.4.4,0,0,0-.15.3.22.22,0,0,0,0,.14.18.18,0,0,0,.14.11c.2,0,.35-.12.47-.26A.48.48,0,0,0,110.51,79.12Z"/><path class="cls-9" d="M110.68,80.35a.21.21,0,0,0-.2,0,.5.5,0,0,0-.3.43.31.31,0,0,0,.06.23.21.21,0,0,0,.2.05.49.49,0,0,0,.3-.44A.3.3,0,0,0,110.68,80.35Z"/><path class="cls-4" d="M81.59,92.19a4.81,4.81,0,0,0-1.24-1.38c-.72-.52-1.39.39-1.41,1.07a3.36,3.36,0,0,0,.93,2,5.28,5.28,0,0,0,.61.72,1.32,1.32,0,0,0,.92.51,1,1,0,0,0,.81-.79A2.92,2.92,0,0,0,81.59,92.19Z"/><path class="cls-4" d="M83.93,94.12a.33.33,0,0,0-.22.06.66.66,0,0,0-.27.3.69.69,0,0,0-.06.4.28.28,0,0,0,0,.13.19.19,0,0,0,.08.11.47.47,0,0,0,.25.11h0a.34.34,0,0,0,.16,0A.54.54,0,0,0,84.1,95a.43.43,0,0,0,.05-.28v0a.67.67,0,0,0,0-.28A.29.29,0,0,0,83.93,94.12Z"/></g></svg>