<svg xmlns="http://www.w3.org/2000/svg" viewBox="0 0 202.41 175.9"><defs><style>.cls-1{isolation:isolate;}.cls-2{fill:#b6cbd8;}.cls-3{fill:#e8ebf0;}.cls-4{fill:#995429;}.cls-5{fill:#f1bf78;}.cls-6{fill:#d2965e;}.cls-7{fill:#ad8355;}.cls-8{fill:#874a25;opacity:0.62;}.cls-9{fill:#bd7733;}.cls-10,.cls-11{fill:#f2c241;}.cls-11{mix-blend-mode:multiply;}.cls-12{fill:#f5edd1;}</style></defs><g class="cls-1"><g id="Layer_1" data-name="Layer 1"><path class="cls-2" d="M149.21,103.38a6.07,6.07,0,0,0,.07-1.53,12.88,12.88,0,0,0-.26-1.51C145.26,93.7,125,88.62,100.48,88.62c-24.82,0-45.35,5.22-48.69,12a3.57,3.57,0,0,0-.21,2.62c-.84,2.94,2.11,6,4,7.52,7.69,5.14,24.89,8.73,44.88,8.73,22.82,0,42-4.67,47.55-11h0a6.38,6.38,0,0,0,.43-.71,7.1,7.1,0,0,0,.82-3.85C149.26,103.76,149.24,103.57,149.21,103.38Z"/><path class="cls-3" d="M100.26,90.21c26.29,0,47.6,5.54,47.6,12.37S126.55,115,100.26,115s-47.6-5.54-47.6-12.37S74,90.21,100.26,90.21Z"/><path class="cls-3" d="M100.26,117.82c-25.35,0-46.07-5.45-47.51-12.33a14.67,14.67,0,0,0,2.85,2.8c7.69,4.86,24.89,8.25,44.88,8.25,21.74,0,40.18-4,46.67-9.56C143.27,113.14,123.75,117.82,100.26,117.82Z"/><path class="cls-2" d="M130.42,100.26a7.23,7.23,0,0,0-.16-.93c-2.33-4.11-14.89-7.25-30-7.25-15.35,0-28,3.23-30.12,7.42-.9,1.82,1.1,3.79,2.36,4.74,4.75,3,15.39,5.11,27.76,5.11,14.12,0,26-2.73,29.43-6.43h0c.09-.13.18-.27.26-.41A3.94,3.94,0,0,0,130.42,100.26Z"/><ellipse class="cls-3" cx="100.09" cy="101.17" rx="29.45" ry="7.19"/><path class="cls-4" d="M138.55,95.4a1.34,1.34,0,0,0,.31-.79,3,3,0,0,0-.56-1.44,7.29,7.29,0,0,0-2.11-2.28,49.43,49.43,0,0,0-5-3.49c-3-1.88-6.12-3.45-9.25-5-1.62-.83-3.12-2-4.81-2.63a3.53,3.53,0,0,0-2.24-.25,2.36,2.36,0,0,0-1.47,1.34,13.59,13.59,0,0,1-1.3.53c-.84.28-1.69.5-2.55.72-3.32.84-6.73,1.29-10,2.23a28.6,28.6,0,0,1-5.17,1.23c-.87.08-2.06.08-2.66.81h0a1.89,1.89,0,0,0-.57,2.4,10.71,10.71,0,0,1,.69,1.92,9.85,9.85,0,0,1-.12,2.54,4.73,4.73,0,0,0,.87,3.65A11.42,11.42,0,0,0,95.32,99c2.6,1.73,4.43,4.28,6.32,6.71.46.58.91,1.17,1.42,1.72a17.32,17.32,0,0,1,1.52,1.68c.3.41.54,1,1,1.25a.72.72,0,0,0,.37.07,3,3,0,0,0,1.12.36,6.44,6.44,0,0,0,3.16-.7,83.34,83.34,0,0,1,9.56-3.48c1.65-.5,3.32-.94,5-1.4s3.29-1,4.93-1.6a43,43,0,0,1,5-1.18c1.1-.24,2.48-.61,3-1.71a4.47,4.47,0,0,0,.2-1.86,14.39,14.39,0,0,1,.15-2.36A2.13,2.13,0,0,1,138.55,95.4Z"/><path class="cls-5" d="M93,86.37c.59-.12,1.19-.19,1.79-.29a43.59,43.59,0,0,0,4.91-1.25c1.65-.48,3.34-.84,5-1.17l5-1c.78-.15,1.57-.31,2.34-.51a13.49,13.49,0,0,0,2.19-.91,4.84,4.84,0,0,1,2-.58h.32a19.53,19.53,0,0,1,2.71,1.52c1.2.74,2.51,1.33,3.77,2,1.57.79,3.13,1.61,4.66,2.46q3.37,1.86,6.63,3.91a14.56,14.56,0,0,1,2.25,1.64c.48.46,1.15,1.13,1.1,1.85,0,.29-.3.47-.53.59a7,7,0,0,1-2.21.56c-1.48.23-2.91.49-4.36.85-3.47.85-6.81,2.16-10.2,3.27s-6.91,2.24-10.4,3.2c-.8.22-1.55.59-2.35.18a7.78,7.78,0,0,1-1.83-1.66c-1.21-1.27-2.39-2.59-3.56-3.9-2.37-2.63-4.88-5.1-7.35-7.63a23.24,23.24,0,0,1-2.44-2.42,1.3,1.3,0,0,1-.16-.31c0-.08,0-.17,0-.15A1.56,1.56,0,0,1,93,86.37Z"/><path class="cls-6" d="M104.43,107.27a35.58,35.58,0,0,1-2.62-3.13,30.89,30.89,0,0,0-4.25-4.74c-1.94-1.66-5.2-2.62-5.16-5.65,0-1.35.38-2.67,0-4a13.85,13.85,0,0,0-.71-1.63,1.76,1.76,0,0,1-.14-.87,3.78,3.78,0,0,0,1.19,1.36A14.15,14.15,0,0,1,94,89.65l2,1.93c2.48,2.51,4.84,5.12,7.17,7.77a31.41,31.41,0,0,0,3.41,3.6,2.92,2.92,0,0,0,1,.56.64.64,0,0,1,0,.07,12.09,12.09,0,0,0-.49,3.33c-.08.84-.07,1.69-.14,2.53A9.39,9.39,0,0,1,104.43,107.27Z"/><path class="cls-7" d="M137.11,99.23a6.18,6.18,0,0,1,.11,1.13c0,.49-.33.7-.75.87a10.55,10.55,0,0,1-2,.46c-.85.15-1.7.27-2.54.44a42.57,42.57,0,0,0-4.91,1.59c-1.64.55-3.33,1-5,1.42s-3.31,1-5,1.53-3.26,1.13-4.86,1.78c-1.28.53-2.69,1.33-4.12,1.29l-.36,0c0-.08,0-.16,0-.26a3.79,3.79,0,0,1,0-.89c0-.26.05-.53.08-.79s.06-.49.08-.73c.07-.62.14-1.23.16-1.85a7.61,7.61,0,0,0,0-1.58h.14a9.09,9.09,0,0,0,2.46-.63c3.47-1.08,7-2.08,10.41-3.21s6.72-2.39,10.2-3.22c1.43-.34,2.88-.51,4.32-.79a4.35,4.35,0,0,0,2.56-1.11,1.5,1.5,0,0,1-.29.52,3.57,3.57,0,0,0-.76,2A8.11,8.11,0,0,0,137.11,99.23Z"/><path class="cls-8" d="M103.4,96.45c-2.62,1.55-3.7,6-2.43,7.13,1.49,1.33,6.15-2,6.82-1,.41.59-1.13,1.81-1.07,4,0,1.29.67,2.45,1.19,2.24.67-.26,1.06-2.76,1.08-2.89a25.07,25.07,0,0,0,.05-2.84c.11-1.35.64-3.54,1.67-4.48a1.89,1.89,0,0,1,.63-.37c1.13-.37,2.56-.13,2.71.42.22.83-2.62,2-2.43,2.51s3.82-1.16,4.88,0-2.27,4.57-1.07,7.48c1,2.42,4.75,3.38,5.38,2.65s-2.18-3.83-1.2-5c.47-.59,1.43-.21,2-1,.35-.48.15-.89.25-2a9.77,9.77,0,0,1,.7-3.49c.38-.76,1-1.2,2.53-1.91a10.86,10.86,0,0,1,1.94-.68c1.68-.4,2-.28,3.09-.56,2.94-.74,3.63-2.87,5.39-2.5.37.08,1,.32,1.42,0s.33-.72.25-.75-2.48,2.75-2.19,5.41c.25,2.33,2.69,3.54,2.39,4s-3.17-.11-4.73-2.18c-2.31-3-.56-7.84-1.93-8.26a2.56,2.56,0,0,0-.77.18c-1,.25-1.77.6-4.61,1.5a13.91,13.91,0,0,1-3,.6,11.87,11.87,0,0,1-3,.09c-2.14-.29-3.22-1.26-4.3-1-.3.07-.72.19-.72.35,0,1.14,21.61,4.31,22.8.65.37-1.13-1.26-2.71-1.93-3.36-2-2-4.2-2.16-6.34-2.81-7-2.15-7-7.45-12.64-7.77a44,44,0,0,0-6.13,1,70.58,70.58,0,0,0-8.69,2.14c-2.63.88-4.83,1.65-6.52,3.32a8.68,8.68,0,0,0-1.29,1.63c-1.26,2.11-2.21,5.89-.3,7.56a3.62,3.62,0,0,0,3.41.65c1.87-.63,1.66-2.62,3.39-3.43,2.35-1.11,6,1.08,5.86,1.91C105.92,95.93,104.73,95.66,103.4,96.45Z"/><path class="cls-9" d="M129.43,90.07c-1-.49-2.22-.61-3.28-1a20.74,20.74,0,0,1-3.06-1.88c-1-.67-2.24-1.16-3.31-1.8a11.54,11.54,0,0,0-2.91-1.58,4,4,0,0,0-3.12.62c-.45.29-.87.61-1.34.88a4.34,4.34,0,0,1-1.71.45c-.58.06-1.16.08-1.74.15l-2,.29c-1.1.14-2.2,0-3.31.13a3.23,3.23,0,0,0-1.77.63,2.09,2.09,0,0,0-.27.66c-.24,1.1.86,1.87,1.77,2.44a19.16,19.16,0,0,1,3.37,2.24,19.61,19.61,0,0,1,1.73,2.15,10.24,10.24,0,0,0,2.2,2.26,4.45,4.45,0,0,0,3.1.72,12.57,12.57,0,0,0,1.82-1,8.67,8.67,0,0,1,1.4-.69,11,11,0,0,1,1.89-.4c2.6-.43,5.11-1.17,7.67-1.75.93-.2,1.86-.33,2.8-.49.75-.14,1.62-.47,1.71-1.23S130.12,90.4,129.43,90.07Z"/><path class="cls-10" d="M125.51,89.84c-.72-.38-1.57-.48-2.31-.81a14.23,14.23,0,0,1-2.15-1.49c-.74-.52-1.58-.9-2.33-1.41a7.94,7.94,0,0,0-2-1.25,2.55,2.55,0,0,0-2.2.52c-.33.23-.62.49-1,.71a3,3,0,0,1-1.21.37c-.41,0-.82.07-1.23.13l-1.44.24c-.78.11-1.56.05-2.34.12a2.15,2.15,0,0,0-1.26.51,2.39,2.39,0,0,0-.19.53c-.17.87.6,1.49,1.24,1.93a13.23,13.23,0,0,1,2.36,1.77,15.55,15.55,0,0,1,1.21,1.71,7.71,7.71,0,0,0,1.54,1.78,2.83,2.83,0,0,0,2.19.56,8.56,8.56,0,0,0,1.28-.78,5.45,5.45,0,0,1,1-.56,6.81,6.81,0,0,1,1.33-.33c1.84-.36,3.61-1,5.43-1.43.65-.17,1.31-.28,2-.42s1.14-.38,1.21-1S126,90.1,125.51,89.84Z"/><path class="cls-11" d="M126.65,90c-.79-.41-1.7-.51-2.51-.86a15.42,15.42,0,0,1-2.34-1.57c-.81-.56-1.72-1-2.54-1.5A8.47,8.47,0,0,0,117,84.73a2.81,2.81,0,0,0-2.39.53c-.35.25-.68.53-1,.75a2.41,2.41,0,0,1-.57.25l.27-.05a4.89,4.89,0,0,0,1.3-.45,10.5,10.5,0,0,1,1.08-.49c1.57-.53,3,.92,3.92,1.94A21.61,21.61,0,0,0,121.37,89a4.46,4.46,0,0,0,1.27.82,7.29,7.29,0,0,0,1.47.25c.52.09,1.27.43,1.23,1.05s-.8,1-1.35,1.13c-1.81.54-3.72.19-5.58.37a5.33,5.33,0,0,0-2.53.78,12.64,12.64,0,0,1-1.62,1.21,1.86,1.86,0,0,1-1.94-.17,6.78,6.78,0,0,1-1.3-1.92,11.75,11.75,0,0,0-3.78-3.14c-.54-.33-1.32-.79-1.41-1.47a1.08,1.08,0,0,1,.26-.85,1.66,1.66,0,0,0-.6.36,1.9,1.9,0,0,0-.21.56c-.19.92.65,1.57,1.35,2a14.82,14.82,0,0,1,2.57,1.87,15.42,15.42,0,0,1,1.31,1.81,8.12,8.12,0,0,0,1.68,1.88,3.18,3.18,0,0,0,2.38.6,11.19,11.19,0,0,0,1.4-.82,6,6,0,0,1,1.08-.6,7.84,7.84,0,0,1,1.45-.34c2-.38,3.92-1,5.89-1.51.72-.17,1.43-.28,2.15-.43s1.24-.4,1.32-1S127.18,90.25,126.65,90Z"/><path class="cls-4" d="M110.91,85.39a1.31,1.31,0,0,0,0-.85,3,3,0,0,0-1-1.2,7.19,7.19,0,0,0-2.71-1.52,51.84,51.84,0,0,0-5.85-1.77c-3.4-.87-6.89-1.39-10.35-1.93-1.8-.28-3.57-.89-5.39-1a3.51,3.51,0,0,0-2.2.45,2.34,2.34,0,0,0-1,1.73,13.33,13.33,0,0,1-1.08.91c-.71.52-1.46,1-2.2,1.47-2.9,1.82-6,3.3-8.85,5.22a29.25,29.25,0,0,1-4.54,2.76c-.8.35-1.94.72-2.29,1.6h0a1.88,1.88,0,0,0,.2,2.46A10.35,10.35,0,0,1,65,95.33a10.29,10.29,0,0,1,.67,2.46,4.7,4.7,0,0,0,2,3.19,11.34,11.34,0,0,0,3.31,1.21c3,.83,5.53,2.7,8.08,4.42.61.42,1.23.84,1.88,1.2a19.27,19.27,0,0,1,2,1.13c.41.3.82.8,1.34.88a.63.63,0,0,0,.37,0,2.76,2.76,0,0,0,1.18,0,6.44,6.44,0,0,0,2.79-1.64,86.72,86.72,0,0,1,8-6.26c1.42-1,2.87-1.92,4.31-2.87s2.82-2,4.2-3a46.43,46.43,0,0,1,4.38-2.66c1-.57,2.17-1.34,2.33-2.55a4.32,4.32,0,0,0-.38-1.83,16.51,16.51,0,0,1-.59-2.3A2.17,2.17,0,0,1,110.91,85.39Z"/><path class="cls-5" d="M64.79,90.86c.53-.29,1.08-.55,1.61-.82a42.52,42.52,0,0,0,4.29-2.72c1.42-1,2.91-1.82,4.41-2.65s3-1.66,4.46-2.5c.69-.39,1.39-.79,2.06-1.21a14,14,0,0,0,1.81-1.54,4.8,4.8,0,0,1,1.74-1.18l.3-.09a18.69,18.69,0,0,1,3,.6c1.37.34,2.79.49,4.19.71q2.61.41,5.2.9,3.78.73,7.51,1.67a15.12,15.12,0,0,1,2.64.87c.61.29,1.44.72,1.62,1.43a.79.79,0,0,1-.32.71,6.93,6.93,0,0,1-1.93,1.22c-1.33.68-2.62,1.36-3.88,2.15-3,1.89-5.81,4.16-8.69,6.26S89,98.93,86,100.93c-.69.45-1.29,1-2.17.9a7.93,7.93,0,0,1-2.26-1c-1.55-.83-3.07-1.72-4.59-2.6-3.06-1.77-6.22-3.35-9.35-5a23.29,23.29,0,0,1-3.07-1.56,1.36,1.36,0,0,1-.24-.24c-.06-.07,0-.16-.07-.14A1.64,1.64,0,0,1,64.79,90.86Z"/><path class="cls-6" d="M82.12,107.21A35.08,35.08,0,0,1,78.67,105a31.89,31.89,0,0,0-5.51-3.2c-2.36-1-5.76-.88-6.66-3.77-.4-1.3-.45-2.66-1.22-3.82a14.88,14.88,0,0,0-1.18-1.34,1.64,1.64,0,0,1-.4-.77,3.85,3.85,0,0,0,1.55.92,14.27,14.27,0,0,1,1.53.6c.82.42,1.65.82,2.46,1.24,3.14,1.62,6.19,3.37,9.22,5.17a30.13,30.13,0,0,0,4.36,2.37,2.88,2.88,0,0,0,1.08.24.17.17,0,0,1,0,.07,12.09,12.09,0,0,0,.56,3.32c.18.82.45,1.63.65,2.45A9.43,9.43,0,0,1,82.12,107.21Z"/><path class="cls-7" d="M110.72,89.47a5.67,5.67,0,0,1,.46,1,1,1,0,0,1-.44,1.06A10.19,10.19,0,0,1,109,92.62c-.76.41-1.53.79-2.28,1.21a39.93,39.93,0,0,0-4.17,3c-1.39,1-2.88,1.92-4.32,2.89s-2.84,2-4.23,3-2.75,2.08-4.07,3.19c-1.06.9-2.15,2.1-3.52,2.5l-.36.08-.12-.24a3.82,3.82,0,0,1-.26-.85c-.06-.26-.11-.52-.17-.78s-.09-.47-.14-.71c-.13-.61-.25-1.21-.43-1.81a7.32,7.32,0,0,0-.52-1.49l.13,0a9.3,9.3,0,0,0,2.15-1.36c3-2.1,6-4.13,8.91-6.27s5.65-4.35,8.7-6.22c1.26-.76,2.58-1.37,3.87-2.08a4.39,4.39,0,0,0,2.09-1.85,1.42,1.42,0,0,1-.12.59,3.53,3.53,0,0,0-.08,2.18A7.73,7.73,0,0,0,110.72,89.47Z"/><path class="cls-12" d="M75.84,90a12.31,12.31,0,0,1-1.72-.82c-.25-.2-.54-.53-.42-.88a1.5,1.5,0,0,1,.74-.75,12.86,12.86,0,0,1,1.23-.62c.45-.22.89-.47,1.34-.71a17.9,17.9,0,0,0,3.07-1.95,7.68,7.68,0,0,0,1.15-1.2,16,16,0,0,1-3.38,2.1c-1.48.79-3.14,1.28-4.69,1.93-1.07.45-2.71,1.83-1.52,3a3.76,3.76,0,0,0,2,.72,26.09,26.09,0,0,1,2.93.55c.14,0,.27-.06.36-.21A3.11,3.11,0,0,0,75.84,90Z"/><path class="cls-12" d="M78.63,91.49a1,1,0,0,0-.38.69.74.74,0,0,0,0,.21s0,.25,0,.13a1,1,0,0,0,.14.38,1.48,1.48,0,0,0,1,.68.66.66,0,0,0,.37-.06h0a.85.85,0,0,0,.58-1.07C80.24,91.8,79.29,91.06,78.63,91.49Z"/><path class="cls-8" d="M77.8,97.23c-2,2.28-1.67,6.85-.11,7.54,1.83.8,5.25-3.78,6.19-3,.57.45-.52,2.08.2,4.09.44,1.23,1.39,2.13,1.82,1.77s.16-3,.14-3.09a25,25,0,0,0-.83-2.71c-.31-1.31-.49-3.56.21-4.77a1.69,1.69,0,0,1,.48-.56c1-.69,2.39-.9,2.7-.43.47.72-1.86,2.74-1.53,3.14s3.28-2.29,4.64-1.51c1.52.87-.75,5,1.29,7.44,1.71,2,5.57,1.75,5.94.86s-3.25-3-2.7-4.42c.27-.71,1.3-.64,1.6-1.58.19-.56-.13-.9-.38-2A10,10,0,0,1,97,94.42c.14-.83.57-1.44,1.83-2.59a11,11,0,0,1,1.63-1.25c1.47-.9,1.83-.89,2.76-1.48,2.57-1.62,2.57-3.86,4.36-4,.38,0,1.08,0,1.35-.45s.09-.78,0-.78-1.51,3.37-.41,5.82c1,2.13,3.66,2.53,3.5,3s-3,.88-5.17-.61c-3.14-2.19-3-7.28-4.38-7.26-.13,0-.3.16-.68.41-.84.53-1.5,1.11-3.92,2.85a14.53,14.53,0,0,1-2.65,1.49,11.86,11.86,0,0,1-2.8,1c-2.13.39-3.46-.2-4.41.35-.27.16-.62.41-.58.56.32,1.09,21.89-2.58,21.89-6.43,0-1.18-2-2.19-2.88-2.6-2.54-1.25-4.65-.75-6.89-.71-7.32.12-9-4.91-14.42-3.49a45.12,45.12,0,0,0-5.52,2.88,68,68,0,0,0-7.6,4.72C69.82,87.49,68,88.9,66.87,91A9.1,9.1,0,0,0,66.15,93c-.55,2.4-.28,6.29,2,7.29a3.66,3.66,0,0,0,3.45-.43c1.58-1.19.77-3,2.16-4.32,1.9-1.78,6-.82,6.16,0C80,96,78.82,96.08,77.8,97.23Z"/><path class="cls-9" d="M100.59,83.13c-1.12-.15-2.3.1-3.44,0a19.72,19.72,0,0,1-3.49-.84c-1.21-.31-2.49-.41-3.71-.69A11.83,11.83,0,0,0,86.7,81a3.94,3.94,0,0,0-2.77,1.56c-.35.41-.64.85-1,1.25a4.3,4.3,0,0,1-1.49,1c-.53.23-1.08.43-1.61.68s-1.23.61-1.85.9c-1,.48-2.08.73-3.11,1.15a3.12,3.12,0,0,0-1.49,1.15,2.1,2.1,0,0,0-.06.7c.12,1.12,1.4,1.52,2.44,1.78a18.77,18.77,0,0,1,3.9,1.1A18,18,0,0,1,82,93.75a10.24,10.24,0,0,0,2.78,1.46,4.49,4.49,0,0,0,3.18-.27,13.22,13.22,0,0,0,1.43-1.48,8.33,8.33,0,0,1,1.12-1.1,11.48,11.48,0,0,1,1.67-1c2.35-1.21,4.5-2.69,6.76-4,.82-.48,1.67-.89,2.51-1.33.67-.36,1.39-1,1.25-1.7S101.35,83.23,100.59,83.13Z"/><path class="cls-10" d="M96.79,84.12c-.8-.14-1.64,0-2.45-.06a13.28,13.28,0,0,1-2.5-.75c-.87-.26-1.78-.37-2.65-.62a7.86,7.86,0,0,0-2.33-.56,2.61,2.61,0,0,0-1.94,1.17c-.23.32-.43.66-.68,1a2.81,2.81,0,0,1-1,.73c-.37.17-.76.32-1.13.5s-.86.46-1.3.67c-.71.36-1.46.54-2.18.85a2,2,0,0,0-1,.87,2.1,2.1,0,0,0,0,.56c.1.89,1,1.23,1.77,1.46a13,13,0,0,1,2.8,1,15.78,15.78,0,0,1,1.67,1.25,7.56,7.56,0,0,0,2,1.22A2.84,2.84,0,0,0,88,93.19a8.59,8.59,0,0,0,1-1.14,5.18,5.18,0,0,1,.78-.84A6.66,6.66,0,0,1,91,90.48c1.64-.91,3.14-2,4.72-3,.57-.36,1.17-.66,1.75-1s1-.72.86-1.32S97.33,84.21,96.79,84.12Z"/><path class="cls-11" d="M97.92,83.9c-.87-.14-1.78,0-2.66,0a15.47,15.47,0,0,1-2.71-.78c-.94-.27-1.92-.38-2.87-.64a8.78,8.78,0,0,0-2.52-.57,2.83,2.83,0,0,0-2.11,1.25c-.26.34-.48.71-.76,1a2,2,0,0,1-.46.42l.24-.13a5,5,0,0,0,1.1-.83,7.3,7.3,0,0,1,.87-.8c1.34-1,3.1,0,4.32.63a24,24,0,0,0,2.24,1.19,4.65,4.65,0,0,0,1.46.39,8.37,8.37,0,0,0,1.49-.22c.51-.07,1.33,0,1.48.61s-.46,1.17-.93,1.5C94.55,88,92.62,88.24,90.91,89a5.22,5.22,0,0,0-2.17,1.52,12,12,0,0,1-1.17,1.65,1.86,1.86,0,0,1-1.89.44,6.91,6.91,0,0,1-1.84-1.43,11.65,11.65,0,0,0-4.56-1.81c-.62-.15-1.49-.35-1.8-1a1.1,1.1,0,0,1,0-.89A1.7,1.7,0,0,0,77,88a1.94,1.94,0,0,0,0,.59c.11.93,1.11,1.29,1.92,1.53a14,14,0,0,1,3,1,15.31,15.31,0,0,1,1.8,1.31,8.19,8.19,0,0,0,2.18,1.27,3.16,3.16,0,0,0,2.45-.16,9.35,9.35,0,0,0,1.07-1.22,6,6,0,0,1,.85-.89,7.22,7.22,0,0,1,1.27-.78c1.79-1,3.42-2.18,5.14-3.25.62-.39,1.27-.72,1.91-1.08s1.06-.77.94-1.4S98.51,84,97.92,83.9Z"/></g></g></svg>