<svg xmlns="http://www.w3.org/2000/svg" viewBox="0 0 202.41 175.9"><defs><style>.cls-1{fill:#b6cbd8;}.cls-2{fill:#e8ebf0;}.cls-3{fill:#e7a05b;}.cls-4{fill:#d4272e;}.cls-5{fill:#de5a50;}.cls-6{fill:#eabe88;}.cls-7{fill:#ece0c6;}.cls-8{fill:#fff;}</style></defs><g id="Layer_1" data-name="Layer 1"><path class="cls-1" d="M150.62,97.29a5.78,5.78,0,0,0,.07-1.55,12.68,12.68,0,0,0-.25-1.52c-3.82-6.73-24.36-11.87-49.13-11.87C76.19,82.35,55.42,87.64,52,94.5a3.61,3.61,0,0,0-.22,2.65c-.85,3,2.14,6.07,4.07,7.62,7.78,5.2,25.19,8.83,45.42,8.83,23.09,0,42.51-4.72,48.12-11.13h0a6.59,6.59,0,0,0,.44-.72,7.17,7.17,0,0,0,.82-3.89C150.67,97.67,150.65,97.48,150.62,97.29Z"/><path class="cls-2" d="M101.09,84c26.6,0,48.17,5.6,48.17,12.52S127.69,109,101.09,109s-48.17-5.61-48.17-12.52S74.49,84,101.09,84Z"/><path class="cls-2" d="M101.09,111.9c-25.66,0-46.63-5.52-48.09-12.47a15.3,15.3,0,0,0,2.89,2.83c7.78,4.92,25.19,8.34,45.42,8.34,22,0,40.66-4,47.23-9.66C144.61,107.16,124.86,111.9,101.09,111.9Z"/><path class="cls-1" d="M131.6,94.13a7.36,7.36,0,0,0-.15-.94c-2.36-4.16-15.07-7.34-30.4-7.34-15.54,0-28.39,3.27-30.49,7.52-.9,1.84,1.11,3.83,2.39,4.79,4.81,3,15.58,5.17,28.1,5.17,14.29,0,26.3-2.76,29.78-6.51h0c.09-.13.18-.27.26-.41A4,4,0,0,0,131.6,94.13Z"/><path class="cls-2" d="M100.91,102.33c-16.46,0-29.8-3.25-29.8-7.28s13.34-7.28,29.8-7.28,29.81,3.26,29.81,7.28S117.37,102.33,100.91,102.33Z"/></g><g id="Layer_2" data-name="Layer 2"><path class="cls-3" d="M110.84,96.26c.56.06.82-.4.8-.9a11.26,11.26,0,0,0-1.22-3.74,16.9,16.9,0,0,1-.73-2.52c-.16-.68-.19-1.37-.34-2-.07-.34-.28-.9-.73-.78-.2.06-.37.31-.5.45-.5.18-1,.29-1.53.43a13,13,0,0,0-2,.8,7.55,7.55,0,0,1-3.63.88c-2-.19-3.75-2.47-5.82-1.5a16.13,16.13,0,0,0-1.43.88,10.68,10.68,0,0,1-1.9,1c-1.23.45-2.75-.18-4-.45a4.17,4.17,0,0,0-1.65-.11,3.23,3.23,0,0,0-1.58.78c-.44.36-.83.77-1.3,1.09a4.39,4.39,0,0,1-2,.69c-1.41.17-2.82-.33-4.23-.42a5.22,5.22,0,0,0-3.66.94A4.53,4.53,0,0,0,73,92c-.21.16,0,.78,0,1,.14.56.39,1.08.55,1.64.3,1,.49,2.14.73,3.2.16.7.34,1.39.52,2.08a5.59,5.59,0,0,0,.5,1.51,1,1,0,0,0,1,.55c.36-.07.58-.54.84-.75A1.54,1.54,0,0,1,78,101a2.64,2.64,0,0,0,.91-.22h0a4.68,4.68,0,0,0,1.05-.11,18.25,18.25,0,0,0,3.49-1.65,5.38,5.38,0,0,1,1.93-.52,6.64,6.64,0,0,1,2.11.33,10.15,10.15,0,0,0,3.87.5A6.73,6.73,0,0,0,94.56,98c.47-.33.94-.66,1.44-.95a3.16,3.16,0,0,1,2.14-.24c1.24.21,2.42.66,3.68.8a12.65,12.65,0,0,0,3.78-.27,19,19,0,0,0,2.45-.71l.71-.26,1-.14A4,4,0,0,1,110.84,96.26Z"/><path class="cls-4" d="M102.86,97a12.36,12.36,0,0,1-3.77-.58,4.62,4.62,0,0,0-3.45.05c-1.06.6-2,1.44-3.07,1.95a6.06,6.06,0,0,1-4,.19,9.6,9.6,0,0,0-3.85-.6,9.84,9.84,0,0,0-3.4,1.49,5.05,5.05,0,0,1-2.63.84,4.93,4.93,0,0,0-1.53.08,1.33,1.33,0,0,0-.88.56,1.39,1.39,0,0,1-.32.32,2.93,2.93,0,0,1-.18-.26,11.36,11.36,0,0,1-1-3.43c-.18-.93-.28-1.89-.45-2.83a6.49,6.49,0,0,0-.29-.95,8.61,8.61,0,0,1-.37-1.41l.06-.06a5.37,5.37,0,0,1,.64-.62,2.8,2.8,0,0,1,.56-.32,6.58,6.58,0,0,1,2.44-.29c1.24.06,2.43.44,3.67.45a5.14,5.14,0,0,0,3.22-1.09,11.35,11.35,0,0,1,1.38-1,3.09,3.09,0,0,1,2.09-.3,13,13,0,0,0,3.61.46,8.59,8.59,0,0,0,3.23-1.53,2.82,2.82,0,0,1,1.81-.66,4.31,4.31,0,0,1,1.68.64,9.71,9.71,0,0,0,2.85,1.31,6.74,6.74,0,0,0,3.79-.69c.69-.3,1.31-.73,2-1,.23-.1.45-.19.67-.3s.69-.23,1-.38c.16-.07.26-.25.41-.34a3.4,3.4,0,0,1,0,.71,9.11,9.11,0,0,0,.29,1.86,19.07,19.07,0,0,0,1.16,3.36,8,8,0,0,1,.7,2.49c0,.17,0,.53-.25.51a1.9,1.9,0,0,0-.63,0,3.41,3.41,0,0,0-.55.14,18.38,18.38,0,0,0-2.54.6A18.61,18.61,0,0,1,102.86,97Z"/><path class="cls-5" d="M110.64,95.64c.25,0,.26-.34.25-.51a8,8,0,0,0-.7-2.49l-.21-.48c-.39.12-.78.26-1.16.41a22.61,22.61,0,0,1-3.46,1.23,10.52,10.52,0,0,1-3.54.08c-.55-.08-1.1-.18-1.64-.3a12.42,12.42,0,0,0-1.91-.38,6.73,6.73,0,0,0-3.09,1,6,6,0,0,1-1.47.51,2,2,0,0,1-.85,0c-1.12-.31-.15-1.87.24-2.38.75-1,2-2,3.3-1.83a14.12,14.12,0,0,1,2.82,1.3,4.45,4.45,0,0,0,1.85.27,10.38,10.38,0,0,0,2.08-.26c2.09-.48,3.93-1.6,5.91-2.37l0-.13a9.11,9.11,0,0,1-.29-1.86,3.4,3.4,0,0,0,0-.71c-.15.09-.25.27-.41.34-.33.15-.68.25-1,.38s-.44.2-.67.3c-.69.29-1.31.72-2,1a6.74,6.74,0,0,1-3.79.69A9.71,9.71,0,0,1,98,88.13a4.31,4.31,0,0,0-1.68-.64,2.82,2.82,0,0,0-1.81.66,8.59,8.59,0,0,1-3.23,1.53,13,13,0,0,1-3.61-.46,3.09,3.09,0,0,0-2.09.3,11.35,11.35,0,0,0-1.38,1A5.14,5.14,0,0,1,81,91.62c-1.24,0-2.43-.39-3.67-.45a6.58,6.58,0,0,0-2.44.29,2.8,2.8,0,0,0-.56.32,5.37,5.37,0,0,0-.64.62l-.06.06A8.12,8.12,0,0,0,74,93.81a14.88,14.88,0,0,1,1.77-.31,3.22,3.22,0,0,1,.93,0,8.62,8.62,0,0,1,1.42.43,5.33,5.33,0,0,0,2.78.45,8.13,8.13,0,0,0,1.51-.51c1.12-.45,2.35-1.77,3.45-2.25a6.32,6.32,0,0,1,4.23.23c.45.19.92.64.57,1.12s-1.29.36-1.78.39c-2.16.14-3.79,2-5.92,2.31a12.93,12.93,0,0,1-3.23,0,13.17,13.17,0,0,0-3.26,0,5.13,5.13,0,0,0-1.92.72l.09.58a3.83,3.83,0,0,1,.58-.07c.68,0,1.38,0,2.06,0a21.05,21.05,0,0,1,2.25.09c.27,0,1.06.14.9.59a1.12,1.12,0,0,1-.52.51,2.37,2.37,0,0,1-.91.21,15.06,15.06,0,0,1-2.5-.21A8.92,8.92,0,0,0,75.29,98a2.21,2.21,0,0,0-.51.05,10.19,10.19,0,0,0,1,3.07,2.93,2.93,0,0,0,.18.26,1.39,1.39,0,0,0,.32-.32,1.33,1.33,0,0,1,.88-.56,4.93,4.93,0,0,1,1.53-.08,5.05,5.05,0,0,0,2.63-.84,9.84,9.84,0,0,1,3.4-1.49,9.6,9.6,0,0,1,3.85.6,6.06,6.06,0,0,0,4-.19c1.1-.51,2-1.35,3.07-1.95a4.62,4.62,0,0,1,3.45-.05,12.36,12.36,0,0,0,3.77.58,18.61,18.61,0,0,0,4.06-.67,18.38,18.38,0,0,1,2.54-.6,3.41,3.41,0,0,1,.55-.14A1.9,1.9,0,0,1,110.64,95.64Zm-21.51.74a5.57,5.57,0,0,1-1.47,0,1.62,1.62,0,0,1-1-.4.72.72,0,0,1,0-.85,2.12,2.12,0,0,1,1.55-.85,5.55,5.55,0,0,1,2.33,0,1.44,1.44,0,0,1,.75.45.72.72,0,0,1,.26.43.66.66,0,0,1-.29.57A4.34,4.34,0,0,1,89.13,96.38Z"/><path class="cls-6" d="M73.81,93c.21-.1.43-.19.65-.27a7.3,7.3,0,0,1,3.11-.4,5.63,5.63,0,0,1,1.52.31,6.23,6.23,0,0,0,1.47.6,5.39,5.39,0,0,0,3.29-1.08,7.23,7.23,0,0,1,2.91-1.44,9.51,9.51,0,0,1,3.08.46,3.76,3.76,0,0,0,1.6.08,5.38,5.38,0,0,0,1.68-.74,4.88,4.88,0,0,1,3.14-1.15,13.23,13.23,0,0,1,2.94,1.16,7.33,7.33,0,0,0,4,0,23.26,23.26,0,0,0,5.71-1.91,7.74,7.74,0,0,1-.14-1.19,3.4,3.4,0,0,0,0-.71c-.15.09-.25.27-.41.34-.33.15-.68.25-1,.38s-.44.2-.67.3c-.69.29-1.31.72-2,1a6.74,6.74,0,0,1-3.79.69A9.71,9.71,0,0,1,98,88.13a4.31,4.31,0,0,0-1.68-.64,2.82,2.82,0,0,0-1.81.66,8.59,8.59,0,0,1-3.23,1.53,13,13,0,0,1-3.61-.46,3.09,3.09,0,0,0-2.09.3,11.35,11.35,0,0,0-1.38,1A5.14,5.14,0,0,1,81,91.62c-1.24,0-2.43-.39-3.67-.45a6.58,6.58,0,0,0-2.44.29,2.8,2.8,0,0,0-.56.32,5.37,5.37,0,0,0-.64.62l-.06.06c0,.19.07.38.12.57Z"/><path class="cls-7" d="M74.7,92.06a6.92,6.92,0,0,1,3.07-.21,12.22,12.22,0,0,1,1.58.3,6.79,6.79,0,0,0,1.79.31,5.91,5.91,0,0,0,3.2-1.27,6.65,6.65,0,0,1,3-1.61,15.67,15.67,0,0,1,3.2.41,5.23,5.23,0,0,0,3.17-.9,5.48,5.48,0,0,1,2.8-1,5.23,5.23,0,0,1,2.39,1,4.63,4.63,0,0,0,2.81.93,8.8,8.8,0,0,0,2-.43l1.86-.59a17.28,17.28,0,0,0,3.19-1.28c0-.11,0-.22,0-.34a3.4,3.4,0,0,0,0-.71c-.15.09-.25.27-.41.34-.33.15-.68.25-1,.38s-.44.2-.67.3c-.69.29-1.31.72-2,1a6.74,6.74,0,0,1-3.79.69A9.71,9.71,0,0,1,98,88.13a4.31,4.31,0,0,0-1.68-.64,2.82,2.82,0,0,0-1.81.66,8.59,8.59,0,0,1-3.23,1.53,13,13,0,0,1-3.61-.46,3.09,3.09,0,0,0-2.09.3,11.35,11.35,0,0,0-1.38,1A5.14,5.14,0,0,1,81,91.62c-1.24,0-2.43-.39-3.67-.45a6.58,6.58,0,0,0-2.44.29,2.8,2.8,0,0,0-.56.32,5.37,5.37,0,0,0-.64.62l-.06.06s0,.06,0,.1A4.44,4.44,0,0,1,74.7,92.06Z"/><path class="cls-6" d="M110.64,95.64c.25,0,.26-.34.25-.51a7.19,7.19,0,0,0-.31-1.46,10.06,10.06,0,0,1-1.85.62,22.53,22.53,0,0,1-4.32.64,14.69,14.69,0,0,1-3.31-.19,15.07,15.07,0,0,0-3.72-.38c-2.15.21-3.57,2-5.49,2.7a5.12,5.12,0,0,1-3,.21c-1.08-.23-2.1-.67-3.18-.87A4.37,4.37,0,0,0,84,96.33,3.35,3.35,0,0,0,82.7,97a13.34,13.34,0,0,1-2.21,1.69,4.15,4.15,0,0,1-2,.3c-.79,0-1.57-.1-2.36-.11-.35,0-.76,0-1.17,0a8.37,8.37,0,0,0,.79,2.2,2.93,2.93,0,0,0,.18.26,1.39,1.39,0,0,0,.32-.32,1.33,1.33,0,0,1,.88-.56,4.93,4.93,0,0,1,1.53-.08,5.05,5.05,0,0,0,2.63-.84,9.84,9.84,0,0,1,3.4-1.49,9.6,9.6,0,0,1,3.85.6,6.06,6.06,0,0,0,4-.19c1.1-.51,2-1.35,3.07-1.95a4.62,4.62,0,0,1,3.45-.05,12.36,12.36,0,0,0,3.77.58,18.61,18.61,0,0,0,4.06-.67,18.38,18.38,0,0,1,2.54-.6,3.41,3.41,0,0,1,.55-.14A1.9,1.9,0,0,1,110.64,95.64Z"/><path class="cls-7" d="M110.64,95.64c.25,0,.26-.34.25-.51a4.13,4.13,0,0,0-.07-.49,15.58,15.58,0,0,1-1.9.49l-3.59.73a10.22,10.22,0,0,1-3.48.28c-1-.16-2-.54-3.09-.77a4.88,4.88,0,0,0-3.28.27c-1,.48-1.82,1.19-2.76,1.75a4.62,4.62,0,0,1-3,.73c-1.23-.18-2.35-.76-3.57-1a3.82,3.82,0,0,0-1.93,0,5,5,0,0,0-1.51.9,7.08,7.08,0,0,1-3.07,1.76,9.4,9.4,0,0,1-2.12,0,9.26,9.26,0,0,0-2.25.1,7,7,0,0,0,.5,1.16,2.93,2.93,0,0,0,.18.26,1.39,1.39,0,0,0,.32-.32,1.33,1.33,0,0,1,.88-.56,4.93,4.93,0,0,1,1.53-.08,5.05,5.05,0,0,0,2.63-.84,9.84,9.84,0,0,1,3.4-1.49,9.6,9.6,0,0,1,3.85.6,6.06,6.06,0,0,0,4-.19c1.1-.51,2-1.35,3.07-1.95a4.62,4.62,0,0,1,3.45-.05,12.36,12.36,0,0,0,3.77.58,18.61,18.61,0,0,0,4.06-.67,18.38,18.38,0,0,1,2.54-.6,3.41,3.41,0,0,1,.55-.14A1.9,1.9,0,0,1,110.64,95.64Z"/><path class="cls-8" d="M104.37,91.39a5.48,5.48,0,0,0,1.88-.8,4.68,4.68,0,0,1,1.9-.83c.18,0,0-.27-.1-.28-1.42-.14-2.66.65-4,.82a14.35,14.35,0,0,1-4.24,0C98.51,90.1,97.51,89.1,96.2,89a3.18,3.18,0,0,0-1.84.52c-.3.18-.59.39-.88.59a4.34,4.34,0,0,0-.77.56c-.12.12.1.3.22.3a6.89,6.89,0,0,0,1.85-.64,2.79,2.79,0,0,1,2.06-.19,20.75,20.75,0,0,0,3.46,1.41,8.84,8.84,0,0,0,1.78.07A14.65,14.65,0,0,0,104.37,91.39Z"/><path class="cls-8" d="M89.77,92a.32.32,0,0,0,.26-.41.14.14,0,0,0,.07-.17c-.17-.59-1-.68-1.51-.61a.29.29,0,0,0-.23.37,1.26,1.26,0,0,0,.16.33.91.91,0,0,0,.18.21l.1.07A1.19,1.19,0,0,0,89.77,92Z"/><path class="cls-3" d="M131.63,95.61c.57,0,.76-.51.67-1a11.29,11.29,0,0,0-1.7-3.55,16.65,16.65,0,0,1-1.06-2.4c-.25-.65-.37-1.33-.6-2-.12-.33-.4-.86-.83-.68-.19.08-.33.35-.44.52-.47.24-1,.41-1.46.62a14.67,14.67,0,0,0-1.85,1,7.59,7.59,0,0,1-3.49,1.36c-2,.07-4-2-6-.71a13,13,0,0,0-1.29,1.06,10.63,10.63,0,0,1-1.76,1.22c-1.16.61-2.74.19-4,.07a4.37,4.37,0,0,0-1.65.12,3.27,3.27,0,0,0-1.47,1c-.39.42-.72.87-1.14,1.25a4.41,4.41,0,0,1-1.88.95c-1.38.36-2.84.05-4.25.15A5.22,5.22,0,0,0,94,96.05a3.23,3.23,0,0,0-.45.38c-.19.18.09.77.16.95.21.54.53,1,.76,1.55.44,1,.77,2.06,1.15,3.08.25.67.52,1.33.79,2a6.12,6.12,0,0,0,.7,1.43.94.94,0,0,0,1.11.4c.35-.11.51-.61.74-.85a1.44,1.44,0,0,1,.81-.28,3,3,0,0,0,.88-.34h0a5.21,5.21,0,0,0,1-.24A18.57,18.57,0,0,0,104.9,102a5.36,5.36,0,0,1,1.85-.76,6.1,6.1,0,0,1,2.13.05,10.23,10.23,0,0,0,3.9,0,6.62,6.62,0,0,0,2.94-1.78c.43-.39.85-.78,1.31-1.13a3.17,3.17,0,0,1,2.08-.53c1.26.05,2.49.34,3.76.31a12.53,12.53,0,0,0,3.71-.77,18.55,18.55,0,0,0,2.33-1l.67-.34.95-.28A4.55,4.55,0,0,1,131.63,95.61Z"/><path class="cls-4" d="M123.82,97.44a12.49,12.49,0,0,1-3.81-.08,4.7,4.7,0,0,0-3.41.51c-1,.73-1.76,1.69-2.79,2.34a6.15,6.15,0,0,1-4,.73,9.63,9.63,0,0,0-3.89-.1,9.93,9.93,0,0,0-3.17,1.93,5,5,0,0,1-2.5,1.18,4.93,4.93,0,0,0-1.51.29,1.39,1.39,0,0,0-.8.67,1.36,1.36,0,0,1-.27.36,1.71,1.71,0,0,1-.21-.24A11.26,11.26,0,0,1,96,101.78c-.31-.91-.53-1.84-.82-2.75a7.5,7.5,0,0,0-.42-.91,8,8,0,0,1-.55-1.35l0-.06a5.54,5.54,0,0,1,.56-.7,3.33,3.33,0,0,1,.51-.4,6.52,6.52,0,0,1,2.38-.6c1.24-.1,2.47.11,3.7,0a5.16,5.16,0,0,0,3-1.51,11.52,11.52,0,0,1,1.23-1.19,3.17,3.17,0,0,1,2-.57,12.75,12.75,0,0,0,3.65,0,8.5,8.5,0,0,0,3-2,2.94,2.94,0,0,1,1.7-.89,4.2,4.2,0,0,1,1.75.41,9.72,9.72,0,0,0,3,.92A6.72,6.72,0,0,0,124.48,89c.64-.39,1.2-.9,1.85-1.28l.62-.38c.32-.18.66-.32,1-.52s.23-.28.37-.38a3.58,3.58,0,0,1,.1.7,9.52,9.52,0,0,0,.53,1.8,18.12,18.12,0,0,0,1.6,3.17,8.35,8.35,0,0,1,1,2.38c0,.17.07.53-.18.54a2,2,0,0,0-.63.08,3.28,3.28,0,0,0-.52.2,18.24,18.24,0,0,0-2.43.94A18.77,18.77,0,0,1,123.82,97.44Z"/><path class="cls-5" d="M131.35,95c.25,0,.22-.37.18-.54a8.35,8.35,0,0,0-1-2.38c-.1-.14-.18-.29-.27-.44-.37.17-.74.35-1.1.56a22.37,22.37,0,0,1-3.27,1.67,10.32,10.32,0,0,1-3.49.55c-.56,0-1.12,0-1.67-.07a12.65,12.65,0,0,0-1.94-.13,6.6,6.6,0,0,0-2.94,1.36,6.71,6.71,0,0,1-1.39.7,2,2,0,0,1-.84.12c-1.15-.16-.4-1.82-.07-2.38.61-1.05,1.7-2.29,3-2.25a13.59,13.59,0,0,1,3,.91,4.53,4.53,0,0,0,1.87,0,10.92,10.92,0,0,0,2-.53c2-.76,3.68-2.11,5.54-3.13a.69.69,0,0,0-.05-.13,9.52,9.52,0,0,1-.53-1.8,3.58,3.58,0,0,0-.1-.7c-.14.1-.22.29-.37.38s-.64.34-1,.52l-.62.38c-.65.38-1.21.89-1.85,1.28a6.72,6.72,0,0,1-3.66,1.18,9.72,9.72,0,0,1-3-.92,4.2,4.2,0,0,0-1.75-.41,2.94,2.94,0,0,0-1.7.89,8.5,8.5,0,0,1-3,2,12.75,12.75,0,0,1-3.65,0,3.17,3.17,0,0,0-2,.57,11.52,11.52,0,0,0-1.23,1.19,5.16,5.16,0,0,1-3,1.51c-1.23.15-2.46-.06-3.7,0a6.52,6.52,0,0,0-2.38.6,3.33,3.33,0,0,0-.51.4,5.54,5.54,0,0,0-.56.7l0,.06a7.57,7.57,0,0,0,.52,1.29,14.69,14.69,0,0,1,1.71-.53,3.26,3.26,0,0,1,.93-.13,9.07,9.07,0,0,1,1.46.24,5.27,5.27,0,0,0,2.81.08,8.33,8.33,0,0,0,1.44-.7c1-.6,2.09-2.07,3.12-2.69a6.33,6.33,0,0,1,4.22-.34c.47.13,1,.52.72,1s-1.24.54-1.72.63c-2.12.43-3.5,2.43-5.56,3.07a12.8,12.8,0,0,1-3.2.45,13,13,0,0,0-3.23.4,5.27,5.27,0,0,0-1.81,1c.05.19.11.37.16.56.19-.06.38-.1.57-.14a20.06,20.06,0,0,1,2-.3,18.85,18.85,0,0,1,2.24-.21c.27,0,1.07,0,1,.46a1.17,1.17,0,0,1-.45.58,2.23,2.23,0,0,1-.87.32,14,14,0,0,1-2.51.13,7.45,7.45,0,0,0-1.16.07,2.13,2.13,0,0,0-.5.11A10.22,10.22,0,0,0,97.49,105a1.71,1.71,0,0,0,.21.24,1.36,1.36,0,0,0,.27-.36,1.39,1.39,0,0,1,.8-.67,4.93,4.93,0,0,1,1.51-.29,5,5,0,0,0,2.5-1.18,9.93,9.93,0,0,1,3.17-1.93,9.63,9.63,0,0,1,3.89.1,6.15,6.15,0,0,0,4-.73c1-.65,1.82-1.61,2.79-2.34a4.7,4.7,0,0,1,3.41-.51,12.49,12.49,0,0,0,3.81.08,18.77,18.77,0,0,0,4-1.2,18.24,18.24,0,0,1,2.43-.94,3.28,3.28,0,0,1,.52-.2A2,2,0,0,1,131.35,95ZM110.13,98.6a5.53,5.53,0,0,1-1.46.2,1.61,1.61,0,0,1-1-.27.71.71,0,0,1-.13-.84,2.13,2.13,0,0,1,1.42-1,5.48,5.48,0,0,1,2.3-.34,1.52,1.52,0,0,1,.81.34.74.74,0,0,1,.31.39.67.67,0,0,1-.21.61A4.35,4.35,0,0,1,110.13,98.6Z"/><path class="cls-6" d="M94.49,97.27c.2-.13.4-.25.61-.36a7.32,7.32,0,0,1,3-.81,5.76,5.76,0,0,1,1.55.11,5.84,5.84,0,0,0,1.53.39,5.33,5.33,0,0,0,3.13-1.5A7,7,0,0,1,107,93.29a9.28,9.28,0,0,1,3.11,0,3.78,3.78,0,0,0,1.6-.14,5.11,5.11,0,0,0,1.56-1,4.89,4.89,0,0,1,3-1.56,13.57,13.57,0,0,1,3.06.76,7.27,7.27,0,0,0,3.93-.51,24.1,24.1,0,0,0,5.42-2.65,6.59,6.59,0,0,1-.3-1.16,3.58,3.58,0,0,0-.1-.7c-.14.1-.22.29-.37.38s-.64.34-1,.52l-.62.38c-.65.38-1.21.89-1.85,1.28a6.72,6.72,0,0,1-3.66,1.18,9.72,9.72,0,0,1-3-.92,4.2,4.2,0,0,0-1.75-.41,2.94,2.94,0,0,0-1.7.89,8.5,8.5,0,0,1-3,2,12.75,12.75,0,0,1-3.65,0,3.17,3.17,0,0,0-2,.57,11.52,11.52,0,0,0-1.23,1.19,5.16,5.16,0,0,1-3,1.51c-1.23.15-2.46-.06-3.7,0a6.52,6.52,0,0,0-2.38.6,3.33,3.33,0,0,0-.51.4,5.54,5.54,0,0,0-.56.7l0,.06c.06.19.12.37.19.55Z"/><path class="cls-7" d="M95.25,96.23a7.26,7.26,0,0,1,3-.62,12.28,12.28,0,0,1,1.6.1,7,7,0,0,0,1.82.07,5.94,5.94,0,0,0,3-1.69,6.69,6.69,0,0,1,2.81-2,15.75,15.75,0,0,1,3.22,0,5.13,5.13,0,0,0,3-1.3,5.53,5.53,0,0,1,2.65-1.34,5.27,5.27,0,0,1,2.5.68,4.63,4.63,0,0,0,2.91.56,8.57,8.57,0,0,0,1.89-.69l1.76-.83a16.91,16.91,0,0,0,3-1.69l-.06-.33a3.58,3.58,0,0,0-.1-.7c-.14.1-.22.29-.37.38s-.64.34-1,.52l-.62.38c-.65.38-1.21.89-1.85,1.28a6.72,6.72,0,0,1-3.66,1.18,9.72,9.72,0,0,1-3-.92,4.2,4.2,0,0,0-1.75-.41,2.94,2.94,0,0,0-1.7.89,8.5,8.5,0,0,1-3,2,12.75,12.75,0,0,1-3.65,0,3.17,3.17,0,0,0-2,.57,11.52,11.52,0,0,0-1.23,1.19,5.16,5.16,0,0,1-3,1.51c-1.23.15-2.46-.06-3.7,0a6.52,6.52,0,0,0-2.38.6,3.33,3.33,0,0,0-.51.4,5.54,5.54,0,0,0-.56.7l0,.06,0,.1A4.73,4.73,0,0,1,95.25,96.23Z"/><path class="cls-6" d="M131.35,95c.25,0,.22-.37.18-.54a6.54,6.54,0,0,0-.5-1.4,10.93,10.93,0,0,1-1.75.86,22.64,22.64,0,0,1-4.2,1.2,15.21,15.21,0,0,1-3.3.26,14.61,14.61,0,0,0-3.74.11c-2.11.49-3.28,2.41-5.09,3.41a5.18,5.18,0,0,1-2.94.6c-1.1-.09-2.17-.39-3.27-.45a4.52,4.52,0,0,0-1.68.16,3.33,3.33,0,0,0-1.23.79,13.1,13.1,0,0,1-2,2,4.12,4.12,0,0,1-1.94.56c-.78.07-1.57.11-2.35.21a9,9,0,0,0-1.15.2A8,8,0,0,0,97.49,105a1.71,1.71,0,0,0,.21.24,1.36,1.36,0,0,0,.27-.36,1.39,1.39,0,0,1,.8-.67,4.93,4.93,0,0,1,1.51-.29,5,5,0,0,0,2.5-1.18,9.93,9.93,0,0,1,3.17-1.93,9.63,9.63,0,0,1,3.89.1,6.15,6.15,0,0,0,4-.73c1-.65,1.82-1.61,2.79-2.34a4.7,4.7,0,0,1,3.41-.51,12.49,12.49,0,0,0,3.81.08,18.77,18.77,0,0,0,4-1.2,18.24,18.24,0,0,1,2.43-.94,3.28,3.28,0,0,1,.52-.2A2,2,0,0,1,131.35,95Z"/><path class="cls-7" d="M131.35,95c.25,0,.22-.37.18-.54a4.27,4.27,0,0,0-.13-.48,17.87,17.87,0,0,1-1.82.75L126.12,96a10.37,10.37,0,0,1-3.42.73c-1.06,0-2.1-.27-3.16-.36a4.89,4.89,0,0,0-3.21.71c-.92.6-1.65,1.42-2.51,2.1a4.64,4.64,0,0,1-2.9,1.12c-1.24,0-2.43-.43-3.66-.5a3.9,3.9,0,0,0-1.91.31,5.4,5.4,0,0,0-1.38,1.09,7,7,0,0,1-2.8,2.15,9.45,9.45,0,0,1-2.12.25,10,10,0,0,0-2.21.4,6.88,6.88,0,0,0,.65,1.08,1.71,1.71,0,0,0,.21.24,1.36,1.36,0,0,0,.27-.36,1.39,1.39,0,0,1,.8-.67,4.93,4.93,0,0,1,1.51-.29,5,5,0,0,0,2.5-1.18,9.93,9.93,0,0,1,3.17-1.93,9.63,9.63,0,0,1,3.89.1,6.15,6.15,0,0,0,4-.73c1-.65,1.82-1.61,2.79-2.34a4.7,4.7,0,0,1,3.41-.51,12.49,12.49,0,0,0,3.81.08,18.77,18.77,0,0,0,4-1.2,18.24,18.24,0,0,1,2.43-.94,3.28,3.28,0,0,1,.52-.2A2,2,0,0,1,131.35,95Z"/><path class="cls-8" d="M121.73,91.4a15.31,15.31,0,0,1-3-.61,9,9,0,0,0-2.86-.45,3.67,3.67,0,0,0-2.11,1.2,7.8,7.8,0,0,1-1,.8c-.38.24-.81.33-1.2.53s0,.44.22.47a3.11,3.11,0,0,0,2.21-.77,6.11,6.11,0,0,1,2.34-1.08,3.89,3.89,0,0,1,1.27.11c.48.08,1,.18,1.43.24a7.11,7.11,0,0,0,2.83-.17C122.06,91.61,121.86,91.41,121.73,91.4Z"/><path class="cls-8" d="M109,93.92c.13-.23-.18-.5-.36-.58a1.94,1.94,0,0,0-.57-.12.93.93,0,0,0-.37,0l-.33,0c-.36.08-.37.41-.15.65a1.18,1.18,0,0,0,.88.4l.14,0A.77.77,0,0,0,109,93.92Z"/></g></svg>