<svg xmlns="http://www.w3.org/2000/svg" viewBox="0 0 612 792"><defs><style>.cls-1,.cls-4{fill:#231f20;}.cls-2{opacity:0.14;}.cls-3{fill:#bcbec0;}.cls-4{opacity:0.31;}</style></defs><g id="Layer_4" data-name="Layer 4"><rect class="cls-1" x="-9.08" y="-10.9" width="631.16" height="819.67"/></g><g id="Layer_5" data-name="Layer 5"><g class="cls-2"><circle class="cls-3" cx="496.11" cy="729.31" r="1.91"/><circle class="cls-3" cx="496.75" cy="757" r="3.31"/><circle class="cls-3" cx="590.79" cy="743.41" r="3.31"/><circle class="cls-3" cx="567.31" cy="746.11" r="3.31"/><circle class="cls-3" cx="548.6" cy="732.66" r="3.31"/><circle class="cls-3" cx="523.97" cy="756.62" r="3.31"/><circle class="cls-3" cx="578.7" cy="734.57" r="3.31"/><circle class="cls-3" cx="529.22" cy="712.31" r="3.31"/><circle class="cls-3" cx="570.27" cy="708.25" r="3.31"/><circle class="cls-3" cx="571.62" cy="766.08" r="3.31"/></g><g class="cls-2"><circle class="cls-3" cx="312.56" cy="597.16" r="1.91"/><circle class="cls-3" cx="313.2" cy="624.85" r="3.31"/><circle class="cls-3" cx="407.24" cy="611.26" r="3.31"/><circle class="cls-3" cx="383.75" cy="613.96" r="3.31"/><circle class="cls-3" cx="365.05" cy="600.51" r="3.31"/><circle class="cls-3" cx="340.42" cy="624.46" r="3.31"/><circle class="cls-3" cx="395.15" cy="602.41" r="3.31"/><circle class="cls-3" cx="345.67" cy="580.16" r="3.31"/><circle class="cls-3" cx="386.71" cy="576.1" r="3.31"/><circle class="cls-3" cx="388.07" cy="633.93" r="3.31"/></g><g class="cls-2"><circle class="cls-3" cx="408.45" cy="548.01" r="1.91"/><circle class="cls-3" cx="409.09" cy="575.7" r="3.31"/><circle class="cls-3" cx="503.13" cy="562.11" r="3.31"/><circle class="cls-3" cx="479.64" cy="564.81" r="3.31"/><circle class="cls-3" cx="460.94" cy="551.37" r="3.31"/><circle class="cls-3" cx="436.31" cy="575.32" r="3.31"/><circle class="cls-3" cx="491.04" cy="553.27" r="3.31"/><circle class="cls-3" cx="441.56" cy="531.01" r="3.31"/><circle class="cls-3" cx="482.6" cy="526.95" r="3.31"/><circle class="cls-3" cx="483.96" cy="584.78" r="3.31"/></g><g class="cls-2"><circle class="cls-3" cx="378.11" cy="709.6" r="1.91"/><circle class="cls-3" cx="378.75" cy="737.29" r="3.31"/><circle class="cls-3" cx="472.79" cy="723.7" r="3.31"/><circle class="cls-3" cx="449.31" cy="726.4" r="3.31"/><circle class="cls-3" cx="430.6" cy="712.95" r="3.31"/><circle class="cls-3" cx="405.97" cy="736.91" r="3.31"/><circle class="cls-3" cx="460.71" cy="714.86" r="3.31"/><circle class="cls-3" cx="411.23" cy="692.6" r="3.31"/><circle class="cls-3" cx="452.27" cy="688.54" r="3.31"/><circle class="cls-3" cx="453.62" cy="746.37" r="3.31"/></g><circle class="cls-3" cx="219.44" cy="790.9" r="3.31"/><circle class="cls-3" cx="260.49" cy="786.84" r="3.31"/><g class="cls-2"><circle class="cls-3" cx="408.45" cy="548.01" r="1.91"/><circle class="cls-3" cx="409.09" cy="575.7" r="3.31"/><circle class="cls-3" cx="503.13" cy="562.11" r="3.31"/><circle class="cls-3" cx="479.64" cy="564.81" r="3.31"/><circle class="cls-3" cx="460.94" cy="551.37" r="3.31"/><circle class="cls-3" cx="436.31" cy="575.32" r="3.31"/><circle class="cls-3" cx="491.04" cy="553.27" r="3.31"/><circle class="cls-3" cx="441.56" cy="531.01" r="3.31"/><circle class="cls-3" cx="482.6" cy="526.95" r="3.31"/><circle class="cls-3" cx="483.96" cy="584.78" r="3.31"/></g><circle class="cls-3" cx="544.05" cy="638.66" r="1.91"/><circle class="cls-3" cx="544.7" cy="666.35" r="3.31"/><circle class="cls-3" cx="615.25" cy="655.46" r="3.31"/><circle class="cls-3" cx="596.55" cy="642.01" r="3.31"/><circle class="cls-3" cx="571.92" cy="665.97" r="3.31"/><circle class="cls-3" cx="577.17" cy="621.66" r="3.31"/><g class="cls-2"><circle class="cls-3" cx="360.5" cy="506.51" r="1.91"/><circle class="cls-3" cx="361.14" cy="534.2" r="3.31"/><circle class="cls-3" cx="455.18" cy="520.61" r="3.31"/><circle class="cls-3" cx="431.7" cy="523.31" r="3.31"/><circle class="cls-3" cx="412.99" cy="509.86" r="3.31"/><circle class="cls-3" cx="388.36" cy="533.82" r="3.31"/><circle class="cls-3" cx="443.09" cy="511.77" r="3.31"/><circle class="cls-3" cx="393.61" cy="489.51" r="3.31"/><circle class="cls-3" cx="434.66" cy="485.45" r="3.31"/><circle class="cls-3" cx="436.01" cy="543.28" r="3.31"/></g><g class="cls-2"><circle class="cls-3" cx="426.06" cy="618.95" r="1.91"/><circle class="cls-3" cx="426.7" cy="646.64" r="3.31"/><circle class="cls-3" cx="520.74" cy="633.05" r="3.31"/><circle class="cls-3" cx="497.25" cy="635.75" r="3.31"/><circle class="cls-3" cx="478.55" cy="622.3" r="3.31"/><circle class="cls-3" cx="453.92" cy="646.26" r="3.31"/><circle class="cls-3" cx="508.65" cy="624.21" r="3.31"/><circle class="cls-3" cx="459.17" cy="601.95" r="3.31"/><circle class="cls-3" cx="500.22" cy="597.89" r="3.31"/><circle class="cls-3" cx="501.57" cy="655.72" r="3.31"/></g><g class="cls-2"><circle class="cls-3" cx="494.49" cy="530.75" r="1.91"/><circle class="cls-3" cx="495.13" cy="558.44" r="3.31"/><circle class="cls-3" cx="589.17" cy="544.85" r="3.31"/><circle class="cls-3" cx="565.68" cy="547.55" r="3.31"/><circle class="cls-3" cx="546.98" cy="534.1" r="3.31"/><circle class="cls-3" cx="522.35" cy="558.05" r="3.31"/><circle class="cls-3" cx="577.08" cy="536" r="3.31"/><circle class="cls-3" cx="527.6" cy="513.75" r="3.31"/><circle class="cls-3" cx="568.64" cy="509.69" r="3.31"/><circle class="cls-3" cx="570" cy="567.52" r="3.31"/></g><circle class="cls-3" cx="542.43" cy="440.1" r="1.91"/><circle class="cls-3" cx="543.07" cy="467.79" r="3.31"/><circle class="cls-3" cx="613.63" cy="456.9" r="3.31"/><circle class="cls-3" cx="594.92" cy="443.45" r="3.31"/><circle class="cls-3" cx="570.29" cy="467.4" r="3.31"/><circle class="cls-3" cx="575.54" cy="423.1" r="3.31"/><g class="cls-2"><circle class="cls-3" cx="446.54" cy="489.25" r="1.91"/><circle class="cls-3" cx="447.18" cy="516.94" r="3.31"/><circle class="cls-3" cx="541.22" cy="503.34" r="3.31"/><circle class="cls-3" cx="517.74" cy="506.05" r="3.31"/><circle class="cls-3" cx="499.03" cy="492.6" r="3.31"/><circle class="cls-3" cx="474.4" cy="516.55" r="3.31"/><circle class="cls-3" cx="529.14" cy="494.5" r="3.31"/><circle class="cls-3" cx="479.65" cy="472.25" r="3.31"/><circle class="cls-3" cx="520.7" cy="468.19" r="3.31"/><circle class="cls-3" cx="522.05" cy="526.02" r="3.31"/></g><g class="cls-2"><circle class="cls-3" cx="413.95" cy="415.5" r="1.91"/><circle class="cls-3" cx="414.59" cy="443.19" r="3.31"/><circle class="cls-3" cx="508.63" cy="429.59" r="3.31"/><circle class="cls-3" cx="485.14" cy="432.3" r="3.31"/><circle class="cls-3" cx="466.44" cy="418.85" r="3.31"/><circle class="cls-3" cx="441.81" cy="442.8" r="3.31"/><circle class="cls-3" cx="496.54" cy="420.75" r="3.31"/><circle class="cls-3" cx="447.06" cy="398.5" r="3.31"/><circle class="cls-3" cx="488.11" cy="394.44" r="3.31"/><circle class="cls-3" cx="489.46" cy="452.27" r="3.31"/></g><circle class="cls-3" cx="528.81" cy="445.41" r="1.91"/><circle class="cls-3" cx="529.45" cy="473.1" r="3.31"/><circle class="cls-3" cx="600" cy="462.21" r="3.31"/><circle class="cls-3" cx="581.3" cy="448.76" r="3.31"/><circle class="cls-3" cx="556.67" cy="472.72" r="3.31"/><circle class="cls-3" cx="611.4" cy="450.67" r="3.31"/><circle class="cls-3" cx="561.92" cy="428.41" r="3.31"/><circle class="cls-3" cx="602.97" cy="424.35" r="3.31"/><circle class="cls-3" cx="604.32" cy="482.18" r="3.31"/><circle class="cls-3" cx="528.81" cy="445.41" r="1.91"/><circle class="cls-3" cx="529.45" cy="473.1" r="3.31"/><circle class="cls-3" cx="600" cy="462.21" r="3.31"/><circle class="cls-3" cx="581.3" cy="448.76" r="3.31"/><circle class="cls-3" cx="556.67" cy="472.72" r="3.31"/><circle class="cls-3" cx="611.4" cy="450.67" r="3.31"/><circle class="cls-3" cx="561.92" cy="428.41" r="3.31"/><circle class="cls-3" cx="602.97" cy="424.35" r="3.31"/><circle class="cls-3" cx="604.32" cy="482.18" r="3.31"/><g class="cls-2"><circle class="cls-3" cx="480.86" cy="403.91" r="1.91"/><circle class="cls-3" cx="481.5" cy="431.6" r="3.31"/><circle class="cls-3" cx="575.54" cy="418.01" r="3.31"/><circle class="cls-3" cx="552.06" cy="420.71" r="3.31"/><circle class="cls-3" cx="533.36" cy="407.26" r="3.31"/><circle class="cls-3" cx="508.73" cy="431.21" r="3.31"/><circle class="cls-3" cx="563.46" cy="409.16" r="3.31"/><circle class="cls-3" cx="513.98" cy="386.91" r="3.31"/><circle class="cls-3" cx="555.02" cy="382.85" r="3.31"/><circle class="cls-3" cx="556.37" cy="440.68" r="3.31"/></g><circle class="cls-3" cx="546.42" cy="516.35" r="1.91"/><circle class="cls-3" cx="547.06" cy="544.04" r="3.31"/><circle class="cls-3" cx="598.91" cy="519.7" r="3.31"/><circle class="cls-3" cx="574.28" cy="543.66" r="3.31"/><circle class="cls-3" cx="579.53" cy="499.35" r="3.31"/><circle class="cls-3" cx="576.75" cy="354.76" r="1.91"/><circle class="cls-3" cx="577.39" cy="382.45" r="3.31"/><circle class="cls-3" cx="604.62" cy="382.07" r="3.31"/><circle class="cls-3" cx="609.87" cy="337.76" r="3.31"/><circle class="cls-3" cx="544.83" cy="399.82" r="3.31"/><circle class="cls-3" cx="567.36" cy="392.68" r="3.31"/><circle class="cls-3" cx="588.29" cy="402.32" r="3.31"/><circle class="cls-3" cx="607.9" cy="374.1" r="3.31"/><circle class="cls-3" cx="558.38" cy="406.19" r="3.31"/><circle class="cls-3" cx="611.19" cy="418.59" r="3.31"/><circle class="cls-3" cx="571.68" cy="430.41" r="3.31"/><circle class="cls-3" cx="559.32" cy="373.91" r="3.31"/><g class="cls-2"><circle class="cls-3" cx="555.71" cy="462.13" r="1.91"/><circle class="cls-3" cx="549.79" cy="435.07" r="3.31"/><circle class="cls-3" cx="460.08" cy="466.36" r="3.31"/><circle class="cls-3" cx="482.61" cy="459.22" r="3.31"/><circle class="cls-3" cx="503.54" cy="468.86" r="3.31"/><circle class="cls-3" cx="523.15" cy="440.64" r="3.31"/><circle class="cls-3" cx="473.63" cy="472.73" r="3.31"/><circle class="cls-3" cx="526.44" cy="485.14" r="3.31"/><circle class="cls-3" cx="486.93" cy="496.95" r="3.31"/><circle class="cls-3" cx="474.57" cy="440.45" r="3.31"/></g><g class="cls-2"><circle class="cls-3" cx="555.71" cy="462.13" r="1.91"/><circle class="cls-3" cx="549.79" cy="435.07" r="3.31"/><circle class="cls-3" cx="460.08" cy="466.36" r="3.31"/><circle class="cls-3" cx="482.61" cy="459.22" r="3.31"/><circle class="cls-3" cx="503.54" cy="468.86" r="3.31"/><circle class="cls-3" cx="523.15" cy="440.64" r="3.31"/><circle class="cls-3" cx="473.63" cy="472.73" r="3.31"/><circle class="cls-3" cx="526.44" cy="485.14" r="3.31"/><circle class="cls-3" cx="486.93" cy="496.95" r="3.31"/><circle class="cls-3" cx="474.57" cy="440.45" r="3.31"/></g><g class="cls-2"><circle class="cls-3" cx="610.69" cy="493.72" r="1.91"/><circle class="cls-3" cx="604.78" cy="466.66" r="3.31"/><circle class="cls-3" cx="515.06" cy="497.95" r="3.31"/><circle class="cls-3" cx="537.6" cy="490.82" r="3.31"/><circle class="cls-3" cx="558.52" cy="500.45" r="3.31"/><circle class="cls-3" cx="578.13" cy="472.24" r="3.31"/><circle class="cls-3" cx="528.61" cy="504.32" r="3.31"/><circle class="cls-3" cx="581.43" cy="516.73" r="3.31"/><circle class="cls-3" cx="541.91" cy="528.54" r="3.31"/><circle class="cls-3" cx="529.55" cy="472.04" r="3.31"/></g><g class="cls-2"><circle class="cls-3" cx="267.3" cy="413.56" r="1.91"/><circle class="cls-3" cx="267.94" cy="441.25" r="3.31"/><circle class="cls-3" cx="361.98" cy="427.66" r="3.31"/><circle class="cls-3" cx="338.5" cy="430.36" r="3.31"/><circle class="cls-3" cx="319.8" cy="416.91" r="3.31"/><circle class="cls-3" cx="295.16" cy="440.87" r="3.31"/><circle class="cls-3" cx="349.9" cy="418.82" r="3.31"/><circle class="cls-3" cx="300.42" cy="396.56" r="3.31"/><circle class="cls-3" cx="341.46" cy="392.5" r="3.31"/><circle class="cls-3" cx="342.81" cy="450.33" r="3.31"/></g><g class="cls-2"><circle class="cls-3" cx="586.4" cy="229.93" r="1.91"/><circle class="cls-3" cx="580.49" cy="202.87" r="3.31"/><circle class="cls-3" cx="490.77" cy="234.15" r="3.31"/><circle class="cls-3" cx="513.31" cy="227.02" r="3.31"/><circle class="cls-3" cx="534.23" cy="236.65" r="3.31"/><circle class="cls-3" cx="553.84" cy="208.44" r="3.31"/><circle class="cls-3" cx="504.32" cy="240.53" r="3.31"/><circle class="cls-3" cx="557.14" cy="252.93" r="3.31"/><circle class="cls-3" cx="517.62" cy="264.75" r="3.31"/><circle class="cls-3" cx="505.26" cy="208.24" r="3.31"/></g><g class="cls-2"><circle class="cls-3" cx="608.9" cy="315.18" r="1.91"/><circle class="cls-3" cx="602.99" cy="288.12" r="3.31"/><circle class="cls-3" cx="513.27" cy="319.41" r="3.31"/><circle class="cls-3" cx="535.81" cy="312.27" r="3.31"/><circle class="cls-3" cx="556.73" cy="321.91" r="3.31"/><circle class="cls-3" cx="576.34" cy="293.69" r="3.31"/><circle class="cls-3" cx="526.82" cy="325.78" r="3.31"/><circle class="cls-3" cx="579.64" cy="338.19" r="3.31"/><circle class="cls-3" cx="540.12" cy="350" r="3.31"/><circle class="cls-3" cx="527.76" cy="293.5" r="3.31"/></g><g class="cls-2"><circle class="cls-3" cx="410.03" cy="338.55" r="1.91"/><circle class="cls-3" cx="404.11" cy="311.49" r="3.31"/><circle class="cls-3" cx="314.4" cy="342.78" r="3.31"/><circle class="cls-3" cx="336.93" cy="335.64" r="3.31"/><circle class="cls-3" cx="357.86" cy="345.27" r="3.31"/><circle class="cls-3" cx="377.47" cy="317.06" r="3.31"/><circle class="cls-3" cx="327.95" cy="349.15" r="3.31"/><circle class="cls-3" cx="380.77" cy="361.55" r="3.31"/><circle class="cls-3" cx="341.25" cy="373.37" r="3.31"/><circle class="cls-3" cx="328.89" cy="316.86" r="3.31"/></g><g class="cls-2"><circle class="cls-3" cx="529.62" cy="335.38" r="1.91"/><circle class="cls-3" cx="523.71" cy="308.32" r="3.31"/><circle class="cls-3" cx="433.99" cy="339.61" r="3.31"/><circle class="cls-3" cx="456.53" cy="332.48" r="3.31"/><circle class="cls-3" cx="477.45" cy="342.11" r="3.31"/><circle class="cls-3" cx="497.06" cy="313.9" r="3.31"/><circle class="cls-3" cx="447.54" cy="345.98" r="3.31"/><circle class="cls-3" cx="500.36" cy="358.39" r="3.31"/><circle class="cls-3" cx="460.84" cy="370.2" r="3.31"/><circle class="cls-3" cx="448.48" cy="313.7" r="3.31"/></g><g class="cls-2"><circle class="cls-3" cx="60" cy="124.46" r="1.91"/><circle class="cls-3" cx="60.64" cy="152.16" r="3.31"/><circle class="cls-3" cx="154.68" cy="138.56" r="3.31"/><circle class="cls-3" cx="131.2" cy="141.26" r="3.31"/><circle class="cls-3" cx="112.5" cy="127.82" r="3.31"/><circle class="cls-3" cx="87.87" cy="151.77" r="3.31"/><circle class="cls-3" cx="142.6" cy="129.72" r="3.31"/><circle class="cls-3" cx="93.12" cy="107.47" r="3.31"/><circle class="cls-3" cx="134.16" cy="103.41" r="3.31"/><circle class="cls-3" cx="135.51" cy="161.23" r="3.31"/></g><circle class="cls-3" cx="36.69" cy="118.85" r="3.31"/><circle class="cls-3" cx="13.2" cy="121.55" r="3.31"/><circle class="cls-3" cx="24.6" cy="110.01" r="3.31"/><circle class="cls-3" cx="16.16" cy="83.7" r="3.31"/><circle class="cls-3" cx="17.52" cy="141.52" r="3.31"/><g class="cls-2"><circle class="cls-3" cx="142.27" cy="80.63" r="1.91"/><circle class="cls-3" cx="142.91" cy="108.32" r="3.31"/><circle class="cls-3" cx="236.95" cy="94.73" r="3.31"/><circle class="cls-3" cx="213.47" cy="97.43" r="3.31"/><circle class="cls-3" cx="194.76" cy="83.98" r="3.31"/><circle class="cls-3" cx="170.13" cy="107.93" r="3.31"/><circle class="cls-3" cx="224.87" cy="85.88" r="3.31"/><circle class="cls-3" cx="175.39" cy="63.63" r="3.31"/><circle class="cls-3" cx="216.43" cy="59.57" r="3.31"/><circle class="cls-3" cx="217.78" cy="117.4" r="3.31"/></g><g class="cls-2"><circle class="cls-3" cx="385.87" cy="679.89" r="1.91"/><circle class="cls-3" cx="379.96" cy="652.83" r="3.31"/><circle class="cls-3" cx="290.24" cy="684.12" r="3.31"/><circle class="cls-3" cx="312.78" cy="676.99" r="3.31"/><circle class="cls-3" cx="333.71" cy="686.62" r="3.31"/><circle class="cls-3" cx="353.31" cy="658.41" r="3.31"/><circle class="cls-3" cx="303.79" cy="690.5" r="3.31"/><circle class="cls-3" cx="356.61" cy="702.9" r="3.31"/><circle class="cls-3" cx="317.09" cy="714.71" r="3.31"/><circle class="cls-3" cx="304.73" cy="658.21" r="3.31"/></g><g class="cls-2"><circle class="cls-3" cx="206.58" cy="488.62" r="1.91"/><circle class="cls-3" cx="207.22" cy="516.32" r="3.31"/><circle class="cls-3" cx="301.26" cy="502.72" r="3.31"/><circle class="cls-3" cx="277.77" cy="505.42" r="3.31"/><circle class="cls-3" cx="259.07" cy="491.98" r="3.31"/><circle class="cls-3" cx="234.44" cy="515.93" r="3.31"/><circle class="cls-3" cx="289.17" cy="493.88" r="3.31"/><circle class="cls-3" cx="239.69" cy="471.63" r="3.31"/><circle class="cls-3" cx="280.74" cy="467.57" r="3.31"/><circle class="cls-3" cx="282.09" cy="525.39" r="3.31"/></g><g class="cls-2"><circle class="cls-3" cx="319.38" cy="699.66" r="1.91"/><circle class="cls-3" cx="320.02" cy="727.36" r="3.31"/><circle class="cls-3" cx="414.06" cy="713.76" r="3.31"/><circle class="cls-3" cx="390.57" cy="716.46" r="3.31"/><circle class="cls-3" cx="371.87" cy="703.02" r="3.31"/><circle class="cls-3" cx="347.24" cy="726.97" r="3.31"/><circle class="cls-3" cx="401.97" cy="704.92" r="3.31"/><circle class="cls-3" cx="352.49" cy="682.67" r="3.31"/><circle class="cls-3" cx="393.54" cy="678.61" r="3.31"/><circle class="cls-3" cx="394.89" cy="736.43" r="3.31"/></g><g class="cls-2"><circle class="cls-3" cx="135.82" cy="567.51" r="1.91"/><circle class="cls-3" cx="136.47" cy="595.2" r="3.31"/><circle class="cls-3" cx="230.5" cy="581.61" r="3.31"/><circle class="cls-3" cx="207.02" cy="584.31" r="3.31"/><circle class="cls-3" cx="188.32" cy="570.87" r="3.31"/><circle class="cls-3" cx="163.69" cy="594.82" r="3.31"/><circle class="cls-3" cx="218.42" cy="572.77" r="3.31"/><circle class="cls-3" cx="168.94" cy="550.52" r="3.31"/><circle class="cls-3" cx="209.98" cy="546.45" r="3.31"/><circle class="cls-3" cx="211.34" cy="604.28" r="3.31"/></g><g class="cls-2"><circle class="cls-3" cx="201.38" cy="679.95" r="1.91"/><circle class="cls-3" cx="202.02" cy="707.65" r="3.31"/><circle class="cls-3" cx="296.06" cy="694.05" r="3.31"/><circle class="cls-3" cx="272.58" cy="696.75" r="3.31"/><circle class="cls-3" cx="253.87" cy="683.31" r="3.31"/><circle class="cls-3" cx="229.24" cy="707.26" r="3.31"/><circle class="cls-3" cx="283.98" cy="685.21" r="3.31"/><circle class="cls-3" cx="234.49" cy="662.96" r="3.31"/><circle class="cls-3" cx="275.54" cy="658.9" r="3.31"/><circle class="cls-3" cx="276.89" cy="716.72" r="3.31"/></g><g class="cls-2"><circle class="cls-3" cx="367.32" cy="609.01" r="1.91"/><circle class="cls-3" cx="367.96" cy="636.71" r="3.31"/><circle class="cls-3" cx="462" cy="623.11" r="3.31"/><circle class="cls-3" cx="438.52" cy="625.82" r="3.31"/><circle class="cls-3" cx="419.82" cy="612.37" r="3.31"/><circle class="cls-3" cx="395.19" cy="636.32" r="3.31"/><circle class="cls-3" cx="449.92" cy="614.27" r="3.31"/><circle class="cls-3" cx="400.44" cy="592.02" r="3.31"/><circle class="cls-3" cx="441.48" cy="587.96" r="3.31"/><circle class="cls-3" cx="442.84" cy="645.78" r="3.31"/></g><g class="cls-2"><circle class="cls-3" cx="249.33" cy="589.3" r="1.91"/><circle class="cls-3" cx="249.97" cy="617" r="3.31"/><circle class="cls-3" cx="344.01" cy="603.4" r="3.31"/><circle class="cls-3" cx="320.52" cy="606.1" r="3.31"/><circle class="cls-3" cx="301.82" cy="592.66" r="3.31"/><circle class="cls-3" cx="277.19" cy="616.61" r="3.31"/><circle class="cls-3" cx="331.92" cy="594.56" r="3.31"/><circle class="cls-3" cx="282.44" cy="572.31" r="3.31"/><circle class="cls-3" cx="323.48" cy="568.25" r="3.31"/><circle class="cls-3" cx="324.84" cy="626.07" r="3.31"/></g><g class="cls-2"><circle class="cls-3" cx="54.22" cy="702.98" r="1.91"/><circle class="cls-3" cx="54.87" cy="730.67" r="3.31"/><circle class="cls-3" cx="148.9" cy="717.08" r="3.31"/><circle class="cls-3" cx="125.42" cy="719.78" r="3.31"/><circle class="cls-3" cx="106.72" cy="706.33" r="3.31"/><circle class="cls-3" cx="82.09" cy="730.29" r="3.31"/><circle class="cls-3" cx="136.82" cy="708.24" r="3.31"/><circle class="cls-3" cx="87.34" cy="685.98" r="3.31"/><circle class="cls-3" cx="128.38" cy="681.92" r="3.31"/><circle class="cls-3" cx="129.74" cy="739.75" r="3.31"/></g><g class="cls-2"><circle class="cls-3" cx="150.11" cy="653.83" r="1.91"/><circle class="cls-3" cx="150.76" cy="681.53" r="3.31"/><circle class="cls-3" cx="244.8" cy="667.93" r="3.31"/><circle class="cls-3" cx="221.31" cy="670.63" r="3.31"/><circle class="cls-3" cx="202.61" cy="657.19" r="3.31"/><circle class="cls-3" cx="177.98" cy="681.14" r="3.31"/><circle class="cls-3" cx="232.71" cy="659.09" r="3.31"/><circle class="cls-3" cx="183.23" cy="636.84" r="3.31"/><circle class="cls-3" cx="224.27" cy="632.78" r="3.31"/><circle class="cls-3" cx="225.63" cy="690.6" r="3.31"/></g><circle class="cls-3" cx="53.01" cy="766.23" r="3.31"/><circle class="cls-3" cx="29.53" cy="768.93" r="3.31"/><circle class="cls-3" cx="10.83" cy="755.48" r="3.31"/><circle class="cls-3" cx="40.93" cy="757.38" r="3.31"/><circle class="cls-3" cx="32.49" cy="731.07" r="3.31"/><circle class="cls-3" cx="33.85" cy="788.9" r="3.31"/><g class="cls-2"><circle class="cls-3" cx="150.11" cy="653.83" r="1.91"/><circle class="cls-3" cx="150.76" cy="681.53" r="3.31"/><circle class="cls-3" cx="244.8" cy="667.93" r="3.31"/><circle class="cls-3" cx="221.31" cy="670.63" r="3.31"/><circle class="cls-3" cx="202.61" cy="657.19" r="3.31"/><circle class="cls-3" cx="177.98" cy="681.14" r="3.31"/><circle class="cls-3" cx="232.71" cy="659.09" r="3.31"/><circle class="cls-3" cx="183.23" cy="636.84" r="3.31"/><circle class="cls-3" cx="224.27" cy="632.78" r="3.31"/><circle class="cls-3" cx="225.63" cy="690.6" r="3.31"/></g><circle class="cls-3" cx="53.01" cy="766.23" r="3.31"/><circle class="cls-3" cx="29.53" cy="768.93" r="3.31"/><circle class="cls-3" cx="10.83" cy="755.48" r="3.31"/><circle class="cls-3" cx="40.93" cy="757.38" r="3.31"/><circle class="cls-3" cx="32.49" cy="731.07" r="3.31"/><circle class="cls-3" cx="33.85" cy="788.9" r="3.31"/><g class="cls-2"><circle class="cls-3" cx="6.28" cy="661.48" r="1.91"/><circle class="cls-3" cx="6.92" cy="689.17" r="3.31"/><circle class="cls-3" cx="100.96" cy="675.58" r="3.31"/><circle class="cls-3" cx="77.47" cy="678.28" r="3.31"/><circle class="cls-3" cx="58.77" cy="664.83" r="3.31"/><circle class="cls-3" cx="34.14" cy="688.78" r="3.31"/><circle class="cls-3" cx="88.87" cy="666.73" r="3.31"/><circle class="cls-3" cx="39.39" cy="644.48" r="3.31"/><circle class="cls-3" cx="80.44" cy="640.42" r="3.31"/><circle class="cls-3" cx="81.79" cy="698.25" r="3.31"/></g><g class="cls-2"><circle class="cls-3" cx="6.28" cy="661.48" r="1.91"/><circle class="cls-3" cx="6.92" cy="689.17" r="3.31"/><circle class="cls-3" cx="100.96" cy="675.58" r="3.31"/><circle class="cls-3" cx="77.47" cy="678.28" r="3.31"/><circle class="cls-3" cx="58.77" cy="664.83" r="3.31"/><circle class="cls-3" cx="34.14" cy="688.78" r="3.31"/><circle class="cls-3" cx="88.87" cy="666.73" r="3.31"/><circle class="cls-3" cx="39.39" cy="644.48" r="3.31"/><circle class="cls-3" cx="80.44" cy="640.42" r="3.31"/><circle class="cls-3" cx="81.79" cy="698.25" r="3.31"/></g><circle class="cls-3" cx="209.33" cy="781.95" r="3.31"/><circle class="cls-3" cx="250.37" cy="777.89" r="3.31"/><g class="cls-2"><circle class="cls-3" cx="87.34" cy="680.89" r="3.31"/><circle class="cls-3" cx="63.85" cy="683.59" r="3.31"/><circle class="cls-3" cx="45.15" cy="670.14" r="3.31"/><circle class="cls-3" cx="20.52" cy="694.1" r="3.31"/><circle class="cls-3" cx="75.25" cy="672.05" r="3.31"/><circle class="cls-3" cx="25.77" cy="649.79" r="3.31"/><circle class="cls-3" cx="66.82" cy="645.73" r="3.31"/><circle class="cls-3" cx="68.17" cy="703.56" r="3.31"/></g><circle class="cls-3" cx="58.21" cy="779.23" r="1.91"/><circle class="cls-3" cx="152.89" cy="793.33" r="3.31"/><circle class="cls-3" cx="110.71" cy="782.59" r="3.31"/><circle class="cls-3" cx="140.81" cy="784.49" r="3.31"/><circle class="cls-3" cx="91.33" cy="762.24" r="3.31"/><circle class="cls-3" cx="132.37" cy="758.18" r="3.31"/><g class="cls-2"><circle class="cls-3" cx="224.16" cy="708.29" r="1.91"/><circle class="cls-3" cx="224.8" cy="735.99" r="3.31"/><circle class="cls-3" cx="318.84" cy="722.39" r="3.31"/><circle class="cls-3" cx="295.35" cy="725.09" r="3.31"/><circle class="cls-3" cx="276.65" cy="711.65" r="3.31"/><circle class="cls-3" cx="252.02" cy="735.6" r="3.31"/><circle class="cls-3" cx="306.75" cy="713.55" r="3.31"/><circle class="cls-3" cx="257.27" cy="691.3" r="3.31"/><circle class="cls-3" cx="298.32" cy="687.24" r="3.31"/><circle class="cls-3" cx="299.67" cy="745.06" r="3.31"/></g><g class="cls-2"><circle class="cls-3" cx="106.16" cy="688.58" r="1.91"/><circle class="cls-3" cx="106.8" cy="716.28" r="3.31"/><circle class="cls-3" cx="200.84" cy="702.68" r="3.31"/><circle class="cls-3" cx="177.35" cy="705.38" r="3.31"/><circle class="cls-3" cx="158.65" cy="691.94" r="3.31"/><circle class="cls-3" cx="134.02" cy="715.89" r="3.31"/><circle class="cls-3" cx="188.75" cy="693.84" r="3.31"/><circle class="cls-3" cx="139.27" cy="671.59" r="3.31"/><circle class="cls-3" cx="180.32" cy="667.53" r="3.31"/><circle class="cls-3" cx="181.67" cy="725.35" r="3.31"/></g><circle class="cls-3" cx="60.82" cy="652.72" r="3.31"/><circle class="cls-3" cx="37.34" cy="655.43" r="3.31"/><circle class="cls-3" cx="18.63" cy="641.98" r="3.31"/><circle class="cls-3" cx="48.73" cy="643.88" r="3.31"/><circle class="cls-3" cx="-0.75" cy="621.63" r="3.31"/><circle class="cls-3" cx="40.3" cy="617.57" r="3.31"/><circle class="cls-3" cx="41.65" cy="675.39" r="3.31"/><circle class="cls-3" cx="60.82" cy="652.72" r="3.31"/><circle class="cls-3" cx="37.34" cy="655.43" r="3.31"/><circle class="cls-3" cx="18.63" cy="641.98" r="3.31"/><circle class="cls-3" cx="48.73" cy="643.88" r="3.31"/><circle class="cls-3" cx="-0.75" cy="621.63" r="3.31"/><circle class="cls-3" cx="40.3" cy="617.57" r="3.31"/><circle class="cls-3" cx="41.65" cy="675.39" r="3.31"/><g class="cls-2"><circle class="cls-3" cx="115.44" cy="634.37" r="1.91"/><circle class="cls-3" cx="109.53" cy="607.3" r="3.31"/><circle class="cls-3" cx="19.81" cy="638.59" r="3.31"/><circle class="cls-3" cx="42.35" cy="631.46" r="3.31"/><circle class="cls-3" cx="63.28" cy="641.09" r="3.31"/><circle class="cls-3" cx="82.89" cy="612.88" r="3.31"/><circle class="cls-3" cx="33.37" cy="644.97" r="3.31"/><circle class="cls-3" cx="86.18" cy="657.37" r="3.31"/><circle class="cls-3" cx="46.67" cy="669.19" r="3.31"/><circle class="cls-3" cx="34.3" cy="612.68" r="3.31"/></g><g class="cls-2"><circle class="cls-3" cx="115.44" cy="634.37" r="1.91"/><circle class="cls-3" cx="109.53" cy="607.3" r="3.31"/><circle class="cls-3" cx="19.81" cy="638.59" r="3.31"/><circle class="cls-3" cx="42.35" cy="631.46" r="3.31"/><circle class="cls-3" cx="63.28" cy="641.09" r="3.31"/><circle class="cls-3" cx="82.89" cy="612.88" r="3.31"/><circle class="cls-3" cx="33.37" cy="644.97" r="3.31"/><circle class="cls-3" cx="86.18" cy="657.37" r="3.31"/><circle class="cls-3" cx="46.67" cy="669.19" r="3.31"/><circle class="cls-3" cx="34.3" cy="612.68" r="3.31"/></g><g class="cls-2"><circle class="cls-3" cx="170.43" cy="665.96" r="1.91"/><circle class="cls-3" cx="164.52" cy="638.9" r="3.31"/><circle class="cls-3" cx="74.8" cy="670.18" r="3.31"/><circle class="cls-3" cx="97.33" cy="663.05" r="3.31"/><circle class="cls-3" cx="118.26" cy="672.68" r="3.31"/><circle class="cls-3" cx="137.87" cy="644.47" r="3.31"/><circle class="cls-3" cx="88.35" cy="676.56" r="3.31"/><circle class="cls-3" cx="141.17" cy="688.96" r="3.31"/><circle class="cls-3" cx="101.65" cy="700.78" r="3.31"/><circle class="cls-3" cx="89.29" cy="644.27" r="3.31"/></g><g class="cls-2"><circle class="cls-3" cx="85.68" cy="732.5" r="1.91"/><circle class="cls-3" cx="79.76" cy="705.44" r="3.31"/><circle class="cls-3" cx="12.58" cy="729.59" r="3.31"/><circle class="cls-3" cx="33.51" cy="739.22" r="3.31"/><circle class="cls-3" cx="53.12" cy="711.01" r="3.31"/><circle class="cls-3" cx="3.6" cy="743.1" r="3.31"/><circle class="cls-3" cx="56.42" cy="755.5" r="3.31"/><circle class="cls-3" cx="16.9" cy="767.32" r="3.31"/><circle class="cls-3" cx="4.54" cy="710.81" r="3.31"/></g><g class="cls-2"><circle class="cls-3" cx="85.68" cy="732.5" r="1.91"/><circle class="cls-3" cx="79.76" cy="705.44" r="3.31"/><circle class="cls-3" cx="12.58" cy="729.59" r="3.31"/><circle class="cls-3" cx="33.51" cy="739.22" r="3.31"/><circle class="cls-3" cx="53.12" cy="711.01" r="3.31"/><circle class="cls-3" cx="3.6" cy="743.1" r="3.31"/><circle class="cls-3" cx="56.42" cy="755.5" r="3.31"/><circle class="cls-3" cx="16.9" cy="767.32" r="3.31"/><circle class="cls-3" cx="4.54" cy="710.81" r="3.31"/></g><g class="cls-2"><circle class="cls-3" cx="392.81" cy="430.89" r="1.91"/><circle class="cls-3" cx="393.46" cy="458.58" r="3.31"/><circle class="cls-3" cx="487.49" cy="444.99" r="3.31"/><circle class="cls-3" cx="464.01" cy="447.69" r="3.31"/><circle class="cls-3" cx="445.31" cy="434.25" r="3.31"/><circle class="cls-3" cx="420.68" cy="458.2" r="3.31"/><circle class="cls-3" cx="475.41" cy="436.15" r="3.31"/><circle class="cls-3" cx="425.93" cy="413.9" r="3.31"/><circle class="cls-3" cx="466.97" cy="409.84" r="3.31"/><circle class="cls-3" cx="468.33" cy="467.66" r="3.31"/></g><g class="cls-2"><circle class="cls-3" cx="458.37" cy="543.33" r="1.91"/><circle class="cls-3" cx="459.01" cy="571.03" r="3.31"/><circle class="cls-3" cx="553.05" cy="557.43" r="3.31"/><circle class="cls-3" cx="529.57" cy="560.13" r="3.31"/><circle class="cls-3" cx="510.86" cy="546.69" r="3.31"/><circle class="cls-3" cx="486.23" cy="570.64" r="3.31"/><circle class="cls-3" cx="540.97" cy="548.59" r="3.31"/><circle class="cls-3" cx="491.48" cy="526.34" r="3.31"/><circle class="cls-3" cx="532.53" cy="522.28" r="3.31"/><circle class="cls-3" cx="533.88" cy="580.1" r="3.31"/></g><g class="cls-2"><circle class="cls-3" cx="270.41" cy="451.87" r="1.91"/><circle class="cls-3" cx="271.05" cy="479.57" r="3.31"/><circle class="cls-3" cx="365.09" cy="465.97" r="3.31"/><circle class="cls-3" cx="341.6" cy="468.67" r="3.31"/><circle class="cls-3" cx="322.9" cy="455.23" r="3.31"/><circle class="cls-3" cx="298.27" cy="479.18" r="3.31"/><circle class="cls-3" cx="353" cy="457.13" r="3.31"/><circle class="cls-3" cx="303.52" cy="434.88" r="3.31"/><circle class="cls-3" cx="344.57" cy="430.82" r="3.31"/><circle class="cls-3" cx="345.92" cy="488.64" r="3.31"/></g><g class="cls-2"><circle class="cls-3" cx="366.3" cy="402.73" r="1.91"/><circle class="cls-3" cx="366.94" cy="430.42" r="3.31"/><circle class="cls-3" cx="460.98" cy="416.82" r="3.31"/><circle class="cls-3" cx="437.49" cy="419.53" r="3.31"/><circle class="cls-3" cx="418.79" cy="406.08" r="3.31"/><circle class="cls-3" cx="394.16" cy="430.03" r="3.31"/><circle class="cls-3" cx="448.89" cy="407.98" r="3.31"/><circle class="cls-3" cx="399.41" cy="385.73" r="3.31"/><circle class="cls-3" cx="440.46" cy="381.67" r="3.31"/><circle class="cls-3" cx="441.81" cy="439.5" r="3.31"/></g><g class="cls-2"><circle class="cls-3" cx="174.52" cy="501.02" r="1.91"/><circle class="cls-3" cx="175.16" cy="528.71" r="3.31"/><circle class="cls-3" cx="269.2" cy="515.12" r="3.31"/><circle class="cls-3" cx="245.71" cy="517.82" r="3.31"/><circle class="cls-3" cx="227.01" cy="504.37" r="3.31"/><circle class="cls-3" cx="202.38" cy="528.33" r="3.31"/><circle class="cls-3" cx="257.11" cy="506.28" r="3.31"/><circle class="cls-3" cx="207.63" cy="484.02" r="3.31"/><circle class="cls-3" cx="248.68" cy="479.96" r="3.31"/><circle class="cls-3" cx="250.03" cy="537.79" r="3.31"/></g><g class="cls-2"><circle class="cls-3" cx="366.3" cy="402.73" r="1.91"/><circle class="cls-3" cx="366.94" cy="430.42" r="3.31"/><circle class="cls-3" cx="460.98" cy="416.82" r="3.31"/><circle class="cls-3" cx="437.49" cy="419.53" r="3.31"/><circle class="cls-3" cx="418.79" cy="406.08" r="3.31"/><circle class="cls-3" cx="394.16" cy="430.03" r="3.31"/><circle class="cls-3" cx="448.89" cy="407.98" r="3.31"/><circle class="cls-3" cx="399.41" cy="385.73" r="3.31"/><circle class="cls-3" cx="440.46" cy="381.67" r="3.31"/><circle class="cls-3" cx="441.81" cy="439.5" r="3.31"/></g><g class="cls-2"><circle class="cls-3" cx="174.52" cy="501.02" r="1.91"/><circle class="cls-3" cx="175.16" cy="528.71" r="3.31"/><circle class="cls-3" cx="269.2" cy="515.12" r="3.31"/><circle class="cls-3" cx="245.71" cy="517.82" r="3.31"/><circle class="cls-3" cx="227.01" cy="504.37" r="3.31"/><circle class="cls-3" cx="202.38" cy="528.33" r="3.31"/><circle class="cls-3" cx="257.11" cy="506.28" r="3.31"/><circle class="cls-3" cx="207.63" cy="484.02" r="3.31"/><circle class="cls-3" cx="248.68" cy="479.96" r="3.31"/><circle class="cls-3" cx="250.03" cy="537.79" r="3.31"/></g><g class="cls-2"><circle class="cls-3" cx="222.46" cy="410.37" r="1.91"/><circle class="cls-3" cx="223.1" cy="438.06" r="3.31"/><circle class="cls-3" cx="317.14" cy="424.47" r="3.31"/><circle class="cls-3" cx="293.66" cy="427.17" r="3.31"/><circle class="cls-3" cx="274.95" cy="413.72" r="3.31"/><circle class="cls-3" cx="250.32" cy="437.68" r="3.31"/><circle class="cls-3" cx="305.06" cy="415.63" r="3.31"/><circle class="cls-3" cx="255.58" cy="393.37" r="3.31"/><circle class="cls-3" cx="296.62" cy="389.31" r="3.31"/><circle class="cls-3" cx="297.97" cy="447.14" r="3.31"/></g><g class="cls-2"><circle class="cls-3" cx="346.1" cy="531.55" r="1.91"/><circle class="cls-3" cx="340.19" cy="504.49" r="3.31"/><circle class="cls-3" cx="250.47" cy="535.78" r="3.31"/><circle class="cls-3" cx="273.01" cy="528.64" r="3.31"/><circle class="cls-3" cx="293.93" cy="538.27" r="3.31"/><circle class="cls-3" cx="313.54" cy="510.06" r="3.31"/><circle class="cls-3" cx="264.02" cy="542.15" r="3.31"/><circle class="cls-3" cx="316.84" cy="554.55" r="3.31"/><circle class="cls-3" cx="277.32" cy="566.37" r="3.31"/><circle class="cls-3" cx="264.96" cy="509.86" r="3.31"/></g><g class="cls-2"><circle class="cls-3" cx="346.1" cy="531.55" r="1.91"/><circle class="cls-3" cx="340.19" cy="504.49" r="3.31"/><circle class="cls-3" cx="250.47" cy="535.78" r="3.31"/><circle class="cls-3" cx="273.01" cy="528.64" r="3.31"/><circle class="cls-3" cx="293.93" cy="538.27" r="3.31"/><circle class="cls-3" cx="313.54" cy="510.06" r="3.31"/><circle class="cls-3" cx="264.02" cy="542.15" r="3.31"/><circle class="cls-3" cx="316.84" cy="554.55" r="3.31"/><circle class="cls-3" cx="277.32" cy="566.37" r="3.31"/><circle class="cls-3" cx="264.96" cy="509.86" r="3.31"/></g><g class="cls-2"><circle class="cls-3" cx="485.83" cy="496.6" r="1.91"/><circle class="cls-3" cx="479.92" cy="469.54" r="3.31"/><circle class="cls-3" cx="390.2" cy="500.83" r="3.31"/><circle class="cls-3" cx="412.74" cy="493.69" r="3.31"/><circle class="cls-3" cx="433.67" cy="503.32" r="3.31"/><circle class="cls-3" cx="453.28" cy="475.11" r="3.31"/><circle class="cls-3" cx="403.76" cy="507.2" r="3.31"/><circle class="cls-3" cx="456.57" cy="519.6" r="3.31"/><circle class="cls-3" cx="417.06" cy="531.42" r="3.31"/><circle class="cls-3" cx="404.69" cy="474.91" r="3.31"/></g><g class="cls-2"><circle class="cls-3" cx="485.83" cy="496.6" r="1.91"/><circle class="cls-3" cx="479.92" cy="469.54" r="3.31"/><circle class="cls-3" cx="390.2" cy="500.83" r="3.31"/><circle class="cls-3" cx="412.74" cy="493.69" r="3.31"/><circle class="cls-3" cx="433.67" cy="503.32" r="3.31"/><circle class="cls-3" cx="453.28" cy="475.11" r="3.31"/><circle class="cls-3" cx="403.76" cy="507.2" r="3.31"/><circle class="cls-3" cx="456.57" cy="519.6" r="3.31"/><circle class="cls-3" cx="417.06" cy="531.42" r="3.31"/><circle class="cls-3" cx="404.69" cy="474.91" r="3.31"/></g><g class="cls-2"><circle class="cls-3" cx="47.36" cy="58.52" r="1.91"/><circle class="cls-3" cx="48" cy="86.21" r="3.31"/><circle class="cls-3" cx="142.04" cy="72.62" r="3.31"/><circle class="cls-3" cx="118.56" cy="75.32" r="3.31"/><circle class="cls-3" cx="99.85" cy="61.87" r="3.31"/><circle class="cls-3" cx="75.22" cy="85.82" r="3.31"/><circle class="cls-3" cx="129.96" cy="63.77" r="3.31"/><circle class="cls-3" cx="80.48" cy="41.52" r="3.31"/><circle class="cls-3" cx="121.52" cy="37.46" r="3.31"/><circle class="cls-3" cx="122.87" cy="95.29" r="3.31"/></g></g><g id="Layer_6" data-name="Layer 6"><rect class="cls-4" x="-6.14" y="-18.63" width="640.13" height="860.06"/></g><g id="Layer_1" data-name="Layer 1"><circle class="cls-3" cx="24.19" cy="76.5" r="3.31"/><circle class="cls-3" cx="0.7" cy="79.21" r="3.31"/><circle class="cls-3" cx="12.1" cy="67.66" r="3.31"/><circle class="cls-3" cx="3.67" cy="41.35" r="3.31"/><circle class="cls-3" cx="5.02" cy="99.17" r="3.31"/><circle class="cls-3" cx="196.8" cy="0.88" r="3.31"/><circle class="cls-3" cx="5.31" cy="-0.94" r="3.31"/><circle class="cls-3" cx="52.96" cy="8.52" r="3.31"/><circle class="cls-3" cx="39.34" cy="13.84" r="3.31"/><g class="cls-2"><circle class="cls-3" cx="195.33" cy="18.57" r="1.91"/><circle class="cls-3" cx="195.97" cy="46.26" r="3.31"/><circle class="cls-3" cx="290.01" cy="32.67" r="3.31"/><circle class="cls-3" cx="266.52" cy="35.37" r="3.31"/><circle class="cls-3" cx="247.82" cy="21.92" r="3.31"/><circle class="cls-3" cx="223.19" cy="45.88" r="3.31"/><circle class="cls-3" cx="277.92" cy="23.83" r="3.31"/><circle class="cls-3" cx="228.44" cy="1.57" r="3.31"/><circle class="cls-3" cx="269.49" cy="-2.49" r="3.31"/><circle class="cls-3" cx="270.84" cy="55.34" r="3.31"/></g><circle class="cls-3" cx="77.33" cy="-1.14" r="1.91"/><circle class="cls-3" cx="77.97" cy="26.55" r="3.31"/><circle class="cls-3" cx="172.01" cy="12.96" r="3.31"/><circle class="cls-3" cx="148.53" cy="15.66" r="3.31"/><circle class="cls-3" cx="129.82" cy="2.21" r="3.31"/><circle class="cls-3" cx="105.19" cy="26.16" r="3.31"/><circle class="cls-3" cx="159.93" cy="4.12" r="3.31"/><circle class="cls-3" cx="152.84" cy="35.63" r="3.31"/><circle class="cls-3" cx="112.34" cy="-0.76" r="3.31"/><circle class="cls-3" cx="72.82" cy="11.05" r="3.31"/><circle class="cls-3" cx="50.94" cy="15.71" r="3.31"/><circle class="cls-3" cx="4.68" cy="49.5" r="3.31"/><circle class="cls-3" cx="24.29" cy="21.29" r="3.31"/><circle class="cls-3" cx="27.59" cy="65.78" r="3.31"/><circle class="cls-3" cx="4.68" cy="49.5" r="3.31"/><circle class="cls-3" cx="24.29" cy="21.29" r="3.31"/><circle class="cls-3" cx="27.59" cy="65.78" r="3.31"/></g></svg>