<svg xmlns="http://www.w3.org/2000/svg" xmlns:xlink="http://www.w3.org/1999/xlink" viewBox="0 0 202.41 175.9"><defs><style>.cls-1{fill:#e6e7e8;}.cls-2{fill:url(#linear-gradient);}.cls-3{fill:#fffef7;opacity:0.48;}</style><linearGradient id="linear-gradient" x1="123.2" y1="98.35" x2="75.83" y2="71" gradientUnits="userSpaceOnUse"><stop offset="0" stop-color="#f59331"/><stop offset="0.38" stop-color="#f59331" stop-opacity="0.99"/><stop offset="0.51" stop-color="#f59331" stop-opacity="0.96"/><stop offset="0.61" stop-color="#f59331" stop-opacity="0.92"/><stop offset="0.69" stop-color="#f59331" stop-opacity="0.85"/><stop offset="0.75" stop-color="#f59331" stop-opacity="0.76"/><stop offset="0.81" stop-color="#f59331" stop-opacity="0.65"/><stop offset="0.87" stop-color="#f59331" stop-opacity="0.51"/><stop offset="0.91" stop-color="#f59331" stop-opacity="0.36"/><stop offset="0.96" stop-color="#f59331" stop-opacity="0.19"/><stop offset="1" stop-color="#f59331" stop-opacity="0.01"/><stop offset="1" stop-color="#f59331" stop-opacity="0"/></linearGradient></defs><g id="Layer_2" data-name="Layer 2"><polygon class="cls-1" points="100.14 118.62 114.87 118.62 119.38 48.93 100.14 48.93 80.91 48.93 85.42 118.62 100.14 118.62"/><path class="cls-2" d="M110.1,55.21l-2.46-.48-.29,0-.18,0-1-.11a10.7,10.7,0,0,0-2,0l-.27,0-.17,0c-.36.08-.71.18-1.06.29-.8.27-1.57.67-2.37.92a10.72,10.72,0,0,1-2.37.48,12.11,12.11,0,0,1-4.1-.4c-1.1-.28-2.18-.68-3.27-1-.54-.18-1.08-.36-1.63-.5l-.4-.09L88,54.23a6.17,6.17,0,0,0-.86,0H87a4.91,4.91,0,0,0-.74.24l-.12,0-.1.06a6.61,6.61,0,0,0-.86.64h0c-.1.11-.21.22-.31.34s-.37.45-.55.68l3.16,60.12h25.28L116,55.53A20,20,0,0,1,110.1,55.21Z"/><path class="cls-3" d="M100.43,80,103,76.72a3.19,3.19,0,0,0,.9-1.9,3.19,3.19,0,0,0-1.31-2.09L98.87,69.3A3.76,3.76,0,0,0,96.38,68a3.77,3.77,0,0,0-2.46,1.59l-2.83,3.18a2.88,2.88,0,0,0-1,1.89A2.91,2.91,0,0,0,91.3,76.5l4.17,3.78a3.74,3.74,0,0,0,2.79,1.34A3.77,3.77,0,0,0,100.43,80Z"/><path class="cls-3" d="M107.32,110.73l2.58-3.25a3.13,3.13,0,0,0,.9-1.91,3.18,3.18,0,0,0-1.3-2.09l-3.73-3.43a3.81,3.81,0,0,0-2.49-1.31,3.79,3.79,0,0,0-2.47,1.59L98,103.52a2.93,2.93,0,0,0-1,1.89,2.86,2.86,0,0,0,1.19,1.84l4.16,3.78a3.78,3.78,0,0,0,2.8,1.34A3.71,3.71,0,0,0,107.32,110.73Z"/><path class="cls-3" d="M111.75,83.18l.76-4.08a3.17,3.17,0,0,0-.09-2.11,3.21,3.21,0,0,0-2.13-1.24l-4.9-1.29A2.84,2.84,0,0,0,101.14,77l-1,4.14a2.17,2.17,0,0,0,1.94,3.2l5.44,1.4a2.8,2.8,0,0,0,4.25-2.58Z"/><path class="cls-3" d="M99.26,85.81l.77-4.08a3.2,3.2,0,0,0-.09-2.1,3.16,3.16,0,0,0-2.13-1.24l-4.9-1.3a3.86,3.86,0,0,0-2.82,0,3.82,3.82,0,0,0-1.43,2.56l-1,4.14a2.87,2.87,0,0,0,0,2.12A2.91,2.91,0,0,0,89.57,87L95,88.39c1,.26,2.23.5,3.09-.12A3.68,3.68,0,0,0,99.26,85.81Z"/><path class="cls-3" d="M99.26,105.78l.77-4.08a2.38,2.38,0,0,0-2.22-3.34l-4.9-1.29a3.77,3.77,0,0,0-2.82,0,3.8,3.8,0,0,0-1.43,2.56l-1,4.13a2.9,2.9,0,0,0,0,2.13A2.86,2.86,0,0,0,89.57,107l5.45,1.4c1,.27,2.23.51,3.09-.12A3.66,3.66,0,0,0,99.26,105.78Z"/><path class="cls-3" d="M101.92,86.4l-2-3.62A2.38,2.38,0,0,0,96,81.65l-4.59,2.16a3.78,3.78,0,0,0-2.15,1.81,3.78,3.78,0,0,0,.55,2.89l1.88,3.82a2.15,2.15,0,0,0,3.54,1.2l5.07-2.43c1-.46,2-1,2.29-2.08A3.68,3.68,0,0,0,101.92,86.4Z"/><path class="cls-3" d="M105.93,97.56l-2-3.61A2.38,2.38,0,0,0,100,92.82L95.45,95a3.83,3.83,0,0,0-2.16,1.81,3.85,3.85,0,0,0,.55,2.88l1.88,3.82a2.17,2.17,0,0,0,3.55,1.21l5.07-2.43c1-.46,2-1,2.29-2.08A3.81,3.81,0,0,0,105.93,97.56Z"/><path class="cls-3" d="M111.7,96.3l1.43-3.89a2.38,2.38,0,0,0-1.63-3.67l-4.61-2.1a2.85,2.85,0,0,0-4.62,1.81l-1.7,3.91a2.91,2.91,0,0,0-.33,2.1,2.88,2.88,0,0,0,1.7,1.38l5.14,2.29a3.71,3.71,0,0,0,3.07.4A3.78,3.78,0,0,0,111.7,96.3Z"/></g></svg>