<svg xmlns="http://www.w3.org/2000/svg" viewBox="0 0 202.41 175.9"><defs><style>.cls-1{fill:#b6cbd8;}.cls-2{fill:#e8ebf0;}.cls-3{fill:#67532e;}.cls-10,.cls-11,.cls-12,.cls-13,.cls-14,.cls-15,.cls-16,.cls-17,.cls-18,.cls-19,.cls-20,.cls-21,.cls-22,.cls-23,.cls-24,.cls-25,.cls-26,.cls-27,.cls-28,.cls-3,.cls-4,.cls-5,.cls-6,.cls-7,.cls-8,.cls-9{fill-rule:evenodd;}.cls-4{fill:#ffd632;}.cls-5{fill:#e7a435;}.cls-6{fill:#fad3df;}.cls-7{fill:#c26980;}.cls-8{fill:#e193a6;}.cls-9{fill:#f38968;}.cls-10{fill:#c93a2e;}.cls-11{fill:#ea5f35;}.cls-12{fill:#96ca74;}.cls-13{fill:#518340;}.cls-14{fill:#69ab4a;}.cls-15{fill:#ffeda4;}.cls-16{fill:#824a3c;}.cls-17{fill:#9a7759;}.cls-18{fill:#b4c750;}.cls-19{fill:#f6f5c9;}.cls-20{fill:#eb2a2e;}.cls-21{fill:#fff;}.cls-22{fill:#12994c;}.cls-23{fill:#ee522f;}.cls-24{fill:#b4222a;}.cls-25{fill:#fef0f0;}.cls-26{fill:#481413;}.cls-27{fill:#9cba46;}.cls-28{fill:#454f25;}</style></defs><g id="Layer_2" data-name="Layer 2"><path class="cls-1" d="M149.58,98.25a5.78,5.78,0,0,0,.07-1.55,11,11,0,0,0-.25-1.52c-3.82-6.73-24.36-11.87-49.13-11.87C75.15,83.31,54.38,88.6,51,95.46a3.66,3.66,0,0,0-.22,2.65c-.84,3,2.14,6.07,4.07,7.62,7.78,5.2,25.19,8.83,45.42,8.83,23.1,0,42.51-4.72,48.13-11.13h0c.15-.23.3-.47.43-.71a7.21,7.21,0,0,0,.82-3.9A5.73,5.73,0,0,0,149.58,98.25Z"/><path class="cls-2" d="M100.05,84.92c26.6,0,48.17,5.61,48.17,12.52S126.65,110,100.05,110s-48.17-5.61-48.17-12.52S73.45,84.92,100.05,84.92Z"/><path class="cls-2" d="M100.05,112.86c-25.66,0-46.62-5.51-48.08-12.47a15.27,15.27,0,0,0,2.88,2.83c7.78,4.92,25.19,8.35,45.42,8.35,22,0,40.66-4.06,47.24-9.67C143.57,108.13,123.83,112.86,100.05,112.86Z"/><path class="cls-1" d="M130.57,95.09a7.38,7.38,0,0,0-.16-.94c-2.36-4.16-15.07-7.34-30.4-7.34-15.54,0-28.39,3.27-30.48,7.52-.91,1.84,1.11,3.83,2.38,4.79,4.82,3,15.59,5.17,28.1,5.17,14.29,0,26.31-2.76,29.78-6.51h0a3.62,3.62,0,0,0,.27-.41A4,4,0,0,0,130.57,95.09Z"/><path class="cls-2" d="M99.88,103.3C83.42,103.3,70.07,100,70.07,96s13.35-7.28,29.81-7.28S129.68,92,129.68,96,116.34,103.3,99.88,103.3Z"/><path class="cls-3" d="M74.23,87.35c-1.67,2.05-3.14,4.3-2.51,6.21-1.09,4.79,3,10.37,6.3,13,2.7,2.57,14.7,5.12,19,5.29,5.11.78,16.84-.33,22.63-3.16,6.46-3.45,5.39-6.41,7.83-8.84,3.21-1.79-.53-4.67,2-7.83,1.42-1.49-1.9-4.67-2.56-5-2.28-.59-9.23.18-15.93.87a88.9,88.9,0,0,0-15.36.34c-3.8,0-9.19-1.77-13.16-.92-2.73-.27-6.74-.71-8.26.08Z"/><path class="cls-4" d="M73.31,86.73c-1.68,2-3.15,4.3-2.52,6.21-1.09,4.79,3,10.38,6.3,13,2.7,2.57,14.7,5.12,19,5.29,5.11.78,16.84-.33,22.63-3.16,6.46-3.45,5.39-6.41,7.84-8.84,3.2-1.79-.54-4.67,2-7.83,1.42-1.48-1.9-4.66-2.56-5-2.28-.59-9.23.18-15.92.87a90,90,0,0,0-15.37.34c-3.8,0-9.19-1.77-13.16-.92-2.73-.27-6.74-.71-8.25.08Z"/><path class="cls-5" d="M73.8,86.54c-.71.93-1.92,2.15-2,3.19,0,.27.32.57.3.82s-.86.75-.87,1c0,.47.69.14.67.54s-.55.28-.56.68c0,1-.4,1.19-.3,2.1,0,.18.7.65.72.89,0,.52-.16.92,0,1.21s.47-.16.57-.1,0,.56.1.86c.12.54-.32.69-.16,1.17a8.87,8.87,0,0,0,1.82,2.78c.07.09-.15-.6,0-.7a1.15,1.15,0,0,1,.59.06c.19.14.07.42.1.45s.58.73.55,1-.63.39-.55.53c.23.41.89,0,1.15.48.13.26.49-.37.74-.17a11.29,11.29,0,0,1,1,1.35c.45.65,1.58.74,2.18,1s2.27-2.08,2.6-1.87-1.86,2.3-1.38,2.52c1.56.72.85,1,2.71,1,.42.08,3.07.49,3.5.5.6,0,2.14-1.22,2.74-1.31.2,0-1.22,1.92-1,1.84,2.18-1.11,1.38.4,1.7.31.93-.27.35-.81,1.24-1.31s-.23,1,.74.53c.7-.33-.09,1.72,1,.92.52-.41.8,1.13,1.59.68s1.36-2.38,2.15-2.9c.51-.35-.33,1.21.4,1.09s.74-.64,1.88-.15-3.32,2.43-1.82,2.95c.23.07,3.16.9,4.46-.39,1.1-1.1-1.46-1.41-.45-1.63-.08-.45,1.3,1.73,1.71,1.38.7-.6.83,1,1.52.45s.29.43,1.29,0c1.69-.64.59-1.06,2.2-.76.38.07.7-.38.92-.57,1-.86,1.71.59,2.69-.57.44-.53-1.79.18-1.36-.37.64-.84-.62-2.64.28-3.61.59-.63,2.61,4.78,3.45,4.18s2.27-.37,3-1.12c.46-.44.16-.81.64-1.51s1.23.43,1.72-.18c.28-.35.83-.39,1.25-.75a9.18,9.18,0,0,0,1.31-1.62c.31-.27-.34-1.2,0-1.49.7-.68.86-1,1.59-1.7s.07,1.45.93.32c.48-.63.58-1.47,1.21-2.49.35-.57-.45-.16-.13-.8s-1.12-.35-.83-.92-.46-.37-.2-1.08c.17-.46,1.64.19,1.89-.35s-.7-1.18-.53-1.91c.07-.26.48.12.59-.19.18-.49,2.76-2.08,1.13-3.61-.57-.54-1.22,0-1.14-.12.15-.91.23-1.37.3-1.65A6.38,6.38,0,0,0,126,86.36c-2.28-.59-9.23.18-15.92.87a90,90,0,0,0-15.37.34c-3.8,0-9.19-1.77-13.16-.92-2.47-.25-6-.63-7.76-.11Z"/><path class="cls-3" d="M73.55,86.63c-.58,2.5-1.16,5.37-.93,7,.07.5,1.83-.74,1.84-.26,0,1-.1,2.47,0,3.2s1.35-.73,1.44-.1c.14,1.13-1.11,1-.68,1.64.31.48,2.56-3,2.93-2.6.19.28-1.93,2.45-2.06,3.22-.32,1.9.89.5,1.33,1.61.28.69,1.72-1,1.95-.54.74,1.28.37,2,1.82,2.61.4.16,1.11-2.43,1.87-2.46.58,0-.79,1.6,0,1.79.35.08-.15,1.62.54,1.44s1.18,1.08,2.77.54C89.69,102.6,88.84,100,89,100c1.31.22.23,3.33,2.54,3.64.27,0-.15-1.06.48-1.29s-.12,2.24.82,2.13c1.25-.15,2.66-2.94,3.1-3.05,1-.24,1.22.81,2.32.07.8-.53-1.28,2.92-.23,2.41a8.26,8.26,0,0,0,3.55-2.36c.43-.52,1.53,3.06,2.22,2.58,1-.67,1.53-1.1,1.7-1.19.86-.48-2.33-1-1.51-1.52a15,15,0,0,0,1.34-1c.7-.5,1.24,1.61,2.13,1.13s-.16-1.16.77-2.08-.1,2.75,1.21,2.1c3.48-1.71,3.68,1.94,4,1.52.87-1.06-1.31-2.23-.54-3.09.6-.67,1.25.24,1.93-.23.24-.17,0,2,1.36,2.37.77.22,1.74,2.14,2.31.5.11-.31-.09-2.44.29-2.56,5.13-.56,1.4-2.49,2.62-3.21a24.08,24.08,0,0,0,4-2.93c.32-.41,0-3.86-.53-7.73-3-.23-9,.43-14.8,1a90,90,0,0,0-15.37.34c-3.8,0-9.19-1.77-13.16-.92-2.6-.26-6.34-.67-8,0Z"/><polygon class="cls-6" points="100.66 105.12 103.26 106.48 105.37 103.47 104.86 101.07 103.57 100.46 100.8 102.63 100.66 105.12"/><polygon class="cls-7" points="105.37 103.47 103.52 102.61 103.74 101.76 103.57 100.46 104.86 101.07 105.37 103.47"/><polygon class="cls-8" points="105.37 103.47 103.52 102.61 102.28 104.02 100.66 105.12 103.26 106.48 105.37 103.47"/><polygon class="cls-6" points="115.98 101.65 118.02 103.44 121.13 100.11 119.82 97.92 117.82 97.31 116.09 98.52 115.98 101.65"/><polygon class="cls-7" points="121.13 100.11 118.03 98.23 117.82 97.31 119.82 97.92 121.13 100.11"/><polygon class="cls-8" points="121.13 100.11 118.03 98.23 117.81 100.36 115.98 101.65 118.02 103.44 121.13 100.11"/><polygon class="cls-9" points="97.53 101.92 98.17 103.4 101.8 102.8 102.82 100.01 101.67 98.17 99.52 99.27 97.53 101.92"/><polygon class="cls-10" points="101.8 102.8 101.05 100.12 101.67 98.17 102.82 100.01 101.8 102.8"/><polygon class="cls-11" points="101.8 102.8 101.05 100.12 99.35 101.18 97.53 101.92 98.17 103.4 101.8 102.8"/><polygon class="cls-6" points="78.16 100.31 79.39 102.98 82.9 101.86 83.86 97.26 82.18 95.56 80.24 96.26 78.16 100.31"/><polygon class="cls-7" points="82.9 101.86 81.78 99.32 81.73 96.52 82.18 95.56 83.86 97.26 82.9 101.86"/><polygon class="cls-8" points="82.9 101.86 81.78 99.32 79.16 99.93 78.16 100.31 79.39 102.98 82.9 101.86"/><polygon class="cls-9" points="85.89 101.71 87.47 104.18 90.8 102.61 91.14 97.92 89.25 96.47 87.42 97.41 85.89 101.71"/><polygon class="cls-10" points="90.8 102.61 89.34 100.24 88.92 97.48 89.25 96.47 91.14 97.92 90.8 102.61"/><polygon class="cls-11" points="90.8 102.61 89.34 100.24 86.83 101.19 85.89 101.71 87.47 104.18 90.8 102.61"/><polygon class="cls-6" points="90.18 102.61 91.71 103.99 94.76 100.61 93.9 98.79 92.27 98.48 90.64 99.77 90.18 102.61"/><polygon class="cls-7" points="94.76 100.61 92.33 99.28 92.27 98.48 93.9 98.79 94.76 100.61"/><polygon class="cls-8" points="94.76 100.61 92.33 99.28 91.9 101.23 90.18 102.61 91.71 103.99 94.76 100.61"/><polygon class="cls-12" points="104.78 103.61 107.38 104.97 109.49 101.96 107.47 97.72 105.1 97.39 103.98 99.13 104.78 103.61"/><polygon class="cls-13" points="109.49 101.96 107.06 100.62 105.31 98.43 105.1 97.39 107.47 97.72 109.49 101.96"/><polygon class="cls-14" points="109.49 101.96 107.06 100.62 105.34 102.7 104.78 103.61 107.38 104.97 109.49 101.96"/><polygon class="cls-13" points="87.59 100.36 86.35 102.2 83.86 100.95 83.68 97.39 85.14 96.33 86.52 97.08 87.59 100.36"/><polygon class="cls-12" points="83.86 100.95 85 99.19 85.37 97.1 85.14 96.33 83.68 97.39 83.86 100.95"/><polygon class="cls-14" points="83.86 100.95 85 99.19 86.89 99.95 87.59 100.36 86.35 102.2 83.86 100.95"/><path class="cls-15" d="M111.08,107.61c-1.3-2.36-11.49-2.46-9.62-1.53.1,0,4.37,0,6.6.81a19.21,19.21,0,0,0,2.68,1.18.3.3,0,0,0,.34-.46Z"/><path class="cls-15" d="M112.51,106.37c-.12-1.36,2.43-2.48.73-4.35-1.06-1.18-2.55-.93-2.61.45,0,.73-.67,1.07-.88.91-.68-.5.24-.52.37-1.52.18-1.43,2.4-1.44,3.39-.47s1.29,2.74-.1,4.26c-.79.86.83,2.16-.19,2.1-.52,0-.69-1.11-.71-1.38Z"/><polygon class="cls-16" points="90.57 96.35 90.89 98.38 90.22 98.88 91.34 99.39 90.86 99.66 93.37 100.86 93.4 101.18 99.88 100.43 99.16 100.24 100.6 99.42 98.34 96.53 95.13 97.01 91.42 95.87 91.56 96.21 90.57 96.35"/><polygon class="cls-17" points="90.93 96.41 93.47 97.88 91.92 97.41 95.52 99.2 93.8 99.29 95.27 99.63 93.4 101.18 99.88 100.43 99.16 100.24 98.07 99.86 100.6 99.42 99.07 99.27 100.39 99.15 98.84 97.18 96.56 97.21 98.62 96.9 98.5 96.75 97.28 96.92 98.42 96.65 98.34 96.53 94.77 97.38 91.85 96.45 93.52 97.27 90.93 96.41"/><path class="cls-15" d="M76.12,102.3c1.3,2.35,11.49,2.46,9.62,1.52-.1,0-4.37,0-6.6-.81a20.48,20.48,0,0,0-2.68-1.18.3.3,0,0,0-.34.47Z"/><path class="cls-18" d="M111.28,103.33a6.55,6.55,0,0,1,3.51-3.19c.7-.21,1.8,1,1.46,1.63a6.37,6.37,0,0,1-3.76,2.66c-.52.17-1.46-.62-1.21-1.1Z"/><path class="cls-19" d="M114.79,100.14c.7-.21,1.8,1,1.46,1.63a.51.51,0,0,1-.3.14,7.1,7.1,0,0,1-2.91,1.91,11.14,11.14,0,0,0,2.75-1.94.65.65,0,0,1-.22-.11l-1.42.89,1.2-1c-.4-.43-.85-1.22-.56-1.48Z"/><path class="cls-18" d="M90.61,99.06A6.54,6.54,0,0,1,86,97.8c-.55-.47-.12-2,.6-2.1a6.29,6.29,0,0,1,4.26,1.76c.42.35.26,1.57-.29,1.6Z"/><path class="cls-19" d="M86,97.8c-.55-.47-.12-2,.6-2.1a.44.44,0,0,1,.27.17,7.09,7.09,0,0,1,3.18,1.45A10.65,10.65,0,0,0,87,96a.88.88,0,0,1,0,.24l1.51.73L87,96.54c-.15.56-.58,1.37-1,1.26Z"/><path class="cls-20" d="M72.48,99c-.5.13-1.36,1,.49,1a17.45,17.45,0,0,1,2.85,1.7,5.65,5.65,0,0,1-2.77,1.39c-1.37,0-1.32.76.71.76,1.66,0,.29,1,1.55,1,.65,0,.28-.57,2.1-.36.86.1,3.16-.89,3.16.55,0,1.27.2.75,2,1.41a10,10,0,0,0,3.88-.24c.68-.39,1.73.33,3.34-.24.48-.16,2.86-.54,2.86.11,0,1.83-1.65,1,.69,1.41.75.12-.65.64,1.31.8.43,0,.6.72,1.08,1.36.14.18.3,2.08,2.07,1.53.3-.09,1.86-1.7.83-2.18-.61-.29-1.32-2.16,1.79-1.42,1.76.42.47,1.34,3.83,1.25a4.85,4.85,0,0,0,2.49.58c.56,0,4.36,2.3,4.16,1.78-.65-1.66-1.15-1.63-1.45-2.3-.74-1.62,3.11-.64,3.87-.86,1-.29,1.49,2.51,1.86,3.12.74,1.24,1.14-.39.76-1.45-.72-2,1.81-3.13,1.92-2.84.22.55,1.43,2.68,1.43.83,0-2.92.28-2.39,2.55-1.28,1.61.79,1.65,3.53,2.59,1.56s-2.47-3.18-.77-4.52,1.1-2.79-.88-2c-1.19.49-1-.17-2.68-.17-1.29,0-.77-.33-2.26-.87-2.4-.86,1.22-2.24-3.8-1.91-2.45.17-1-.93-3.71-.45-.68.11-3.55.16-4.08-.22-1-.68.75-1.63-1.75-1.24-.71.1-2.06,1.52-1.73,1.74.94.6,3.55,1.16,1.18,2.14-1.08.46.37.1-1.27.94-1.47.75.26.57-2,1.89-1.41.81-1.06,1.29-3.56,1-2.66-.32,2.47-1.16-4-1.91a32,32,0,0,1-5.68-.81c-2.44-.76,2.84-1.42,2.81-2,0-.17-3.41-1.16.15-1.71a15.13,15.13,0,0,1,3.6-.53c1.58,0,5,.51.92-.58-.65-.17-4-.71-4-.83s4.05-.78,1-.78c-1.1,0-5.1-.67-3.31,0,.65.23-.06,1-1.29,1.1-.66,0-2.56.63-3.48.63a9.54,9.54,0,0,0-2.43.17c-3,.47-.89-.83-3-.39-1,.2,2.56,2.42-1.12,2.1-.92-.08-2.65,1.36-2.85-.26-.15-1.23-1.56.5-1.84.58Z"/><path class="cls-18" d="M76.57,92.82A6.47,6.47,0,0,0,72,94.09c-.56.47-.13,2,.6,2.09a6.29,6.29,0,0,0,4.25-1.75c.41-.35.25-1.57-.28-1.61Z"/><path class="cls-19" d="M72,94.09c-.56.47-.13,2,.6,2.09a.38.38,0,0,0,.26-.17A7,7,0,0,0,76,94.57a11.18,11.18,0,0,1-3.11,1.29.9.9,0,0,0,0-.24l1.51-.73-1.52.46c-.14-.56-.58-1.37-.94-1.26Z"/><path class="cls-18" d="M111.32,105.86a5.12,5.12,0,0,0-3.57,1c-.43.36-.1,1.6.47,1.64a5,5,0,0,0,3.33-1.37c.32-.28.2-1.23-.23-1.26Z"/><path class="cls-19" d="M107.75,106.85c-.43.36-.1,1.6.47,1.64a.3.3,0,0,0,.21-.14,5.56,5.56,0,0,0,2.49-1.12,9.18,9.18,0,0,1-2.44,1,.43.43,0,0,0,0-.2l1.18-.56-1.18.35c-.12-.43-.46-1.07-.75-1Z"/><path class="cls-18" d="M95.24,104.55a5.11,5.11,0,0,0-3.71,0c-.51.24-.52,1.52,0,1.71a4.91,4.91,0,0,0,3.57-.42c.39-.18.53-1.12.13-1.27Z"/><path class="cls-19" d="M91.53,104.53c-.51.24-.52,1.52,0,1.71a.36.36,0,0,0,.24-.07,5.58,5.58,0,0,0,2.7-.42,8.56,8.56,0,0,1-2.62.31.38.38,0,0,0,.07-.17l1.29-.23-1.24,0c0-.45-.14-1.15-.45-1.15Z"/><polygon class="cls-16" points="80.36 101.8 80.68 103.82 80 104.33 81.13 104.84 80.65 105.11 83.16 106.3 83.18 106.62 89.67 105.88 88.95 105.69 90.39 104.86 88.12 101.98 84.91 102.46 81.21 101.32 81.34 101.66 80.36 101.8"/><polygon class="cls-17" points="80.71 101.86 83.25 103.33 81.7 102.86 85.31 104.65 83.58 104.74 85.05 105.08 83.18 106.62 89.67 105.88 88.95 105.69 87.86 105.3 90.39 104.86 88.85 104.72 90.17 104.6 88.63 102.63 86.35 102.66 88.41 102.35 88.29 102.19 87.06 102.37 88.2 102.09 88.12 101.98 84.56 102.83 81.64 101.89 83.3 102.71 80.71 101.86"/><polygon class="cls-16" points="108.55 102.18 108.53 100.12 107.79 99.73 108.81 99.04 108.29 98.86 110.56 97.26 110.53 96.94 117.05 96.6 116.38 96.9 117.94 97.48 116.18 100.7 112.94 100.75 109.47 102.5 109.55 102.14 108.55 102.18"/><polygon class="cls-17" points="108.89 102.05 111.15 100.18 109.7 100.9 112.95 98.53 111.24 98.73 112.63 98.15 110.53 96.94 117.05 96.6 116.38 96.9 115.36 97.47 117.94 97.48 116.44 97.88 117.77 97.78 116.57 99.98 114.31 100.32 116.4 100.29 116.31 100.46 115.07 100.49 116.25 100.57 116.18 100.7 112.52 100.46 109.79 101.86 111.3 100.78 108.89 102.05"/><polygon class="cls-9" points="113.24 105.98 113.88 107.46 117.51 106.86 118.53 104.07 117.39 102.22 115.22 103.32 113.24 105.98"/><polygon class="cls-10" points="117.51 106.86 116.76 104.18 117.39 102.22 118.53 104.07 117.51 106.86"/><polygon class="cls-11" points="117.51 106.86 116.76 104.18 115.06 105.24 113.24 105.98 113.88 107.46 117.51 106.86"/><polygon class="cls-9" points="75.54 96.91 74.12 97.67 75.03 101.23 77.9 102.01 79.64 100.72 78.36 98.65 75.54 96.91"/><polygon class="cls-10" points="75.03 101.23 77.64 100.26 79.64 100.72 77.9 102.01 75.03 101.23"/><polygon class="cls-11" points="75.03 101.23 77.64 100.26 76.43 98.66 75.54 96.91 74.12 97.67 75.03 101.23"/><path class="cls-15" d="M101.79,104.06c-2.4,0,.18,2.76-4.47,0-1.85-1.08-3.74-.16-2.66,2.43,0,0,.26,2.42.85,1.29.46-.9-1.44-4.19,1-3.08,1.56.7,3.6,2.7,4.67.39.18-.39,1.1-.38.57-1.08Z"/><path class="cls-15" d="M89.74,103.19c-1.31-2.35-11.49-2.46-9.62-1.52.09,0,4.36,0,6.59.81a19.21,19.21,0,0,0,2.68,1.18.31.31,0,0,0,.35-.47Z"/><path class="cls-15" d="M91.16,102c-.11-1.37,2.43-2.48.74-4.36-1.06-1.17-2.56-.92-2.62.46,0,.73-.67,1.06-.88.91-.67-.5.24-.52.37-1.52C89,96,91.17,96,92.16,97c1.14,1.11,1.29,2.74-.1,4.27-.78.86.83,2.16-.18,2.1-.52,0-.7-1.12-.72-1.38Z"/><path class="cls-15" d="M111.25,96.94c-2.39,0,.18,2.76-4.47.06-1.85-1.09-3.74-.17-2.66,2.43,0,0,.25,2.42.85,1.28.47-.89-1.44-4.18,1-3.08,1.57.7,3.61,2.71,4.68.39.18-.38,1.1-.37.57-1.08Z"/><path class="cls-15" d="M74.65,97.51c1.31.4,1.38,3.19,3.76,2.32,1.48-.55,1.82-2,.56-2.6-.67-.3-.74-1-.51-1.16.71-.44.39.42,1.27.92,1.26.7.43,2.75-.83,3.32-1.46.64-3,.17-3.92-1.69-.51-1.06-2.31,0-1.88-1,.22-.48,1.3-.22,1.55-.15Z"/><path class="cls-15" d="M121.52,103.27c.93-2.2-2.61-.91,1.7-4.13,1.72-1.29,1.61-3.38-1.2-3.4,0,0-2.33-.71-1.52.28.64.78,4.42.3,2.43,2.16-1.25,1.16-3.89,2.26-2.18,4.15.28.31-.08,1.16.77.94Z"/><path class="cls-15" d="M98.09,105.68c2,1.31,1.36-2.41,3.76,2.41,1,1.92,3,2.18,3.56-.58,0-.05,1.12-2.17,0-1.55-.88.49-1.09,4.29-2.56,2-.93-1.43-1.53-4.23-3.7-2.88-.36.22-1.12-.28-1.06.59Z"/><path class="cls-15" d="M94.05,106.76c-1.31-2.35-11.49-2.46-9.63-1.52.1.05,4.38,0,6.6.82a20,20,0,0,0,2.69,1.18.31.31,0,0,0,.34-.48Z"/><path class="cls-15" d="M93.12,102.65c1.31.37,1.46,3.14,3.82,2.21,1.47-.59,1.76-2.08.48-2.61-.67-.28-.76-1-.54-1.14.7-.46.4.41,1.3.87,1.27.68.51,2.75-.74,3.35-1.44.68-3,.25-4-1.58-.53-1-2.31,0-1.9-.91.21-.48,1.29-.26,1.55-.19Z"/><path class="cls-15" d="M78.69,100.6c1.32-.36,1.47-3.15,3.83-2.21C84,99,84.28,100.47,83,101c-.67.28-.76,1-.54,1.14.7.46.4-.4,1.3-.87,1.27-.67.51-2.75-.75-3.34-1.43-.69-3-.27-4,1.57-.54,1-2.31,0-1.9.91.21.48,1.29.26,1.54.19Z"/><path class="cls-15" d="M102.33,99c-2.4,0,.17,2.76-4.47,0-1.86-1.09-3.74-.17-2.66,2.43,0,0,.25,2.42.84,1.28.47-.88-1.43-4.18,1-3.08,1.57.7,3.61,2.71,4.68.39.18-.38,1.09-.38.57-1.07Z"/><path class="cls-4" d="M74.87,84.08c-1.67,2-2.2,3.79-1.56,5.7-1.09,4.79.31,5.73,3.64,8.3,2.7,2.58,8.52-.81,12.83-.64,5.11.77,10.34,4.24,16.13,1.41,6.46-3.45,6.82.43,10.48.47,1.87.34,4.62-.46,6.3-1.15s.5-1.63,2.48-4.85c.81-1.32,3.21-1.32,3.34-4.2.91-5.75-.89-4.81-3.34-4.81-2.28-.59-9.73-2.35-16.42-1.65A88.92,88.92,0,0,0,93.38,83a57,57,0,0,0-11.55.81c-2.73-.27-5.44-.52-7,.28Z"/><path class="cls-5" d="M105.42,95.56l-.6-.17a2.89,2.89,0,0,0-.45.29,6.77,6.77,0,0,0,1-.12Zm-24,1.69c.39.79,3.72.23,3.58.31-1.08.61-4.48.41-5.79.65,0-.39-.11-.89.14-.95,1.18-.09,1,.36,2.07,0Zm-3-.12c-.2-.24-.4-.48-.59-.74-.19.19-.31.36-.2.48a1.69,1.69,0,0,0,.79.26Zm30.35-.52-.59-.18a2.18,2.18,0,0,0-.45.29,8.39,8.39,0,0,0,1-.11Zm-2.71.58c.17.16.27.3.13.38a11.41,11.41,0,0,1-3.57,1.27c0-.39-.12-.89.12-1a12.78,12.78,0,0,0,3.32-.7Zm15-1.71c-.2-.48-.35-1.38-.65-1.18s.08.82.31,1.56c.12-.12.23-.25.34-.38ZM90.38,83.87c-.21,0-.53,0-.85-.05a3.48,3.48,0,0,1-.24-.78l-1.33,0c.37.58.5,1.21,1.05,1.37.06,0,.14,0,.24,0,.7.73-.42.77-.21,1,.56.52,1.9.4,2.91.56-.4.37-.88.91-1.28,1.27.32.55.47,1.13,1,1.29.24.08.81-.5,1.36-1.06l-.25-.07A.87.87,0,0,1,94,87.14c.37.14.35.32.42.53a8.55,8.55,0,0,1-.86-.14c-.15.19-.22.34-.07.39a11.41,11.41,0,0,0,3.72.75c0-.39,0-.9-.27-.93a13.66,13.66,0,0,1-1.81,0l-.44-.25c-.45-.22.68-.06,1.79.1a4.43,4.43,0,0,1,.71-.37l-.21-.12c-.28-.13,0-.13.59-.06a2.57,2.57,0,0,0-.43-.88c-.12-.14-.1-.25,0-.33a1,1,0,0,1-.15-.11l.2-.17H96.8s0,0,0,0l-.08,0H96.2a1,1,0,0,0,0,.28c-.52.34-1,.65-1.33.46-.82-.46-.29-.8-.92-1.06-.9-.37-1.08.18-1.34.37a.13.13,0,0,0-.08-.1s-.15,0-.28.11l-.07,0c-.93-.61,1.49-.76.53-1.31a.05.05,0,0,1,0,0c.35-.37.83-.8.57-1s-.55.32-1,.79a15.43,15.43,0,0,0-1.89-.2Zm2,2.15.31.14c.73.43-.52.61-.72,1L91.78,87c-.31-.11.28-.59.63-1ZM80.74,84.59c-.23.61-.58,1.08-.37,1.59.09.24.89.32,1.68.4a11.5,11.5,0,0,1-.49-1.22c-.15-.5,1.79.17,1.7-.34-.05-.26-1.57-.27-2.52-.43ZM82.27,87c-.24,0-.4,0-.35.19a11.63,11.63,0,0,0,1.77,3.35c.28-.27.69-.57.55-.79a12.48,12.48,0,0,1-2-2.75Zm3.82,1.55c-.21-.24-.41-.48-.6-.73-.18.18-.31.35-.2.48a1.87,1.87,0,0,0,.8.25Zm-2-4.28c.52,0,1.4.21,1.34-.14,0-.19-.79-.24-1.56-.31.07.15.14.3.22.45Zm2,8.27a14.14,14.14,0,0,1-1.4-1.32c0,.39-.1.78-.25.53A14.79,14.79,0,0,1,82,89.32c-.18-.25-.34-.5-.5-.75a1.84,1.84,0,0,0,.13,1c.2.64-3.09-3.27-2.69-2.39a17.18,17.18,0,0,0,1.85,3.58,14.4,14.4,0,0,0,2.46,2.47c.3.5.2-1.56.49-1.09.51.82,1,.16,1.49,1a1.17,1.17,0,0,1,.11.23c.5-.12,1-.19.9-.42a.72.72,0,0,1-.13-.35Zm2.57.45-.27,0c-.25,0-1.22-.33-1.49-.2s.14.76-.15.76-.37.21-.47.42a2.25,2.25,0,0,0,.52.08c.76-.11,1.44.15,1.89-.29.1-.11.07-.41,0-.79Zm24.86-10.51-1.64,0c-.51.86-2.4,3.29-1.78,2.83a16.62,16.62,0,0,0,3.15-2.5q.13-.13.27-.3Zm-2.22,0H111l0,0a1.33,1.33,0,0,0,.36,0Zm-2,.11a5.44,5.44,0,0,0-.58,0c-.34,0-.69,0-1-.06,0,.47,0,.86-.23,1-.79.51-.85-.11-1.37.33-1,.88.19,1.34-.51,1.73-1,.55,0-1.67-.92-1.07a7,7,0,0,0-1.43,1.94,19.52,19.52,0,0,0-1,1.7c2.18-1.28,1.37.3,1.7.18.93-.35,1.51-2.35,2.4-2.92s-.05,1.62.92,1.07c.7-.39-.53-.84.51-1.73.52-.44.58.19,1.37-.33.2-.13.25-.42.24-.76-.51.36-.89.58-1,.65-.39.3.27-.63.92-1.55a2.44,2.44,0,0,1,0-.26Zm-22.71.54h0l.17.21-.14-.22Zm1.91,1.9c-.18.17-.48.24-.42.34s.33.17.56.16c0-.16-.1-.34-.14-.5Zm9.58,3.62.47,0c.43,0,.08,1.4.52,1.38s2-1.68,3.09-2.77c0-.34-.15-.76-1.6.09-.17.11,1.25-2,1.06-1.92-.48.12-2.42,2.28-3.54,3.24Zm4.17-5.23c.08-.15.11-.23.07-.22a4.41,4.41,0,0,0-1.14.92c0,.17,0,.31.1.27a2.3,2.3,0,0,0,1-1Zm6.52,9a.12.12,0,0,0,0,.19.57.57,0,0,1,.25.07.33.33,0,0,1,.12.15c.15.15.23.33.42.42.16-.25.21-.64.59-.64s-.13-.64.16-.77a.85.85,0,0,1,.45,0,.41.41,0,0,0-.16-.23c-.25-.17-1,0-1.12,0s-.25-.23-.45-.12a1,1,0,0,0-.28.51c0,.2.71.33.61.35-.26.07-.4,0-.62,0Zm1.77,1a5.31,5.31,0,0,0,1.14-.16c-.25,0-.5.08-.55.09s-.24-.23-.44-.12a.45.45,0,0,0-.15.19Zm3.46-.92c.07.24,0,.54.1.54s.32-.22.41-.42a4.7,4.7,0,0,0-.51-.12Zm2.89-.88c.65,0,1.23.12,1.61-.27.18-.18,0-1-.28-1.7a11.63,11.63,0,0,1-1,.91c-.39.34-.52-1.71-1-1.42-.22.14.36,1.55.58,2.48Zm1.66-2.36c.09.22.19.36.31.25a11.76,11.76,0,0,0,2.41-2.93c-.37-.16-.8-.41-.94-.2a13.09,13.09,0,0,1-1.78,2.88Zm-26.45,1.4.31.35c.23.35-1,.94-.76,1.27s2.55.46,4.11.66c.24-.23.49-.59-1.08-1.18-.2-.08,2.31-.27,2.15-.39-.38-.3-3.28-.45-4.73-.71ZM97,93.31c-.59.12-2.1.24-1.94.3,2.36.9.63,1.26.93,1.43.84.51,2.76-.29,3.77,0s-1.29,1-.26,1.39c.75.3.33-.94,1.67-.69.67.13.22.57,1.12.86.23.08.48-.07.75-.29-.6-.18-1-.33-1.13-.36-.48-.12.66-.19,1.78-.26a3.14,3.14,0,0,1,.63-.5l-.24-.09c-.3-.07,0-.12.57-.18-.19-.23-.2-.45-.61-.77-.15-.11-.15-.22-.08-.32a1.18,1.18,0,0,1-.37-.24c-.6.51-1.17,1.29-1.65,1.13-.9-.28-.45-.73-1.12-.85-1.34-.25-.92,1-1.67.69-1-.41,1.31-1,.26-1.39a6.93,6.93,0,0,0-2.41.1Zm9.76.75a1.93,1.93,0,0,0-.56-.71c-.17-.14-.13-.27,0-.39l-.68.05c-.23.21-.45.44-.66.62a16.21,16.21,0,0,0,1.91.43Zm.09-1.52c.1-.07.11-.13-.06-.17a.45.45,0,0,0-.23,0,1.21,1.21,0,0,0,.29.19Zm-8-2c.16,0,.25-.06.22-.08a4.56,4.56,0,0,0-1.43-.31c-.12.11-.25.19-.15.25a2.26,2.26,0,0,0,1.36.14Zm19.72-5.47a9.32,9.32,0,0,1-.45.83c.24.1.45.16.52,0a1.74,1.74,0,0,0-.07-.83Zm-3.17,3.51c-.19-.48-.35-1.37-.65-1.18-.15.1.09.83.32,1.57a4,4,0,0,0,.33-.39ZM113.72,91l-.29,0c-.25,0-1.21-.33-1.47-.21s.12.77-.16.77-.38.2-.48.41a1.55,1.55,0,0,0,.53.08c.75-.1,1.44.15,1.88-.29.11-.1.07-.41,0-.79Zm-29.3-4.73-.07,0c-.75.66-.54-.44-1.09-.1a2,2,0,0,0,.36.59c.24.2.57-.25.8-.52Z"/><path class="cls-15" d="M108.37,100.83c-.11,1.36,2.44,2.47.74,4.36-1.06,1.17-2.56.92-2.61-.46,0-.73-.67-1.06-.89-.91-.67.5.24.52.37,1.52.19,1.44,2.4,1.44,3.4.48s1.29-2.74-.1-4.27c-.79-.86.82-2.16-.19-2.1-.52,0-.69,1.12-.72,1.38Z"/><polygon class="cls-6" points="108.93 103.91 111.53 105.27 113.63 102.26 113.13 99.86 111.83 99.25 109.07 101.42 108.93 103.91"/><polygon class="cls-7" points="113.63 102.26 111.79 101.39 112 100.55 111.83 99.25 113.13 99.86 113.63 102.26"/><polygon class="cls-8" points="113.63 102.26 111.79 101.39 110.55 102.81 108.93 103.91 111.53 105.27 113.63 102.26"/><path class="cls-15" d="M106.3,102.69c-1.3-2.36-11.49-2.46-9.62-1.53.1.06,4.37,0,6.59.82a20.55,20.55,0,0,0,2.69,1.18.31.31,0,0,0,.34-.47Z"/><polygon class="cls-9" points="87.03 106.42 87.66 107.89 91.29 107.29 92.31 104.51 91.17 102.66 89.01 103.75 87.03 106.42"/><polygon class="cls-10" points="91.29 107.29 90.54 104.62 91.17 102.66 92.31 104.51 91.29 107.29"/><polygon class="cls-11" points="91.29 107.29 90.54 104.62 88.84 105.68 87.03 106.42 87.66 107.89 91.29 107.29"/><path class="cls-21" d="M87.62,92.51c-.12,1.37,2.44,2.48.74,4.35-1.06,1.18-2.56.93-2.62-.45,0-.73-.67-1.07-.88-.91-.67.5.24.52.37,1.52.19,1.43,2.4,1.44,3.39.47s1.3-2.74-.09-4.26c-.79-.86.82-2.15-.19-2.1-.53,0-.7,1.11-.72,1.38Z"/><path class="cls-21" d="M96.72,97.55c-1.28.45-1.25,3.23-3.66,2.46-1.51-.48-1.9-2-.66-2.57.65-.33.7-1,.46-1.17-.73-.41-.37.43-1.23,1-1.23.76-.32,2.79,1,3.29,1.47.58,3,0,3.84-1.84.46-1.07,2.3-.14,1.84-1-.24-.46-1.31-.17-1.56-.08Z"/><path class="cls-21" d="M110.48,99.61c-1.31-2.36-11.5-2.46-9.63-1.53.1.06,4.37,0,6.6.82a19.37,19.37,0,0,0,2.68,1.18.31.31,0,0,0,.35-.47Z"/><path class="cls-21" d="M79.64,100.71c-.12-1.36,2.44-2.47.74-4.35-1.06-1.17-2.56-.92-2.61.46,0,.73-.67,1.06-.89.9-.67-.5.24-.52.37-1.52.19-1.43,2.4-1.44,3.4-.47s1.29,2.74-.1,4.27c-.79.86.82,2.15-.19,2.1-.52,0-.69-1.12-.72-1.39Z"/><path class="cls-22" d="M73.42,102.85c1.11-.54,2.61-3,8.69,0l.14.06c5.8,2.82,2.1.29,4.59.22,3.79-.09,5,5.54,8.53,2.07.46-.45,8.44,1.79,6.93-.62-2.6-4.19-4.39.86-7.42-2.84-2.44-3-7.21.9-9.81-2.09-2.35-2.71-9,.93-11.69,2.47-1.57.91-2.93,2.2,0,.74Z"/><path class="cls-21" d="M99.62,104.43c-8.94-.14-20-7-27.92-1.07,4.8-6,18.6-.76,27.92,1.07Z"/><path class="cls-22" d="M128.67,89.22c-.53,1.11-.21,4-6.81,5.4l-.14,0c-6.31,1.39-1.83,1.08-3.75,2.68-2.9,2.42-7.36-1.23-8,3.67-.07.64-7.72,3.83-5,4.79,4.64,1.67,2.91-3.4,7.59-2.38,3.76.82,5.1-5.18,9-4.44,3.53.66,6.52-6.35,7.64-9.2.66-1.68.94-3.54-.49-.55Z"/><path class="cls-21" d="M107.14,104.23c7.1-5.43,20-6.93,22.56-16.47-.06,7.64-14.11,12.13-22.56,16.47Z"/><polygon class="cls-6" points="96.32 95.23 97.1 97.54 94.34 98.87 91.12 96.65 91.17 94.66 92.74 93.97 96.32 95.23"/><polygon class="cls-7" points="94.34 98.87 93.57 96.7 91.99 94.97 91.17 94.66 91.12 96.65 94.34 98.87"/><polygon class="cls-8" points="94.34 98.87 93.57 96.7 95.5 95.56 96.32 95.23 97.1 97.54 94.34 98.87"/><polygon class="cls-12" points="99.86 100.47 99.95 102.19 96.17 102.39 95.44 100.87 96.08 99.66 97.77 99.28 99.86 100.47"/><polygon class="cls-13" points="96.17 102.39 96.57 100.12 96.08 99.66 95.44 100.87 96.17 102.39"/><polygon class="cls-14" points="96.17 102.39 96.57 100.12 98.07 100.86 99.86 100.47 99.95 102.19 96.17 102.39"/><polygon class="cls-14" points="91.94 102.6 89.85 101.33 91.1 98.54 93.03 97.87 94.02 98.54 93.65 101.44 91.94 102.6"/><polygon class="cls-12" points="91.1 98.54 92.5 99.49 93.02 98.97 94.02 98.54 93.03 97.87 91.1 98.54"/><polygon class="cls-13" points="91.1 98.54 92.5 99.49 92.03 100.98 91.94 102.6 89.85 101.33 91.1 98.54"/><polygon class="cls-6" points="91.25 102.16 93.29 103.95 96.41 100.61 95.08 98.42 93.1 97.82 91.36 99.03 91.25 102.16"/><polygon class="cls-7" points="96.41 100.61 93.3 98.73 93.1 97.82 95.08 98.42 96.41 100.61"/><polygon class="cls-8" points="96.41 100.61 93.3 98.73 93.09 100.87 91.25 102.16 93.29 103.95 96.41 100.61"/><polygon class="cls-6" points="95.44 96.35 96.67 99.01 100.18 97.9 101.15 93.3 99.47 91.6 97.53 92.3 95.44 96.35"/><polygon class="cls-7" points="100.18 97.9 99.06 95.36 99.01 92.56 99.47 91.6 101.15 93.3 100.18 97.9"/><polygon class="cls-8" points="100.18 97.9 99.06 95.36 96.44 95.97 95.44 96.35 96.67 99.01 100.18 97.9"/><polygon class="cls-9" points="103.18 97.75 104.75 100.22 108.08 98.65 108.43 93.96 106.54 92.5 104.7 93.45 103.18 97.75"/><polygon class="cls-10" points="108.08 98.65 106.63 96.28 106.21 93.51 106.54 92.5 108.43 93.96 108.08 98.65"/><polygon class="cls-11" points="108.08 98.65 106.63 96.28 104.12 97.23 103.18 97.75 104.75 100.22 108.08 98.65"/><polygon class="cls-6" points="107.47 98.66 109 100.04 112.06 96.65 111.18 94.83 109.55 94.51 107.93 95.81 107.47 98.66"/><polygon class="cls-7" points="112.06 96.65 109.62 95.32 109.55 94.51 111.18 94.83 112.06 96.65"/><polygon class="cls-8" points="112.06 96.65 109.62 95.32 109.19 97.27 107.47 98.66 109 100.04 112.06 96.65"/><path class="cls-23" d="M121.67,97.47c-.29-.69-1.89-1.34-3.4-1.69-2.41-.55-6.57-.64-7.85-.08-.67.29-1.14.66-1.25,1.07,0,0,0,1,0,1.1.06.42.49.86,1.45,1.28a18.33,18.33,0,0,0,9,.66c1.56-.39,2.17-.84,2.17-1.29,0-.14,0-1,0-1Z"/><path class="cls-24" d="M121.65,97.43c-.33-.68-1.9-1.31-3.38-1.65-2.41-.55-6.57-.64-7.85-.08-.67.29-1.14.66-1.25,1.07v.12a2.54,2.54,0,0,0,1.38,1,18.57,18.57,0,0,0,9,.66c1.42-.35,2-.76,2.15-1.17Z"/><path class="cls-23" d="M119.2,97.12c-1-.15-2.16-1.29-2.36-1.23-1.38.43-4.79-.34-4.2.22,0,0,.09.62-.73.62v.07c.41.11,1.09.27.81.62s3.43.34,4.42.61c.31.09,1.32-.91,2.06-.91Z"/><path class="cls-21" d="M114.31,97.13c-.06.06-1.09.46-.62.59s.49-.23.7-.48.06-.25-.08-.11Z"/><path class="cls-21" d="M115.25,97a.8.8,0,0,0,.07.54c.11.36.86.36.39-.12,0,0-.43-.53-.46-.42Z"/><path class="cls-21" d="M116.73,97.41c.19,0,.67.27.38-.15s-.29-.2-.64-.3c0,0-.87-.23-.7,0a3.59,3.59,0,0,0,1,.44Z"/><path class="cls-21" d="M114.21,96.51c-.07,0-1.1-.06-.68-.3s.5.05.73.18.1.19-.05.12Z"/><path class="cls-21" d="M115.46,96.49c0-.15.15-.21.31-.32s.91.16.28.26c-.06,0-.62.16-.59.06Z"/><polygon class="cls-13" points="104.88 96.4 103.64 98.24 101.15 97 100.97 93.44 102.43 92.36 103.8 93.11 104.88 96.4"/><polygon class="cls-12" points="101.15 97 102.29 95.23 102.66 93.14 102.43 92.36 100.97 93.44 101.15 97"/><polygon class="cls-14" points="101.15 97 102.29 95.23 104.17 95.99 104.88 96.4 103.64 98.24 101.15 97"/><path class="cls-15" d="M118,95.82c-1.31-2.37-11.5-2.46-9.63-1.53.1,0,4.37,0,6.59.81a18.78,18.78,0,0,0,2.69,1.18.31.31,0,0,0,.35-.46Z"/><path class="cls-15" d="M93.4,98.34c1.31,2.36,11.49,2.46,9.63,1.52-.11,0-4.37,0-6.6-.81a19.21,19.21,0,0,0-2.68-1.18.31.31,0,0,0-.35.47Z"/><path class="cls-18" d="M110.87,91.83a6.54,6.54,0,0,1-4.57-1.26c-.55-.48-.12-2,.61-2.1a6.32,6.32,0,0,1,4.25,1.75c.42.35.26,1.57-.29,1.61Z"/><path class="cls-19" d="M106.3,90.57c-.55-.48-.12-2,.61-2.1a.41.41,0,0,1,.26.17,7.23,7.23,0,0,1,3.18,1.44,11.15,11.15,0,0,0-3.11-1.28.82.82,0,0,1,0,.24l1.51.72-1.51-.46c-.15.57-.58,1.37-1,1.27Z"/><path class="cls-18" d="M118.19,94.07a5.09,5.09,0,0,0-3.58,1c-.43.36-.09,1.6.47,1.64a5,5,0,0,0,3.33-1.37c.32-.28.2-1.23-.22-1.26Z"/><path class="cls-19" d="M114.61,95.06c-.43.36-.09,1.6.47,1.64a.33.33,0,0,0,.21-.14,5.6,5.6,0,0,0,2.49-1.12,8.9,8.9,0,0,1-2.43,1,1.09,1.09,0,0,0,0-.19l1.18-.56-1.18.35c-.12-.43-.46-1.07-.75-1Z"/><path class="cls-18" d="M112.53,100.59a5.11,5.11,0,0,0-3.71,0c-.52.24-.53,1.52,0,1.71a5,5,0,0,0,3.57-.42c.39-.18.53-1.13.13-1.27Z"/><path class="cls-19" d="M108.82,100.57c-.52.24-.53,1.52,0,1.71a.38.38,0,0,0,.24-.07,5.65,5.65,0,0,0,2.69-.41,8.81,8.81,0,0,1-2.61.31.75.75,0,0,0,.07-.18l1.29-.23-1.24,0c0-.46-.14-1.16-.45-1.16Z"/><polygon class="cls-16" points="97.64 97.83 97.96 99.86 97.29 100.37 98.41 100.88 97.93 101.14 100.44 102.34 100.47 102.67 106.95 101.92 106.23 101.73 107.67 100.9 105.4 98.02 102.2 98.5 98.49 97.35 98.63 97.7 97.64 97.83"/><polygon class="cls-17" points="98 97.9 100.53 99.37 98.98 98.9 102.59 100.69 100.87 100.78 102.33 101.12 100.47 102.67 106.95 101.92 106.23 101.73 105.14 101.35 107.67 100.9 106.14 100.75 107.46 100.64 105.91 98.67 103.63 98.7 105.69 98.39 105.57 98.24 104.35 98.41 105.49 98.14 105.4 98.02 101.84 98.86 98.92 97.94 100.59 98.76 98 97.9"/><polygon class="cls-9" points="92.82 92.95 91.41 93.71 92.32 97.27 95.19 98.05 96.93 96.75 95.65 94.69 92.82 92.95"/><polygon class="cls-10" points="92.32 97.27 94.92 96.3 96.93 96.75 95.19 98.05 92.32 97.27"/><polygon class="cls-11" points="92.32 97.27 94.92 96.3 93.72 94.69 92.82 92.95 91.41 93.71 92.32 97.27"/><path class="cls-15" d="M108.65,92.27c-2.39,0,.18,2.76-4.47,0-1.85-1.09-3.74-.16-2.66,2.43,0,0,.25,2.42.85,1.29.47-.9-1.44-4.19,1-3.08,1.57.69,3.6,2.7,4.68.38.18-.38,1.1-.37.57-1.07Z"/><path class="cls-15" d="M107,99.23c-1.31-2.36-11.49-2.46-9.63-1.52.1.05,4.37,0,6.59.81a19.28,19.28,0,0,0,2.69,1.18.31.31,0,0,0,.35-.47Z"/><path class="cls-15" d="M108.45,98c-.12-1.37,2.43-2.48.73-4.36-1.05-1.17-2.56-.92-2.61.46,0,.73-.67,1.07-.88.91-.67-.5.24-.52.37-1.53.18-1.42,2.39-1.43,3.39-.46s1.29,2.73-.1,4.26c-.78.86.83,2.15-.18,2.1-.53,0-.7-1.12-.72-1.38Z"/><path class="cls-15" d="M91.93,93.55c1.31.4,1.39,3.18,3.77,2.31,1.48-.54,1.81-2,.55-2.59-.66-.3-.73-1-.51-1.16.72-.43.39.42,1.27.91,1.26.71.44,2.77-.83,3.32-1.45.65-3,.18-3.92-1.68-.5-1-2.3,0-1.87-1,.22-.48,1.29-.23,1.54-.15Z"/><path class="cls-15" d="M96.79,103.78c.94-2.21-2.6-.91,1.7-4.14,1.72-1.28,1.61-3.37-1.2-3.4-.05,0-2.33-.7-1.51.28.63.78,4.41.31,2.43,2.16-1.26,1.17-3.9,2.26-2.19,4.16.29.31-.08,1.15.77.94Z"/><path class="cls-15" d="M111.63,89.38c2,1.31,1.35-2.41,3.76,2.4,1,1.93,3,2.18,3.56-.58,0,0,1.11-2.16,0-1.54-.88.49-1.08,4.29-2.55,2-.93-1.44-1.54-4.23-3.7-2.88-.36.22-1.13-.29-1.06.59Z"/><path class="cls-15" d="M111.34,102.81c-1.31-2.36-11.5-2.46-9.63-1.53.1,0,4.37,0,6.6.81a18.71,18.71,0,0,0,2.68,1.18.31.31,0,0,0,.35-.46Z"/><path class="cls-15" d="M96,96.64c1.32-.37,1.47-3.14,3.82-2.21,1.47.59,1.76,2.08.49,2.61-.67.28-.77,1-.55,1.14.71.46.41-.41,1.3-.87,1.28-.68.51-2.75-.74-3.35-1.43-.68-3-.25-4,1.58-.54,1-2.31,0-1.91.91.21.48,1.29.26,1.55.19Z"/><polygon class="cls-9" points="104.31 102.46 104.95 103.94 108.58 103.33 109.59 100.55 108.45 98.7 106.29 99.8 104.31 102.46"/><polygon class="cls-10" points="108.58 103.33 107.83 100.66 108.45 98.7 109.59 100.55 108.58 103.33"/><polygon class="cls-11" points="108.58 103.33 107.83 100.66 106.13 101.72 104.31 102.46 104.95 103.94 108.58 103.33"/><path class="cls-21" d="M96.93,96.75c-.12-1.36,2.43-2.47.73-4.35-1-1.17-2.55-.93-2.61.46,0,.72-.67,1.06-.88.9-.67-.5.24-.52.37-1.52.18-1.43,2.4-1.43,3.39-.47,1.14,1.11,1.29,2.74-.1,4.27-.79.86.83,2.15-.18,2.1-.52,0-.7-1.12-.72-1.39Z"/><path class="cls-23" d="M103.33,101.8c-.36-.66-2-1.16-3.55-1.37-2.46-.32-6.6,0-7.83.67a2.09,2.09,0,0,0-1.14,1.18s.07,1,.08,1.11c.09.41.57.8,1.56,1.13a18.45,18.45,0,0,0,9-.19c1.52-.53,2.08-1,2-1.49,0-.15-.1-1-.13-1Z"/><path class="cls-24" d="M103.3,101.76c-.39-.64-2-1.12-3.52-1.33-2.46-.32-6.6,0-7.83.67a2.09,2.09,0,0,0-1.14,1.18.68.68,0,0,1,0,.12,2.59,2.59,0,0,0,1.48.92,18.42,18.42,0,0,0,9-.19c1.39-.49,2-.95,2-1.37Z"/><path class="cls-23" d="M100.83,101.68c-1-.05-2.28-1.08-2.47-1-1.33.56-4.79.12-4.16.62,0,0,.15.61-.66.69v.07c.43.07,1.11.16.87.54s3.45,0,4.46.18c.31.06,1.22-1,2-1.1Z"/><path class="cls-21" d="M96,102.16c0,.06-1,.55-.57.64.33,0,.46-.28.65-.54s0-.25-.08-.1Z"/><path class="cls-21" d="M96.89,102a.83.83,0,0,0,.12.52c.15.35.89.28.38-.14,0,0-.48-.5-.5-.38Z"/><path class="cls-21" d="M98.4,102.2c.19,0,.7.21.37-.18s-.32-.17-.67-.24c-.06,0-.89-.15-.69.07a3,3,0,0,0,1,.35Z"/><path class="cls-21" d="M95.8,101.54c-.07,0-1.09,0-.7-.23s.5,0,.75.12.11.17,0,.11Z"/><path class="cls-21" d="M97,101.41c0-.16.14-.23.28-.34s.93.07.31.22c0,0-.6.22-.59.12Z"/><polygon class="cls-6" points="110.74 104.91 113.33 106.27 115.44 103.26 114.94 100.87 113.64 100.26 110.88 102.42 110.74 104.91"/><polygon class="cls-7" points="115.44 103.26 113.6 102.4 113.81 101.56 113.64 100.26 114.94 100.87 115.44 103.26"/><polygon class="cls-8" points="115.44 103.26 113.6 102.4 112.35 103.82 110.74 104.91 113.33 106.27 115.44 103.26"/><path class="cls-25" d="M75.25,88.36c-.5.13-1.37,1,.48,1A17.85,17.85,0,0,1,78.59,91a5.57,5.57,0,0,1-2.77,1.39c-1.37,0-1.33.77.7.77,1.67,0,.29.94,1.56,1,.65,0,.28-.56,2.1-.36.86.1,3.15-.89,3.15.56,0,1.27.2.74,2,1.41a10,10,0,0,0,3.89-.25c.68-.39,1.73.33,3.34-.23.48-.17,2.86-.54,2.86.1,0,1.83-1.65,1,.69,1.41.75.12-.66.64,1.31.8.42,0,.6.73,1.07,1.36.14.18.31,2.08,2.07,1.53.31-.09,1.87-1.7.84-2.18-.61-.28-1.33-2.15,1.79-1.41,1.76.42.47,1.33,3.83,1.24a4.74,4.74,0,0,0,2.49.58c.56,0,4.36,2.31,4.15,1.79-.64-1.66-1.14-1.64-1.45-2.31-.73-1.62,3.11-.63,3.88-.85,1-.29,1.48,2.5,1.86,3.11.74,1.25,1.14-.39.76-1.44-.72-2,1.81-3.14,1.92-2.85.22.55,1.43,2.69,1.43.83,0-2.92.28-2.39,2.55-1.28,1.61.79,1.65,3.53,2.59,1.57s-2.47-3.18-.77-4.53c1.85-1.46,1.1-2.79-.88-2-1.19.5-1.05-.17-2.68-.17-1.29,0-.77-.33-2.26-.86-2.41-.86,1.21-2.24-3.8-1.91-2.46.16-1-.93-3.72-.46-.67.12-3.54.16-4.08-.22-1-.68.76-1.63-1.74-1.24-.72.11-2.07,1.52-1.73,1.74.94.61,3.55,1.16,1.18,2.15-1.08.45.37.1-1.28.94-1.46.74.26.56-2,1.88-1.41.82-1.07,1.3-3.56,1-2.66-.32,2.47-1.15-4-1.9a31,31,0,0,1-5.68-.82c-2.45-.75,2.83-1.41,2.81-2,0-.17-3.42-1.15.14-1.71a15.29,15.29,0,0,1,3.6-.53c1.59,0,5,.51.93-.57-.66-.18-4-.72-4-.83s4-.79,1-.79c-1.1,0-5.11-.66-3.32,0,.66.24,0,1.06-1.28,1.1-.67,0-2.56.63-3.48.63a9.51,9.51,0,0,0-2.43.17c-3,.48-.89-.83-3.06-.39-1,.21,2.57,2.43-1.11,2.1-.92-.08-2.65,1.36-2.85-.25-.15-1.23-1.56.5-1.84.58Z"/><path class="cls-18" d="M114.93,98.78a5.07,5.07,0,0,1,3.57,1c.44.37.1,1.6-.47,1.64A5,5,0,0,1,114.7,100c-.32-.28-.2-1.23.23-1.26Z"/><path class="cls-19" d="M118.5,99.77c.44.37.1,1.6-.47,1.64a.44.44,0,0,1-.21-.13,5.73,5.73,0,0,1-2.49-1.13,9,9,0,0,0,2.44,1,.5.5,0,0,1,0-.18l-1.18-.58,1.19.37c.11-.45.45-1.08.74-1Z"/><polygon class="cls-6" points="122.41 106.6 124.45 108.39 127.57 105.06 126.25 102.87 124.25 102.26 122.52 103.47 122.41 106.6"/><polygon class="cls-8" points="127.57 105.06 124.46 103.18 124.25 105.31 122.41 106.6 124.45 108.39 127.57 105.06"/><path class="cls-15" d="M118.94,111.32c-.12-1.36,2.43-2.47.74-4.36-1.06-1.17-2.56-.92-2.62.47,0,.72-.67,1.06-.88.9-.67-.5.24-.52.37-1.52.19-1.43,2.4-1.44,3.39-.47,1.14,1.1,1.29,2.73-.1,4.26-.78.86.83,2.16-.18,2.1-.53,0-.7-1.11-.72-1.38Z"/><path class="cls-18" d="M117.71,108.28a6.55,6.55,0,0,1,3.51-3.19c.7-.22,1.8,1,1.46,1.63a6.37,6.37,0,0,1-3.76,2.66c-.52.16-1.46-.62-1.21-1.1Z"/><path class="cls-19" d="M121.22,105.09c.7-.22,1.8,1,1.46,1.63a.49.49,0,0,1-.29.14,7.33,7.33,0,0,1-2.92,1.92,11.45,11.45,0,0,0,2.75-2,.9.9,0,0,1-.22-.11l-1.42.89,1.2-1c-.4-.42-.85-1.22-.56-1.48Z"/><path class="cls-18" d="M117.76,110.81a5.11,5.11,0,0,0-3.58,1c-.43.37-.09,1.6.48,1.64a5,5,0,0,0,3.32-1.37c.32-.28.2-1.23-.22-1.26Z"/><path class="cls-19" d="M114.18,111.8c-.43.37-.09,1.6.48,1.64a.44.44,0,0,0,.21-.13,5.64,5.64,0,0,0,2.48-1.13,8.37,8.37,0,0,1-2.43,1,.9.9,0,0,0,0-.18l1.17-.57-1.18.36c-.12-.44-.45-1.07-.75-1Z"/><polygon class="cls-16" points="114.98 107.12 114.96 105.07 114.22 104.68 115.24 103.99 114.72 103.81 116.99 102.21 116.97 101.89 123.49 101.55 122.81 101.85 124.37 102.43 122.61 105.65 119.37 105.71 115.9 107.45 115.98 107.09 114.98 107.12"/><polygon class="cls-17" points="115.32 107 117.58 105.13 116.14 105.85 119.39 103.48 117.67 103.68 119.07 103.11 116.97 101.89 123.49 101.55 122.81 101.85 121.79 102.42 124.37 102.43 122.88 102.83 124.2 102.73 123 104.93 120.75 105.27 122.83 105.24 122.74 105.41 121.5 105.44 122.68 105.53 122.61 105.65 118.95 105.41 116.23 106.81 117.74 105.72 115.32 107"/><polygon class="cls-9" points="119.68 110.93 120.31 112.41 123.94 111.8 124.96 109.02 123.82 107.17 121.65 108.27 119.68 110.93"/><polygon class="cls-10" points="123.94 111.8 123.19 109.13 123.82 107.17 124.96 109.02 123.94 111.8"/><polygon class="cls-11" points="123.94 111.8 123.19 109.13 121.49 110.19 119.68 110.93 120.31 112.41 123.94 111.8"/><path class="cls-15" d="M114.81,105.78c-.12,1.36,2.43,2.48.73,4.36-1.05,1.17-2.56.92-2.61-.46,0-.73-.67-1.07-.88-.91-.67.5.24.52.37,1.53.18,1.42,2.39,1.43,3.39.46s1.29-2.73-.1-4.26c-.78-.86.82-2.16-.19-2.1-.52,0-.69,1.11-.71,1.38Z"/><polygon class="cls-6" points="115.36 108.85 117.96 110.22 120.06 107.2 119.56 104.81 118.26 104.2 115.5 106.36 115.36 108.85"/><polygon class="cls-7" points="120.06 107.2 118.22 106.34 118.43 105.5 118.26 104.2 119.56 104.81 120.06 107.2"/><polygon class="cls-8" points="120.06 107.2 118.22 106.34 116.98 107.76 115.36 108.85 117.96 110.22 120.06 107.2"/><polygon class="cls-6" points="113.9 103.61 115.43 104.99 118.48 101.6 117.61 99.78 115.98 99.46 114.36 100.76 113.9 103.61"/><polygon class="cls-7" points="118.48 101.6 116.05 100.27 115.98 99.46 117.61 99.78 118.48 101.6"/><polygon class="cls-8" points="118.48 101.6 116.05 100.27 115.61 102.22 113.9 103.61 115.43 104.99 118.48 101.6"/><path class="cls-23" d="M128.1,102.42c-.29-.69-1.89-1.34-3.4-1.69-2.41-.56-6.57-.65-7.85-.08a2.08,2.08,0,0,0-1.25,1.07s0,1,0,1.1c.06.42.49.86,1.45,1.28a18.59,18.59,0,0,0,9,.67c1.56-.4,2.17-.85,2.17-1.3a8.46,8.46,0,0,0,0-1Z"/><path class="cls-24" d="M128.08,102.38c-.33-.68-1.9-1.31-3.38-1.65-2.41-.56-6.57-.65-7.85-.08a2.08,2.08,0,0,0-1.25,1.07v.12a2.54,2.54,0,0,0,1.38,1,18.59,18.59,0,0,0,9,.67c1.42-.37,2-.77,2.15-1.18Z"/><path class="cls-23" d="M125.63,102.07c-1-.15-2.16-1.3-2.36-1.23-1.38.43-4.78-.34-4.2.22,0,0,.09.62-.73.62v.08c.42.11,1.09.26.81.61s3.44.34,4.42.61c.31.08,1.32-.91,2.06-.91Z"/><path class="cls-21" d="M120.74,102.08c-.06.06-1.09.45-.62.59.32.08.49-.23.7-.48s.07-.25-.08-.11Z"/><path class="cls-21" d="M121.68,102a.82.82,0,0,0,.07.53c.12.37.86.36.39-.1,0,0-.43-.55-.46-.43Z"/><path class="cls-21" d="M123.16,102.36c.19,0,.67.27.39-.15s-.3-.2-.65-.3c-.05,0-.87-.23-.69,0a3.25,3.25,0,0,0,1,.44Z"/><path class="cls-21" d="M120.64,101.46c-.06,0-1.1-.07-.68-.3s.5,0,.73.19.1.18,0,.11Z"/><path class="cls-21" d="M121.89,101.45c0-.16.15-.22.31-.33s.91.16.28.26c-.06,0-.62.16-.59.07Z"/><path class="cls-15" d="M124.38,100.76c-1.31-2.35-11.49-2.46-9.63-1.52.1.05,4.37,0,6.6.81a19.91,19.91,0,0,0,2.68,1.18.31.31,0,0,0,.35-.47Z"/><path class="cls-18" d="M124.62,99a5.05,5.05,0,0,0-3.57,1c-.44.37-.1,1.6.46,1.64a5,5,0,0,0,3.33-1.37c.33-.28.2-1.23-.22-1.26Z"/><path class="cls-19" d="M121.05,100c-.44.37-.1,1.6.46,1.64a.36.36,0,0,0,.21-.13,5.68,5.68,0,0,0,2.49-1.13,8.9,8.9,0,0,1-2.43,1,1,1,0,0,0,0-.18l1.18-.58-1.18.37c-.12-.45-.45-1.08-.74-1Z"/><path class="cls-18" d="M119,105.54a5.11,5.11,0,0,0-3.71,0c-.52.24-.52,1.51,0,1.71a4.94,4.94,0,0,0,3.58-.42c.38-.18.52-1.13.12-1.27Z"/><path class="cls-19" d="M115.25,105.52c-.52.24-.52,1.51,0,1.71a.43.43,0,0,0,.24-.07,5.58,5.58,0,0,0,2.7-.42,8.86,8.86,0,0,1-2.61.32l.06-.18,1.29-.23-1.24,0c0-.45-.14-1.15-.45-1.15Z"/><path class="cls-15" d="M114.88,103c-.12-1.36,2.44-2.48.73-4.36-1-1.17-2.56-.92-2.61.46,0,.73-.67,1.06-.88.9-.67-.49.24-.52.37-1.52.18-1.43,2.4-1.43,3.39-.47,1.14,1.11,1.3,2.74-.1,4.27-.78.86.83,2.16-.18,2.1-.53,0-.7-1.12-.72-1.38Z"/><polygon class="cls-6" points="117.17 109.86 119.77 111.22 121.88 108.21 121.37 105.81 120.07 105.21 117.31 107.37 117.17 109.86"/><polygon class="cls-7" points="121.88 108.21 120.03 107.35 120.25 106.51 120.07 105.21 121.37 105.81 121.88 108.21"/><polygon class="cls-8" points="121.88 108.21 120.03 107.35 118.79 108.76 117.17 109.86 119.77 111.22 121.88 108.21"/><path class="cls-18" d="M121.36,103.73a5.07,5.07,0,0,1,3.57,1c.44.36.1,1.59-.47,1.64a5,5,0,0,1-3.32-1.37c-.33-.28-.21-1.23.22-1.26Z"/><path class="cls-19" d="M124.93,104.72c.44.36.1,1.59-.47,1.64a.44.44,0,0,1-.21-.13,5.6,5.6,0,0,1-2.48-1.14,8.62,8.62,0,0,0,2.43,1,.92.92,0,0,1,0-.19l-1.18-.57,1.19.36c.12-.44.45-1.07.74-1Z"/><path class="cls-23" d="M105.78,88.67c-.35-1.11-2-1.94-3.55-2.28-2.45-.54-6.6,0-7.82,1.11a3.28,3.28,0,0,0-1.14,2s0,.62,0,.72c.09.69.61,1.14,1.61,1.69,2.28,1.25,6.68,1,8.7-.17,1.52-.9,2.16-1.92,2.15-2.3s0-.62,0-.75Z"/><path class="cls-24" d="M105.75,88.6c-.39-1.07-2-1.87-3.52-2.21-2.45-.54-6.6,0-7.82,1.11a3.28,3.28,0,0,0-1.14,2v.2a3,3,0,0,0,1.48,1.53c2.29,1.25,7,.88,9-.32,1.38-.81,2-1.59,2-2.29Z"/><path class="cls-23" d="M103.29,88.47c-1-.08-2.28-1.81-2.48-1.67-1.32.93-4.78.2-4.15,1,0,0,.14,1-.67,1.16a.5.5,0,0,1,0,.11c.42.12,1.1.27.86.9-.32.84,3.45,0,4.46.32.32.09,1.22-1.73,2-1.85Z"/><path class="cls-21" d="M98.42,89.27c-.06.1-1,.92-.57,1.07s.47-.46.66-.9,0-.43-.09-.17Z"/><path class="cls-21" d="M99.34,89a2.33,2.33,0,0,0,.12.86c.16.59.89.47.38-.24,0-.07-.48-.83-.5-.62Z"/><path class="cls-21" d="M100.85,89.34c.2.06.69.35.37-.3-.22-.45-.31-.29-.67-.4,0,0-.89-.25-.69.13a2.6,2.6,0,0,0,1,.57Z"/><path class="cls-21" d="M98.25,88.25c-.06,0-1.09.07-.69-.39s.49,0,.74.19.12.3,0,.2Z"/><path class="cls-21" d="M99.5,88a1.11,1.11,0,0,1,.27-.58c.26-.36.93.12.31.38-.06,0-.6.37-.58.2Z"/><path class="cls-18" d="M81.51,108.37a5.09,5.09,0,0,0-1.68-3.31c-.45-.35-1.59.22-1.52.79a5,5,0,0,0,2,3c.33.27,1.24,0,1.19-.46Z"/><path class="cls-19" d="M79.83,105.06c-.45-.35-1.59.22-1.52.79a.45.45,0,0,0,.18.18,5.58,5.58,0,0,0,1.6,2.21,8.58,8.58,0,0,1-1.47-2.19.44.44,0,0,0,.19,0l.79,1L79,106c.41-.21,1-.66.82-.93Z"/><path class="cls-18" d="M86.91,108.49a5.06,5.06,0,0,0-.72-3.63c-.33-.46-1.59-.22-1.67.34a5,5,0,0,0,1.12,3.42c.26.35,1.21.3,1.27-.13Z"/><path class="cls-19" d="M86.19,104.86c-.33-.46-1.59-.22-1.67.34a.42.42,0,0,0,.12.23,5.66,5.66,0,0,0,.94,2.56,9.12,9.12,0,0,1-.82-2.51l.18,0,.48,1.22-.27-1.21c.45-.09,1.11-.38,1-.67Z"/><polygon class="cls-6" points="88.67 107.71 87.97 110.56 91.4 111.89 93.61 110.82 93.88 109.42 91.12 107.26 88.67 107.71"/><polygon class="cls-7" points="91.4 111.89 91.79 109.89 92.66 109.89 93.88 109.42 93.61 110.82 91.4 111.89"/><polygon class="cls-8" points="91.4 111.89 91.79 109.89 90.12 109.02 88.67 107.71 87.97 110.56 91.4 111.89"/><polygon class="cls-9" points="91.02 103.91 89.74 104.88 91.19 108.26 94.14 108.58 95.66 107.03 94.08 105.19 91.02 103.91"/><polygon class="cls-10" points="91.19 108.26 93.61 106.89 95.66 107.03 94.14 108.58 91.19 108.26"/><polygon class="cls-11" points="91.19 108.26 93.61 106.89 92.17 105.5 91.02 103.91 89.74 104.88 91.19 108.26"/><path class="cls-15" d="M87.5,105.34c-.79,2.27,2.66.75-1.43,4.24-1.64,1.39-1.39,3.47,1.42,3.32,0,0,2.37.56,1.49-.38-.69-.73-4.42,0-2.56-2,1.17-1.24,3.74-2.5,1.91-4.28-.3-.3,0-1.16-.83-.9Z"/><polygon class="cls-13" points="98.14 109.72 96.06 108.96 96.67 106.24 100.08 105.21 101.47 106.37 101.07 107.89 98.14 109.72"/><polygon class="cls-12" points="96.67 106.24 98.66 106.92 100.78 106.78 101.47 106.37 100.08 105.21 96.67 106.24"/><polygon class="cls-14" points="96.67 106.24 98.66 106.92 98.37 108.94 98.14 109.72 96.06 108.96 96.67 106.24"/><polygon class="cls-16" points="100.83 108.66 100.51 110.69 99.72 110.97 100.63 111.8 100.09 111.9 102.11 113.82 102.03 114.13 108.43 115.42 107.8 115.02 109.43 114.69 108.16 111.24 104.96 110.71 101.8 108.47 101.81 108.84 100.83 108.66"/><polygon class="cls-17" points="101.15 108.84 103.11 111.02 101.78 110.1 104.66 112.91 102.99 112.46 104.29 113.24 102.03 114.13 108.43 115.42 107.8 115.02 106.88 114.32 109.43 114.69 108.02 114.07 109.31 114.36 108.44 112.01 106.26 111.34 108.33 111.68 108.25 111.5 107.04 111.28 108.21 111.38 108.16 111.24 104.51 110.94 102.02 109.16 103.35 110.45 101.15 108.84"/><path class="cls-15" d="M95.9,112.48c2-1.83-.35-11.75-.82-9.71,0,.11,1.06,4.24.79,6.6a18.5,18.5,0,0,0-.5,2.89.3.3,0,0,0,.53.22Z"/><path class="cls-26" d="M74,93.78l.13.34.51-.07Zm33.92,2.1-.13-.33-.51.07Zm-8.1-1.23.09-.12-.29,0Zm.07,1.28.44-.63h-.19Zm.57-1.22h.47v-.13l-.42-.1Zm2.2.66,0-.19h-.14v.22Zm.39-.79,1-.09-.3-.13Zm2.73,2.5-.15-.34-.2.31Zm-.68-.94,0-.36-.37,0,.08.29Zm-7.74,2.11-.13-.33-.52.07ZM89.24,97l.09-.13-.29,0Zm.06,1.27.44-.63h-.19Zm.58-1.22h.46V97l-.42-.1Zm2.19.66,0-.19H91.9v.22Zm.39-.8,1-.07-.3-.14Zm2.73,2.51L95,99.11l-.19.31Zm-.68-.93,0-.37-.37,0,.08.29Zm6.95,5.11-.13-.34-.52.07Zm-8.1-1.23.08-.12-.28,0Zm.07,1.27.43-.62h-.19Zm.56-1.21h.48l0-.13-.42-.1Zm2.2.65,0-.19H96v.22Zm.39-.79,1-.08-.3-.13Zm2.73,2.5-.14-.34-.21.31Zm-.68-.93,0-.36-.37,0,.08.3Zm-11.14-1.07-.13-.33-.52.07Zm-8.1-1.23.09-.12-.29,0Zm.06,1.28.44-.63H79.7Zm.58-1.22h.47l0-.12-.42-.11Zm2.19.66,0-.19h-.15v.22Zm.39-.79,1-.09-.29-.13Zm2.73,2.5-.15-.34L85,104Zm-.68-.94,0-.36-.37,0,.08.29Zm11.85,3,.13-.34.51.07Zm8.1-1.23-.09-.13.29,0Zm-.07,1.27-.43-.62h.19Zm-.57-1.22h-.47v-.12l.43-.1Zm-2.19.66,0-.19H102v.22Zm-.39-.79-1-.08.3-.13Zm-2.73,2.5.14-.34.2.31Zm.68-.94,0-.35.37,0-.08.29Zm2.23-4.83.13-.33.52.07Zm8.1-1.22-.09-.13.29,0Zm-.06,1.28-.44-.63h.19Zm-.58-1.22h-.46v-.13l.43-.1Zm-2.19.66,0-.2H107V101Zm-.39-.8-1-.08.31-.13Zm-2.74,2.51.15-.34.2.3Zm.69-.94,0-.36.38,0-.08.29Zm-.28,1.17.13.33.52-.07Zm8.1,1.22-.09.13.29,0Zm-.07-1.28-.43.64h.19Zm-.56,1.23h-.48l0,.12.42.1Zm-2.2-.66,0,.19h.15v-.23Zm-.39.79-1,.08.29.14Zm-2.73-2.51.14.34.2-.3Zm.68.94,0,.36.37,0-.08-.29Zm-14.11,5.14.13.33.51-.06Zm8.1,1.24-.09.12.29,0Zm-.07-1.28-.44.63h.2ZM100.3,109h-.47v.12l.43.1Zm-2.19-.66,0,.19h.15v-.22Zm-.39.79-1,.08.3.13ZM95,106.58l.14.34.2-.3Zm.68.94,0,.36.36,0-.07-.29ZM78.43,96.19l.12.33.52-.07Zm8.09,1.23-.09.12.3,0Zm-.06-1.28-.44.63h.19Zm-.58,1.22h-.46v.12l.42.11Zm-2.19-.66,0,.19h.14v-.22Zm-.39.79-1,.09.31.13ZM80.57,95l.14.34.21-.31Zm.68.94,0,.35.37,0L81.52,96Zm2.64-2,.12.34.52-.07ZM92,95.13l-.1.12.3,0Zm-.07-1.27-.44.62h.19Zm-.57,1.22h-.47v.12l.43.1Zm-2.2-.66,0,.19h.14V94.4Zm-.39.79-1,.08.3.13ZM86,92.71l.15.34.2-.31Zm.68.94,0,.35.37,0-.08-.3Zm4.38-.24.14.34.51-.07Zm8.1,1.23-.08.12.28,0Zm-.07-1.27-.43.62h.19Zm-.56,1.21h-.48l0,.13.42.1Zm-2.2-.66,0,.2h.15V93.9Zm-.39.8-1,.08.3.13Zm-2.73-2.51.14.34.21-.31Zm.68.94,0,.36.37,0-.08-.3Zm9,4.69.14.34.51-.07Zm8.1,1.23-.08.12.28,0Zm-.07-1.27-.43.62h.19ZM110.38,99h-.48l0,.12.42.1Zm-2.2-.66,0,.19h.15v-.22Zm-.39.79-1,.08.3.13Zm-2.73-2.5.14.34.21-.31Zm.68.94,0,.35.37,0-.08-.3ZM84.6,104.11l.13.33.52-.06Zm8.1,1.23-.09.13.3,0Zm-.06-1.28-.44.63h.19Zm-.58,1.23H91.6v.12l.42.1Zm-2.19-.66,0,.19H90v-.22Zm-.39.79-1,.08.31.13Zm-2.73-2.51.14.34.2-.3Zm.68.94,0,.36.37,0-.08-.28Zm-11.29-4,.13.34.51-.07Zm8.1,1.23-.09.12.29,0Zm-.07-1.27-.43.62h.19ZM83.6,101h-.47v.12l.43.1Zm-2.19-.66,0,.19h.15v-.22Zm-.39.79-1,.08.3.13Zm-2.73-2.5.14.34.2-.31Zm.68.94,0,.35.36,0-.07-.3Zm-1.86-1-.09.12.3,0Zm-.06-1.28-.44.63h.19Zm-.58,1.22H76v.12l.42.11Zm-2.19-.66,0,.19.15,0v-.23Zm-.39.8-1,.08.31.13Zm2.23-6.11.14.34.21-.31Zm.68.94,0,.36.37,0-.08-.29Z"/><path class="cls-26" d="M89.53,84.73l.14.33.51-.07Zm33.93,2.1-.13-.34-.51.07Zm-8.1-1.23.09-.12-.29,0Zm.07,1.27.44-.62h-.19Zm.57-1.22h.47v-.12l-.42-.1Zm2.19.66v-.19H118v.22Zm.39-.79,1-.08-.3-.13Zm2.74,2.5-.15-.34L121,88Zm-.68-.94,0-.35-.37,0,.08.3ZM112.9,89.2l-.13-.33-.52.06ZM104.79,88l.1-.12-.29,0Zm.07,1.28.44-.63h-.19Zm.58-1.23h.47l0-.12-.42-.1Zm2.19.66,0-.18h-.15v.22Zm.39-.79,1-.08-.29-.13Zm2.73,2.51-.14-.34-.2.3Zm-.68-.94,0-.36-.37.05.08.28ZM117,94.57l-.13-.33-.51.06Zm-8.09-1.23.08-.12-.28,0Zm.06,1.28.44-.63h-.19Zm.57-1.22H110l0-.13-.42-.1Zm2.2.66,0-.19h-.15v.22Zm.39-.8,1-.07-.3-.14Zm2.73,2.51-.14-.34-.21.3Zm-.68-.94,0-.36-.37,0,.08.29Zm-11.14-1.07-.13-.33-.52.07ZM95,92.54l.09-.13-.29,0ZM95,93.81l.43-.62h-.19Zm.56-1.22h.48l0-.12-.42-.1Zm2.2.66,0-.19h-.15v.22Zm.39-.8,1-.07-.29-.14ZM100.9,95l-.14-.34-.2.31Zm-.68-.94,0-.36-.37,0L100,94Zm11.85,3,.13-.34.52.07Zm8.1-1.23-.09-.13.29,0ZM120.1,97l-.43-.63h.19Zm-.57-1.22h-.47l0-.13.42-.1Zm-2.19.66,0-.2h.15v.23Zm-.39-.8-1-.08.29-.13Zm-2.73,2.51.14-.34.2.3Zm.68-.94,0-.36.37,0-.08.29Zm2.23-4.83.13-.33.52.07Zm8.1-1.23-.09-.12.29,0Zm-.07,1.28-.43-.63h.19Zm-.57-1.22h-.47v-.12l.43-.11Zm-2.19.66,0-.19h.15v.22Zm-.4-.79L121,91l.31-.13Zm-2.73,2.5.15-.34.2.31Zm.69-.94,0-.36.37.05-.07.29Zm-.28,1.17.13.33.52-.06Zm8.11,1.22-.1.13.29,0Zm-.07-1.27-.44.62h.19ZM127.14,95h-.47l0,.12.42.1ZM125,94.36l0,.19h.15v-.22Zm-.39.8-1,.07.29.14Zm-2.73-2.51L122,93l.2-.31Zm.68.94,0,.36.37,0-.08-.29ZM108.4,98.73l.13.33L109,99Zm8.1,1.22-.09.13.29,0Zm-.07-1.27-.44.63h.2Zm-.57,1.22h-.47V100l.43.1Zm-2.19-.66,0,.19h.15v-.22Zm-.39.8-1,.07.3.14Zm-2.73-2.51.14.34.2-.31Zm.68.94,0,.36.37,0-.08-.29ZM94,87.13l.13.33.51-.06Zm8.09,1.23-.09.13.3,0ZM102,87.08l-.44.63h.19Zm-.57,1.22H101v.13l.42.1Zm-2.2-.66,0,.2h.14v-.23Zm-.39.8-1,.08.31.13Zm-2.73-2.51.14.34.21-.3Zm.68.94,0,.36.37,0-.08-.29Zm2.64-2,.12.33.52-.07Zm8.1,1.23-.1.12.3,0Zm-.07-1.28-.44.63h.19ZM106.91,86h-.47v.12l.43.11Zm-2.2-.66,0,.19h.14v-.22Zm-.39.79-1,.09.3.13Zm-2.73-2.5.15.34.2-.31Zm.69.94,0,.36.37,0-.08-.29Zm4.37-.23.13.33.52-.07Zm8.11,1.23-.1.12.29,0Zm-.07-1.28-.44.63h.19Zm-.57,1.22h-.48l0,.12.42.1Zm-2.2-.66,0,.19h.15v-.23Zm-.39.79-1,.08.29.14Zm-2.73-2.51.15.34.19-.3Zm.68.95,0,.35.37,0-.08-.29Zm9,4.69.13.33.52-.07ZM126.58,90l-.1.12.29,0Zm-.07-1.28-.44.63h.19ZM125.94,90h-.48l0,.12.42.11Zm-2.2-.66,0,.19h.15v-.22Zm-.39.79-1,.09.29.13Zm-2.73-2.5.14.34.2-.31Zm.68.94,0,.36.37,0-.08-.29Zm-21.13,6.53.12.33.52-.06Zm8.09,1.22-.09.13.3,0ZM108.2,95l-.44.62H108Zm-.58,1.22h-.46v.12l.43.1Zm-2.19-.66,0,.19h.14v-.22Zm-.39.8-1,.07.31.14Zm-2.74-2.51.15.34.21-.31Zm.69.94,0,.36.37,0-.08-.29Zm-11.29-4,.13.33.51-.07ZM99.8,92l-.09.12.29,0Zm-.07-1.28-.44.63h.2Zm-.57,1.22h-.47v.12l.43.11ZM97,91.27l0,.19h.15v-.22Zm-.39.79-1,.09.3.13Zm-2.73-2.5.14.34.2-.31Zm.68.94,0,.36.37,0-.08-.29Zm-1.86-.94-.09.12.3,0Zm-.06-1.28-.44.62h.19ZM92,89.5h-.46v.12l.42.1Zm-2.19-.66,0,.19H90v-.23Zm-.39.79-1,.08.31.13Zm2.23-6.11.14.35.21-.31Zm.68.94,0,.37.37,0-.08-.29Z"/><path class="cls-26" d="M86.1,94.82l.12.33.52-.07ZM120,96.91l-.13-.33-.52.07Zm-8.1-1.23.09-.12-.29,0ZM112,97l.43-.63h-.18Zm.57-1.22H113v-.12l-.43-.1Zm2.2.66,0-.19h-.14v.22Zm.39-.79,1-.08-.3-.13Zm2.73,2.5-.15-.34-.2.31Zm-.69-.94,0-.35-.37,0,.07.29Zm-7.74,2.11-.12-.33-.52.07Zm-8.09-1.23.09-.12-.3,0Zm.06,1.29.44-.64h-.19Zm.57-1.23h.47V98l-.43-.1Zm2.2.66,0-.19H104v.23Zm.39-.79,1-.08-.31-.13Zm2.73,2.51-.15-.34-.2.3Zm-.69-.94,0-.36-.37,0,.08.29Zm6.95,5.11-.12-.33-.52.06Zm-8.1-1.23.1-.13-.3,0Zm.07,1.28.44-.63h-.19Zm.57-1.22h.47v-.13l-.42-.1Zm2.2.66,0-.2h-.14v.23Zm.39-.8,1-.08-.3-.13Zm2.73,2.51-.15-.34-.2.3Zm-.68-.94,0-.36-.37,0,.08.29ZM99.6,103.85l-.12-.33-.52.06Zm-8.09-1.22.09-.13-.3,0Zm.06,1.27.44-.63h-.19Zm.58-1.22h.46v-.12l-.43-.1Zm2.19.66,0-.19h-.14v.22Zm.39-.8,1-.07-.31-.14Zm2.73,2.51-.15-.34-.2.31Zm-.69-.94,0-.36-.37,0,.08.29Zm11.86,3,.13-.33.51.07Zm8.1-1.22-.09-.13.29,0Zm-.07,1.27-.43-.62h.19Zm-.57-1.21h-.47v-.13l.43-.1Zm-2.19.66,0-.2h.15v.22Zm-.4-.8-1-.08.3-.14Zm-2.73,2.5.15-.34.2.31Zm.69-.93,0-.36.36,0-.07.29Zm2.23-4.83.13-.33.51.06Zm8.1-1.23-.09-.12.29,0Zm-.07,1.28-.43-.63h.19Zm-.57-1.23h-.47v-.12l.43-.1ZM119,102l0-.18h.14V102Zm-.39-.79-1-.08.3-.13Zm-2.73,2.51.14-.34.2.31Zm.68-.94,0-.36.38,0-.09.29Zm-.28,1.17.13.33.52-.07Zm8.1,1.22-.09.13.29,0Zm-.07-1.27-.43.62H124Zm-.56,1.22h-.48v.12l.43.1Zm-2.2-.66,0,.19h.15v-.22Zm-.39.79-1,.08.3.14Zm-2.73-2.5.14.34.2-.31Zm.68.94,0,.35.36,0-.07-.29ZM105,108.82l.13.33.51-.07Zm8.1,1.22-.09.13.29,0Zm-.07-1.27-.44.63h.19Zm-.57,1.22H112v.12l.43.1Zm-2.19-.66,0,.19h.14v-.22Zm-.4.79-1,.08.3.14Zm-2.73-2.5.15.34.2-.31Zm.69.93,0,.37.37,0-.07-.29ZM90.54,97.22l.13.33.52-.06Zm8.1,1.23-.09.12.29,0Zm-.06-1.28-.44.63h.19ZM98,98.39h-.47l0,.13.42.1Zm-2.19-.66,0,.19H96v-.22Zm-.39.8-1,.07.3.14ZM92.69,96l.14.34.2-.3Zm.68.94,0,.36.37,0L93.64,97Zm2.63-2,.14.33.51-.07Zm8.11,1.23-.09.12.28,0ZM104,94.89l-.43.63h.19Zm-.56,1.22H103l0,.12.42.1Zm-2.2-.66,0,.19h.15v-.23Zm-.39.79-1,.08.3.13Zm-2.73-2.5.14.33.21-.3Zm.68.94,0,.35.37,0-.08-.29Zm4.38-.24.14.34.51-.07Zm8.1,1.23-.09.13.29,0Zm-.07-1.27-.43.62H111Zm-.56,1.22h-.48v.12l.43.1Zm-2.2-.66,0,.18.15,0v-.23Zm-.39.79-1,.08.31.13Zm-2.73-2.51.14.34.21-.3Zm.68,1,0,.35.36-.05-.07-.28Zm9,4.69.13.33.52-.07Zm8.1,1.23-.09.12.29,0Zm-.07-1.28-.43.63h.19Zm-.56,1.22H122v.12l.43.1Zm-2.2-.66,0,.19h.15v-.23Zm-.39.79-1,.08.31.13Zm-2.73-2.51.14.34.21-.3Zm.68,1,0,.35.36,0-.07-.29Zm-21.14,6.53.13.33.52-.07Zm8.1,1.22-.09.13.29,0Zm-.07-1.27-.43.62h.19Zm-.57,1.21h-.47l0,.13.42.1Zm-2.19-.66,0,.2h.15v-.22Zm-.39.8-1,.08.3.14Zm-2.73-2.51.14.35.2-.31Zm.68.94,0,.36.37,0-.09-.29Zm-11.29-4,.13.33.52-.07Zm8.1,1.23-.09.12.29,0Zm-.07-1.28-.43.63H96ZM95.72,102h-.47v.12l.43.1Zm-2.2-.66,0,.19h.14v-.23Zm-.39.79-1,.08.3.13ZM90.4,99.64l.15.34.2-.3Zm.69,1,0,.35.37,0-.07-.29Zm-1.86-1-.09.12.29,0Zm-.07-1.28-.43.63h.19Zm-.57,1.23h-.47l0,.12.42.1Zm-2.19-.66,0,.18h.15V98.9Zm-.39.79-1,.08.29.13Zm2.23-6.11.14.34.21-.3Zm.68.94,0,.36.37,0-.08-.29Z"/><path class="cls-26" d="M74.92,86l.13.33.51-.07Zm33.93,2.09-.14-.33-.51.07Zm-8.11-1.23.09-.12-.28,0Zm.07,1.28.44-.62h-.19Zm.57-1.22h.47v-.12l-.42-.1Zm2.2.66,0-.19h-.15v.22Zm.39-.79,1-.08-.3-.13Zm2.73,2.5-.15-.34-.2.31Zm-.68-.94,0-.35-.37,0,.08.29Zm-7.74,2.12-.13-.34-.52.07Zm-8.1-1.24.09-.12-.29,0Zm.07,1.28.43-.63h-.19Zm.57-1.22h.47l0-.12-.42-.1Zm2.19.66,0-.19h-.15V90Zm.39-.79,1-.08-.3-.13Zm2.73,2.51L96,91.3l-.2.3Zm-.68-.94,0-.36-.37,0,.08.29Zm7,5.11-.13-.33-.52.06Zm-8.1-1.23.09-.13-.29,0Zm.07,1.28.43-.63h-.19Zm.56-1.22h.48v-.13l-.43-.1Zm2.2.66,0-.2H97v.22Zm.39-.8,1-.08-.31-.13ZM100.25,97l-.14-.34-.2.3Zm-.68-.94,0-.36-.37.05.08.28ZM88.43,95l-.13-.33-.52.06Zm-8.1-1.22.09-.13-.29,0Zm.07,1.27.43-.63h-.19ZM81,93.83h.47l0-.12-.42-.1Zm2.19.66,0-.19H83v.22Zm.39-.8,1-.07-.3-.14Zm2.73,2.51-.14-.34-.2.31Zm-.68-.94,0-.36-.37,0,.08.29Zm11.85,3,.13-.33.52.07Zm8.1-1.22-.09-.13.29,0Zm-.07,1.27-.43-.62h.19Zm-.56-1.21h-.48l0-.13.42-.1Zm-2.2.66,0-.2h.15v.22Zm-.39-.8-1-.08.29-.14ZM99.6,99.43l.14-.35.2.31Zm.68-.94,0-.36.37,0-.08.29Zm2.24-4.83.12-.33.52.07Zm8.09-1.23-.09-.12.3,0Zm-.06,1.28-.44-.63h.19ZM110,92.48h-.46v-.12l.42-.1Zm-2.19.66,0-.18H108v.22Zm-.39-.79-1-.08.31-.13Zm-2.73,2.51.14-.34.21.31Zm.68-.94,0-.36.37,0-.08.29Zm-.28,1.17.13.33.52-.07Zm8.11,1.22-.1.13.29,0ZM113.1,95l-.44.62h.19Zm-.57,1.22h-.48l0,.12.42.1Zm-2.2-.66,0,.19h.15v-.22Zm-.39.79-1,.08.29.14Zm-2.73-2.5.15.34.19-.31Zm.68.94,0,.35.37,0-.08-.29ZM93.78,100l.13.33.51-.07Zm8.1,1.22-.09.13.29,0Zm-.07-1.27-.43.63h.19Zm-.57,1.22h-.47v.12l.43.1Zm-2.19-.66,0,.19h.15v-.22Zm-.39.8-1,.07.29.14Zm-2.73-2.51.14.34.2-.31Zm.68.93,0,.37.37,0-.08-.29ZM79.37,88.37l.13.33.51-.06Zm8.09,1.23-.08.12.29,0Zm-.06-1.28L87,89h.19Zm-.57,1.22h-.47v.13l.43.1Zm-2.2-.66,0,.19h.14v-.22Zm-.39.8-1,.07.31.14Zm-2.73-2.51.15.34.2-.3Zm.69.94,0,.36.37,0-.08-.28Zm2.63-2,.13.33.52-.07Zm8.1,1.23-.1.12.3,0ZM92.86,86l-.43.63h.18Zm-.57,1.22h-.47v.12l.43.11Zm-2.2-.66,0,.19h.14v-.23Zm-.39.79-1,.08.3.14ZM87,84.88l.15.34.2-.3Zm.69,1,0,.35.37,0-.08-.29ZM92,85.59l.14.34.51-.07Zm8.11,1.24-.09.12.28,0Zm-.07-1.28-.44.62h.19Zm-.57,1.22H99v.12l.42.1Zm-2.2-.66,0,.19h.15v-.23Zm-.39.79-1,.08.3.13Zm-2.73-2.51.15.34.2-.3Zm.68,1,0,.35.37,0-.08-.28Zm9,4.69.14.33.51-.07ZM112,91.26l-.09.12.28,0ZM111.89,90l-.44.63h.19Zm-.57,1.22h-.48l0,.12.42.11Zm-2.19-.66v.19h.15v-.23Zm-.4.79-1,.08.3.14ZM106,88.82l.15.34.2-.3Zm.68,1,0,.35.37,0-.08-.29ZM85.55,96.3l.12.33.52-.07Zm8.09,1.22-.09.13.3,0Zm-.06-1.27-.44.62h.19ZM93,97.47h-.46v.12l.42.1Zm-2.19-.66,0,.19H91v-.22Zm-.39.79-1,.08.31.14Zm-2.73-2.5.14.34.21-.31Zm.68.93,0,.36.37,0-.08-.29ZM77.08,92l.13.33.52-.07Zm8.1,1.23-.09.12.29,0ZM85.11,92l-.43.63h.19Zm-.56,1.22h-.48v.12l.43.11Zm-2.2-.66,0,.19h.15v-.23ZM82,93.3l-1,.08.31.14Zm-2.73-2.51.14.34.2-.3Zm.68.95,0,.35.37,0-.08-.29Zm-1.86-.95-.09.12.3,0ZM78,89.51l-.44.63h.19Zm-.58,1.23H77v.12l.43.1Zm-2.19-.66,0,.18h.14v-.22Zm-.39.79-1,.08.3.13Zm2.23-6.11.14.34.21-.3Zm.68.94,0,.36.37,0L78,85.73Z"/><path class="cls-27" d="M109.13,91.16a2.72,2.72,0,0,1,.43,2.51.67.67,0,0,0-.16-.25c.06.39-.27.74-.48,1a.56.56,0,0,0,0-.34c-.15.43-.75.68-1.11.91a1.15,1.15,0,0,0,0-.37c-.18.4-1,.5-1.49.61a1,1,0,0,0,.29-.36c-.43.31-1,.14-1.7.2.26-.32.44-1.15.93-1.44a1.38,1.38,0,0,0-.47.16c.29-.36.38-.87.65-1.06a1.42,1.42,0,0,1-.39,0c.49-.35.71-1.07,1.36-1.22a2.2,2.2,0,0,1-.5,0c.44-.1,1-.63,1.66-.46a3.4,3.4,0,0,1-.31-.2c.43,0,1-.06,1.3.24Z"/><path class="cls-28" d="M105.37,94.93c1.85-.79,3.42-3.17,3.76-3.77a7.38,7.38,0,0,1-3.76,3.77Z"/><path class="cls-28" d="M106.93,95c1-.64.47-1.53.67-1.74a1.48,1.48,0,0,1-.67,1.74Z"/><path class="cls-28" d="M105.82,93.42c1.11-.49,1.53,0,1.75-.07a1.59,1.59,0,0,0-1.75.07Z"/><path class="cls-28" d="M106.33,92.41c1.12-.49,1.75.11,2,0a2,2,0,0,0-2,0Z"/><path class="cls-28" d="M108.1,94.55c1-.65,0-1.87.19-2.09.06.16.76,1.58-.19,2.09Z"/><path class="cls-28" d="M109,94c.44-.81-.5-1.87-.31-2.08.07.16.82,1.64.31,2.08Z"/><path class="cls-28" d="M107.14,91.44a2,2,0,0,1,1.72.27,1.56,1.56,0,0,0-1.72-.27Z"/><path class="cls-27" d="M112.05,90.42a2,2,0,0,0,1.7.77.5.5,0,0,1-.15-.17c.26.12.57-.06.83-.14a.46.46,0,0,1-.24-.09c.34,0,.62-.4.86-.61a.72.72,0,0,1-.27-.06c.31-.05.54-.65.7-.94a.8.8,0,0,1-.3.14c.29-.25.28-.69.45-1.16-.28.12-.9.1-1.2.39a1.41,1.41,0,0,1,.21-.31c-.31.15-.69.11-.87.27a1.27,1.27,0,0,0,.11-.26c-.34.28-.89.3-1.12.73a1.28,1.28,0,0,0,.07-.35c-.15.29-.62.57-.63,1.08,0-.1,0-.18-.08-.25a1.45,1.45,0,0,0-.07,1Z"/><path class="cls-28" d="M115.41,88.45a7.3,7.3,0,0,1-3.36,2,5.39,5.39,0,0,0,3.36-2Z"/><path class="cls-28" d="M115.2,89.58c-.64.57-1.17,0-1.36.15a1.08,1.08,0,0,0,1.36-.15Z"/><path class="cls-28" d="M114.25,88.49c-.55.7-.26,1.09-.37,1.23a1.24,1.24,0,0,1,.37-1.23Z"/><path class="cls-28" d="M113.45,88.67c-.55.7-.24,1.26-.35,1.4a1.44,1.44,0,0,1,.35-1.4Z"/><path class="cls-28" d="M114.63,90.31c-.63.58-1.32-.35-1.51-.25.11.08,1,.83,1.51.25Z"/><path class="cls-28" d="M114.05,90.87c-.64.16-1.22-.69-1.41-.6.1.08,1,.88,1.41.6Z"/><path class="cls-28" d="M112.62,89.06a1.42,1.42,0,0,0-.13,1.27,1.14,1.14,0,0,1,.13-1.27Z"/><path class="cls-27" d="M108.1,89.5a2.71,2.71,0,0,0,2.22-1.24.77.77,0,0,1-.3,0c.34-.19.4-.68.51-1a.49.49,0,0,1-.28.19c.24-.38.06-1,0-1.44a1.58,1.58,0,0,1-.28.25c.19-.38-.28-1.13-.47-1.54a.91.91,0,0,1-.1.45c0-.53-.52-.88-.91-1.44-.09.4-.61,1.06-.54,1.63a1.3,1.3,0,0,1-.17-.48c-.09.47-.44.85-.41,1.18-.08-.11-.08-.2-.2-.33,0,.6-.39,1.22-.1,1.83-.13-.13-.16-.26-.33-.37.19.4.12,1.14.68,1.58a2.94,2.94,0,0,0-.35-.12c.28.32.56.78,1,.85Z"/><path class="cls-28" d="M108.66,84.21c.55,1.94-.31,4.66-.56,5.29a7.42,7.42,0,0,0,.56-5.29Z"/><path class="cls-28" d="M109.73,85.35c.12,1.17-.9,1.33-.94,1.62a1.48,1.48,0,0,0,.94-1.62Z"/><path class="cls-28" d="M107.76,85.51c.32,1.18,1,1.18,1,1.41a1.65,1.65,0,0,1-1-1.41Z"/><path class="cls-28" d="M107.3,86.55c.32,1.17,1.19,1.29,1.27,1.52a2,2,0,0,1-1.27-1.52Z"/><path class="cls-28" d="M110.07,86.57c.12,1.17-1.45,1.17-1.49,1.47.16-.06,1.7-.41,1.49-1.47Z"/><path class="cls-28" d="M110.22,87.67c-.35.85-1.77.78-1.81,1.07.17,0,1.79-.39,1.81-1.07Z"/><path class="cls-28" d="M107.06,87.78c.5,1.13,1.17,1,1.29,1.17-.07,0-.92-.11-1.29-1.17Z"/><path class="cls-27" d="M111.36,91.19A2,2,0,0,1,113,92a.44.44,0,0,0-.23,0c.26.12.33.47.43.72-.07,0-.13-.12-.21-.12.19.27.09.73.08,1a1.18,1.18,0,0,0-.22-.17c.16.28-.14.85-.26,1.16a.72.72,0,0,0-.09-.33c0,.39-.34.67-.6,1.1-.08-.29-.49-.75-.47-1.17a1.18,1.18,0,0,0-.1.36c-.09-.33-.36-.6-.36-.83a1.51,1.51,0,0,1-.13.25c0-.44-.34-.88-.16-1.33-.09.1-.1.19-.23.29.13-.31,0-.85.42-1.18a2,2,0,0,1-.25.09c.2-.24.37-.59.7-.67Z"/><path class="cls-28" d="M112,95a7.3,7.3,0,0,0-.67-3.83A5.46,5.46,0,0,1,112,95Z"/><path class="cls-28" d="M112.75,94.13c0-.86-.72-.92-.76-1.13a1.08,1.08,0,0,1,.76,1.13Z"/><path class="cls-28" d="M111.31,94.12c.18-.88.66-.91.7-1.08a1.2,1.2,0,0,0-.7,1.08Z"/><path class="cls-28" d="M110.93,93.38c.17-.87.8-1,.84-1.16a1.4,1.4,0,0,0-.84,1.16Z"/><path class="cls-28" d="M112.94,93.23c0-.86-1.12-.78-1.17-1,.13,0,1.27.2,1.17,1Z"/><path class="cls-28" d="M113,92.42c-.3-.6-1.34-.48-1.38-.69.13,0,1.32.2,1.38.69Z"/><path class="cls-28" d="M110.69,92.5c.3-.85.8-.79.87-.92s-.66.13-.87.92Z"/><path class="cls-28" d="M112.48,90.35c-4.92.89-9.63-1.54-10.71-2.75-1.09.08,5.57,4.26,10.71,2.75Z"/><path class="cls-28" d="M111.75,92c-.5-1-1-1.36-1.63-1.35.72-.27,1.26.34,1.63,1.35Z"/><path class="cls-28" d="M108.45,88.6c-.39,1.15-.87,1.65-1.48,1.66.74.24,1.24-.69,1.48-1.66Z"/><path class="cls-28" d="M108.48,92.15c.55-.76,1.08-2,.63-1.58,0,0-.2,0-.15,0,.83-.68.27,1-.48,1.63Z"/><path class="cls-27" d="M94.54,88.41a2.74,2.74,0,0,1,2.24,1.21.75.75,0,0,0-.3,0c.35.19.41.67.53,1a.54.54,0,0,0-.28-.18c.24.38.07,1,0,1.43a1.61,1.61,0,0,0-.28-.24c.2.38-.25,1.14-.44,1.55a1,1,0,0,0-.1-.45c0,.54-.52.89-.9,1.47-.08-.41-.62-1.06-.56-1.63a1.84,1.84,0,0,0-.17.47c-.09-.46-.45-.83-.42-1.16-.08.11-.08.2-.2.33,0-.59-.4-1.22-.12-1.83-.13.14-.16.26-.33.38.19-.41.1-1.15.65-1.59-.14,0-.23.11-.35.13.28-.33.55-.79,1-.88Z"/><path class="cls-28" d="M95.18,93.7c.53-2-.38-4.66-.64-5.29a7.43,7.43,0,0,1,.64,5.29Z"/><path class="cls-28" d="M96.24,92.54c.1-1.17-.91-1.32-1-1.6a1.47,1.47,0,0,1,1,1.6Z"/><path class="cls-28" d="M94.27,92.41c.3-1.18,1-1.19,1-1.42-.07,0-.84.31-1,1.42Z"/><path class="cls-28" d="M93.79,91.38c.3-1.18,1.17-1.3,1.24-1.54a2,2,0,0,0-1.24,1.54Z"/><path class="cls-28" d="M96.56,91.31c.1-1.17-1.47-1.15-1.52-1.43.17,0,1.71.37,1.52,1.43Z"/><path class="cls-28" d="M96.69,90.21c-.36-.84-1.78-.75-1.83-1,.17,0,1.8.37,1.83,1Z"/><path class="cls-28" d="M93.53,90.15C94,89,94.69,89.12,94.8,89c-.07,0-.91.13-1.27,1.19Z"/><path class="cls-27" d="M95.76,85.65a2,2,0,0,0,1.65-.86.55.55,0,0,1-.22,0c.25-.14.3-.49.39-.74a.37.37,0,0,1-.2.13c.18-.28.06-.74,0-1-.09.07-.12.13-.21.17.15-.27-.18-.83-.31-1.13a.67.67,0,0,1-.08.33c0-.39-.37-.65-.64-1.07-.07.28-.47.76-.43,1.18a1.2,1.2,0,0,1-.11-.35c-.08.33-.34.61-.32.85a1.43,1.43,0,0,0-.15-.26c0,.44-.31.9-.1,1.34-.1-.1-.11-.18-.24-.28.14.3.06.84.47,1.17A2,2,0,0,0,95,85c.2.24.4.58.72.64Z"/><path class="cls-28" d="M96.28,81.8a7.29,7.29,0,0,1-.52,3.85,5.36,5.36,0,0,0,.52-3.85Z"/><path class="cls-28" d="M97,82.66c.06.85-.68,1-.72,1.16A1.06,1.06,0,0,0,97,82.66Z"/><path class="cls-28" d="M95.6,82.73c.21.86.69.88.74,1,0,0-.61-.23-.74-1Z"/><path class="cls-28" d="M95.24,83.48c.21.86.85,1,.89,1.14a1.46,1.46,0,0,1-.89-1.14Z"/><path class="cls-28" d="M97.27,83.56c0,.85-1.09.82-1.13,1,.12,0,1.25-.25,1.13-1Z"/><path class="cls-28" d="M97.35,84.36c-.28.61-1.31.53-1.35.74.13,0,1.32-.25,1.35-.74Z"/><path class="cls-28" d="M95,84.37c.34.83.83.77.92.88s-.67-.1-.92-.88Z"/><path class="cls-27" d="M92.6,88.2A2.75,2.75,0,0,0,93,85.69a.67.67,0,0,1-.16.25c.06-.39-.29-.73-.5-1a.49.49,0,0,1,0,.34c-.15-.43-.77-.67-1.12-.9a1.23,1.23,0,0,1,0,.38c-.18-.4-1.06-.49-1.5-.59a1.06,1.06,0,0,1,.3.35c-.44-.3-1-.12-1.71-.17.27.32.47,1.14,1,1.43a1.39,1.39,0,0,1-.48-.15c.31.35.39.86.67,1a2,2,0,0,0-.39,0c.5.34.73,1.06,1.38,1.2a1.68,1.68,0,0,0-.49,0c.44.09,1,.61,1.66.44a2.41,2.41,0,0,0-.31.2c.43,0,1,0,1.3-.27Z"/><path class="cls-28" d="M88.78,84.49c1.86.76,3.47,3.12,3.82,3.71a7.48,7.48,0,0,0-3.82-3.71Z"/><path class="cls-28" d="M90.34,84.36c1,.63.49,1.52.69,1.73a1.47,1.47,0,0,0-.69-1.73Z"/><path class="cls-28" d="M89.25,86c1.12.47,1.53,0,1.76,0a1.62,1.62,0,0,1-1.76,0Z"/><path class="cls-28" d="M89.78,87c1.12.47,1.75-.14,2,0a2,2,0,0,1-2,0Z"/><path class="cls-28" d="M91.51,84.84c1,.63,0,1.87.23,2.08.05-.16.73-1.59-.23-2.08Z"/><path class="cls-28" d="M92.47,85.4c.45.8-.48,1.88-.28,2.09.06-.17.79-1.66.28-2.09Z"/><path class="cls-28" d="M90.6,88a2,2,0,0,0,1.72-.29A1.54,1.54,0,0,1,90.6,88Z"/><path class="cls-27" d="M95.93,86.68a2,2,0,0,1,1.67-.84.59.59,0,0,0-.15.17c.26-.12.58,0,.84.12a.4.4,0,0,0-.23.09c.33,0,.63.38.87.58-.11,0-.17,0-.26.07.31,0,.57.63.74.91a.61.61,0,0,0-.31-.12c.31.23.31.67.49,1.14-.27-.12-.89-.07-1.2-.34a.93.93,0,0,0,.21.29c-.32-.14-.69-.08-.87-.23,0,.09.09.13.11.26-.35-.27-.9-.27-1.14-.7,0,.14.09.2.09.36-.17-.29-.65-.54-.68-1.06,0,.11,0,.18-.07.26a1.54,1.54,0,0,1-.11-1Z"/><path class="cls-28" d="M99.36,88.51a7.25,7.25,0,0,0-3.43-1.83,5.38,5.38,0,0,1,3.43,1.83Z"/><path class="cls-28" d="M99.11,87.39c-.66-.54-1.17,0-1.36-.1a1.11,1.11,0,0,1,1.36.1Z"/><path class="cls-28" d="M98.21,88.52c-.58-.68-.31-1.07-.42-1.22a1.23,1.23,0,0,0,.42,1.22Z"/><path class="cls-28" d="M97.39,88.37c-.57-.67-.29-1.25-.4-1.39a1.44,1.44,0,0,0,.4,1.39Z"/><path class="cls-28" d="M98.52,86.69c-.66-.55-1.31.4-1.5.31.1-.09.94-.88,1.5-.31Z"/><path class="cls-28" d="M97.91,86.15c-.66-.14-1.19.75-1.39.65.1-.07,1-.92,1.39-.65Z"/><path class="cls-28" d="M96.55,88a1.47,1.47,0,0,1-.18-1.26A1.14,1.14,0,0,0,96.55,88Z"/><path class="cls-28" d="M96,85.28c-2.33,4.42-7.16,6.63-8.78,6.73-.6.9,6.8-1.75,8.78-6.73Z"/><path class="cls-28" d="M96.79,86.85c-1.15-.26-1.71,0-2.07.44.23-.73,1-.78,2.07-.44Z"/><path class="cls-28" d="M92.11,87.36c.65,1,.75,1.71.39,2.2.64-.44.22-1.41-.39-2.2Z"/><path class="cls-28" d="M94.92,89.53c-.27-.9-.89-2.07-.86-1.47,0,.06-.13.16-.13.09,0-1.07.93.38,1,1.38Z"/></g></svg>