<svg xmlns="http://www.w3.org/2000/svg" viewBox="0 0 202.41 175.9"><defs><style>.cls-1{fill:#b6cbd8;}.cls-2{fill:#e8ebf0;}.cls-3{fill:#fdcc8c;}.cls-4{fill:#fbbb67;}.cls-5{fill:#f39644;}.cls-6{fill:#fedaa7;}.cls-7{fill:#fef0f0;}.cls-7,.cls-8{fill-rule:evenodd;}.cls-8{fill:#481413;}.cls-9{fill:#90562b;}.cls-10{fill:#6a4223;}</style></defs><g id="Layer_2" data-name="Layer 2"><path class="cls-1" d="M145,98.81a6.72,6.72,0,0,0,.07-1.55,13,13,0,0,0-.26-1.52C141,89,120.42,83.88,95.64,83.88c-25.12,0-45.89,5.28-49.27,12.15a3.65,3.65,0,0,0-.21,2.65c-.85,3,2.13,6.06,4.07,7.61,7.77,5.21,25.18,8.84,45.41,8.84,23.1,0,42.51-4.73,48.13-11.14h0c.15-.23.3-.46.43-.71a7.21,7.21,0,0,0,.83-3.9C145,99.2,145,99,145,98.81Z"/><path class="cls-2" d="M95.42,85.48c26.6,0,48.17,5.61,48.17,12.52S122,110.52,95.42,110.52,47.25,104.92,47.25,98,68.82,85.48,95.42,85.48Z"/><path class="cls-2" d="M95.42,113.43c-25.65,0-46.62-5.52-48.08-12.48a14.72,14.72,0,0,0,2.89,2.83c7.77,4.92,25.18,8.35,45.41,8.35,22,0,40.66-4,47.24-9.67C139,108.69,119.2,113.43,95.42,113.43Z"/><path class="cls-1" d="M125.94,95.65a7.69,7.69,0,0,0-.16-.94c-2.36-4.16-15.07-7.34-30.39-7.34-15.55,0-28.4,3.27-30.49,7.52-.91,1.84,1.11,3.83,2.38,4.8,4.82,3,15.59,5.16,28.11,5.16,14.28,0,26.3-2.76,29.77-6.51h0a3.74,3.74,0,0,0,.27-.42A4,4,0,0,0,125.94,95.65Z"/><path class="cls-2" d="M95.25,103.86c-16.46,0-29.8-3.26-29.8-7.28s13.34-7.28,29.8-7.28,29.8,3.26,29.8,7.28S111.71,103.86,95.25,103.86Z"/><path class="cls-3" d="M88.14,87.61c-3,1.9-6.24,6-5,9.73,1,2.92,3.6,3.09,6.24,3.55a53.51,53.51,0,0,0,10,.79c2.32,0,5.33-.07,6.82-2.22a4.47,4.47,0,0,0,.71-1.8c.87-4.61-2.88-9.24-6.87-11a11.65,11.65,0,0,0-3.32-.93A13.1,13.1,0,0,0,88.14,87.61Z"/><path class="cls-4" d="M85.43,89.93a4.74,4.74,0,0,0,1.06,2.87,9.79,9.79,0,0,0,4.62,2.76,34,34,0,0,0,11.8,1.77,9.27,9.27,0,0,0,4.19-.91,6.43,6.43,0,0,1-.12,1.24,4.47,4.47,0,0,1-.71,1.8c-1.49,2.15-4.5,2.18-6.82,2.22a53.51,53.51,0,0,1-10-.79c-2.64-.46-5.25-.63-6.24-3.55C82.3,94.74,83.57,92,85.43,89.93Z"/><path class="cls-5" d="M83.18,97.34a6.15,6.15,0,0,1-.24-1,19,19,0,0,0,4.3,1.53,52.68,52.68,0,0,0,15.83,1.39,8.58,8.58,0,0,0,3.77-1,4.07,4.07,0,0,1-.57,1.21c-1.49,2.15-4.5,2.18-6.82,2.22a53.51,53.51,0,0,1-10-.79C86.78,100.43,84.17,100.26,83.18,97.34Z"/><path class="cls-6" d="M103,94.91a7.67,7.67,0,0,1-8.11-6,1.72,1.72,0,0,1,0-1.12c.34-.7,1.31-.75,2.08-.62a13.11,13.11,0,0,1,6.73,3.32A4.55,4.55,0,0,1,105,92.22a2,2,0,0,1-.35,2.06A2.58,2.58,0,0,1,103,94.91Z"/><path class="cls-4" d="M89.8,89.87h0c.07.16-.15.39-.29.41a.4.4,0,0,1-.36-.13c0-.1,0-.2.12-.26S89.7,89.67,89.8,89.87Z"/><path class="cls-4" d="M93.33,86.67h0c.07.15-.14.38-.29.4a.41.41,0,0,1-.36-.13c0-.1,0-.19.12-.25S93.23,86.47,93.33,86.67Z"/><path class="cls-4" d="M92.3,90.85a.63.63,0,0,0,.62-.2.82.82,0,0,0,0-.76.38.38,0,0,0-.11-.16.3.3,0,0,0-.13,0,.7.7,0,0,0-.43.26,1.28,1.28,0,0,0-.21.46.46.46,0,0,0,0,.26A.39.39,0,0,0,92.3,90.85Z"/><path class="cls-4" d="M90.3,88.16l.43.19a.42.42,0,0,1,.14.09.29.29,0,0,1,0,.31.8.8,0,0,1-.22.23c-.44.37-.67.59-1.24.3a.28.28,0,0,1-.11-.08c-.06-.07,0-.18,0-.27a3.09,3.09,0,0,1,.34-.65.5.5,0,0,1,.15-.17A.61.61,0,0,1,90.3,88.16Z"/><path class="cls-5" d="M88.73,96.94h0c0,.17-.33.24-.46.19s-.25-.2-.24-.31.15-.14.24-.15S88.75,96.72,88.73,96.94Z"/><path class="cls-4" d="M101.44,96.15h0c0,.17-.33.25-.46.19s-.25-.19-.24-.31.15-.13.24-.15S101.46,95.93,101.44,96.15Z"/><path class="cls-5" d="M84.53,92.68h0c-.17,0-.24-.33-.19-.46s.2-.25.31-.24.14.15.15.24S84.75,92.7,84.53,92.68Z"/><path class="cls-5" d="M95.7,98.14h0c0,.17-.32.26-.46.21s-.25-.19-.24-.3.14-.15.23-.16S95.71,97.92,95.7,98.14Z"/><path class="cls-5" d="M89.83,97a.66.66,0,0,0,.42-.51c0-.26-.23-.46-.44-.62a.3.3,0,0,0-.18-.08.24.24,0,0,0-.11.06.65.65,0,0,0-.22.45,1.07,1.07,0,0,0,.07.5.28.28,0,0,0,.46.2Z"/><path class="cls-4" d="M100.18,96.17a.67.67,0,0,0,.07-.65c-.14-.23-.45-.26-.72-.28a.28.28,0,0,0-.18,0,.19.19,0,0,0-.07.11.65.65,0,0,0,.07.49,1.12,1.12,0,0,0,.34.38.34.34,0,0,0,.23.11C100,96.37,100.12,96.27,100.18,96.17Z"/><path class="cls-5" d="M84.75,93.53l.42.18a.46.46,0,0,1,.15.09.29.29,0,0,1,0,.31.69.69,0,0,1-.22.23c-.44.37-.66.59-1.24.3a.2.2,0,0,1-.1-.08c-.06-.07,0-.18,0-.27a2.65,2.65,0,0,1,.33-.65.52.52,0,0,1,.16-.17A.58.58,0,0,1,84.75,93.53Z"/><path class="cls-3" d="M114.65,88.19c3,1.91,6.24,6,5,9.74-1,2.92-3.6,3.08-6.24,3.54a52.68,52.68,0,0,1-10,.79c-2.32,0-5.33-.07-6.82-2.21a4.53,4.53,0,0,1-.71-1.8c-.87-4.62,2.88-9.24,6.87-11a12,12,0,0,1,3.32-.93A13.16,13.16,0,0,1,114.65,88.19Z"/><path class="cls-4" d="M117.36,90.51a4.72,4.72,0,0,1-1.07,2.88,9.83,9.83,0,0,1-4.61,2.75,33.79,33.79,0,0,1-11.8,1.77,9.37,9.37,0,0,1-4.19-.9,6.59,6.59,0,0,0,.12,1.24,4.53,4.53,0,0,0,.71,1.8c1.49,2.14,4.5,2.17,6.82,2.21a52.68,52.68,0,0,0,10-.79c2.64-.46,5.25-.62,6.24-3.54C120.49,95.32,119.22,92.58,117.36,90.51Z"/><path class="cls-5" d="M119.61,97.93a6.27,6.27,0,0,0,.24-1,18.21,18.21,0,0,1-4.3,1.53,52,52,0,0,1-15.83,1.39,8.32,8.32,0,0,1-3.77-1,4.25,4.25,0,0,0,.57,1.22c1.49,2.14,4.5,2.17,6.82,2.21a52.68,52.68,0,0,0,10-.79C116,101,118.62,100.85,119.61,97.93Z"/><path class="cls-6" d="M99.82,95.49a7.68,7.68,0,0,0,8.11-6,1.72,1.72,0,0,0,0-1.12c-.34-.7-1.31-.74-2.08-.61a13,13,0,0,0-6.73,3.32,4.47,4.47,0,0,0-1.29,1.76,2,2,0,0,0,.35,2.06A2.63,2.63,0,0,0,99.82,95.49Z"/><path class="cls-4" d="M113,90.45h0c-.07.16.15.38.29.4a.41.41,0,0,0,.36-.13c0-.1,0-.19-.12-.25S113.09,90.25,113,90.45Z"/><path class="cls-4" d="M109.46,87.25h0c-.07.16.14.38.28.41s.32,0,.37-.14,0-.19-.12-.25S109.56,87.05,109.46,87.25Z"/><path class="cls-4" d="M110.49,91.43a.66.66,0,0,1-.63-.2.85.85,0,0,1,0-.76.36.36,0,0,1,.11-.16.2.2,0,0,1,.13,0,.68.68,0,0,1,.43.25,1.33,1.33,0,0,1,.21.47.43.43,0,0,1,0,.25A.39.39,0,0,1,110.49,91.43Z"/><path class="cls-4" d="M112.49,88.75l-.43.19a.39.39,0,0,0-.14.08.29.29,0,0,0,0,.31.84.84,0,0,0,.22.24c.44.36.67.59,1.24.3l.11-.08a.32.32,0,0,0,0-.27,3.17,3.17,0,0,0-.34-.66.46.46,0,0,0-.15-.16A.54.54,0,0,0,112.49,88.75Z"/><path class="cls-5" d="M114.06,97.52h0c0,.17.33.24.46.19s.25-.19.24-.31-.15-.14-.24-.15S114,97.3,114.06,97.52Z"/><path class="cls-4" d="M101.35,96.74h0c0,.17.33.24.46.18s.25-.19.24-.3-.15-.14-.24-.15S101.33,96.52,101.35,96.74Z"/><path class="cls-5" d="M118.26,93.26h0c.17,0,.24-.33.19-.46s-.2-.25-.31-.23-.14.14-.15.23S118,93.28,118.26,93.26Z"/><path class="cls-5" d="M107.09,98.72h0c0,.17.32.26.46.21s.25-.18.24-.3-.14-.14-.23-.16S107.08,98.5,107.09,98.72Z"/><path class="cls-5" d="M113,97.57a.64.64,0,0,1-.42-.5c0-.27.23-.47.44-.63a.24.24,0,0,1,.18-.07.22.22,0,0,1,.11,0,.65.65,0,0,1,.22.45,1.21,1.21,0,0,1-.07.5.28.28,0,0,1-.46.2Z"/><path class="cls-4" d="M102.61,96.75a.64.64,0,0,1-.07-.65.85.85,0,0,1,.71-.27.24.24,0,0,1,.19,0,.26.26,0,0,1,.07.11.67.67,0,0,1-.07.5,1.23,1.23,0,0,1-.34.38.33.33,0,0,1-.23.1C102.76,97,102.67,96.85,102.61,96.75Z"/><path class="cls-5" d="M118,94.11l-.42.19a.34.34,0,0,0-.15.09.27.27,0,0,0,0,.3.72.72,0,0,0,.22.24c.44.36.66.59,1.24.3a.27.27,0,0,0,.1-.08.29.29,0,0,0,0-.27,3.13,3.13,0,0,0-.33-.66.61.61,0,0,0-.16-.16A.54.54,0,0,0,118,94.11Z"/><path class="cls-3" d="M79.43,89c-3,1.9-6.24,6-5,9.73,1,2.92,3.6,3.08,6.24,3.55a53.39,53.39,0,0,0,10,.78c2.32,0,5.34-.06,6.83-2.21a4.62,4.62,0,0,0,.71-1.8c.86-4.62-2.88-9.24-6.88-11.05a11.57,11.57,0,0,0-3.31-.92A13,13,0,0,0,79.43,89Z"/><path class="cls-4" d="M76.71,91.3a4.82,4.82,0,0,0,1.07,2.88,9.93,9.93,0,0,0,4.61,2.76A33.84,33.84,0,0,0,94.2,98.7a9.26,9.26,0,0,0,4.19-.9A8.67,8.67,0,0,1,98.27,99a4.62,4.62,0,0,1-.71,1.8c-1.49,2.15-4.51,2.18-6.83,2.21a53.39,53.39,0,0,1-10-.78c-2.64-.47-5.25-.63-6.24-3.55C73.59,96.11,74.85,93.38,76.71,91.3Z"/><path class="cls-5" d="M74.47,98.72a5.48,5.48,0,0,1-.24-1,18.32,18.32,0,0,0,4.3,1.52,52,52,0,0,0,15.82,1.39,8.4,8.4,0,0,0,3.77-1,3.92,3.92,0,0,1-.56,1.21c-1.49,2.15-4.51,2.18-6.83,2.21a53.39,53.39,0,0,1-10-.78C78.07,101.8,75.46,101.64,74.47,98.72Z"/><path class="cls-6" d="M94.26,96.28a7.67,7.67,0,0,1-8.11-6,1.71,1.71,0,0,1,0-1.12c.33-.7,1.31-.75,2.07-.62A13.14,13.14,0,0,1,95,91.84a4.52,4.52,0,0,1,1.28,1.76,2,2,0,0,1-.34,2.06A2.58,2.58,0,0,1,94.26,96.28Z"/><path class="cls-4" d="M81.08,91.24h0c.07.16-.15.38-.29.41s-.31,0-.36-.14,0-.19.12-.25S81,91,81.08,91.24Z"/><path class="cls-4" d="M84.61,88h0c.07.16-.15.38-.29.41a.38.38,0,0,1-.36-.14c0-.09,0-.19.12-.25S84.52,87.85,84.61,88Z"/><path class="cls-4" d="M83.59,92.22a.65.65,0,0,0,.62-.19.79.79,0,0,0,0-.76.2.2,0,0,0-.23-.18.65.65,0,0,0-.43.26,1.23,1.23,0,0,0-.22.46.36.36,0,0,0,0,.25A.34.34,0,0,0,83.59,92.22Z"/><path class="cls-4" d="M81.59,89.54l.42.19a.38.38,0,0,1,.15.09.27.27,0,0,1,0,.3.84.84,0,0,1-.22.24c-.45.36-.67.59-1.25.3a.2.2,0,0,1-.1-.08.29.29,0,0,1,0-.27,3,3,0,0,1,.34-.66.46.46,0,0,1,.15-.16A.54.54,0,0,1,81.59,89.54Z"/><path class="cls-5" d="M80,98.32h0c0,.17-.33.25-.46.19s-.25-.19-.23-.31.14-.13.24-.14S80,98.09,80,98.32Z"/><path class="cls-4" d="M92.72,97.53h0c0,.17-.33.24-.46.19s-.24-.2-.23-.31.14-.14.24-.15S92.75,97.31,92.72,97.53Z"/><path class="cls-5" d="M75.81,94.05h0c-.18,0-.25-.33-.19-.46s.19-.24.31-.23.13.14.14.24S76,94.08,75.81,94.05Z"/><path class="cls-5" d="M87,99.52h0c0,.17-.32.25-.45.2s-.25-.18-.24-.3.13-.14.23-.15S87,99.3,87,99.52Z"/><path class="cls-5" d="M81.12,98.36a.64.64,0,0,0,.41-.5c0-.26-.22-.47-.43-.62a.36.36,0,0,0-.18-.08.24.24,0,0,0-.11.06.62.62,0,0,0-.23.44,1.5,1.5,0,0,0,.07.51.34.34,0,0,0,.14.21A.35.35,0,0,0,81.12,98.36Z"/><path class="cls-4" d="M91.46,97.54a.62.62,0,0,0,.07-.64c-.13-.23-.44-.27-.71-.28a.31.31,0,0,0-.19,0,.2.2,0,0,0-.06.11.65.65,0,0,0,.06.49,1.37,1.37,0,0,0,.34.38.38.38,0,0,0,.23.11A.35.35,0,0,0,91.46,97.54Z"/><path class="cls-5" d="M76,94.9l.43.19a.42.42,0,0,1,.14.09.26.26,0,0,1,0,.3.84.84,0,0,1-.22.24c-.44.36-.67.59-1.24.3a.28.28,0,0,1-.11-.08.32.32,0,0,1,0-.27,3.44,3.44,0,0,1,.34-.66A.41.41,0,0,1,76,94.9Z"/><path class="cls-7" d="M74.69,87.41c-.45.12-1.23.93.45.88a15.43,15.43,0,0,1,2.59,1.55,5,5,0,0,1-2.51,1.26c-1.25,0-1.21.7.63.7,1.52,0,.27.86,1.42.89.59,0,.26-.51,1.91-.32.78.09,2.86-.82,2.86.5,0,1.16.19.68,1.79,1.29a9.22,9.22,0,0,0,3.54-.23c.61-.36,1.56.3,3-.21.44-.15,2.6-.49,2.6.09,0,1.66-1.5.94.63,1.28.68.11-.6.58,1.19.73.39,0,.54.66,1,1.24.12.16.27,1.89,1.88,1.39.28-.08,1.69-1.55.76-2-.56-.25-1.21-1.95,1.62-1.28,1.61.38.43,1.21,3.49,1.13a4.31,4.31,0,0,0,2.26.53c.51,0,4,2.09,3.78,1.62-.59-1.51-1-1.48-1.32-2.09-.67-1.47,2.83-.58,3.52-.78,1-.26,1.35,2.28,1.69,2.83.68,1.14,1-.35.7-1.31-.65-1.82,1.64-2.86,1.74-2.59.2.5,1.3,2.44,1.3.76,0-2.66.26-2.18,2.32-1.17,1.47.72,1.5,3.21,2.36,1.43s-2.25-2.9-.7-4.12,1-2.54-.8-1.79c-1.08.45-1-.16-2.44-.16-1.17,0-.7-.29-2.06-.78-2.18-.78,1.11-2-3.45-1.74-2.23.15-1-.85-3.38-.42a10,10,0,0,1-3.71-.19c-.87-.62.69-1.49-1.59-1.13-.64.1-1.87,1.38-1.57,1.58.86.55,3.23,1,1.08,2-1,.4.33.09-1.16.85s.23.51-1.85,1.71c-1.29.74-1,1.18-3.24.9-2.42-.29,2.24-1-3.65-1.73a27.2,27.2,0,0,1-5.17-.75c-2.23-.68,2.57-1.28,2.55-1.85,0-.15-3.1-1,.13-1.55a13.87,13.87,0,0,1,3.28-.48c1.44,0,4.52.46.84-.53-.6-.16-3.61-.65-3.64-.75s3.68-.71.94-.71c-1,0-4.64-.61-3,0,.61.21,0,1-1.16,1-.61,0-2.33.57-3.17.57a8.76,8.76,0,0,0-2.21.16c-2.7.43-.81-.76-2.78-.36-.91.19,2.34,2.21-1,1.91-.84-.08-2.41,1.24-2.59-.23-.13-1.12-1.42.46-1.68.53Z"/><path class="cls-7" d="M75.62,93c-.44.12-1.23.93.43.9a15,15,0,0,1,2.54,1.57,5,5,0,0,1-2.49,1.23c-1.23-.05-1.2.69.61.71,1.49,0,.25.86,1.39.91.58,0,.26-.51,1.88-.31.77.1,2.83-.78,2.82.54,0,1.16.17.68,1.74,1.31A8.93,8.93,0,0,0,88,99.65c.61-.35,1.54.32,3-.17.43-.15,2.57-.47,2.56.12,0,1.66-1.48.91.61,1.28.66.12-.6.58,1.16.74.38,0,.53.68,1,1.25.12.17.25,1.9,1.83,1.42.28-.08,1.69-1.53.77-2-.54-.26-1.16-2,1.62-1.26,1.58.4.41,1.21,3.42,1.17a4.29,4.29,0,0,0,2.22.55c.5,0,3.88,2.14,3.7,1.66-.56-1.51-1-1.49-1.27-2.11-.65-1.48,2.79-.54,3.48-.73.94-.26,1.3,2.29,1.63,2.85.65,1.14,1-.35.69-1.31-.61-1.83,1.66-2.84,1.75-2.57.19.51,1.25,2.46,1.27.77,0-2.65.28-2.17,2.3-1.13,1.43.73,1.44,3.22,2.3,1.45s-2.18-2.92-.64-4.13c.88-.69,1.12-1.35.89-1.71s-1.49.22-1.65-.09.67-.68.59-1.2-1-.44-1.57-1.18-.47-2-.69-2-.48,1.84-1,1.87-.59-.92-.89-.88c-.45.06-.27,2.23-.88,2.37-.27.07-.64-.26-.78-.59-.28-.69.87-1.38-2.6-1.18-2.2.12-.93-.86-3.32-.46-.61.1-3.18.11-3.65-.24-.85-.63.69-1.47-1.55-1.15-.64.1-1.87,1.37-1.57,1.57.84.56,3.17,1.09,1,2-1,.39.33.09-1.16.83-.41.21-.54.34-.59.45a1.17,1.17,0,0,0-.07.29s.29-1.5-.4-2.19a2.1,2.1,0,0,0-1.86-.3,2.93,2.93,0,0,0-1.53,1.14,6.17,6.17,0,0,0-1.33,2.9,1.46,1.46,0,0,0,.26-.6c.25-1.15-.83-2.67-1.43-2.55-.16,0-.32.17-.3.29.07.41,2.24.6,2.36.23S95.77,93.4,93.44,93c-1.78-.35-3.29-.08-3.31-.29s.77-.48,1.45-.58a13.63,13.63,0,0,1,3.23-.44c1.42,0,4.45.51.84-.52-.59-.17-3.55-.69-3.58-.79s3.64-.68.94-.71c-1,0-4.57-.65-3-.06.59.22-.06,1-1.16,1-.6,0-2.3.55-3.12.54a8.1,8.1,0,0,0-2.18.13c-2.67.4-.79-.77-2.74-.39-.89.17,2.28,2.23-1,1.9-.83-.09-2.39,1.21-2.55-.26C77.16,91.35,75.88,92.92,75.62,93Z"/><path class="cls-8" d="M98.07,85.33l.06.29.43,0Zm27.65,6.83-.06-.3-.43,0Zm-6.49-2.23.09-.09-.23-.07ZM119.09,91l.46-.45-.16,0Zm.66-.92.38.07,0-.1-.34-.15Zm1.71.87v-.15l-.12,0,0,.19Zm.44-.59.82.08-.23-.15Zm1.88,2.47-.07-.3-.22.22Zm-.43-.87.08-.29-.32,0,0,.25Zm-6.69.58-.06-.3-.43,0Zm-6.5-2.23.1-.09-.24-.07ZM110,91.36l.45-.45-.15,0Zm.65-.92.39.07V90.4l-.34-.14Zm1.71.87v-.16l-.12,0,0,.18Zm.44-.6.83.09-.23-.16Zm1.88,2.48-.07-.3-.21.22Zm-.42-.88.07-.29h-.31l0,.24Zm4.95,5.26,0-.29-.44,0Zm-6.49-2.23.09-.08-.23-.08Zm-.14,1.06.46-.45-.16,0Zm.66-.92.39.07v-.1l-.34-.14Zm1.71.88V96.2l-.12,0,0,.18Zm.44-.6.83.09-.24-.16Zm1.88,2.48-.07-.3-.22.22Zm-.42-.88.07-.29-.31,0,0,.26Zm-9-2.55,0-.29-.44,0Zm-6.49-2.23.09-.09-.23-.07Zm-.14,1.06.46-.45-.16,0Zm.65-.92.4.07v-.1l-.33-.15Zm1.72.87v-.15l-.12,0,0,.19ZM104,93l.82.08-.23-.15Zm1.87,2.47-.07-.3-.21.23Zm-.42-.87.07-.29-.31,0,0,.25Zm9.33,4.22.15-.25.42.13Zm6.85.21,0-.12.25,0Zm-.24,1-.27-.59.16,0ZM121.13,99l-.38-.07,0-.1.37,0Zm-1.91.21,0-.15h.13l0,.19Zm-.2-.71-.8-.22.27-.06Zm-2.63,1.66.18-.26.11.28Zm.71-.68,0-.29.3.08-.11.23Zm2.56-3.64.16-.26.42.14Zm6.86.2,0-.11h.24Zm-.25,1-.26-.58.16,0ZM126,96l-.39-.08,0-.09.36,0Zm-1.91.21,0-.16.12,0,0,.18Zm-.2-.71-.8-.22.27-.06Zm-2.63,1.65.17-.26.12.29Zm.7-.67,0-.3.3.09-.11.23Zm-.4.92.06.29.43,0Zm6.5,2.23-.1.09.24.07Zm.13-1.06-.46.45.16,0Zm-.66.92-.38-.07v.1l.34.15Zm-1.7-.88v.16l.12,0,0-.18Zm-.45.6-.82-.09.23.16Zm-1.87-2.48.07.3.21-.22Zm.42.88-.07.29.31,0,0-.25Zm-12.4,2.11,0,.3.44,0Zm6.49,2.23-.09.09.23.07Zm.14-1.06-.46.45.16,0Zm-.66.92-.38-.07v.11l.33.14Zm-1.71-.87v.16l.12,0,0-.18Zm-.44.6-.82-.09.23.16ZM113.47,99l.07.3.21-.22Zm.42.88-.07.29.31,0,0-.26ZM101.38,88l.06.29.43,0Zm6.49,2.23-.09.09.23.07Zm.14-1.06-.46.45.16,0Zm-.66.92L107,90v.1l.33.15Zm-1.71-.88v.17l.12,0,0-.19Zm-.44.6-.82-.08.23.15Zm-1.87-2.48.06.3.22-.22Zm.42.88-.08.29.32,0,0-.25Zm2.47-1.27.06.29.43,0Zm6.5,2.23-.1.09.24.07Zm.13-1.06-.46.45.16,0Zm-.65.91-.39-.07V89l.34.15Zm-1.71-.87v.16l.12,0,0-.19Zm-.44.6-.83-.08.23.15Zm-1.88-2.48.07.31.21-.23Zm.42.88-.07.29.31,0,0-.25Zm3.65.47.05.29.44,0Zm6.49,2.23-.09.09.23.07Zm.14-1.07-.46.46.16,0Zm-.65.92-.4-.07v.11l.33.14Zm-1.72-.87V89l.12,0,0-.18Zm-.44.6-.82-.08.22.15Zm-1.87-2.48.07.3.21-.22Zm.42.88-.07.29.31,0,0-.25Zm6.7,5.22.06.29.44,0Zm6.5,2.23-.1.08.24.08Zm.13-1.06-.45.45.16,0Zm-.65.91L126.9,95v.1l.34.16Zm-1.71-.87v.16l.12,0,0-.18Zm-.44.59-.82-.08.22.16Zm-1.88-2.47.07.3.21-.22Zm.43.88-.08.29.31,0,0-.25Zm-18.41,2.2.06.3.43,0Zm6.49,2.23-.09.09.24.07Zm.14-1.06-.46.45.16,0Zm-.66.92-.38-.07,0,.1.34.15Zm-1.7-.87v.15l.11,0,0-.19Zm-.45.59-.82-.08.23.15Zm-1.87-2.48.06.31.22-.22Zm.42.88-.08.29.32,0,0-.25Zm-8.7-5,.06.29.43,0Zm6.49,2.23-.09.08.23.08Zm.14-1.06-.46.45.16,0Zm-.66.91-.38-.07v.1l.33.16Zm-1.7-.87V92l.11,0,0-.18Zm-.45.59-.82-.08.23.16ZM100.9,90l.07.3.21-.22Zm.42.88-.07.29.31,0,0-.25Zm-1.39-1.06-.09.09.24.07Zm.14-1.06-.45.45.15,0Zm-.66.92L99,89.57v.1l.33.14Zm-1.7-.88v.17l.12,0,0-.18Zm-.45.6-.82-.09.23.16Zm2.76-4.7.07.31.21-.23Zm.42.88-.07.29.31,0,0-.25Z"/><path class="cls-8" d="M106.73,97.1l-.08-.26-.37,0ZM82.37,94.4l.08.25.37,0Zm5.79,1.19-.07.09.21,0Zm0-1-.33.45H88Zm-.45.89h-.34v.09l.31.09ZM86.14,95v.14h.11v-.17Zm-.31.58-.71,0,.22.11Zm-1.88-2,.1.26.15-.22Zm.46.73,0,.26.27,0-.05-.22ZM90.06,93l.08.26.37,0Zm5.79,1.2-.07.08.21,0Zm0-1-.34.45h.14Zm-.46.89-.34,0v.1l.3.09Zm-1.55-.57v.15H94v-.17Zm-.31.58-.72,0,.22.11Zm-1.88-2,.09.26.15-.22Zm.46.73,0,.26.26,0,0-.22Zm-4.83-4.06.08.25.38,0ZM93.07,90,93,90.1l.21,0Zm0-1-.33.46h.14Zm-.45.9-.34,0V90l.3.09Zm-1.56-.57v.14h.11v-.16Zm-.31.58L90,90l.22.11Zm-1.88-2,.1.25.15-.22Zm.46.72,0,.27.27,0,0-.21Zm8,1.17.08.25.38,0Zm5.79,1.19-.07.08.21,0Zm0-1-.34.45h.14Zm-.46.9-.33,0v.09l.3.09Zm-1.55-.57v.14h.1v-.16Zm-.31.58-.72,0,.22.11Zm-1.88-2,.09.26.16-.22Zm.46.73,0,.27.27,0,0-.21Zm-8.44-2.61-.1.24-.37-.07ZM85,87.83l.07.09-.21,0Zm.1-1,.29.48h-.14Zm.37.92.34,0,0,.09-.31.07Zm1.6-.42,0,.15H87v-.16Zm.26.61.7.1-.22.09Zm2-1.78-.12.25-.13-.24Zm-.53.68v.27l-.27,0,.07-.21Zm-1.77,3.53-.11.25-.36-.07Zm-5.88.65.06.1h-.21Zm.1-.95.29.48h-.14Zm.37.93.33,0v.09l-.31.06Zm1.6-.42,0,.14h-.1v-.17Zm.25.61.71.09-.22.09Zm2-1.78-.11.25-.13-.24Zm-.52.67v.27l-.27,0,.07-.22Zm.24-.86L85.25,89l-.37,0Zm-5.79-1.19.07-.08-.21,0Zm0,1,.33-.45h-.14Zm.45-.89h.34v-.09L80,88Zm1.56.56v-.14h-.11v.16Zm.31-.58.71,0L82.37,88Zm1.88,2-.1-.26-.15.22Zm-.46-.73,0-.27-.26,0,0,.22ZM93.63,86l-.08-.25-.38,0Zm-5.8-1.19.08-.09-.21,0Zm0,1,.34-.46H88Zm.46-.9.33,0V84.8l-.31-.09Zm1.55.57V85.3h-.1v.16Zm.31-.58.71,0-.21-.11Zm1.88,2L92,86.57l-.16.22Zm-.46-.72,0-.27-.27,0,0,.23Zm12,9.05-.08-.25-.38,0ZM97.82,94l.07-.09-.21,0Zm0,1,.34-.46H98Zm.46-.9.33,0V94l-.3-.09Zm1.55.57v-.14h-.1v.16Zm.31-.58.72,0-.22-.12ZM102,96l-.09-.26-.16.22Zm-.46-.73,0-.27-.27,0,.05.21Zm-2,1.42-.08-.25-.38,0Zm-5.8-1.18.08-.09-.21,0Zm0,1,.33-.45H94Zm.45-.89.34,0v-.1l-.31-.09Zm1.56.57V96h-.1v.17Zm.31-.58.71,0-.21-.11Zm1.88,2-.09-.26-.16.22Zm-.46-.72,0-.27-.27,0,0,.22Zm-3.16,0-.09-.25-.37,0ZM88.6,95.61l.06-.09-.2,0Zm0,1,.34-.45H88.8Zm.45-.89h.34V95.6l-.3-.09Zm1.56.56V96.1h-.1v.17Zm.31-.58.71,0-.21-.11Zm1.88,2-.09-.26-.16.22Zm-.46-.73,0-.26-.27,0,.05.22ZM86,93.09l-.09-.25-.37,0Zm-5.79-1.18.06-.09-.2,0Zm0,1,.34-.45h-.14Zm.45-.89L81,92v-.1l-.3-.09Zm1.56.57v-.15h-.1v.17Zm.31-.58.71,0-.21-.11Zm1.88,2-.09-.26-.16.22ZM84,93.2l0-.27-.27,0,.05.22ZM99.43,89l-.08-.25-.37,0Zm-5.79-1.19.07-.09-.21,0Zm0,1,.33-.46h-.14Zm.45-.9.34,0v-.1l-.3-.08Zm1.56.57v-.14l-.11,0v.17Zm.31-.58.71,0-.21-.11Zm1.88,2-.09-.26-.16.23Zm-.46-.72,0-.27-.26,0,0,.22Zm8,3.39-.08-.25-.38,0Zm-5.79-1.19.07-.08-.21,0Zm0,1,.34-.45h-.14Zm.45-.89.35,0v-.1l-.3-.09Zm1.56.57v-.15h-.1V92Zm.31-.58.71,0-.21-.11Zm1.88,2-.09-.26-.15.22Zm-.46-.72,0-.27-.26,0,0,.22Zm1.31.77.07-.09-.21,0Zm0,1,.34-.45h-.14Zm.46-.89h.33v-.09l-.3-.09Zm1.55.56v-.14h-.1V94Zm.31-.58.71,0-.21-.11Zm-1.82,4.49-.09-.25-.15.22Zm-.45-.72,0-.27-.28,0,0,.22Z"/><path class="cls-8" d="M118.76,89.06l.47.06.1-.31ZM89.13,91.27l-.47,0-.11.3Zm6.93-1.2-.26,0,.08.11Zm-.45.75h-.17l.41.56Zm-.34-.73-.39.1v.11h.43ZM93.48,91v-.21h-.13l0,.18Zm-1.16-.91-.27.13.9,0Zm-1.48,2.48-.19-.27-.13.31Zm.53-.86.06-.26-.34,0,0,.32Zm7.42,1.51-.47-.05-.11.31Zm6.93-1.2-.26,0,.08.11Zm-.45.74h-.17l.41.57Zm-.34-.73-.39.1v.11H105Zm-1.79.87v-.21l-.13,0,0,.17ZM102,92l-.27.13.9,0Zm-1.48,2.48-.19-.27-.12.31Zm.53-.86.06-.26-.33,0,0,.32Zm-5.85,4.59-.48,0-.11.31ZM102.1,97l-.26,0,.09.11Zm-.44.75h-.17l.4.56Zm-.35-.74-.38.1v.11h.43Zm-1.79.87v-.2h-.14v.17Zm-1.15-.9-.27.13.89,0Zm-1.49,2.48-.18-.28-.13.32Zm.53-.86.07-.27-.34,0,0,.32Zm10.44-1.47-.47,0-.11.31Zm6.93-1.2-.26,0,.08.11Zm-.44.75h-.18l.41.56ZM114,95.9l-.38.1v.11H114Zm-1.79.87v-.2h-.14v.17Zm-1.15-.9-.28.13.9,0Zm-1.49,2.48-.18-.28-.13.32Zm.53-.86.07-.27-.34,0,0,.32Zm-11.53,2.78.46-.08.13.3Zm-7-.84.26,0-.08.11Zm.49.73h.17l-.38.58Zm.3-.76.39.09v.11h-.43Zm1.83.78V100h.13l0,.18Zm1.11-1,.27.12-.89.1Zm1.61,2.41.17-.29.15.31Zm-.57-.83-.08-.27.33,0v.33Zm-2.5-4.55.47-.07.13.3Zm-7-.83.26,0-.07.12Zm.48.72h.18l-.38.58Zm.31-.75.39.08v.11h-.42Zm1.84.77V96h.13l0,.17Zm1.1-1,.28.11-.9.09Zm1.61,2.4.18-.29.13.31Zm-.57-.83-.08-.27.34,0v.33Zm-.06,1.32.47,0,.11-.31Zm-6.93,1.2.27,0-.09-.1Zm.45-.74h.17L84.85,98Zm.34.73.39-.1v-.11H85.4Zm1.79-.87v.2h.13l0-.17Zm1.16.91.27-.13-.9-.05Zm1.48-2.48.19.27.12-.31Zm-.53.85-.06.27.33,0,0-.32ZM102,102.24l.47.06.11-.31ZM95,103.45l.27,0-.09-.11Zm.45-.75h.18l-.42-.56Zm.35.74.38-.1v-.11h-.43Zm1.79-.87v.2l.13,0,0-.17Zm1.15.9.27-.13-.89,0Zm1.48-2.48.19.27.13-.31Zm-.53.86-.06.26.34,0,0-.33Zm15.07-10.49.47,0,.11-.31Zm-6.93,1.2.26,0-.08-.11Zm.45-.75h.17l-.41-.56Zm.34.74.38-.1v-.11h-.42Zm1.79-.87v.2h.14v-.18Zm1.16.9.27-.13-.9,0Zm1.48-2.48.19.27.12-.31Zm-.53.86-.07.26.34,0,0-.33Zm-2.78-1.55.47.06.11-.31Zm-6.93,1.21.26,0-.08-.11Zm.45-.75h.17l-.41-.56Zm.34.74.39-.11v-.11h-.43Zm1.79-.88v.21l.13,0,0-.17Zm1.15.91.28-.13-.9-.05ZM108,88.16l.2.27.12-.31Zm-.52.86-.06.26.33,0,0-.32Zm-4.33.12.47,0,.12-.31Zm-6.92,1.2.26,0-.09-.11Zm.44-.75h.17l-.4-.56Zm.35.74.38-.1v-.11H97Zm1.79-.87v.2H99v-.17Zm1.15.9.27-.13-.89,0Zm1.48-2.48.19.28.13-.32Zm-.52.86-.07.27.34,0,0-.32Zm-8.4,4.71.47.06.11-.31Zm-6.93,1.21.26,0-.08-.11Zm.45-.75h.17l-.41-.56Zm.34.74.39-.11v-.11h-.43Zm1.79-.88V94l.13,0v-.17Zm1.15.91.28-.13-.9,0Zm1.48-2.48.2.27.12-.31Zm-.52.86-.06.26.33,0,0-.32Zm19,5.65.46.05.11-.31Zm-6.94,1.2.27,0-.09-.11Zm.45-.74H103l-.42-.56Zm.35.73.38-.1v-.11h-.43ZM105,99v.2h.13l0-.17Zm1.16.91.27-.13-.9,0Zm1.48-2.49.2.28.11-.31Zm-.52.86-.07.27.34,0,0-.33Zm9.82-3.71.47.05.11-.31ZM110,95.8l.27,0-.09-.1Zm.45-.74h.17l-.41-.55Zm.34.73.39-.1v-.11h-.43Zm1.79-.87v.2h.13l0-.18Zm1.16.91.27-.13-.9,0Zm1.48-2.49.19.27.12-.31Zm-.53.86-.06.27.34,0,0-.33Zm1.73-.78.27,0-.09-.11Zm.45-.75H117l-.41-.56Zm.34.74.39-.1v-.12l-.43,0Zm1.79-.88v.21l.13,0,0-.17Zm1.16.91.27-.13-.9,0ZM117,87.81l.2.27.12-.31Zm-.52.86-.07.26.34,0,0-.32Z"/><ellipse class="cls-9" cx="107.2" cy="92.06" rx="0.75" ry="1.64" transform="translate(-18.47 27.46) rotate(-13.45)"/><path class="cls-10" d="M105.79,92a1.58,1.58,0,0,1,2.18-.52,1.62,1.62,0,0,1,.73,1.08,1.59,1.59,0,0,0-2.85-1.35,1.58,1.58,0,0,0-.21,1.09A2.1,2.1,0,0,1,105.79,92Z"/><ellipse class="cls-9" cx="90.62" cy="91.89" rx="0.75" ry="1.64" transform="translate(-18.89 23.59) rotate(-13.45)"/><path class="cls-10" d="M89.2,91.85a1.58,1.58,0,0,1,2.91.56,1.58,1.58,0,0,0-2.84-1.35,1.54,1.54,0,0,0-.21,1.1A1.23,1.23,0,0,1,89.2,91.85Z"/><path class="cls-9" d="M102.5,91.2a1.64,1.64,0,0,1-.76-3.18l.1,0a1.64,1.64,0,0,1,.76,3.18A.38.38,0,0,1,102.5,91.2Z"/><path class="cls-10" d="M100.75,89.56a1.58,1.58,0,0,1,2.18-.52,1.55,1.55,0,0,1,.73,1.08,1.56,1.56,0,0,0-.66-1.87,1.58,1.58,0,0,0-2.18.52,1.53,1.53,0,0,0-.21,1.09A1.35,1.35,0,0,1,100.75,89.56Z"/><ellipse class="cls-9" cx="97.37" cy="93.7" rx="0.75" ry="1.64" transform="translate(-19.12 25.22) rotate(-13.45)"/><path class="cls-10" d="M96,93.67a1.58,1.58,0,0,1,2.18-.52,1.54,1.54,0,0,1,.73,1.08A1.58,1.58,0,0,0,96,92.87a1.56,1.56,0,0,0-.21,1.1A1.35,1.35,0,0,1,96,93.67Z"/><ellipse class="cls-9" cx="102.56" cy="100.59" rx="0.75" ry="1.64" transform="translate(-20.58 26.61) rotate(-13.45)"/><path class="cls-10" d="M101.14,100.56a1.58,1.58,0,0,1,2.91.56,1.58,1.58,0,0,0-2.84-1.36,1.62,1.62,0,0,0-.22,1.1A2.1,2.1,0,0,1,101.14,100.56Z"/><ellipse class="cls-9" cx="108.22" cy="102.19" rx="0.75" ry="1.64" transform="translate(-20.8 27.97) rotate(-13.45)"/><path class="cls-10" d="M106.81,102.16a1.58,1.58,0,0,1,2.91.56,1.59,1.59,0,1,0-3.06-.26A1.68,1.68,0,0,1,106.81,102.16Z"/><ellipse class="cls-9" cx="111.21" cy="98.36" rx="0.75" ry="1.64" transform="translate(-19.83 28.56) rotate(-13.45)"/><path class="cls-10" d="M109.79,98.32A1.58,1.58,0,0,1,112,97.8a1.6,1.6,0,0,1,.74,1.08,1.59,1.59,0,1,0-3.06-.26A2,2,0,0,1,109.79,98.32Z"/><ellipse class="cls-9" cx="87.87" cy="101.47" rx="0.75" ry="1.64" transform="translate(-21.19 23.22) rotate(-13.45)"/><path class="cls-10" d="M86.45,101.44a1.58,1.58,0,0,1,2.18-.52,1.54,1.54,0,0,1,.73,1.08,1.59,1.59,0,0,0-.67-1.88,1.58,1.58,0,0,0-2.17.52,1.62,1.62,0,0,0-.22,1.1A2.1,2.1,0,0,1,86.45,101.44Z"/><path class="cls-9" d="M84.43,96.72a1.64,1.64,0,0,1-.76-3.18l.1,0a1.64,1.64,0,0,1,.76,3.18Z"/><path class="cls-10" d="M82.68,95.09a1.59,1.59,0,0,1,2.18-.53,1.55,1.55,0,0,1,.73,1.09,1.58,1.58,0,0,0-2.84-1.36,1.54,1.54,0,0,0-.21,1.1A1.17,1.17,0,0,1,82.68,95.09Z"/></g></svg>