<svg xmlns="http://www.w3.org/2000/svg" viewBox="0 0 202.41 175.9"><defs><style>.cls-1{isolation:isolate;}.cls-2{fill:#b6cbd8;}.cls-3{fill:#e8ebf0;}.cls-4{fill:#ad2c2a;}.cls-5{fill:#d44d38;}.cls-6{fill:#e94f36;mix-blend-mode:screen;}</style></defs><g class="cls-1"><g id="Layer_2" data-name="Layer 2"><path class="cls-2" d="M160.12,93.33a5.76,5.76,0,0,0,.07-1.55c-.05-.51-.15-1-.25-1.52-3.82-6.73-24.36-11.86-49.13-11.86-25.12,0-45.89,5.28-49.28,12.15a3.65,3.65,0,0,0-.21,2.65c-.85,3,2.14,6.06,4.07,7.61,7.78,5.21,25.19,8.83,45.42,8.83,23.09,0,42.51-4.72,48.12-11.13h0a6.46,6.46,0,0,0,.44-.71,7.21,7.21,0,0,0,.82-3.9C160.17,93.72,160.15,93.52,160.12,93.33Z"/><path class="cls-3" d="M110.59,80c26.6,0,48.17,5.61,48.17,12.52S137.19,105,110.59,105s-48.17-5.6-48.17-12.52S84,80,110.59,80Z"/><path class="cls-3" d="M110.59,107.94c-25.66,0-46.63-5.51-48.09-12.47a15.3,15.3,0,0,0,2.89,2.83c7.78,4.92,25.19,8.35,45.42,8.35,22,0,40.66-4.05,47.23-9.67C154.11,103.21,134.36,107.94,110.59,107.94Z"/><path class="cls-2" d="M141.1,90.17c0-.31-.09-.63-.15-.94-2.36-4.16-15.07-7.34-30.4-7.34-15.54,0-28.39,3.27-30.49,7.52-.9,1.84,1.11,3.83,2.39,4.8,4.81,3,15.58,5.16,28.1,5.16,14.29,0,26.3-2.76,29.78-6.51h0a3.74,3.74,0,0,0,.27-.42A4,4,0,0,0,141.1,90.17Z"/><path class="cls-3" d="M110.41,98.38c-16.46,0-29.8-3.26-29.8-7.28s13.34-7.28,29.8-7.28,29.81,3.26,29.81,7.28S126.87,98.38,110.41,98.38Z"/><path class="cls-4" d="M129.3,89.17A7.26,7.26,0,0,0,126,83a7.91,7.91,0,0,0-3.13-1c-2.47-.13-5-.4-7.42-.55s-4.92-.16-7.38-.18c-4.71,0-9.46-.28-14.15.16a33.26,33.26,0,0,0-6.48,1.24,12.93,12.93,0,0,0-2.67,1.11,9.52,9.52,0,0,0-3.06,2.56,6.55,6.55,0,0,0-.84,5.79c.79,3.13,3.86,4.78,6.85,5.24a35.73,35.73,0,0,0,4.74.21c2,0,3.89,0,5.83,0,5.06,0,10.12.15,15.17.08,2.66,0,5.31-.21,8-.21a8.33,8.33,0,0,0,7.37-5.27A8.89,8.89,0,0,0,129.3,89.17Z"/><path class="cls-5" d="M125.12,95a5.48,5.48,0,0,1-2.78,1.21c-1.24.11-2.49.13-3.73.23-2.55.21-5.1.35-7.65.49-5.06.26-10.16.11-15.23,0a27.53,27.53,0,0,1-9.36-1.38,6.58,6.58,0,0,1-3.75-3.14,4.64,4.64,0,0,0,2.33.68c.11,0,.3-.24.12-.27a4.3,4.3,0,0,1-1.78-1c-.35-.28-.66-.65-1-.93,1.06-.48,2.21-.57,3.29-1,.11,0,.41-.39.13-.42a6.92,6.92,0,0,0-3.32.71,10.1,10.1,0,0,1,.85-1.83A19.13,19.13,0,0,1,85,86.31c.07-.09,0-.13-.09-.08a9.2,9.2,0,0,0-2.25,2,7.52,7.52,0,0,0-.89,1.65,4.53,4.53,0,0,1-.06-.5,6.59,6.59,0,0,1,1.41-3.32c1.32-1.67,3.28-2.25,5.26-2.78,4.4-1.19,9-1.16,13.57-1.16,5.16,0,10.29-.12,15.44.24,1.18.08,2.36.17,3.53.29a13.27,13.27,0,0,1,4.51,1.15c1.12.67,1.47,2,2,3.16a6.41,6.41,0,0,1-1.19,7A10.67,10.67,0,0,1,125.12,95Z"/><path class="cls-4" d="M96,82.08a18.57,18.57,0,0,0-2,2.62,17.56,17.56,0,0,0-2.47,8c.68-1.39,1.38-2.76,2.12-4.12a34.69,34.69,0,0,1,2.57-4.2c.62-.84,1.27-1.64,2-2.42C97.5,82,96.77,82,96,82.08Z"/><path class="cls-4" d="M108.63,82H107a18.43,18.43,0,0,0-2.09,2.24,27.94,27.94,0,0,0-2.64,4,8.22,8.22,0,0,0-1.1,3.11,8.08,8.08,0,0,1,.65-1c.45-.58.93-1.13,1.43-1.67.69-.76,1.43-1.48,2.13-2.24.42-.5.86-1,1.31-1.45l0,0c1-1,2-2,3-3Z"/><path class="cls-4" d="M119.45,82.3h0c-.77.75-1.48,1.56-2.14,2.32a33.83,33.83,0,0,0-2.34,3.12A14.4,14.4,0,0,0,113,91.29c-.06.22.23.16.32.06l.11-.13a.22.22,0,0,0,.23-.11,5.63,5.63,0,0,1,1-1.19c.4-.45.8-.89,1.21-1.33l.51-.55A24.85,24.85,0,0,1,118.17,86a36.48,36.48,0,0,1,3.53-3.17A10,10,0,0,0,119.45,82.3Z"/><path class="cls-6" d="M111.73,83.41a37.48,37.48,0,0,0-7.49-.21c-2.58.07-5.16,0-7.73.12a31.19,31.19,0,0,0-7,.92,15,15,0,0,0-5.79,3.5h0c-.22.24-.31.62,0,.61a6.31,6.31,0,0,0,2.51-1,11.33,11.33,0,0,1,3.06-1.06,44.87,44.87,0,0,1,6.74-.67c2.55-.11,5-.3,7.57-.6s5.22-.33,7.79-.73C111.81,84.29,112.33,83.51,111.73,83.41Z"/><path class="cls-6" d="M116.77,83.24a1,1,0,0,0-1.25-.09h-.06a1,1,0,0,0-.75.43c-.13.19-.25.53,0,.72a1.17,1.17,0,0,0,.26.17.51.51,0,0,0,.42.13,2.48,2.48,0,0,0,.45.05,1.12,1.12,0,0,0,.92-.52C116.88,83.89,117,83.48,116.77,83.24Z"/><path class="cls-4" d="M143.23,93a6.71,6.71,0,0,0-2.52-5.94,7.17,7.17,0,0,0-2.79-1.21c-2.27-.33-4.52-.79-6.78-1.14s-4.51-.57-6.77-.8a129.28,129.28,0,0,0-13-1.07,30.06,30.06,0,0,0-6.06.58,11.38,11.38,0,0,0-2.56.79,8.9,8.9,0,0,0-3,2.09,6.08,6.08,0,0,0-1.26,5.25c.45,3,3.13,4.74,5.85,5.41a31.47,31.47,0,0,0,4.34.6c1.78.19,3.58.31,5.37.48,4.64.45,9.29,1,13.94,1.38,2.44.2,4.9.26,7.34.49a7.7,7.7,0,0,0,7.24-4.21A8.39,8.39,0,0,0,143.23,93Z"/><path class="cls-5" d="M138.88,98a5.12,5.12,0,0,1-2.67.86c-1.14,0-2.3-.08-3.44-.1-2.36,0-4.73-.12-7.09-.21-4.67-.2-9.35-.78-14-1.27a25.42,25.42,0,0,1-8.5-2.07A6.08,6.08,0,0,1,100,92a4.21,4.21,0,0,0,2.09.82c.1,0,.3-.19.14-.24a3.78,3.78,0,0,1-1.56-1.06c-.3-.29-.55-.65-.85-.94,1-.35,2.08-.34,3.12-.63.1,0,.41-.32.15-.37A6.38,6.38,0,0,0,100,90a8.92,8.92,0,0,1,.94-1.61,16.57,16.57,0,0,1,1.85-1.8c.07-.07,0-.12-.08-.08a8.47,8.47,0,0,0-2.24,1.66,6.88,6.88,0,0,0-1,1.43c0-.15,0-.31,0-.46a6.15,6.15,0,0,1,1.58-2.94c1.36-1.41,3.21-1.78,5.08-2.1,4.15-.71,8.42-.29,12.58.11,4.75.44,9.47.77,14.18,1.54,1.08.18,2.15.36,3.23.57a12.28,12.28,0,0,1,4,1.45c1,.71,1.18,1.93,1.58,3.08a5.92,5.92,0,0,1-1.7,6.33A10,10,0,0,1,138.88,98Z"/><path class="cls-4" d="M113.24,83.61a17.35,17.35,0,0,0-2,2.25,16.23,16.23,0,0,0-3,7.17c.75-1.21,1.51-2.41,2.31-3.6a33.13,33.13,0,0,1,2.72-3.64c.64-.72,1.32-1.4,2-2.06C114.59,83.68,113.92,83.64,113.24,83.61Z"/><path class="cls-4" d="M124.83,84.65l-1.51-.13a16.4,16.4,0,0,0-2.12,1.87,27.1,27.1,0,0,0-2.77,3.46,7.47,7.47,0,0,0-1.27,2.76,5.94,5.94,0,0,1,.67-.83c.47-.49,1-1,1.46-1.41.71-.64,1.45-1.24,2.16-1.87q.64-.65,1.32-1.23l.06,0c1-.87,2-1.71,3-2.5Z"/><path class="cls-4" d="M134.75,85.84h0c-.77.63-1.5,1.3-2.17,2a30.67,30.67,0,0,0-2.42,2.67,13.15,13.15,0,0,0-2.08,3.1c-.08.2.19.17.28.08l.12-.11a.2.2,0,0,0,.22-.08,5.34,5.34,0,0,1,1.06-1L131,91.31l.52-.46a22.6,22.6,0,0,1,1.78-1.75,33,33,0,0,1,3.52-2.61A8.75,8.75,0,0,0,134.75,85.84Z"/><path class="cls-6" d="M128.73,86.84a58.89,58.89,0,0,0-7.25-1c-2.62-.32-5.26-.52-7.9-.6-4-.13-8.93-.25-11.58,3.3-.21.29.09.51.37.38a14.37,14.37,0,0,1,4.59-1.3,51.29,51.29,0,0,1,6.2,0c2.51.09,5,.1,7.53.11s5.09.15,7.61,0C128.58,87.57,129.27,87,128.73,86.84Z"/></g></g></svg>